<svg width="40" height="37" viewBox="0 0 40 37" fill="none" xmlns="http://www.w3.org/2000/svg">
<path fill-rule="evenodd" clip-rule="evenodd" d="M18.2911 0.811215C17.1748 1.13746 16.2062 2.50081 16.2062 3.74628C16.2062 5.01295 17.2315 6.44173 18.2967 6.65983C19.2787 6.86084 18.0197 6.95311 14.7401 6.92054L11.3619 6.88707L9.03175 5.50995C7.75015 4.75254 6.54981 4.03995 6.36429 3.92638L6.02703 3.71994V4.98682V6.25369L8.00949 7.79544L9.99185 9.3372L12.026 9.36845L14.0601 9.39971L14.0922 13.7682L14.1243 18.1368H19.5176H24.9109L24.943 13.7682L24.9751 9.39971L27.0092 9.36845L29.0433 9.3372L31.0257 7.79544L33.0081 6.25369V4.99918V3.74467L31.9963 4.33403C31.4399 4.65826 30.2395 5.36532 29.3289 5.90523L27.6732 6.88707L24.2951 6.92054C21.0155 6.95311 19.7564 6.86084 20.7384 6.65983C21.325 6.53973 22.4837 5.4408 22.6804 4.81797C23.5026 2.21528 21.074 -0.00167388 18.2911 0.811215ZM3.32892 4.37444V5.0026H4.00344H4.67797V4.37444V3.74628H4.00344H3.32892V4.37444ZM34.3572 4.37444V5.0026H35.0317H35.7062V4.37444V3.74628H35.0317H34.3572V4.37444ZM0.630805 6.88707V7.51523H1.30533H1.97986V6.88707V6.25891H1.30533H0.630805V6.88707ZM3.32892 6.88707V7.51523H4.00344H4.67797V6.88707V6.25891H4.00344H3.32892V6.88707ZM34.3572 6.88707V7.51523H35.0317H35.7062V6.88707V6.25891H35.0317H34.3572V6.88707ZM37.0553 6.88707V7.51523H37.7298H38.4044V6.88707V6.25891H37.7298H37.0553V6.88707ZM20.229 8.73718L20.2658 9.33107L20.9035 9.36534L21.5412 9.39971V10.0279V10.656L20.2228 10.6884L18.9044 10.7209V11.274V11.8272L20.011 11.8766C21.5453 11.9448 21.5412 11.9397 21.5412 13.7833C21.5412 15.4347 21.4866 15.5644 20.7431 15.6814C20.2665 15.7564 20.2655 15.7576 20.2288 16.3471L20.1921 16.9376H19.5176H18.8431L18.8062 16.3437L18.7693 15.7499L18.1317 15.7156L17.494 15.6813V15.0531V14.425L18.8124 14.3925L20.1308 14.3601V13.8069V13.2537L19.0241 13.2043C17.4899 13.1361 17.494 13.1412 17.494 11.2977C17.494 9.64404 17.548 9.5166 18.2982 9.3985L18.7817 9.32252V8.7805C18.7817 8.10078 18.8198 8.06852 19.5742 8.10962L20.1921 8.14339L20.229 8.73718ZM0.630805 9.39971V10.0279H1.30533H1.97986V9.39971V8.77155H1.30533H0.630805V9.39971ZM3.32892 9.39971V10.0279H4.00344H4.67797V9.39971V8.77155H4.00344H3.32892V9.39971ZM6.02703 9.39971V10.0279H6.70155H7.37608V9.39971V8.77155H6.70155H6.02703V9.39971ZM31.6591 9.39971V10.0279H32.3336H33.0081V9.39971V8.77155H32.3336H31.6591V9.39971ZM34.3572 9.39971V10.0279H35.0317H35.7062V9.39971V8.77155H35.0317H34.3572V9.39971ZM37.0553 9.39971V10.0279H37.7298H38.4044V9.39971V8.77155H37.7298H37.0553V9.39971ZM0.630805 11.9123V12.5405H1.30533H1.97986V11.9123V11.2842H1.30533H0.630805V11.9123ZM3.32892 11.9123V12.5405H4.00344H4.67797V11.9123V11.2842H4.00344H3.32892V11.9123ZM6.02703 11.9123V12.5405H6.70155H7.37608V11.9123V11.2842H6.70155H6.02703V11.9123ZM8.72514 11.9123V12.5405H9.39966H10.0742V11.9123V11.2842H9.39966H8.72514V11.9123ZM11.4232 11.9123V12.5405H12.0978H12.7723V11.9123V11.2842H12.0978H11.4232V11.9123ZM26.2629 11.9123V12.5405H26.9374H27.6119V11.9123V11.2842H26.9374H26.2629V11.9123ZM28.961 11.9123V12.5405H29.6355H30.31V11.9123V11.2842H29.6355H28.961V11.9123ZM31.6591 11.9123V12.5405H32.3336H33.0081V11.9123V11.2842H32.3336H31.6591V11.9123ZM34.3572 11.9123V12.5405H35.0317H35.7062V11.9123V11.2842H35.0317H34.3572V11.9123ZM37.0553 11.9123V12.5405H37.7298H38.4044V11.9123V11.2842H37.7298H37.0553V11.9123ZM3.32892 14.425V15.0531H4.00344H4.67797V14.425V13.7968H4.00344H3.32892V14.425ZM6.02703 14.425V15.0531H6.70155H7.37608V14.425V13.7968H6.70155H6.02703V14.425ZM8.72514 14.425V15.0531H9.39966H10.0742V14.425V13.7968H9.39966H8.72514V14.425ZM11.4232 14.425V15.0531H12.0978H12.7723V14.425V13.7968H12.0978H11.4232V14.425ZM26.2629 14.425V15.0531H26.9374H27.6119V14.425V13.7968H26.9374H26.2629V14.425ZM28.961 14.425V15.0531H29.6355H30.31V14.425V13.7968H29.6355H28.961V14.425ZM31.6591 14.425V15.0531H32.3336H33.0081V14.425V13.7968H32.3336H31.6591V14.425ZM34.3572 14.425V15.0531H35.0317H35.7062V14.425V13.7968H35.0317H34.3572V14.425ZM8.72514 16.9376V17.5658H9.39966H10.0742V16.9376V16.3095H9.39966H8.72514V16.9376ZM11.4232 16.9376V17.5658H12.0978H12.7723V16.9376V16.3095H12.0978H11.4232V16.9376ZM26.2629 16.9376V17.5658H26.9374H27.6119V16.9376V16.3095H26.9374H26.2629V16.9376ZM28.961 16.9376V17.5658H29.6355H30.31V16.9376V16.3095H29.6355H28.961V16.9376ZM4.80057 22.1686C2.03652 22.9762 2.1261 27.2814 4.92328 28.0654L5.4751 28.2201L4.7669 28.373C1.50985 29.0764 0.0175781 31.134 0.0175781 34.9222V36.9815H6.02703H12.0365V34.9222C12.0365 31.1281 10.5493 29.0774 7.28715 28.373L6.57895 28.2201L7.13077 28.0654C7.86153 27.8606 8.98254 26.8317 9.18986 26.1754C10.012 23.5727 7.5834 21.3557 4.80057 22.1686ZM18.2911 22.1686C15.5271 22.9762 15.6166 27.2814 18.4138 28.0654L18.9657 28.2201L18.2575 28.373C15.0004 29.0764 13.5081 31.134 13.5081 34.9222V36.9815H19.5176H25.527V34.9222C25.527 31.1281 24.0398 29.0774 20.7777 28.373L20.0695 28.2201L20.6213 28.0654C21.3521 27.8606 22.4731 26.8317 22.6804 26.1754C23.5026 23.5727 21.074 21.3557 18.2911 22.1686ZM31.7817 22.1686C29.0176 22.9762 29.1072 27.2814 31.9044 28.0654L32.4562 28.2201L31.748 28.373C28.491 29.0764 26.9987 31.134 26.9987 34.9222V36.9815H33.0081H39.0176V34.9222C39.0176 31.1281 37.5304 29.0774 34.2683 28.373L33.5601 28.2201L34.1119 28.0654C34.8426 27.8606 35.9636 26.8317 36.171 26.1754C36.9931 23.5727 34.5645 21.3557 31.7817 22.1686ZM12.1591 23.8474V24.4183H12.7723H13.3855V23.8474V23.2763H12.7723H12.1591V23.8474ZM25.6496 23.8474V24.4183H26.2629H26.8761V23.8474V23.2763H26.2629H25.6496V23.8474ZM10.81 25.1037V25.6747H11.4232H12.0365V25.1037V24.5326H11.4232H10.81V25.1037ZM13.5081 25.1037V25.6747H14.1214H14.7346V25.1037V24.5326H14.1214H13.5081V25.1037ZM24.3006 25.1037V25.6747H24.9138H25.527V25.1037V24.5326H24.9138H24.3006V25.1037ZM26.9987 25.1037V25.6747H27.6119H28.2251V25.1037V24.5326H27.6119H26.9987V25.1037ZM12.1591 26.36V26.931H12.7723H13.3855V26.36V25.7889H12.7723H12.1591V26.36ZM25.6496 26.36V26.931H26.2629H26.8761V26.36V25.7889H26.2629H25.6496V26.36Z" fill="url(#paint0_linear_396_2263)"/>
<defs>
<linearGradient id="paint0_linear_396_2263" x1="39.0176" y1="18.8111" x2="0.0175781" y2="18.8111" gradientUnits="userSpaceOnUse">
<stop stop-color="#09D1C7"/>
<stop offset="1" stop-color="#15919B"/>
</linearGradient>
</defs>
</svg>
