<svg width="34" height="33" viewBox="0 0 34 33" fill="none" xmlns="http://www.w3.org/2000/svg">
<path fill-rule="evenodd" clip-rule="evenodd" d="M14.7281 0.905238C3.49678 2.06448 -3.25698 13.8368 1.63411 23.729C7.62158 35.8389 25.4002 35.8389 31.3878 23.729C36.9479 12.4833 27.5321 -0.416394 14.7281 0.905238ZM16.1356 4.26897V4.90643H16.464H16.7924V4.25716V3.60797L17.5665 3.67168C19.0733 3.79582 20.8667 4.26474 22.2582 4.89859C22.9997 5.2364 22.9654 5.14626 22.5946 5.78408L22.2977 6.29467L22.5242 6.46367C22.8633 6.71671 22.9379 6.68218 23.2319 6.13608C23.5642 5.51879 23.4555 5.50434 24.561 6.31265C25.6387 7.1006 26.7669 8.22443 27.4644 9.20482C28.0042 9.96379 28.0078 9.93647 27.3251 10.2703C26.8834 10.4863 26.8488 10.5861 27.1036 10.9078L27.2766 11.1263L27.8108 10.8297C28.1046 10.6666 28.3592 10.5478 28.3768 10.5657C28.9968 11.1984 30.0137 14.6402 30.0211 16.1306L30.0227 16.4721H29.3659H28.7091V16.7909V17.1096H29.3794H30.0497L29.9866 17.7684C29.8966 18.7082 29.5964 20.0695 29.2801 20.972C29.0176 21.7213 28.436 23.0291 28.3654 23.0291C28.3464 23.0291 28.0936 22.899 27.8034 22.7401C27.2901 22.459 27.2723 22.4559 27.1411 22.6262C26.8068 23.0607 26.8129 23.0775 27.4002 23.35C27.7072 23.4924 27.9584 23.6255 27.9584 23.6457C27.9584 24.0857 25.4465 26.7001 24.2836 27.4705C23.4148 28.046 23.5417 28.0538 23.2222 27.4049C22.9415 26.8349 22.9241 26.829 22.4765 27.1535C22.301 27.2807 22.3045 27.2987 22.6 27.8069C22.7671 28.0943 22.8905 28.342 22.8742 28.3574C22.2531 28.9431 18.6576 29.9416 17.1443 29.9486L16.7924 29.9503V29.3128V28.6753H16.464H16.1356V29.3128V29.9503L15.8307 29.9498C14.4877 29.9474 12.2161 29.3811 10.6229 28.6516C9.93544 28.3367 9.96159 28.4147 10.3321 27.7863L10.6276 27.2851L10.4024 27.1171C10.071 26.8697 9.96812 26.9034 9.74561 27.332C9.40155 27.9946 9.42978 27.9912 8.64778 27.4672C7.62557 26.7823 6.44994 25.6705 5.65704 24.639C4.83655 23.5716 4.85126 23.6813 5.48592 23.3594C6.0485 23.0741 6.08408 23.0017 5.82345 22.6726L5.64923 22.4528L5.12315 22.7409C4.47687 23.0949 4.56348 23.1099 4.28777 22.5965C3.62597 21.3644 3.09071 19.4728 2.94773 17.861L2.88101 17.1096H3.54998H4.21896V16.7909V16.4721H3.56215C2.79821 16.4721 2.83053 16.5452 3.00329 15.2081C3.18967 13.765 4.07933 11.016 4.48849 10.619C4.54677 10.5623 4.77028 10.637 5.11525 10.8287L5.65132 11.1263L5.82445 10.9078C6.08454 10.5795 6.04468 10.4858 5.53921 10.2372C4.90972 9.92766 4.91036 9.93533 5.45523 9.17556C6.34599 7.93358 9.08826 5.50566 9.39347 5.68884C9.43949 5.71642 9.58257 5.94092 9.71148 6.18789C9.96758 6.67848 10.0642 6.71715 10.4024 6.46472L10.6276 6.2967L10.3321 5.79536C9.96313 5.16952 9.95332 5.22336 10.4822 4.96476C11.9536 4.24509 14.1664 3.6885 15.7368 3.64304L16.1356 3.6315V4.26897ZM16.5109 11.8159V16.8364H21.6838H26.8567L26.7912 16.0851C26.3596 11.1296 22.391 7.2777 17.285 6.85883L16.5109 6.7954V11.8159Z" fill="url(#paint0_linear_2_5691)"/>
<defs>
<linearGradient id="paint0_linear_2_5691" x1="33.0195" y1="16.8115" x2="0.0195313" y2="16.8115" gradientUnits="userSpaceOnUse">
<stop stop-color="#09D1C7"/>
<stop offset="1" stop-color="#15919B"/>
</linearGradient>
</defs>
</svg>
