<svg width="29" height="29" viewBox="0 0 29 29" fill="none" xmlns="http://www.w3.org/2000/svg">
<path d="M21.5195 2.68731C23.6311 3.90651 25.3877 5.65605 26.6154 7.76273C27.843 9.86942 28.4991 12.2602 28.5188 14.6984C28.5385 17.1366 27.9211 19.5376 26.7276 21.6639C25.5342 23.7901 23.8061 25.5678 21.7145 26.821C19.6229 28.0741 17.2402 28.7593 14.8024 28.8086C12.3646 28.8579 9.95617 28.2697 7.81555 27.1022C5.67493 25.9348 3.87635 24.2284 2.59785 22.1522C1.31934 20.076 0.605261 17.7019 0.526287 15.2649L0.519287 14.8113L0.526287 14.3577C0.604693 11.9399 1.30826 9.58366 2.56841 7.5187C3.82855 5.45375 5.60226 3.75054 7.71662 2.57515C9.83098 1.39975 12.2138 0.792267 14.6329 0.811925C17.0519 0.831582 19.4246 1.47771 21.5195 2.68731ZM14.5195 6.41131C14.1765 6.41136 13.8456 6.53725 13.5893 6.76511C13.3331 6.99298 13.1694 7.30696 13.1292 7.64751L13.1194 7.81131V14.8113L13.132 14.9947C13.164 15.2376 13.2591 15.4679 13.4078 15.6625L13.5296 15.8025L17.7297 20.0025L17.8613 20.1173C18.1068 20.3078 18.4088 20.4112 18.7195 20.4112C19.0303 20.4112 19.3322 20.3078 19.5777 20.1173L19.7093 20.0011L19.8255 19.8695C20.016 19.624 20.1194 19.3221 20.1194 19.0113C20.1194 18.7006 20.016 18.3986 19.8255 18.1531L19.7093 18.0215L15.9195 14.2303V7.81131L15.9097 7.64751C15.8696 7.30696 15.7058 6.99298 15.4496 6.76511C15.1933 6.53725 14.8624 6.41136 14.5195 6.41131Z" fill="url(#paint0_linear_2_5662)"/>
<defs>
<linearGradient id="paint0_linear_2_5662" x1="28.5193" y1="14.8115" x2="0.519287" y2="14.8115" gradientUnits="userSpaceOnUse">
<stop stop-color="#09D1C7"/>
<stop offset="1" stop-color="#15919B"/>
</linearGradient>
</defs>
</svg>
