<svg width="37" height="36" viewBox="0 0 37 36" fill="none" xmlns="http://www.w3.org/2000/svg">
<path fill-rule="evenodd" clip-rule="evenodd" d="M7.2147 0.287969C2.33896 1.2021 -0.38165 6.44324 1.70499 10.9023C4.71449 17.3335 14.0921 16.3506 15.748 9.43031C16.9753 4.30125 12.3335 -0.671769 7.2147 0.287969ZM9.87039 2.04801C14.3482 2.98816 16.0041 8.5364 12.7742 11.7778C9.30189 15.2627 3.48406 13.1301 2.9538 8.17809L2.88089 7.49741L2.66123 7.70374C2.36158 7.98528 1.90331 7.86529 1.90331 7.50531C1.90331 7.23959 3.37501 5.70914 3.63274 5.70693C3.89736 5.70463 4.79687 7.54816 4.64746 7.78658C4.45308 8.09662 4.13385 8.05589 3.90094 7.69123L3.68873 7.35894L3.74703 8.06674C4.16621 13.1546 10.9432 14.4511 13.1795 9.87138C14.6918 6.77443 12.6203 3.07441 9.183 2.73264C8.51731 2.66644 8.31705 2.56778 8.31705 2.30583C8.31705 1.87313 8.71922 1.80628 9.87039 2.04801ZM6.79377 2.51859C6.98014 2.70488 6.93582 3.08112 6.71359 3.20001C6.32833 3.40624 5.90887 2.97897 6.11621 2.59151C6.23188 2.37534 6.60997 2.3347 6.79377 2.51859ZM5.01203 4.00555C5.16346 4.28847 5.04393 4.5907 4.75145 4.66407C4.45318 4.73901 4.20823 4.55686 4.20823 4.26006C4.20823 3.80575 4.80414 3.61708 5.01203 4.00555ZM7.68482 4.8282C7.72942 4.89688 7.90182 5.28664 8.06796 5.69433C8.36596 6.4254 8.37663 6.43726 8.84473 6.55606C10.602 7.00228 10.3668 9.5115 8.5676 9.51251C7.21773 9.51324 6.53236 8.00137 7.44227 7.03004C7.65476 6.80321 7.65503 6.79769 7.4727 6.32858C6.95863 5.00575 6.96552 5.03315 7.10611 4.86369C7.26481 4.67244 7.57154 4.65359 7.68482 4.8282ZM8.03385 7.54071C7.59471 8.00826 7.87699 8.71552 8.50995 8.73354C8.95883 8.74632 9.36478 8.31362 9.27219 7.92101C9.13298 7.33126 8.43271 7.1162 8.03385 7.54071ZM16.7343 7.88505C16.7257 14.3718 9.06237 18.3229 3.78233 14.5629L3.30633 14.2239V18.1321V22.0403L7.2398 22.0419C11.7612 22.0436 11.3144 21.9354 11.8059 23.1482L12.1894 24.0947L14.3184 24.1218L16.4473 24.1488L16.4215 23.0194C16.3875 21.531 16.5647 21.267 18.0081 20.6561C19.8992 19.8556 24.6413 19.4759 27.8338 19.8696L28.8609 19.9962V14.1437C28.8609 7.72884 28.8705 7.83586 28.2677 7.47975C28.0041 7.32409 27.4755 7.30883 22.3566 7.30883H16.735L16.7343 7.88505ZM22.6477 20.5368C19.2973 20.8063 16.8254 21.6736 17.2337 22.4365C18.2464 24.3288 29.3249 24.5134 31.7422 22.6782C33.3256 21.476 27.6336 20.1358 22.6477 20.5368ZM1.00141 24.8002C1.00141 27.9849 0.0549122 27.6523 9.11606 27.6523H16.4845L16.4539 26.4247C16.4371 25.7494 16.405 25.1415 16.3827 25.0736C16.3523 24.9817 15.7478 24.9433 14.0083 24.9233L11.6747 24.8965L11.2709 23.8942L10.8672 22.8921L5.93425 22.8661L1.00141 22.8402V24.8002ZM17.1363 24.863C17.1367 26.5201 17.3052 27.7088 17.6807 28.7045C19.4528 33.4033 25.4469 34.9837 29.3536 31.7824C29.734 31.4707 30.1239 31.3176 31.9122 30.7778C35.2193 29.7796 35.9128 29.2309 36.0515 27.5022C36.2147 25.469 35.0145 24.1895 32.7463 23.9786C32.1165 23.9201 32.0679 23.8986 32.0679 23.6774V23.4392L31.6921 23.6279C28.5184 25.221 20.5288 25.1308 17.211 23.4644C17.1698 23.4436 17.1361 24.073 17.1363 24.863ZM34.0474 25.0626C34.9158 25.5063 35.479 26.6936 35.2675 27.6348C35.0169 28.7497 34.4497 29.1955 32.5632 29.7604C31.8223 29.9823 31.1388 30.1874 31.0446 30.2163C30.9097 30.2577 30.9572 30.0894 31.2669 29.4286C31.8247 28.2382 31.9834 27.5717 32.0354 26.1992C32.0604 25.5378 32.1014 24.9342 32.1264 24.858C32.2007 24.6318 33.4686 24.7668 34.0474 25.0626ZM18.7992 32.7204C13.6085 34.4686 24.3202 36.4803 30.1772 34.8572C32.7323 34.1492 32.8279 33.3556 30.4481 32.6095L29.8806 32.4315L29.3229 32.8017C26.469 34.696 22.8405 34.7458 20.1297 32.9277L19.4791 32.4914L18.7992 32.7204Z" fill="url(#paint0_linear_2_5676)"/>
<defs>
<linearGradient id="paint0_linear_2_5676" x1="36.0662" y1="17.8114" x2="0.973145" y2="17.8114" gradientUnits="userSpaceOnUse">
<stop stop-color="#09D1C7"/>
<stop offset="1" stop-color="#15919B"/>
</linearGradient>
</defs>
</svg>
