<svg width="34" height="35" viewBox="0 0 34 35" fill="none" xmlns="http://www.w3.org/2000/svg">
<path fill-rule="evenodd" clip-rule="evenodd" d="M14.7413 0.975825C14.4715 1.16661 14.4192 1.80864 14.6478 2.12433C14.8276 2.37268 15.3403 2.37268 15.5202 2.12433C15.8542 1.66294 15.5713 0.811462 15.084 0.811462C15.0233 0.811462 14.8691 0.885375 14.7413 0.975825ZM16.3989 1.82388C15.8714 2.27216 15.9974 2.92324 16.6116 2.92324C17.1926 2.92324 17.6057 2.14383 17.2273 1.7617C16.9512 1.48287 16.7856 1.49534 16.3989 1.82388ZM12.4419 3.29807C10.8672 3.7262 9.59991 4.9307 9.07808 6.49515C8.76162 7.44364 8.76876 7.46359 9.42142 7.46359H9.97986L10.11 7.01476C10.6643 5.10384 12.6138 3.97289 14.6144 4.40167C15.1861 4.52418 15.2634 4.5191 15.4517 4.34707C16.3606 3.51638 14.2914 2.79518 12.4419 3.29807ZM16.8683 3.4858C16.7619 3.56434 16.6784 3.75799 16.6784 3.92632C16.6784 4.47623 17.6054 4.74906 17.9954 4.31399C18.5309 3.71623 17.5412 2.98893 16.8683 3.4858ZM13.0125 5.22552C12.5719 5.68978 12.7477 6.30206 13.3213 6.30206C13.6083 6.30206 14.0907 5.76554 14.0907 5.44633C14.0907 4.86751 13.4722 4.74093 13.0125 5.22552ZM16.1354 5.16408C15.9182 5.47729 15.9226 5.49798 16.2972 5.9288C16.976 6.70968 17.8275 6.04844 17.1658 5.25425C16.8324 4.8542 16.378 4.81438 16.1354 5.16408ZM14.6732 5.72887C14.4442 5.96012 14.4605 6.64751 14.7001 6.86647C15.1309 7.26015 15.6591 6.93429 15.6591 6.27489C15.6591 5.83669 15.4379 5.56293 15.084 5.56293C14.9484 5.56293 14.7636 5.63758 14.6732 5.72887ZM5.97714 8.98407C5.55822 9.40703 5.41871 10.5259 5.8046 10.3675C7.68382 9.59643 10.9431 9.56761 12.8642 10.3053L13.1497 10.4148V9.88257C13.1497 8.6619 13.0375 8.62504 9.32811 8.62504H6.33266L5.97714 8.98407ZM8.44462 10.9561C2.34009 11.5182 -1.61551 18.13 0.679521 23.9355C2.00187 27.2804 5.41523 29.8037 8.72475 29.8827L9.50532 29.9013L13.5631 22.8268L17.6208 15.7523L17.4063 15.3828C15.6708 12.3934 12.0828 10.621 8.44462 10.9561ZM9.85022 12.2385C10.44 13.0889 9.65865 14.7715 8.98833 14.0946C8.77461 13.8787 8.822 12.2496 9.04587 12.118C9.34805 11.9402 9.67759 11.9896 9.85022 12.2385ZM20.6341 13.6385C19.9947 13.869 20.0547 13.7728 14.6129 23.2958C8.49503 34.0022 8.82274 33.2946 9.56789 34.1889C10.112 34.8418 9.54319 34.8112 21.1284 34.8112H31.7278L32.1776 34.571C33.4947 33.8676 33.395 33.4264 30.9553 29.1593C29.8605 27.2444 27.4986 23.1119 25.7067 19.9759C22.511 14.3833 21.9902 13.5877 21.5243 13.5877C21.4131 13.5877 21.2595 13.566 21.1829 13.5393C21.1064 13.5127 20.8593 13.5573 20.6341 13.6385ZM4.72908 14.8616C5.72628 15.9382 5.01004 16.7446 3.94788 15.7412C3.23876 15.0714 3.13154 14.5356 3.66656 14.3358C4.01146 14.2069 4.21685 14.3085 4.72908 14.8616ZM15.3244 14.4536C15.878 15.0127 14.3401 16.5838 13.7591 16.0527C13.4467 15.7672 13.5351 15.4758 14.1132 14.8845C14.6699 14.3153 15.0527 14.1791 15.3244 14.4536ZM10.4826 19.1233L10.868 19.4202L11.8868 19.1437C13.2372 18.7772 13.4634 18.8277 13.4634 19.4954C13.4634 19.9354 13.4598 19.9372 11.5159 20.445C11.1525 20.5399 11.0743 20.6091 11.0199 20.8838C10.7892 22.0487 9.11403 22.4835 8.24363 21.6045C6.76356 20.1098 8.81377 17.8379 10.4826 19.1233ZM22.0158 19.3048C22.3236 19.4553 22.5801 19.6923 22.7807 20.0118L23.0825 20.4923V23.8082C23.0825 27.5381 23.0791 27.5576 22.3183 28.2154C22.0854 28.4167 21.9548 28.5814 22.0281 28.5814C22.5643 28.5814 23.2907 29.6173 23.3695 30.4942C23.5536 32.5455 21.1912 33.7585 19.6338 32.4123C18.481 31.4159 18.5923 29.4892 19.8444 28.7671C20.3399 28.4814 20.3402 28.4789 19.9157 28.2119C19.1635 27.7388 19.1094 27.4468 19.1094 23.8569C19.1094 20.3511 19.1268 20.2328 19.7263 19.6634C20.3829 19.0397 21.2089 18.9103 22.0158 19.3048ZM3.11233 20.0287C3.64332 20.565 3.23337 20.979 2.1713 20.979C1.43776 20.979 1.32871 20.9531 1.18398 20.7443C0.787567 20.1729 1.16623 19.8175 2.1713 19.8175C2.76377 19.8175 2.94299 19.8577 3.11233 20.0287ZM9.02721 20.0891C8.80691 20.3114 8.82027 20.5136 9.07204 20.7679C9.33158 21.03 9.51227 21.035 9.7354 20.7859C10.2142 20.2517 9.53139 19.5798 9.02721 20.0891ZM20.5161 20.499L20.2595 20.7582V23.8016C20.2595 27.3946 20.3782 27.7672 21.4079 27.4047C21.9165 27.2257 21.9324 27.1162 21.9324 23.7917V20.6776L21.6569 20.4587C21.284 20.1625 20.8336 20.1784 20.5161 20.499ZM5.07792 24.8014C5.6315 25.3604 4.09362 26.9315 3.51258 26.4005C3.20025 26.115 3.28863 25.8236 3.86673 25.2323C4.42342 24.663 4.8062 24.5269 5.07792 24.8014ZM9.80393 26.7864C10.2045 27.191 10.0519 28.6989 9.59561 28.8451C9.09811 29.0046 8.8629 28.6591 8.8629 27.769C8.8629 26.6599 9.26388 26.2411 9.80393 26.7864ZM20.3757 29.8021C19.5869 30.4724 20.0866 31.856 21.1169 31.8543C21.4653 31.8537 22.0258 31.4757 22.1441 31.1614C22.5801 30.0034 21.2982 29.0181 20.3757 29.8021Z" fill="url(#paint0_linear_2_5705)"/>
<defs>
<linearGradient id="paint0_linear_2_5705" x1="33.0195" y1="17.8115" x2="0.0195313" y2="17.8115" gradientUnits="userSpaceOnUse">
<stop stop-color="#09D1C7"/>
<stop offset="1" stop-color="#15919B"/>
</linearGradient>
</defs>
</svg>
