<svg width="43" height="42" viewBox="0 0 43 42" fill="none" xmlns="http://www.w3.org/2000/svg">
<path fill-rule="evenodd" clip-rule="evenodd" d="M20.1075 0.954935C15.0347 1.94177 12.3445 7.37665 14.6407 11.9992C17.483 17.7209 25.6369 17.6799 28.4298 11.9298C31.1823 6.26268 26.2512 -0.240088 20.1075 0.954935ZM9.45436 3.74178C9.07717 4.1196 9.24945 4.3346 10.6469 5.22996C11.955 6.0681 12.4292 6.1245 12.4292 5.44187C12.4292 5.15592 12.2897 5.0359 11.0312 4.23777C9.94464 3.54864 9.71812 3.47738 9.45436 3.74178ZM31.9266 4.27087C30.626 5.1154 30.6 5.13798 30.6 5.42702C30.6 6.12543 31.065 6.07398 32.3822 5.22996C33.5968 4.45174 33.7683 4.28974 33.696 3.98854C33.5542 3.39778 33.1791 3.45759 31.9266 4.27087ZM25.3147 4.80285C25.7096 5.00084 26.0757 5.51539 26.1434 5.96725C26.2546 6.71021 26.1554 6.8424 23.4131 9.60532C19.7981 13.2477 19.8899 13.2257 17.6858 10.9814C16.1871 9.45549 16.0003 8.99054 16.5365 8.12116C17.1304 7.15835 18.2538 7.15557 19.2409 8.11456L19.8292 8.68614L21.8176 6.70536C24.1514 4.38059 24.3052 4.29686 25.3147 4.80285ZM24.0392 5.66697C23.8667 5.79535 22.8756 6.75599 21.8368 7.80181C20.798 8.84762 19.897 9.70328 19.8347 9.70328C19.7723 9.70318 19.3847 9.37692 18.9733 8.97816C17.9415 7.97803 17.1729 7.9837 17.1729 8.99157C17.1729 9.5352 19.2822 11.6367 19.8278 11.6367H20.1851L22.7393 9.07747C25.2694 6.54244 25.2935 6.51511 25.2935 6.18452C25.2935 5.51219 24.6202 5.2344 24.0392 5.66697ZM8.56991 8.11219C8.31458 8.2448 8.25221 8.67943 8.45609 8.90516C8.62847 9.09603 11.0045 9.14109 11.2436 8.95806C11.4618 8.79101 11.4945 8.46949 11.3158 8.2481C11.1242 8.01072 8.97035 7.9042 8.56991 8.11219ZM31.9118 8.08971C31.548 8.24253 31.4837 8.80534 31.81 8.98033C32.1007 9.13614 34.4166 9.07829 34.5674 8.91145C34.7305 8.73079 34.7391 8.41752 34.5866 8.20809C34.4591 8.0333 32.2759 7.93658 31.9118 8.08971ZM11.1349 11.5803C9.44694 12.6474 9.39014 12.6887 9.33991 12.8891C9.23185 13.3206 9.62622 13.6303 10.0573 13.4521C11.5647 12.8293 12.765 11.6398 12.2504 11.2787C11.9786 11.0879 11.8654 11.1186 11.1349 11.5803ZM30.7787 11.2787C30.5742 11.4222 30.5304 11.8813 30.707 12.0282C30.9413 12.2231 32.9351 13.4797 33.086 13.5278C33.2812 13.5899 33.5408 13.4621 33.6554 13.2477C33.8148 12.9492 33.6652 12.7047 33.1044 12.3477C31.01 11.0142 31.0979 11.0547 30.7787 11.2787ZM7.89644 14.9105C4.85058 15.5649 3.5869 17.7255 4.29824 21.0622C4.38798 21.4832 4.49615 22.19 4.53855 22.6331C4.67059 24.0123 5.25421 25.0918 6.23684 25.774C6.51491 25.9671 6.55989 26.0396 6.55989 26.2949V26.5916L5.09254 26.94C3.33568 27.3571 2.91116 27.5459 2.33927 28.1648C0.819119 29.8101 1.49239 32.5811 3.66542 33.6225L4.2684 33.9116L8.56991 33.9363C12.39 33.9582 12.9279 33.9459 13.3762 33.826C16.3123 33.041 17.0274 28.8829 14.4595 27.5272C14.1637 27.3711 13.4824 27.1606 12.5699 26.9433L11.1428 26.6037L11.1438 26.2699C11.1447 25.9677 11.1856 25.9003 11.5752 25.5579C12.454 24.7858 12.992 23.6142 12.992 22.4726C12.9919 21.9401 13.0191 21.8214 13.193 21.593C13.7109 20.9126 13.9095 19.3946 13.6051 18.444C13.4276 17.8896 13.4404 17.7228 13.6955 17.2674C14.1284 16.4947 13.5576 16.1225 11.9252 16.1131C10.948 16.1076 10.9356 16.0995 11.4583 15.8095C11.7141 15.6674 11.7987 15.2923 11.6337 15.0313C11.4655 14.7653 8.95049 14.6839 7.89644 14.9105ZM33.2501 14.935C30.3309 15.5523 28.9564 17.9797 29.7576 21.1025C29.8257 21.3684 29.9136 21.9665 29.9528 22.4317C30.0725 23.852 30.5747 24.8703 31.5463 25.6621C31.9162 25.9637 31.9669 26.0408 31.9669 26.3035V26.6021L30.419 26.9756C28.7085 27.3884 28.242 27.5964 27.7452 28.1678C26.4112 29.7024 26.8637 32.2116 28.6875 33.3927C29.5601 33.9579 29.6258 33.964 34.4636 33.9363L38.7694 33.9116L39.3705 33.6138C41.5957 32.5116 42.2305 29.6671 40.6129 28.0464C40.0996 27.5319 39.6133 27.3265 37.9769 26.9324L36.5497 26.5887V26.262C36.5497 25.9744 36.5906 25.9025 36.8914 25.6609C37.8877 24.8607 38.4738 23.6067 38.478 22.2661C38.4791 21.918 38.5235 21.7586 38.678 21.5488C39.1814 20.8652 39.3307 19.398 39.0056 18.3308L38.8483 17.8148L39.0659 17.4245C39.5914 16.4815 38.8728 15.9864 37.1301 16.0907C36.4254 16.1328 36.3419 16.0456 36.8751 15.8243C37.3849 15.6127 37.2441 14.947 36.6678 14.8445C36.0192 14.7292 33.9664 14.7836 33.2501 14.935ZM11.5875 20.2267C12.8395 22.7657 11.3706 25.5333 8.7709 25.5333C6.69707 25.5333 5.45376 24.0707 5.52786 21.7181C5.57531 20.2102 6.08144 19.8586 7.87493 20.0877C8.97302 20.2279 10.3112 20.0317 11.0389 19.6237C11.2318 19.5155 11.2427 19.5276 11.5875 20.2267ZM37.2786 20.7758C38.1018 23.1227 36.5511 25.5333 34.2181 25.5333C32.2278 25.5333 31.072 24.2942 31.0153 22.0998C30.9716 20.4029 31.5263 19.774 32.8393 20.0321C33.9199 20.2446 35.3817 20.1067 36.322 19.7035L36.6704 19.5542L36.8967 19.9432C37.0211 20.1572 37.193 20.5319 37.2786 20.7758ZM19.7782 20.1782C18.5867 20.3919 17.4948 21.4374 17.4945 22.3647C17.4945 22.523 17.4211 22.6252 17.2162 22.7521C16.0505 23.4738 15.7697 25.1567 16.4832 27.1445C16.6263 27.5433 16.8029 28.1767 16.8755 28.5522C17.0958 29.6906 17.7288 30.7427 18.5699 31.3688C18.9364 31.6416 18.9417 31.6522 18.9417 32.1056V32.5656L17.2184 32.982C15.2685 33.4531 14.814 33.645 14.2262 34.245C12.2358 36.2764 13.4778 39.9102 16.4254 40.6795C17.1092 40.8579 25.6535 40.8544 26.4117 40.6754C29.402 39.9692 30.6157 36.148 28.4876 34.1389C27.853 33.5398 27.2388 33.3222 24.2281 32.6301C24.0194 32.5821 24.0071 32.554 24.0071 32.1301V31.6809L24.59 31.1348C25.4607 30.3192 25.9088 29.4732 26.0997 28.2846C26.1365 28.0563 26.2455 27.652 26.342 27.3862C27.3277 24.6723 26.4028 22.199 23.9167 20.9013C22.8341 20.3362 20.8401 19.9878 19.7782 20.1782ZM22.1865 24.8035C23.384 25.0331 23.8879 25.4575 24.6825 26.9058L25.157 27.7706L25.0661 28.2632C24.5211 31.2162 20.9779 32.3426 18.8759 30.2311C17.377 28.7255 17.4866 26.757 19.1601 25.1254L19.7056 24.5936L20.6355 24.6391C21.147 24.664 21.8449 24.7381 22.1865 24.8035ZM9.68458 27.2362C9.05258 27.8774 8.64288 27.8693 7.98443 27.2026C7.41109 26.6221 7.37816 26.4316 7.86639 26.5192C8.33177 26.6028 9.60924 26.577 9.85634 26.4792C10.2653 26.3171 10.1681 26.7456 9.68458 27.2362ZM35.1321 27.1955C34.4717 27.8642 34.072 27.8765 33.4367 27.2479C32.9712 26.7873 32.8428 26.3906 33.193 26.4948C33.5816 26.6105 34.6688 26.625 35.1025 26.5204C35.7442 26.3658 35.7531 26.5667 35.1321 27.1955ZM7.17912 27.8451C7.50001 28.1567 7.50855 28.2768 7.23089 28.5673L7.01745 28.7905L6.68812 28.4175C6.11664 27.7701 6.11499 27.7656 6.41663 27.6783C6.83354 27.5579 6.89786 27.572 7.17912 27.8451ZM11.3971 27.7391C11.5057 27.7796 11.4449 27.885 11.0722 28.3021L10.6137 28.8152L10.3863 28.5166L10.159 28.218L10.4685 27.9005C10.7853 27.5753 10.9038 27.5547 11.3971 27.7391ZM32.6433 27.9028L32.9505 28.218L32.7232 28.5166L32.4958 28.8152L32.0375 28.3021C31.5288 27.7327 31.5334 27.7546 31.9024 27.6671C32.3165 27.5688 32.3185 27.5694 32.6433 27.9028ZM36.8521 27.7396C36.9233 27.7795 36.8276 27.9449 36.5305 28.2956L36.1075 28.7948L35.8378 28.5053L35.5679 28.216L35.8779 27.8971C36.191 27.5749 36.4757 27.5289 36.8521 27.7396ZM9.25161 28.7932C9.33569 28.9296 8.97724 29.5338 8.82915 29.5053C8.6827 29.477 8.31458 28.884 8.3789 28.7797C8.4354 28.6882 9.19398 28.6998 9.25161 28.7932ZM34.7306 28.7797C34.792 28.8791 34.4301 29.4764 34.2925 29.503C34.1529 29.5299 33.778 28.923 33.8561 28.7963C33.915 28.7007 34.6731 28.6864 34.7306 28.7797ZM34.5411 31.62C34.677 32.2158 34.8071 32.7667 34.8302 32.8442C34.8673 32.9691 34.8074 32.9852 34.3038 32.9852C33.9914 32.9852 33.7348 32.9579 33.7338 32.9247C33.7308 32.8219 34.2525 30.4954 34.2738 30.5167C34.2848 30.5278 34.4051 31.0243 34.5411 31.62ZM9.12945 31.7624C9.26386 32.3526 9.37388 32.8693 9.37388 32.9104C9.37388 32.9514 9.11824 32.9852 8.80569 32.9852C8.30305 32.9852 8.24202 32.9689 8.27701 32.8442C8.29883 32.7667 8.41255 32.2682 8.52977 31.7364C8.76586 30.6654 8.8168 30.4901 8.85745 30.6086C8.87258 30.653 8.99505 31.1722 9.12945 31.7624ZM22.4668 33.2798L21.9614 33.7907H21.4789H20.9963L20.4916 33.2896C19.8971 32.6991 19.7392 32.1006 20.2081 32.2145C20.6871 32.3308 22.1178 32.3491 22.5196 32.2442L22.9216 32.1392L22.9469 32.454C22.9704 32.7456 22.935 32.8065 22.4668 33.2798ZM19.6902 33.9363L20.071 34.3236L19.777 34.7016C19.4107 35.1727 19.4767 35.1878 18.8787 34.4956C18.2491 33.7667 18.2863 33.6665 19.2262 33.5586C19.2721 33.5533 19.4809 33.7234 19.6902 33.9363ZM24.3534 33.7189L24.6594 33.7995L24.0835 34.4395C23.4032 35.1958 23.5214 35.1609 23.1551 34.7131L22.8553 34.3464L23.2502 33.9442C23.6721 33.5148 23.6182 33.5258 24.3534 33.7189ZM21.9857 34.9452C22.1254 35.1139 21.6911 35.8838 21.4556 35.8846C21.2485 35.8854 20.8385 35.1787 20.921 34.9633C20.9835 34.8 21.8533 34.7854 21.9857 34.9452ZM21.8087 38.1067C21.9508 38.7237 22.0907 39.3645 22.1195 39.5306L22.1719 39.8327H21.4398C20.7212 39.8327 20.7083 39.8293 20.7505 39.6515C20.8951 39.0425 21.3538 36.9975 21.3538 36.962C21.3538 36.5969 21.6087 37.2386 21.8087 38.1067Z" fill="url(#paint0_linear_2_9049)"/>
<defs>
<linearGradient id="paint0_linear_2_9049" x1="41.5176" y1="20.8115" x2="1.51758" y2="20.8115" gradientUnits="userSpaceOnUse">
<stop stop-color="#09D1C7"/>
<stop offset="1" stop-color="#15919B"/>
</linearGradient>
</defs>
</svg>
