<svg width="33" height="43" viewBox="0 0 33 43" fill="none" xmlns="http://www.w3.org/2000/svg">
<path fill-rule="evenodd" clip-rule="evenodd" d="M8.65042 1.03937C8.59159 1.14945 8.54663 1.91272 8.54663 2.80213C8.54663 3.69153 8.59159 4.45493 8.65042 4.56489C8.81304 4.86868 18.9177 4.86868 19.0803 4.56489C19.2167 4.30991 19.2167 1.29435 19.0803 1.03937C18.9177 0.735576 8.81304 0.735576 8.65042 1.03937ZM2.37485 3.04683C1.44061 3.27522 0.561866 4.08743 0.280554 4.98249C0.128209 5.46727 0.116391 6.81358 0.140669 21.0164L0.167002 36.521L0.436625 37.0319C0.75172 37.6292 1.27748 38.1208 1.9182 38.4171C2.58076 38.7237 19.4382 38.8094 19.3459 38.5057C17.9133 33.7848 21.2972 29.1327 26.2857 28.9655L27.617 28.921L27.5903 17.0156L27.5637 5.1103L27.2955 4.60214C26.5507 3.19095 26.0747 3.01921 22.7843 2.97464L20.1125 2.93829L20.069 3.84915C19.9797 5.71569 20.1637 5.66187 13.8653 5.66187C7.56974 5.66187 7.73134 5.70914 7.6585 3.84863L7.62344 2.95267L5.14969 2.96295C3.78912 2.9686 2.54043 3.00637 2.37485 3.04683ZM21.3814 13.4301C21.6721 13.6933 21.6658 14.2299 21.3696 14.4375C21.1727 14.5755 20.2883 14.5937 13.8151 14.5937C5.67288 14.5937 6.03781 14.6239 6.03781 13.9513C6.03781 13.6307 6.2206 13.3783 6.53955 13.259C7.02176 13.0785 21.1732 13.2416 21.3814 13.4301ZM21.3696 19.0652C21.6658 19.2726 21.6721 19.8094 21.3814 20.0725C21.0514 20.3711 6.57886 20.3711 6.24899 20.0725C5.99324 19.8411 5.97063 19.3501 6.20377 19.0924C6.44077 18.8306 20.9973 18.8044 21.3696 19.0652ZM24.8039 30.0088C19.9692 31.3069 18.2882 37.3671 21.79 40.8749C25.7779 44.8697 32.5662 42.3006 32.8969 36.6716C33.1523 32.325 28.9778 28.8883 24.8039 30.0088ZM29.8559 32.7688C30.5712 33.0947 30.5974 33.0308 28.3489 36.4533C25.7842 40.3573 26.1824 40.2234 24.1353 37.8699C22.3188 35.7815 22.2343 35.6087 22.8368 35.214C23.2303 34.9561 23.4059 35.0827 24.6557 36.5258C25.2987 37.2682 25.8387 37.8758 25.8555 37.8758C25.8724 37.8758 26.6128 36.7725 27.5008 35.4242C28.8392 33.3916 29.3933 32.6574 29.5884 32.6574C29.6011 32.6574 29.7214 32.7075 29.8559 32.7688Z" fill="url(#paint0_linear_163_1919)"/>
<defs>
<linearGradient id="paint0_linear_163_1919" x1="32.9081" y1="21.8115" x2="0.130859" y2="21.8115" gradientUnits="userSpaceOnUse">
<stop stop-color="#09D1C7"/>
<stop offset="1" stop-color="#15919B"/>
</linearGradient>
</defs>
</svg>
