<svg width="19" height="18" viewBox="0 0 19 18" fill="none" xmlns="http://www.w3.org/2000/svg">
<path fill-rule="evenodd" clip-rule="evenodd" d="M8.51522 0.0710509C5.23396 0.756454 4.62194 5.1714 7.59573 6.70435C10.3108 8.10392 13.422 5.61009 12.6543 2.64958C12.1897 0.857611 10.3215 -0.306254 8.51522 0.0710509ZM2.09831 1.63775C1.22195 1.7842 0.485395 2.45549 0.267386 3.3065C0.218849 3.49596 0.213672 4.08187 0.222001 8.44985L0.231411 13.3794L0.323667 13.616C0.587196 14.2921 1.0632 14.7617 1.73217 15.0056L1.99016 15.0997L4.5228 15.1173C5.91577 15.1269 7.08065 15.1474 7.11144 15.1627C7.14228 15.1782 7.27925 15.3598 7.41585 15.5665C7.55246 15.7732 7.9575 16.3874 8.31594 16.9316C9.28474 18.4022 9.13773 18.4299 10.3778 16.5432C10.866 15.8002 11.2918 15.1795 11.3238 15.1636C11.3558 15.1478 12.5217 15.1269 13.9147 15.1173L16.4473 15.0997L16.6759 15.0183C17.3534 14.7772 17.8499 14.2929 18.1138 13.616L18.206 13.3794L18.2155 8.45403C18.2238 4.05544 18.2189 3.50535 18.1691 3.31067C17.9731 2.54344 17.3581 1.91636 16.5704 1.6808C16.3857 1.62557 12.9121 1.56108 12.9121 1.61289C12.9121 1.62197 12.9686 1.7611 13.0376 1.92203C14.2071 4.64908 12.1863 7.70801 9.21454 7.70927C6.25467 7.71048 4.23288 4.64324 5.39983 1.92203C5.46885 1.7611 5.52531 1.62292 5.52531 1.61501C5.52531 1.58737 2.27049 1.60898 2.09831 1.63775ZM11.6781 2.07599C11.8811 2.27196 11.9241 2.2188 10.0592 4.0789C8.58807 5.54637 8.34138 5.77843 8.25255 5.77843C8.07925 5.77843 6.68609 4.37199 6.68609 4.197C6.68609 3.99302 6.91203 3.83407 7.08051 3.9195C7.12477 3.94197 7.41032 4.20733 7.71509 4.50923L8.26925 5.05816L9.80806 3.52625C10.6544 2.68374 11.3706 1.98615 11.3996 1.97613C11.4804 1.94818 11.5842 1.98539 11.6781 2.07599ZM2.66472 2.3817C2.89106 2.63269 2.73964 2.86331 2.31542 2.91355C1.8758 2.96564 1.48012 3.40379 1.48012 3.83861C1.48012 4.02376 1.34933 4.1606 1.17076 4.16235C0.69512 4.16693 0.830239 3.2576 1.3826 2.73618C1.78823 2.35326 2.46927 2.16497 2.66472 2.3817ZM6.0607 9.04506C6.29834 9.11094 6.37214 9.34107 6.21433 9.52429L6.12946 9.6228L5.07989 9.63228C4.092 9.64118 4.02383 9.63772 3.91938 9.57336C3.70488 9.44124 3.74648 9.11683 3.98682 9.04758C4.14491 9.00197 5.89767 8.99986 6.0607 9.04506ZM14.4334 9.04533C14.6909 9.1167 14.7422 9.43617 14.5181 9.57255C14.4105 9.63803 14.2975 9.6401 10.8131 9.64023L7.21914 9.64037L7.1109 9.54946C6.92054 9.38961 6.99006 9.0918 7.2313 9.03352C7.38109 8.99734 14.3013 9.00871 14.4334 9.04533ZM14.5799 11.7144C14.6992 11.856 14.6956 11.9734 14.5681 12.1006L14.4653 12.2033H9.21873H3.97219L3.86935 12.1006C3.74185 11.9734 3.73824 11.856 3.8576 11.7144L3.94864 11.6064H9.21873H14.4888L14.5799 11.7144ZM17.4574 12.6619C17.6816 12.8856 17.4888 13.5732 17.0905 13.9708C16.6231 14.4372 15.8477 14.5949 15.7045 14.2527C15.6089 14.0244 15.7192 13.9017 16.0816 13.8328C16.5983 13.7345 16.8835 13.4407 16.9527 12.9353C17.0024 12.5723 17.2392 12.444 17.4574 12.6619Z" fill="url(#paint0_linear_2_9174)"/>
<defs>
<linearGradient id="paint0_linear_2_9174" x1="18.2188" y1="9" x2="0.21875" y2="9" gradientUnits="userSpaceOnUse">
<stop stop-color="#09D1C7"/>
<stop offset="1" stop-color="#15919B"/>
</linearGradient>
</defs>
</svg>
