<svg width="43" height="42" viewBox="0 0 43 42" fill="none" xmlns="http://www.w3.org/2000/svg">
<path fill-rule="evenodd" clip-rule="evenodd" d="M3.08938 2.36486C2.27513 2.684 1.70433 3.22599 1.29841 4.06516L1.01758 4.6458V20.7701V36.8945L1.29532 37.4751C1.6284 38.1717 2.18046 38.7368 2.84823 39.0647L3.34025 39.3063L14.5065 39.3298L25.6729 39.3531L25.3156 39.114C18.6188 34.6326 18.4396 24.6422 24.9696 19.8159C27.5676 17.8958 31.5355 16.9845 34.1841 17.7L34.3873 17.7549L34.3627 11.111L34.3381 4.46719L34.0765 3.95081C33.768 3.34182 33.1741 2.75855 32.5515 2.45314L32.1049 2.23394L17.8119 2.21519C3.99738 2.19712 3.50445 2.20204 3.08938 2.36486ZM25.9853 10.0609C26.8947 10.572 26.9224 11.7536 26.0406 12.4122C25.7958 12.5949 25.7251 12.5965 16.8889 12.6199L7.98376 12.6435L7.58264 12.4412C6.58773 11.9396 6.54165 10.7203 7.49322 10.0727L7.78857 9.87178H16.7186H25.6487L25.9853 10.0609ZM22.1458 15.7543C23.1704 16.2988 23.0785 17.7699 21.991 18.2352C21.7552 18.3361 20.4694 18.3582 14.8411 18.3582H7.97861L7.58001 18.1571C6.58773 17.6568 6.54302 16.4366 7.49322 15.7899L7.78857 15.589H14.8116C21.4753 15.589 21.8505 15.5973 22.1458 15.7543ZM30.0614 19.4743C19.3109 21.7042 19.3701 37.1055 30.1373 39.216C39.6086 41.0724 45.9015 29.4981 39.2732 22.4126C37.0558 20.0422 33.2209 18.819 30.0614 19.4743ZM16.4286 21.4715C17.4532 22.016 17.3613 23.4871 16.2738 23.9524C15.7072 24.1949 8.07969 24.1264 7.58001 23.8743C6.58773 23.374 6.54302 22.1538 7.49322 21.5071L7.78857 21.3062H11.953C15.8345 21.3062 16.1385 21.3174 16.4286 21.4715ZM32.5996 24.723C33.3039 25.0782 33.4002 25.3996 33.4002 27.3963V29.0713L34.2488 30.7799C34.7415 31.7719 35.0975 32.5987 35.0975 32.7513C35.0975 33.6538 34.1872 34.355 33.3669 34.0842C32.7702 33.8873 32.6074 33.6621 31.6059 31.6491L30.631 29.6894V27.6373C30.631 25.4506 30.6536 25.3159 31.0914 24.9071C31.5427 24.4857 32.0148 24.4281 32.5996 24.723ZM12.5858 27.1573C13.5956 27.6795 13.5977 29.0832 12.5894 29.5915C12.2097 29.7831 12.0911 29.7926 10.0847 29.7926C8.07832 29.7926 7.95975 29.7831 7.58001 29.5915C6.58773 29.0912 6.54302 27.871 7.49322 27.2243C7.87467 26.9647 12.1056 26.9089 12.5858 27.1573Z" fill="url(#paint0_linear_2_9068)"/>
<defs>
<linearGradient id="paint0_linear_2_9068" x1="42.0176" y1="20.8114" x2="1.01758" y2="20.8114" gradientUnits="userSpaceOnUse">
<stop stop-color="#09D1C7"/>
<stop offset="1" stop-color="#15919B"/>
</linearGradient>
</defs>
</svg>
