<svg width="22" height="22" viewBox="0 0 22 22" fill="none" xmlns="http://www.w3.org/2000/svg">
<path fill-rule="evenodd" clip-rule="evenodd" d="M6.92366 0.585979C6.59662 0.688544 5.98094 1.32472 5.88149 1.66276C5.82177 1.86582 5.80161 3.32447 5.80161 7.44249V12.9506L6.18112 13.0679C6.9668 13.3109 7.71878 13.8268 8.31488 14.532L8.64446 14.9218L12.0578 14.9548C16.0445 14.9933 15.4348 14.8548 16.9373 16.0639C18.0961 16.9963 18.298 17.3705 17.998 18.029C17.9176 18.2054 16.1713 19.6563 15.714 19.9265C15.1463 20.2621 13.8668 20.1073 13.4326 19.6506L13.2422 19.4503L12.9185 19.7231C12.3746 20.1818 11.7329 20.1538 11.2545 19.6506L11.0641 19.4503L10.7562 19.7099C10.3983 20.0116 10.0376 20.1031 9.206 20.1031H8.66818L8.3602 20.4694C8.19083 20.6709 7.88619 20.9753 7.68325 21.146L7.31423 21.4562L13.8018 21.4741C19.7175 21.4904 20.315 21.4823 20.5801 21.3823C20.9753 21.233 21.3677 20.8637 21.5532 20.4661L21.7072 20.1361L21.7078 12.8623L21.7085 5.58844L19.3016 5.56886C17.0951 5.55095 16.885 5.53949 16.777 5.43151C16.669 5.32353 16.6576 5.11339 16.6396 2.90684L16.62 0.5L11.8874 0.506738C8.65298 0.511345 7.08151 0.536453 6.92366 0.585979ZM17.4183 2.77715V4.79027H19.4474H21.4767L19.4644 2.77715C18.3576 1.6699 17.4445 0.764042 17.4351 0.764042C17.4259 0.764042 17.4183 1.6699 17.4183 2.77715ZM15.065 4.91385C15.2055 5.03052 15.2055 5.34208 15.065 5.45869C14.9033 5.59287 8.25055 5.59287 8.08885 5.45869C7.8642 5.27228 7.97235 4.91437 8.2767 4.83685C8.61255 4.75134 14.956 4.82326 15.065 4.91385ZM19.4212 7.09195C19.5618 7.20863 19.5617 7.52018 19.4212 7.63685C19.2587 7.77172 8.25142 7.77172 8.08885 7.63685C7.86414 7.45032 7.97252 7.09189 8.2767 7.01542C8.62257 6.9284 19.3127 7.00188 19.4212 7.09195ZM19.4212 9.27011C19.5618 9.38679 19.5617 9.69828 19.4212 9.81495C19.3306 9.89016 18.3681 9.90554 13.755 9.90554C7.71878 9.90554 7.97972 9.92195 7.97972 9.5425C7.97972 9.34763 8.0657 9.24656 8.2767 9.19352C8.62257 9.10656 19.3127 9.17999 19.4212 9.27011ZM19.4212 11.4482C19.5618 11.5649 19.5617 11.8764 19.4212 11.9931C19.3306 12.0683 18.3681 12.0836 13.755 12.0836C7.71878 12.0836 7.97972 12.1001 7.97972 11.7207C7.97972 11.5257 8.0657 11.4247 8.2767 11.3716C8.62257 11.2847 19.3127 11.3581 19.4212 11.4482ZM3.65956 13.6703C-0.259086 14.7453 -0.237375 20.3475 3.68945 21.3912C5.27175 21.8117 7.36842 20.9692 8.07485 19.629C8.23426 19.3266 8.28637 19.3131 9.29814 19.3119L10.1215 19.3111L10.5667 18.8693L11.0119 18.4275L11.4695 18.8693C12.0742 19.4531 12.1565 19.4531 12.7449 18.8693L13.19 18.4275L13.6476 18.8693L14.1052 19.3111H14.7414H15.3776L16.3649 18.5168C17.6638 17.4719 17.6638 17.586 16.3649 16.5411L15.3776 15.7469L11.9262 15.746C8.06299 15.745 8.24952 15.7603 8.07485 15.4289C7.36704 14.0861 5.23679 13.2375 3.65956 13.6703ZM5.28631 15.8245C6.19805 16.0977 6.73328 17.3508 6.32446 18.255C5.52905 20.0142 2.89744 19.4567 2.89744 17.529C2.89744 16.2853 4.05871 15.4567 5.28631 15.8245ZM4.10138 16.6045C3.45017 17.0016 3.45017 18.0563 4.10138 18.4534C4.82797 18.8964 5.7351 18.3831 5.7351 17.529C5.7351 16.8665 5.342 16.4734 4.67951 16.4734C4.43343 16.4734 4.24719 16.5156 4.10138 16.6045Z" fill="url(#paint0_linear_2_9182)"/>
<defs>
<linearGradient id="paint0_linear_2_9182" x1="21.7085" y1="11" x2="0.732422" y2="11" gradientUnits="userSpaceOnUse">
<stop stop-color="#09D1C7"/>
<stop offset="1" stop-color="#15919B"/>
</linearGradient>
</defs>
</svg>
