<svg width="35" height="36" viewBox="0 0 35 36" fill="none" xmlns="http://www.w3.org/2000/svg">
<path fill-rule="evenodd" clip-rule="evenodd" d="M25.4534 0.442704C16.5008 2.38229 17.7468 15.9016 26.8821 15.944C34.3572 15.9788 37.3811 5.93814 31.1846 1.65801C29.5786 0.548745 27.2467 0.0542577 25.4534 0.442704ZM13.4447 0.779859C12.564 1.02288 12.5566 1.06817 12.5566 6.19418C12.5566 9.5407 12.5338 10.6567 12.464 10.7285C12.3939 10.8007 11.2538 10.824 7.80589 10.824C4.84247 10.824 3.08087 10.8544 2.7854 10.9106C1.88103 11.0827 1.12582 11.6696 0.74821 12.4936L0.54794 12.9309L0.526589 16.9174C0.505731 20.799 0.509488 20.9156 0.667153 21.3496C0.961132 22.1586 1.82567 22.923 2.65235 23.1049L2.90333 23.16V18.8225V14.485L3.09115 14.3582C3.23675 14.2601 3.31484 14.2511 3.43752 14.3187C3.59578 14.4059 3.59597 14.4171 3.61643 24.0837L3.637 33.7614L3.80296 34.0805C4.55679 35.5294 6.54407 35.5321 7.19855 34.085L7.38093 33.6818L7.38172 29.4429C7.38251 25.0201 7.39161 24.8965 7.71722 24.8965C8.08187 24.8965 8.07743 24.8432 8.07792 29.2653C8.07841 33.7314 8.08612 33.8326 8.47055 34.4078C9.65082 36.174 12.663 34.5545 11.5947 32.7281C10.2692 30.4619 10.32 27.3976 11.7168 25.3612C11.8548 25.1602 11.8616 24.9075 11.8616 20.0093C11.8616 14.2418 11.823 14.5954 12.4598 14.519C13.3144 14.4164 14.0865 13.9468 14.5269 13.2618C15.0336 12.4736 15.0347 12.459 15.0107 6.7188L14.9892 1.56153L14.8175 1.31363C14.5109 0.871144 13.931 0.645628 13.4447 0.779859ZM27.0802 1.12709C27.2578 1.22489 27.3031 2.28897 27.1369 2.46004C26.8272 2.77887 26.5346 2.4695 26.5346 1.82297C26.5346 1.20067 26.7395 0.939328 27.0802 1.12709ZM27.1369 3.84336C27.3171 4.02888 27.2639 8.33486 27.0802 8.43602C26.7522 8.61676 23.1605 8.54063 23.031 8.35023C22.915 8.17967 22.9415 7.97002 23.0924 7.86358C23.138 7.83152 23.931 7.80465 24.8549 7.80394L26.5346 7.80282V5.92074C26.5346 4.28116 26.5511 4.02003 26.6624 3.89333C26.8095 3.72602 27.0031 3.70567 27.1369 3.84336ZM6.95766 4.78623C5.75011 5.15005 4.8996 6.5577 5.12706 7.81636C5.72352 11.1187 10.3545 10.7545 10.3545 7.40522C10.3545 5.54257 8.69474 4.26284 6.95766 4.78623ZM21.3935 7.92769C21.707 8.25049 21.4133 8.51835 20.7461 8.51835C20.2026 8.51835 20.0475 8.43887 20.0475 8.16053C20.0475 7.79783 21.0919 7.6172 21.3935 7.92769ZM33.7012 7.89818C34.0081 8.21416 33.6938 8.51835 33.0602 8.51835C32.5448 8.51835 32.3266 8.40304 32.3266 8.13102C32.3266 7.87915 32.4972 7.80282 33.0602 7.80282C33.3837 7.80282 33.6465 7.8419 33.7012 7.89818ZM27.1827 13.8915C27.4183 14.5234 27.1442 15.405 26.7754 15.2018C26.5287 15.0659 26.4296 14.2753 26.6145 13.9194C26.7136 13.7289 27.1148 13.7091 27.1827 13.8915ZM15.9826 23.1071C11.7057 24.0647 9.87362 29.4112 12.5954 32.9924C15.2295 36.4583 20.6289 35.9525 22.5876 32.0564C24.9518 27.3534 20.9904 21.9859 15.9826 23.1071ZM20.6014 26.7772C20.6791 26.8496 20.7427 26.9667 20.7427 27.0375C20.7427 27.1936 16.4175 31.6545 16.2661 31.6545C16.2073 31.6545 15.644 31.1283 15.0143 30.4852C13.7969 29.2418 13.6782 29.0376 14.0665 28.8554C14.2546 28.7672 14.3086 28.8093 15.264 29.7907L16.2644 30.8183L18.291 28.732C20.4276 26.5322 20.3809 26.5718 20.6014 26.7772Z" fill="url(#paint0_linear_2_9059)"/>
<defs>
<linearGradient id="paint0_linear_2_9059" x1="34.5176" y1="17.8115" x2="0.517578" y2="17.8115" gradientUnits="userSpaceOnUse">
<stop stop-color="#09D1C7"/>
<stop offset="1" stop-color="#15919B"/>
</linearGradient>
</defs>
</svg>
