<svg width="35" height="34" viewBox="0 0 35 34" fill="none" xmlns="http://www.w3.org/2000/svg">
<path fill-rule="evenodd" clip-rule="evenodd" d="M5.71209 0.188358C5.04174 0.398593 4.44365 0.928612 4.13591 1.58507L3.96214 1.95587V5.32181V8.68782L4.17388 9.11799C4.42893 9.63605 4.89615 10.0948 5.41781 10.3393L5.79145 10.5144H19.0866H32.3817L32.7554 10.3393C33.277 10.0948 33.7443 9.63605 33.9993 9.11799L34.2111 8.68782V5.32047V1.95311L33.9993 1.52294C33.7443 1.00488 33.277 0.546108 32.7554 0.301587L32.3817 0.126558L19.1846 0.114265C8.39982 0.10423 5.93712 0.117777 5.71209 0.188358ZM32.1579 1.278C32.5095 1.43798 32.8452 1.76236 33.0143 2.10573L33.1657 2.41314V5.32047V8.2278L33.0143 8.53521C32.8452 8.87857 32.5095 9.20296 32.1579 9.36293C31.9471 9.45885 31.1264 9.47081 23.6762 9.48687L15.428 9.50468V5.32047V1.13625L23.6762 1.15407C31.1264 1.17012 31.9471 1.18208 32.1579 1.278ZM13.1621 2.32901C13.4373 2.69939 13.4425 2.69102 11.158 5.55253C8.88694 8.39731 8.85181 8.43435 8.49599 8.36762C8.09258 8.29194 6.08539 6.212 6.08539 5.86964C6.08539 5.01231 6.48011 5.10647 7.61884 6.2355L8.54173 7.15053L10.4846 4.73484C12.7786 1.88261 12.8097 1.85477 13.1621 2.32901ZM16.5773 3.35384C16.4388 3.50696 16.4471 3.98864 16.5913 4.15916C16.6979 4.28526 21.5509 4.3387 21.4731 4.21284C21.453 4.1804 21.4928 4.13608 21.5613 4.11433C21.7178 4.06466 21.7347 3.52034 21.5852 3.34715C21.4267 3.16359 16.7439 3.16978 16.5773 3.35384ZM16.5765 6.49073C16.4383 6.64343 16.4477 7.12544 16.5923 7.29621C16.7013 7.42508 32.0066 7.47868 31.927 7.3499C31.9066 7.31686 31.946 7.27204 32.0145 7.2503C32.1722 7.20029 32.1878 6.65614 32.0366 6.48119C31.8755 6.29462 16.7455 6.30399 16.5765 6.49073ZM2.57612 11.6869C1.90578 11.8971 1.30769 12.4271 0.999946 13.0836L0.826172 13.4544V16.8203V20.1864L1.03791 20.6165C1.29297 21.1346 1.76019 21.5934 2.28184 21.8379L2.65548 22.0129H15.9506H29.2458L29.6194 21.8379C30.1411 21.5934 30.6083 21.1346 30.8634 20.6165L31.0751 20.1864V16.819V13.4516L30.8634 13.0215C30.6083 12.5034 30.1411 12.0446 29.6194 11.8001L29.2458 11.6251L16.0486 11.6128C5.26385 11.6028 2.80116 11.6163 2.57612 11.6869ZM29.0219 12.7765C29.3736 12.9365 29.7092 13.2609 29.8783 13.6043L30.0298 13.9117V16.819V19.7263L29.8783 20.0337C29.7092 20.3771 29.3736 20.7015 29.0219 20.8615C28.8111 20.9574 27.9904 20.9693 20.5403 20.9854L12.292 21.0032V16.819V12.6348L20.5403 12.6526C27.9904 12.6687 28.8111 12.6806 29.0219 12.7765ZM10.0053 13.8791C10.1293 14.0029 10.1667 14.1278 10.1394 14.3265C10.1257 14.4266 6.0154 19.5957 5.80165 19.7819C5.47033 20.0703 5.25591 19.9406 4.01658 18.7028C2.89591 17.5835 2.81412 17.4694 2.92468 17.1813C2.96682 17.0714 3.27557 16.8843 3.41481 16.8843C3.45871 16.8843 3.91321 17.2993 4.42475 17.8065C4.9572 18.3345 5.38561 18.7097 5.42676 18.6843C5.46631 18.6599 6.35375 17.576 7.3989 16.2758C9.55151 13.5977 9.64141 13.5151 10.0053 13.8791ZM13.4414 14.8524C13.3028 15.0055 13.3112 15.4872 13.4553 15.6577C13.5619 15.7838 18.4149 15.8372 18.3371 15.7114C18.3171 15.6789 18.3568 15.6346 18.4254 15.6129C18.5818 15.5632 18.5987 15.0189 18.4492 14.8457C18.2907 14.6621 13.6079 14.6683 13.4414 14.8524ZM13.4405 17.9893C13.3024 18.142 13.3117 18.624 13.4563 18.7947C13.5653 18.9236 28.8706 18.9772 28.791 18.8484C28.7706 18.8154 28.81 18.7706 28.8786 18.7488C29.0362 18.6988 29.0519 18.1547 28.9007 17.9797C28.7395 17.7932 13.6095 17.8025 13.4405 17.9893ZM5.71209 23.1854C5.04174 23.3957 4.44365 23.9257 4.13591 24.5821L3.96214 24.9529V28.3189V31.6849L4.17388 32.1151C4.42893 32.6331 4.89615 33.0919 5.41781 33.3364L5.79145 33.5114H19.0866H32.3817L32.7554 33.3364C33.277 33.0919 33.7443 32.6331 33.9993 32.1151L34.2111 31.6849V28.3175V24.9502L33.9993 24.52C33.7443 24.0019 33.277 23.5432 32.7554 23.2987L32.3817 23.1236L19.1846 23.1113C8.39982 23.1013 5.93712 23.1148 5.71209 23.1854ZM32.1579 24.2751C32.5095 24.435 32.8452 24.7594 33.0143 25.1028L33.1657 25.4102V28.3175V31.2249L33.0143 31.5323C32.8452 31.8756 32.5095 32.2 32.1579 32.36C31.9471 32.4559 31.1264 32.4679 23.6762 32.4839L15.428 32.5017V28.3175V24.1333L23.6762 24.1511C31.1264 24.1672 31.9471 24.1791 32.1579 24.2751ZM13.1413 25.3776C13.2652 25.5014 13.3026 25.6264 13.2754 25.8251C13.2616 25.9251 9.15136 31.0942 8.93761 31.2804C8.60629 31.5688 8.39187 31.4391 7.15254 30.2013C6.03187 29.082 5.95009 28.968 6.06064 28.6798C6.10279 28.5699 6.41153 28.3828 6.55077 28.3828C6.59467 28.3828 7.04918 28.7979 7.56072 29.3051C8.09316 29.833 8.52158 30.2082 8.56272 30.1828C8.60228 30.1584 9.48971 29.0745 10.5349 27.7743C12.6875 25.0963 12.7774 25.0136 13.1413 25.3776ZM16.5773 26.3509C16.4388 26.504 16.4471 26.9857 16.5913 27.1562C16.6979 27.2823 21.5509 27.3358 21.4731 27.2099C21.453 27.1775 21.4928 27.1331 21.5613 27.1114C21.7178 27.0617 21.7347 26.5174 21.5852 26.3442C21.4267 26.1607 16.7439 26.1668 16.5773 26.3509ZM16.5765 29.4878C16.4383 29.6405 16.4477 30.1225 16.5923 30.2933C16.7013 30.4221 32.0066 30.4757 31.927 30.347C31.9066 30.3139 31.946 30.2691 32.0145 30.2474C32.1722 30.1974 32.1878 29.6532 32.0366 29.4783C31.8755 29.2917 16.7455 29.3011 16.5765 29.4878Z" fill="url(#paint0_linear_163_1925)"/>
<defs>
<linearGradient id="paint0_linear_163_1925" x1="34.2111" y1="16.8114" x2="0.826172" y2="16.8114" gradientUnits="userSpaceOnUse">
<stop stop-color="#09D1C7"/>
<stop offset="1" stop-color="#15919B"/>
</linearGradient>
</defs>
</svg>
