<svg width="22" height="22" viewBox="0 0 22 22" fill="none" xmlns="http://www.w3.org/2000/svg">
<path fill-rule="evenodd" clip-rule="evenodd" d="M3.10923 2.02246V3.54639H4.18496H5.26064V2.02246V0.498535H4.18496H3.10923V2.02246ZM13.3883 2.02246V3.54639H14.464H15.5398V2.02246V0.498535H14.464H13.3883V2.02246ZM0.842621 2.44885C0.723902 2.59978 0.71875 2.67701 0.71875 4.30149V5.99663H9.29458H17.8705V4.27399V2.5513L17.7322 2.42135C17.6072 2.30394 17.5294 2.29141 16.9254 2.29141H16.2569V3.1764C16.2569 4.40345 16.4333 4.28956 14.4989 4.31114L12.9104 4.32888L12.7609 4.17941C12.6151 4.03368 12.6114 4.0083 12.6114 3.16067V2.29141H9.29458H5.97778V3.16067C5.97778 4.00391 5.97339 4.03433 5.83113 4.17664L5.68443 4.32329H4.15508H2.62568L2.47903 4.17664C2.33672 4.03433 2.33232 4.00391 2.33232 3.16067V2.29141H1.64941C0.982816 2.29141 0.963509 2.29515 0.842621 2.44885ZM0.71875 8.17798V9.64214H2.51162H4.30444V8.17798V6.71382H2.51162H0.71875V8.17798ZM5.06226 6.75282C5.03991 6.77516 5.02163 7.43443 5.02163 8.21779V9.64214H6.99484H8.96804L8.95204 8.1929L8.93604 6.74371L7.01946 6.72793C5.96536 6.71925 5.0846 6.73047 5.06226 6.75282ZM9.72374 6.75282C9.70134 6.77516 9.68306 7.43443 9.68306 8.21779V9.64214H11.6264H13.5697L13.5537 8.1929L13.5377 6.74371L11.6511 6.72793C10.6134 6.71925 9.74608 6.73047 9.72374 6.75282ZM14.3246 6.75363C14.3027 6.77554 14.2847 7.43443 14.2847 8.21779V9.64214H16.0776H17.8705V8.17798V6.71382H16.1175C15.1533 6.71382 14.3465 6.73172 14.3246 6.75363ZM0.71875 11.8832V13.3474H2.51162H4.30444V11.8832V10.419H2.51162H0.71875V11.8832ZM5.02163 11.8832V13.3474H6.99375H8.96592V11.8832V10.419H6.99375H5.02163V11.8832ZM9.68306 11.8832V13.3474H10.0705H10.458L10.6166 13.0336C11.1021 12.0738 11.9772 11.145 13.0063 10.4973C13.0954 10.4412 12.755 10.4253 11.4012 10.4226L9.68306 10.419V11.8832ZM15.0617 10.5042C10.9985 11.4062 9.27988 16.195 11.8615 19.4216C15.1259 23.5016 21.7286 21.1743 21.7186 15.947C21.7119 12.4279 18.4415 9.75403 15.0617 10.5042ZM17.4017 13.0681C18.3399 13.362 19.2515 13.9625 20.161 14.8857C21.2178 15.9583 21.2175 15.9739 20.1219 17.0671C17.6319 19.5514 15.1476 19.6593 12.6011 17.3937C11.3128 16.2474 11.2202 15.9867 11.8494 15.277C13.628 13.2709 15.5758 12.4959 17.4017 13.0681ZM15.5995 13.6777C14.7171 13.8361 13.4546 14.6243 12.5963 15.5525C12.1846 15.9978 12.1715 15.9515 12.9041 16.6486C15.1785 18.813 17.2158 18.813 19.4903 16.6485C20.2551 15.9207 20.2481 16.0093 19.5914 15.3615C18.2028 13.9915 16.9037 13.4436 15.5995 13.6777ZM17.0937 14.0106C18.4362 14.6366 18.754 16.4146 17.7098 17.4578C16.6533 18.5132 14.932 18.2271 14.272 16.8864C13.3958 15.1067 15.2945 13.1716 17.0937 14.0106ZM0.71875 15.5511C0.71875 16.927 0.727373 17.05 0.832913 17.1805L0.947076 17.3216L2.62671 17.3392L4.30639 17.3568L4.2905 15.7256L4.27456 14.0944L2.49665 14.0786L0.71875 14.0628V15.5511ZM5.06226 14.1036C5.03991 14.126 5.02163 14.8659 5.02163 15.7478V17.3515H6.99473H8.96782L8.95193 15.7229L8.93604 14.0944L7.01946 14.0787C5.96536 14.07 5.0846 14.0812 5.06226 14.1036ZM9.72292 14.1044C9.70101 14.1263 9.68306 14.8659 9.68306 15.7478V17.3515H9.86637C10.0127 17.3515 10.0436 17.3304 10.0191 17.2469C9.83448 16.6148 9.85927 15.2875 10.0706 14.4863C10.1707 14.1068 9.95618 13.8711 9.72292 14.1044ZM15.8382 14.595C14.035 15.1854 14.7921 17.7992 16.6194 17.2916C17.533 17.0378 17.8795 15.7861 17.2445 15.0331C16.9369 14.6682 16.2592 14.4572 15.8382 14.595Z" fill="url(#paint0_linear_2_9178)"/>
<defs>
<linearGradient id="paint0_linear_2_9178" x1="21.7186" y1="11" x2="0.71875" y2="11" gradientUnits="userSpaceOnUse">
<stop stop-color="#09D1C7"/>
<stop offset="1" stop-color="#15919B"/>
</linearGradient>
</defs>
</svg>
