<svg width="20" height="20" viewBox="0 0 20 20" fill="none" xmlns="http://www.w3.org/2000/svg">
<path d="M14.7873 1.36223C16.2141 2.18604 17.401 3.3682 18.2305 4.79168C19.06 6.21516 19.5033 7.8306 19.5166 9.47808C19.5299 11.1256 19.1127 12.748 18.3063 14.1846C17.4999 15.6213 16.3323 16.8225 14.919 17.6693C13.5057 18.516 11.8958 18.979 10.2486 19.0123C8.6014 19.0456 6.97405 18.6482 5.52766 17.8593C4.08127 17.0705 2.86598 15.9175 2.00211 14.5146C1.13825 13.1117 0.655748 11.5075 0.602386 9.86088L0.597656 9.55438L0.602386 9.24789C0.655364 7.61418 1.13076 6.02207 1.98222 4.62679C2.83369 3.2315 4.03217 2.08066 5.46082 1.28644C6.88946 0.492231 8.49953 0.0817565 10.134 0.095039C11.7686 0.108321 13.3717 0.544907 14.7873 1.36223ZM10.0574 3.87853C9.82571 3.87856 9.60208 3.96362 9.42893 4.11759C9.25579 4.27156 9.14517 4.48372 9.11806 4.71382L9.11144 4.8245V9.55438L9.11995 9.6783C9.14152 9.84243 9.20578 9.99802 9.30631 10.1295L9.38861 10.2241L12.2265 13.0621L12.3155 13.1396C12.4814 13.2683 12.6854 13.3382 12.8953 13.3382C13.1053 13.3382 13.3093 13.2683 13.4752 13.1396L13.5641 13.0611L13.6427 12.9722C13.7714 12.8063 13.8412 12.6023 13.8412 12.3923C13.8412 12.1823 13.7714 11.9783 13.6427 11.8124L13.5641 11.7235L11.0034 9.1618V4.8245L10.9968 4.71382C10.9697 4.48372 10.859 4.27156 10.6859 4.11759C10.5127 3.96362 10.2891 3.87856 10.0574 3.87853Z" fill="white"/>
</svg>
