<svg width="28" height="28" viewBox="0 0 28 28" fill="none" xmlns="http://www.w3.org/2000/svg">
<g clip-path="url(#clip0_23_2722)">
<path d="M14.2738 1.2804C12.9382 1.2804 11.8516 2.36699 11.8516 3.70259C11.8516 5.03819 12.9382 6.12479 14.2738 6.12479C15.6093 6.12479 16.696 5.03819 16.696 3.70259C16.696 2.36699 15.6094 1.2804 14.2738 1.2804Z" fill="url(#paint0_linear_23_2722)"/>
<path d="M18.1919 10.1165L17.1641 7.03292C17.0442 6.67343 16.7078 6.43091 16.3289 6.43091H12.2174C11.8384 6.43091 11.5021 6.67338 11.3822 7.03292L10.3544 10.1165C10.1644 10.6863 10.5895 11.2752 11.1896 11.2752H17.3567C17.9574 11.2752 18.3816 10.6857 18.1919 10.1165Z" fill="url(#paint1_linear_23_2722)"/>
<path d="M4.7386 9.00256C3.403 9.00256 2.31641 10.0892 2.31641 11.4248C2.31641 12.7604 3.40305 13.847 4.7386 13.847C6.07415 13.847 7.1608 12.7604 7.1608 11.4248C7.1608 10.0892 6.0742 9.00256 4.7386 9.00256Z" fill="url(#paint2_linear_23_2722)"/>
<path d="M8.6568 17.8387L7.6289 14.7552C7.50903 14.3957 7.17264 14.1532 6.79369 14.1532H2.6822C2.3032 14.1532 1.96686 14.3957 1.847 14.7552L0.819204 17.8387C0.629254 18.4086 1.0544 18.9975 1.65441 18.9975H7.82154C8.42224 18.9975 8.84648 18.408 8.6568 17.8387Z" fill="url(#paint3_linear_23_2722)"/>
<path d="M14.2738 16.7249C12.9382 16.7249 11.8516 17.8114 11.8516 19.147C11.8516 20.4826 12.9382 21.5692 14.2738 21.5692C15.6094 21.5692 16.696 20.4827 16.696 19.147C16.696 17.8114 15.6094 16.7249 14.2738 16.7249Z" fill="url(#paint4_linear_23_2722)"/>
<path d="M18.1919 25.5608L17.1641 22.4773C17.0442 22.1178 16.7078 21.8752 16.3288 21.8752H12.2174C11.8384 21.8752 11.5021 22.1177 11.3822 22.4773L10.3544 25.5608C10.1644 26.1307 10.5896 26.7196 11.1896 26.7196H17.3567C17.9574 26.7195 18.3816 26.1301 18.1919 25.5608Z" fill="url(#paint5_linear_23_2722)"/>
<path d="M10.7766 4.72771C10.565 4.28991 10.0385 4.10656 9.60077 4.31818C8.2369 4.97741 7.00055 5.94203 6.02543 7.10767C5.71346 7.48066 5.76292 8.0359 6.13586 8.34793C6.50874 8.65991 7.06398 8.61055 7.37607 8.2375C8.19213 7.26197 9.22641 6.45487 10.3671 5.90353C10.8048 5.69191 10.9882 5.16551 10.7766 4.72771Z" fill="url(#paint6_linear_23_2722)"/>
<path d="M23.8089 9.00269C22.4733 9.00269 21.3867 10.0893 21.3867 11.4249C21.3867 12.7604 22.4733 13.8471 23.8089 13.8471C25.1445 13.8471 26.2311 12.7605 26.2311 11.4249C26.2311 10.0893 25.1445 9.00269 23.8089 9.00269Z" fill="url(#paint7_linear_23_2722)"/>
<path d="M27.7271 17.8386L26.6992 14.7551C26.5793 14.3956 26.243 14.1531 25.864 14.1531H21.7526C21.3736 14.1531 21.0373 14.3955 20.9174 14.755L19.8895 17.8386C19.6996 18.4085 20.1247 18.9974 20.7247 18.9974H26.8918C27.4925 18.9974 27.9167 18.4079 27.7271 17.8386Z" fill="url(#paint8_linear_23_2722)"/>
<path d="M22.5207 7.10774C21.5456 5.9421 20.3093 4.97753 18.9453 4.31825C18.5075 4.10673 17.9812 4.29003 17.7695 4.72778C17.558 5.16553 17.7414 5.69192 18.1791 5.90355C19.3198 6.45488 20.354 7.26198 21.1701 8.23752C21.4822 8.61051 22.0374 8.65981 22.4103 8.34794C22.7833 8.03591 22.8327 7.48067 22.5207 7.10774Z" fill="url(#paint9_linear_23_2722)"/>
<path d="M22.4103 19.6522C22.0375 19.3402 21.4822 19.3896 21.1701 19.7626C20.3541 20.7381 19.3198 21.5452 18.1791 22.0966C17.7414 22.3081 17.5579 22.8346 17.7696 23.2724C17.9812 23.7103 18.5077 23.8934 18.9454 23.6819C20.3093 23.0227 21.5457 22.0581 22.5208 20.8924C22.8327 20.5194 22.7833 19.9642 22.4103 19.6522Z" fill="url(#paint10_linear_23_2722)"/>
<path d="M10.3671 22.0965C9.22637 21.5451 8.19209 20.7381 7.37603 19.7626C7.06394 19.3896 6.50876 19.3402 6.13582 19.6521C5.76288 19.9642 5.71347 20.5194 6.0255 20.8923C7.00061 22.058 8.23692 23.0226 9.60084 23.6818C10.0388 23.8936 10.5651 23.7099 10.7766 23.2724C10.9881 22.8346 10.8048 22.3082 10.3671 22.0965Z" fill="url(#paint11_linear_23_2722)"/>
</g>
<defs>
<linearGradient id="paint0_linear_23_2722" x1="16.696" y1="3.70259" x2="11.8516" y2="3.70259" gradientUnits="userSpaceOnUse">
<stop stop-color="#09D1C7"/>
<stop offset="1" stop-color="#15919B"/>
</linearGradient>
<linearGradient id="paint1_linear_23_2722" x1="18.2376" y1="8.85308" x2="10.3086" y2="8.85308" gradientUnits="userSpaceOnUse">
<stop stop-color="#09D1C7"/>
<stop offset="1" stop-color="#15919B"/>
</linearGradient>
<linearGradient id="paint2_linear_23_2722" x1="7.1608" y1="11.4248" x2="2.31641" y2="11.4248" gradientUnits="userSpaceOnUse">
<stop stop-color="#09D1C7"/>
<stop offset="1" stop-color="#15919B"/>
</linearGradient>
<linearGradient id="paint3_linear_23_2722" x1="8.70252" y1="16.5753" x2="0.773438" y2="16.5753" gradientUnits="userSpaceOnUse">
<stop stop-color="#09D1C7"/>
<stop offset="1" stop-color="#15919B"/>
</linearGradient>
<linearGradient id="paint4_linear_23_2722" x1="16.696" y1="19.147" x2="11.8516" y2="19.147" gradientUnits="userSpaceOnUse">
<stop stop-color="#09D1C7"/>
<stop offset="1" stop-color="#15919B"/>
</linearGradient>
<linearGradient id="paint5_linear_23_2722" x1="18.2376" y1="24.2974" x2="10.3086" y2="24.2974" gradientUnits="userSpaceOnUse">
<stop stop-color="#09D1C7"/>
<stop offset="1" stop-color="#15919B"/>
</linearGradient>
<linearGradient id="paint6_linear_23_2722" x1="10.8645" y1="6.39165" x2="5.82031" y2="6.39165" gradientUnits="userSpaceOnUse">
<stop stop-color="#09D1C7"/>
<stop offset="1" stop-color="#15919B"/>
</linearGradient>
<linearGradient id="paint7_linear_23_2722" x1="26.2311" y1="11.4249" x2="21.3867" y2="11.4249" gradientUnits="userSpaceOnUse">
<stop stop-color="#09D1C7"/>
<stop offset="1" stop-color="#15919B"/>
</linearGradient>
<linearGradient id="paint8_linear_23_2722" x1="27.7728" y1="16.5752" x2="19.8438" y2="16.5752" gradientUnits="userSpaceOnUse">
<stop stop-color="#09D1C7"/>
<stop offset="1" stop-color="#15919B"/>
</linearGradient>
<linearGradient id="paint9_linear_23_2722" x1="22.7259" y1="6.39169" x2="17.6816" y2="6.39169" gradientUnits="userSpaceOnUse">
<stop stop-color="#09D1C7"/>
<stop offset="1" stop-color="#15919B"/>
</linearGradient>
<linearGradient id="paint10_linear_23_2722" x1="22.7259" y1="21.6084" x2="17.6816" y2="21.6084" gradientUnits="userSpaceOnUse">
<stop stop-color="#09D1C7"/>
<stop offset="1" stop-color="#15919B"/>
</linearGradient>
<linearGradient id="paint11_linear_23_2722" x1="10.8645" y1="21.6084" x2="5.82031" y2="21.6084" gradientUnits="userSpaceOnUse">
<stop stop-color="#09D1C7"/>
<stop offset="1" stop-color="#15919B"/>
</linearGradient>
<clipPath id="clip0_23_2722">
<rect width="27" height="27" fill="white" transform="translate(0.773438 0.5)"/>
</clipPath>
</defs>
</svg>
