<svg width="33" height="33" viewBox="0 0 33 33" fill="none" xmlns="http://www.w3.org/2000/svg">
<path fill-rule="evenodd" clip-rule="evenodd" d="M3.94324 11.0149C3.25098 12.2796 3.25098 13.8052 3.25098 16.8564V18.8845C3.25098 24.0857 3.25098 26.6863 4.81307 28.3021C6.37517 29.9179 8.88933 29.9179 13.9176 29.9179H19.251C24.2793 29.9179 26.7934 29.9179 28.3555 28.3021C29.9176 26.6863 29.9176 24.0857 29.9176 18.8845V16.8564C29.9176 13.8052 29.9176 12.2796 29.2254 11.0149C28.5331 9.75016 27.2684 8.96524 24.7389 7.39539L22.0723 5.74038C19.3985 4.08094 18.0616 3.25122 16.5843 3.25122C15.1071 3.25122 13.7702 4.08094 11.0964 5.74038L8.42969 7.39539C5.90024 8.96524 4.63551 9.75016 3.94324 11.0149ZM13.1798 21.1145C12.7361 20.7856 12.1098 20.8787 11.7809 21.3224C11.4521 21.7661 11.5451 22.3924 11.9888 22.7213C13.2854 23.6823 14.871 24.2512 16.5843 24.2512C18.2976 24.2512 19.8832 23.6823 21.1798 22.7213C21.6235 22.3924 21.7166 21.7661 21.3877 21.3224C21.0588 20.8787 20.4325 20.7856 19.9888 21.1145C19.0177 21.8343 17.8455 22.2512 16.5843 22.2512C15.3231 22.2512 14.1509 21.8343 13.1798 21.1145Z" fill="url(#paint0_linear_338_76)"/>
<defs>
<linearGradient id="paint0_linear_338_76" x1="29.9176" y1="16.5846" x2="3.25098" y2="16.5846" gradientUnits="userSpaceOnUse">
<stop stop-color="#E596C5"/>
<stop offset="1" stop-color="#C17DEE"/>
</linearGradient>
</defs>
</svg>
