<svg width="26" height="26" viewBox="0 0 26 26" fill="none" xmlns="http://www.w3.org/2000/svg">
<path fill-rule="evenodd" clip-rule="evenodd" d="M14.8513 0.752133C14.6625 0.836016 14.509 1.00434 14.414 1.23168C14.277 1.55946 14.3026 7.95205 14.442 8.24008C14.6158 8.59892 14.8392 8.70868 15.4603 8.7405C16.0022 8.76825 16.1187 8.80844 16.3436 9.04546C16.5283 9.24004 16.5572 9.38393 16.5837 10.2422L16.6098 11.0847L18.5393 9.92479L20.4688 8.765L22.4998 8.74056L24.5309 8.71618L24.7143 8.57623C25.1114 8.27327 25.0846 8.55429 25.0839 4.71187L25.0832 1.29362L24.9731 1.09929C24.9114 0.99028 24.7777 0.85658 24.6686 0.794887L24.4742 0.684814L19.736 0.685877C15.8952 0.686815 14.9701 0.699316 14.8513 0.752133ZM23.5743 2.63274C23.7268 2.78507 23.7519 2.91946 23.6603 3.09141C23.5363 3.32418 23.6612 3.31693 19.7216 3.31862L15.9947 3.32018L15.8749 3.2003C15.674 2.99953 15.7222 2.6845 15.9748 2.54636C16.043 2.50911 17.1832 2.49254 19.7521 2.49148L23.4316 2.48998L23.5743 2.63274ZM1.69653 4.37434C0.748469 4.8467 0.692134 6.19026 1.59681 6.7525L1.8334 6.89951V8.28802C1.8334 9.05171 1.85191 9.66921 1.87448 9.66027C1.89711 9.65133 2.10595 9.44331 2.33854 9.1981L2.76152 8.75225V7.8196V6.88695L2.94803 6.79182C3.72084 6.39765 3.90266 5.33606 3.30993 4.67875C2.91683 4.24277 2.22331 4.11194 1.69653 4.37434ZM18.6636 4.41666C18.7954 4.54842 18.8234 4.80238 18.7209 4.93583C18.5865 5.11091 18.4647 5.12698 17.2692 5.12698C16.0738 5.12698 15.952 5.11091 15.8176 4.93583C15.7151 4.80238 15.7431 4.54842 15.8749 4.41666L15.9947 4.29684H17.2692H18.5438L18.6636 4.41666ZM22.1511 6.12657C22.4145 6.26264 22.4401 6.59849 22.2033 6.81169C22.0974 6.90714 22.0262 6.90933 19.051 6.90933H16.0071L15.881 6.79094C15.6949 6.61611 15.7055 6.34928 15.9053 6.1812L16.0556 6.05481H19.034C21.5585 6.05481 22.0335 6.06569 22.1511 6.12657ZM8.74535 6.96471C3.30017 7.78603 -0.0282786 11.8457 0.0873926 17.5246C0.19925 23.0174 3.42291 25.6868 9.94214 25.6848C14.3568 25.6835 17.2008 24.4381 18.6762 21.8603C20.0149 19.5212 20.1162 15.8579 18.9225 12.9556C18.7237 12.4722 18.1404 11.3532 18.0294 11.2422C18.0155 11.2283 17.7564 11.3661 17.4535 11.5483C16.7986 11.9425 16.5781 11.9908 16.2215 11.8182C15.8094 11.6188 15.7353 11.4146 15.7135 10.418L15.6952 9.57976L15.2488 9.56251C14.2661 9.52451 13.5792 8.87695 13.5184 7.93142L13.4952 7.56933L12.9697 7.3995C11.8171 7.02703 9.74562 6.81382 8.74535 6.96471ZM10.6297 8.88332C10.8068 9.06034 10.8118 9.2236 10.646 9.4205L10.5196 9.57076H9.92419C9.15476 9.57076 8.93167 9.43062 9.06991 9.03427C9.18721 8.69799 10.3334 8.58711 10.6297 8.88332ZM11.3206 10.1101C11.6506 10.2017 11.7531 10.5218 11.534 10.7766L11.4161 10.9136L9.95858 10.9268C8.58672 10.9392 8.49206 10.9344 8.347 10.8449C8.04913 10.6611 8.1069 10.2099 8.44066 10.1136C8.66019 10.0501 11.0942 10.0472 11.3206 10.1101ZM14.7374 12.0219C20.6301 13.6363 19.8588 22.0258 13.7727 22.5158C12.9088 22.5854 5.82612 22.5446 5.43665 22.4678C0.358251 21.4666 -0.62583 14.7395 3.96888 12.4338C5.08188 11.8753 5.12434 11.8715 10.0886 11.8828L14.2651 11.8924L14.7374 12.0219ZM5.79004 12.7451C0.963555 13.3355 0.428842 20.0599 5.09214 21.5222L5.52137 21.6568H9.86886C14.1926 21.6568 14.2184 21.6563 14.6071 21.5497C19.0582 20.3298 19.05 14.0674 14.5957 12.8538L14.1186 12.7239L10.1131 12.7151C7.91001 12.7102 5.96467 12.7237 5.79004 12.7451ZM5.45147 15.0677C7.40469 15.6312 7.01522 18.4827 4.9851 18.4827C2.94672 18.4827 2.58601 15.6804 4.54442 15.0596C4.81403 14.9741 5.13722 14.977 5.45147 15.0677ZM15.3224 15.089C16.5498 15.4761 16.9684 16.9689 16.1155 17.9173C15.4456 18.6621 14.2771 18.6925 13.5678 17.9835C12.3036 16.7196 13.6179 14.5515 15.3224 15.089ZM4.75275 15.8678C3.77843 16.1766 3.8961 17.5684 4.90469 17.6653C6.09285 17.7795 6.26336 16.0001 5.0787 15.8498C4.9729 15.8364 4.82622 15.8445 4.75275 15.8678ZM14.5161 15.8907C13.6077 16.225 13.7491 17.5572 14.7044 17.6648C15.3273 17.735 15.7594 17.2714 15.695 16.602C15.643 16.0606 15.041 15.6974 14.5161 15.8907ZM11.5793 19.2066C11.9408 19.7227 10.7765 20.3906 9.67734 20.2976C8.59585 20.2061 7.79447 19.503 8.33793 19.1225C8.505 19.0054 8.61723 19.0248 9.04028 19.2437L9.42568 19.443L9.94032 19.4252C10.4665 19.407 10.5386 19.3864 11.0062 19.1206C11.2438 18.9856 11.4456 19.0159 11.5793 19.2066Z" fill="#777D86"/>
</svg>
