<svg width="26" height="26" viewBox="0 0 26 26" fill="none" xmlns="http://www.w3.org/2000/svg">
<path fill-rule="evenodd" clip-rule="evenodd" d="M20.9651 0.322451C20.5343 0.606717 20.5203 1.28433 20.9391 1.58116C21.0359 1.64969 21.2187 1.66754 22.0321 1.68781L23.0087 1.71207L21.3153 3.63122C18.0038 7.38427 16.8023 8.47202 14.2957 9.98613C10.6985 12.1591 7.12745 13.1221 2.64018 13.1294L0.535695 13.1328L0.346491 13.3358C0.0229494 13.683 0.107951 14.2886 0.509349 14.4963C0.974996 14.7373 3.97511 14.7193 5.92493 14.4637C9.92754 13.9392 13.9141 12.3139 17.1233 9.8982C18.7238 8.69341 19.6449 7.7995 21.8745 5.28694L23.5311 3.42027L23.5554 3.8051C23.5916 4.3796 23.7949 4.60224 24.2835 4.60224C24.9755 4.60224 25.011 4.49739 25.0113 2.45056C25.0117 0.598757 25.0126 0.605225 24.7184 0.357463L24.5673 0.230225L22.8356 0.230536C21.2209 0.230846 21.0945 0.237065 20.9651 0.322451ZM22.4801 6.57637C22.3537 6.62886 22.1197 6.86443 21.6646 7.39733C21.3135 7.80833 20.6014 8.56847 20.0821 9.08651L19.1379 10.0284V16.8384V23.6483H18.4097H17.6815L17.6812 18.0002C17.6809 12.5492 17.6778 12.3474 17.5895 12.2134C17.2861 11.7529 16.8856 11.7631 16.125 12.2506C15.4983 12.6525 14.5142 13.2245 13.9082 13.5392C13.2452 13.8836 13.3126 13.2817 13.3126 18.8562V23.6483H12.5845H11.8563L11.8561 19.4821C11.8559 15.4383 11.8532 15.3114 11.7614 15.1607C11.5105 14.7488 11.2542 14.7275 10.2986 15.0388C9.58871 15.2701 9.13835 15.3999 8.22881 15.6355C7.88886 15.7236 7.80398 15.7672 7.6584 15.9284L7.4874 16.1179V19.8831V23.6483H6.75923H6.03106V20.1573V16.6664L5.9212 16.5013C5.71373 16.1895 5.53155 16.1428 4.7989 16.2133C4.4487 16.2471 3.71277 16.2897 3.16361 16.3082C1.50874 16.3639 1.66216 15.9619 1.66216 20.2427V23.6483L1.14028 23.6486C0.710918 23.6489 0.593854 23.6652 0.479711 23.7405C0.03606 24.0332 0.03606 24.721 0.479711 25.0136C0.61467 25.1027 0.943928 25.1052 12.5845 25.1052C24.225 25.1052 24.5543 25.1027 24.6892 25.0136C25.1329 24.721 25.1329 24.0332 24.6892 23.7405C24.5751 23.6652 24.458 23.6489 24.0287 23.6486L23.5068 23.6483L23.5066 15.328C23.5064 7.07027 23.5057 7.00666 23.4086 6.84714C23.2296 6.55342 22.8216 6.43445 22.4801 6.57637Z" fill="#9A9A9A"/>
</svg>
