<svg width="25" height="28" viewBox="0 0 25 28" fill="none" xmlns="http://www.w3.org/2000/svg">
<path fill-rule="evenodd" clip-rule="evenodd" d="M10.2899 0.2927L10.0601 0.522488V1.34483C10.0601 2.80185 9.77236 2.69561 13.7217 2.69743L16.944 2.69899L17.152 2.491L17.36 2.28301V1.43991C17.36 -0.0353705 17.6234 0.0629126 13.6663 0.0629126H10.5197L10.2899 0.2927ZM11.7499 4.29141V5.20796L12.2399 5.1532C12.8766 5.082 14.6304 5.08278 15.2139 5.1545L15.6702 5.21056V4.29271V3.37485H13.71H11.7499V4.29141ZM4.34864 3.60706C4.23712 3.65759 3.81475 4.03368 3.40994 4.4429C2.37979 5.48439 2.33731 5.85822 3.1529 6.70409C4.08866 7.67472 4.50731 7.63622 5.64224 6.47534C6.67793 5.41595 6.72041 5.0544 5.90983 4.19918C5.26918 3.52331 4.86913 3.37156 4.34864 3.60706ZM22.1927 3.60525C21.8534 3.75578 21.1005 4.59292 21.0133 4.91658C20.8757 5.42754 20.9995 5.68017 21.7773 6.47534C22.9112 7.63449 23.3199 7.67273 24.2689 6.70868C25.09 5.87457 25.0447 5.49407 23.9977 4.43234C23.0893 3.51138 22.7524 3.35694 22.1927 3.60525ZM12.7299 5.71486C9.0381 6.11146 5.90655 8.26624 4.24846 11.5511L4.04255 11.9589L4.39839 11.9595C4.92052 11.9601 5.56896 12.0788 6.10605 12.272C6.36621 12.3657 6.62481 12.4565 6.68052 12.4741C6.74818 12.4953 6.85693 12.3801 7.00704 12.1282C7.36599 11.526 8.01547 10.7607 8.56857 10.2881C9.33001 9.63752 9.25197 9.6332 9.66154 10.3489C10.1087 11.1303 10.1939 11.2154 10.5283 11.2154C11.1479 11.2154 11.2089 10.7508 10.7021 9.89353C10.5277 9.59868 10.3585 9.30772 10.326 9.24699C10.2227 9.05388 11.7118 8.55295 12.8145 8.40994L13.1693 8.36391V9.20762C13.1693 10.2218 13.2372 10.3675 13.71 10.3675C14.1821 10.3675 14.2507 10.2211 14.2507 9.21403C14.2507 8.23769 14.16 8.30716 15.1777 8.50554C15.7636 8.61974 16.7524 8.93276 17.0456 9.09688C17.1346 9.14663 17.0885 9.26533 16.7485 9.86342C16.2147 10.8021 16.2646 11.2289 16.9078 11.2289C17.2439 11.2289 17.2998 11.1729 17.7403 10.395C17.9763 9.97814 18.1464 9.74576 18.1948 9.77379C18.7466 10.0926 20.1988 11.5704 20.1987 11.8129C20.1987 11.8375 19.9093 12.0204 19.5556 12.2194C18.6746 12.715 18.4623 13.1047 18.8898 13.4411C19.1604 13.6539 19.3631 13.6145 20.0823 13.2094C20.4451 13.0049 20.7584 12.8376 20.7783 12.8376C20.9295 12.8376 21.4507 14.5222 21.5259 15.254L21.5692 15.6765H20.7579C19.7809 15.6765 19.5904 15.7655 19.5904 16.222C19.5904 16.6949 19.7214 16.7579 20.7057 16.7579H21.5506L21.5497 16.9776C21.5475 17.5085 20.9887 19.5182 20.813 19.6268C20.7862 19.6434 20.4772 19.4916 20.1266 19.2893C19.397 18.8686 19.1012 18.8191 18.8587 19.0773C18.5021 19.4569 18.6766 19.763 19.5233 20.2424C19.8948 20.4527 20.1987 20.6417 20.1987 20.6622C20.1987 20.8575 18.9854 22.1505 18.4272 22.55L18.1256 22.766L17.7597 22.1198C17.2286 21.1821 16.9431 21.017 16.5437 21.4165C16.2687 21.6914 16.2903 21.8168 16.7503 22.6185L17.1544 23.3229L16.798 23.4805C16.602 23.5672 16.2403 23.7003 15.9944 23.7762C15.5992 23.8983 15.3336 23.9539 14.4704 24.0954L14.2507 24.1315V23.2615C14.2507 22.2748 14.1698 22.0976 13.7195 22.0976C13.2668 22.0976 13.1693 22.3075 13.1693 23.2827V24.1361L12.9834 24.1005C12.8812 24.0809 12.6606 24.0456 12.4934 24.0219C11.7532 23.9168 10.3305 23.4437 10.3305 23.3026C10.3305 23.2644 10.4977 22.9376 10.7022 22.5766C11.1936 21.7087 11.1747 21.3495 10.6323 21.2478C10.2837 21.1824 10.1203 21.3287 9.68611 22.0957L9.30275 22.7728L9.09001 22.6247C8.827 22.4416 7.55097 21.178 7.40121 20.9524L7.29168 20.7873L6.78408 21.0537L6.27649 21.3203L6.27571 22.5505L6.27502 23.7806L6.83262 24.2483C13.793 30.0874 24.2038 25.2968 24.2124 16.2509C24.2184 10.0001 18.8338 5.05933 12.7299 5.71486ZM6.05267 6.94279L5.5302 7.46847L5.82288 7.7557L6.11557 8.04302L6.65154 7.59807C7.30733 7.05353 7.28839 7.11955 6.89889 6.73593L6.57523 6.41721L6.05267 6.94279ZM20.5517 6.77305L20.1978 7.1314L20.7559 7.57964L21.314 8.0278L21.6174 7.72888L21.9209 7.42997L21.4133 6.92229L20.9056 6.4147L20.5517 6.77305ZM13.3163 11.1015C13.1731 11.2538 13.1693 11.3037 13.1693 13.0233C13.1693 14.7068 13.1632 14.7905 13.0391 14.83C11.8934 15.1936 11.9475 17.1785 13.1164 17.6668C13.7997 17.9522 15.1295 17.4437 15.1295 16.897C15.1295 16.8598 15.8696 16.825 16.9265 16.8127L18.7236 16.7917L18.8867 16.602C19.0661 16.3933 19.0882 16.2404 18.9747 15.9912C18.8428 15.7019 18.6728 15.6765 16.8667 15.6759L15.1632 15.6753L15.0057 15.3995C14.9164 15.2433 14.7196 15.0457 14.5515 14.9438L14.255 14.764L14.2529 13.0015C14.2507 11.2479 14.2499 11.2383 14.0943 11.092C13.8799 10.8906 13.5101 10.8951 13.3163 11.1015ZM3.33476 12.7579C-0.734291 13.9622 -0.646995 19.9357 3.45363 20.889L3.84174 20.9792V21.7074V22.4356H3.60261H3.36357L3.38294 24.7626C3.40163 27.0019 3.40769 27.0968 3.54378 27.2803C3.92592 27.7958 4.54962 27.9278 5.09433 27.6086C5.59362 27.3159 5.59907 27.2847 5.59907 24.7065V22.4356H5.36253H5.12599V21.7055V20.9756L5.52501 20.8932C8.06245 20.369 9.46324 17.2773 8.24517 14.8894C7.364 13.1619 5.17721 12.2126 3.33476 12.7579ZM5.57856 14.6327C7.12859 15.3861 7.42482 17.3936 6.1622 18.5877C5.1587 19.5367 3.56757 19.4641 2.66027 18.4279C0.897412 16.4145 3.1683 13.4611 5.57856 14.6327Z" fill="#9A9A9A"/>
</svg>
