<svg width="16" height="17" viewBox="0 0 16 17" fill="none" xmlns="http://www.w3.org/2000/svg">
<path fill-rule="evenodd" clip-rule="evenodd" d="M11.6585 3.45363C11.8682 3.63334 11.8924 3.94899 11.7127 4.15866L7.99165 8.49993L11.7127 12.8412C11.8924 13.0509 11.8682 13.3665 11.6585 13.5462C11.4488 13.7259 11.1332 13.7017 10.9535 13.492L6.95348 8.82532C6.79298 8.63808 6.79298 8.36178 6.95348 8.17453L10.9535 3.50787C11.1332 3.2982 11.4488 3.27392 11.6585 3.45363ZM8.9919 3.4537C9.20156 3.63341 9.22584 3.94906 9.04613 4.15873L5.32504 8.5L9.04613 12.8413C9.22584 13.0509 9.20156 13.3666 8.9919 13.5463C8.78224 13.726 8.46659 13.7017 8.28688 13.4921L4.28688 8.82539C4.12638 8.63815 4.12638 8.36185 4.28688 8.1746L8.28688 3.50793C8.46659 3.29827 8.78224 3.27399 8.9919 3.4537Z" fill="#1C274C"/>
</svg>
