<svg width="23" height="23" viewBox="0 0 23 23" fill="none" xmlns="http://www.w3.org/2000/svg">
<path fill-rule="evenodd" clip-rule="evenodd" d="M3.25165 0.980954C2.93196 1.1757 2.91066 1.26388 2.91066 2.39391C2.91066 3.3213 2.9185 3.41924 3.00431 3.5598C3.28791 4.0244 4.04123 4.0244 4.32483 3.5598C4.46748 3.32606 4.46748 1.46176 4.32483 1.22802C4.12106 0.894218 3.59349 0.772765 3.25165 0.980954ZM8.53158 0.980954C8.21189 1.1757 8.19059 1.26388 8.19059 2.39391C8.19059 3.3213 8.19844 3.41924 8.28424 3.5598C8.56785 4.0244 9.32116 4.0244 9.60477 3.5598C9.74742 3.32606 9.74742 1.46176 9.60477 1.22802C9.40099 0.894218 8.87342 0.772765 8.53158 0.980954ZM13.8115 0.980954C13.4918 1.1757 13.4705 1.26388 13.4705 2.39391C13.4705 3.3213 13.4784 3.41924 13.5642 3.5598C13.8478 4.0244 14.6011 4.0244 14.8847 3.5598C15.0274 3.32606 15.0274 1.46176 14.8847 1.22802C14.6809 0.894218 14.1534 0.772765 13.8115 0.980954ZM19.0915 0.980954C18.7718 1.1757 18.7505 1.26388 18.7505 2.39391C18.7505 3.3213 18.7583 3.41924 18.8441 3.5598C19.1277 4.0244 19.881 4.0244 20.1646 3.5598C20.3073 3.32606 20.3073 1.46176 20.1646 1.22802C19.9609 0.894218 19.4333 0.772765 19.0915 0.980954ZM0.98882 2.48782C0.64825 2.69522 0.647827 2.69775 0.647646 4.52474L0.647465 6.16107H11.5845H22.5215L22.5213 4.52474C22.5211 2.40814 22.5146 2.39445 21.5197 2.39409L21.0129 2.39391L21.0126 2.71174C21.0112 3.94725 20.4983 4.58375 19.5044 4.58345C18.5044 4.58314 17.9976 3.95418 17.9962 2.71174L17.9958 2.39391H16.8644H15.733L15.7326 2.71174C15.7312 3.94725 15.2184 4.58375 14.2244 4.58345C13.2245 4.58314 12.7176 3.95418 12.7162 2.71174L12.7159 2.39391H11.5845H10.4531L10.4527 2.71174C10.4513 3.94725 9.93846 4.58375 8.94451 4.58345C7.94458 4.58314 7.4377 3.95418 7.43631 2.71174L7.43595 2.39391H6.30454H5.17312L5.17276 2.71174C5.17137 3.94725 4.65853 4.58375 3.66457 4.58345C2.66464 4.58314 2.15777 3.95418 2.15638 2.71174L2.15602 2.39391L1.64926 2.39409C1.22675 2.39421 1.11693 2.40982 0.98882 2.48782ZM0.647646 14.5783C0.647827 23.195 0.61482 22.4149 0.98882 22.6427C1.23103 22.7902 21.9379 22.7902 22.1801 22.6427C22.5541 22.4149 22.5211 23.195 22.5213 14.5783L22.5215 6.91451H11.5845H0.647465L0.647646 14.5783ZM13.8473 10.4933V12.942H13.4702H13.093V10.87V8.79809H9.69878C7.83192 8.79809 6.30454 8.80508 6.30454 8.81358C6.30454 8.82208 7.49207 9.33598 8.94354 9.95548L11.5826 11.082L11.5835 16.3207C11.5841 19.2019 11.5755 21.5594 11.5646 21.5594C11.5536 21.5594 10.3819 21.0614 8.96056 20.4527L6.37647 19.3461H5.96336H5.55026V13.6954V8.04465H9.69878H13.8473V10.4933ZM17.5716 14.0718C17.5716 14.2171 17.4816 14.322 16.5948 15.2115L15.6181 16.1911L15.3686 15.945L15.1191 15.6989L15.7436 15.0739L16.3681 14.4488H14.3535H12.3387V14.0721V13.6954H14.3535H16.3681L15.7442 13.0709L15.1202 12.4463L15.3677 12.199L15.6151 11.9517L16.5933 12.9317C17.4817 13.8219 17.5716 13.9265 17.5716 14.0718ZM10.1702 15.2965C9.92796 15.5384 10.1071 15.9557 10.4531 15.9557C10.7045 15.9557 10.8302 15.8301 10.8302 15.579C10.8302 15.4534 10.7988 15.3592 10.7359 15.2965C10.6731 15.2337 10.5788 15.2023 10.4531 15.2023C10.3274 15.2023 10.2331 15.2337 10.1702 15.2965ZM13.8473 17.2506V19.2991H13.4702H13.093V17.2506V15.2023H13.4702H13.8473V17.2506Z" fill="#9A9A9A"/>
</svg>
