<svg width="25" height="30" viewBox="0 0 25 30" fill="none" xmlns="http://www.w3.org/2000/svg">
<path fill-rule="evenodd" clip-rule="evenodd" d="M9.54971 0.394885C9.12815 0.607798 9.01625 0.831063 9.01625 1.45922V1.98568H10.0032H10.9902L10.9696 1.43555C10.9332 0.463928 10.3129 0.00932865 9.54971 0.394885ZM5.59983 2.95319C5.39248 3.07064 4.85955 3.87768 4.85445 4.08199C4.85384 4.10651 7.16855 4.1266 9.99815 4.1266H15.143L14.9105 3.66568C14.4507 2.75413 14.8256 2.81807 9.94905 2.81921L5.83459 2.8202L5.59983 2.95319ZM1.37431 5.03093C1.08124 5.13339 0.829282 5.35627 0.696525 5.63054L0.571533 5.88882V13.7763V21.6638L2.37044 21.682C5.15886 21.71 5.15071 21.7016 5.15071 24.523V26.3089H9.64068H14.1307V26.1374C14.1306 25.95 14.2623 25.8142 15 25.24L15.4183 24.9144L15.4138 24.246L15.4093 23.5776L14.7787 23.077C13.9471 22.4168 13.954 22.5059 14.6413 21.2988C15.3789 20.0034 15.301 20.0403 16.3781 20.4759L17.1009 20.7682L17.2538 20.6479C17.3379 20.5818 17.5859 20.4297 17.805 20.31C18.1877 20.1007 18.2047 20.0819 18.2408 19.8257C18.4664 18.2231 18.4369 18.2805 19.037 18.2805H19.4235L19.4232 12.1699C19.4228 5.09167 19.4575 5.42296 18.6807 5.07013C18.398 4.94171 1.73749 4.90403 1.37431 5.03093ZM5.38098 6.69008C5.69247 6.79863 5.77803 7.092 5.57235 7.34625C5.46137 7.48349 5.43176 7.4873 4.24913 7.51638L3.03948 7.54614V9.44919V11.3522L4.87591 11.368C7.06297 11.3867 6.87533 11.4609 6.87533 10.5767C6.87533 9.66438 7.00907 9.44226 7.44746 9.62655C7.94256 9.83474 7.80279 11.5977 7.25822 12.0133L7.03343 12.1848L4.977 12.2017L2.92057 12.2187L2.64867 12.0462C2.16042 11.7365 2.15015 11.6872 2.12944 9.55629C2.10181 6.70233 2.14322 6.64402 4.20513 6.6307C4.78997 6.62697 5.26924 6.6511 5.38098 6.69008ZM7.19085 7.75586C7.57405 8.05722 7.50265 8.17818 6.1508 9.51716C5.03196 10.6254 4.86647 10.7589 4.68287 10.7006C4.41401 10.6152 3.4704 9.54738 3.51242 9.37596C3.62379 8.92197 3.92531 8.9037 4.3662 9.32427C4.8103 9.74781 4.67594 9.80726 5.77583 8.70083C6.88743 7.58261 6.93242 7.55254 7.19085 7.75586ZM17.7042 7.80549C17.8487 7.98407 17.8487 8.17864 17.7042 8.3573L17.5905 8.49766L13.8161 8.5138C11.3998 8.52415 9.98536 8.50855 9.88511 8.47041C9.55649 8.3455 9.53449 7.87217 9.84978 7.7111C9.96549 7.65203 10.8213 7.63886 13.794 7.65035L17.5905 7.66504L17.7042 7.80549ZM14.2119 10.4942C14.4036 10.6451 14.4207 10.9135 14.2496 11.0846C14.1351 11.1992 14.0514 11.2036 11.9898 11.2036C9.92811 11.2036 9.84446 11.1992 9.72989 11.0846C9.55877 10.9135 9.5759 10.6451 9.76765 10.4942C10.0118 10.3021 13.9677 10.3021 14.2119 10.4942ZM6.90509 14.0501C7.6198 14.3756 7.70719 14.6714 7.70757 16.7672L7.70795 18.4355L7.55121 18.75C7.20006 19.4546 6.85896 19.5472 4.71545 19.5191C2.85701 19.4948 2.65499 19.4291 2.27582 18.7265C2.07501 18.3544 2.0773 15.0516 2.27864 14.6752C2.42342 14.4045 2.70561 14.1416 2.98003 14.0217C3.29022 13.8862 6.59771 13.9101 6.90509 14.0501ZM3.16645 14.895L3.00979 15.0183V16.7088C3.00979 18.8789 2.77214 18.6373 4.90621 18.6373C7.0756 18.6373 6.84054 18.8527 6.86338 16.8444C6.88241 15.1628 6.87426 15.068 6.69538 14.8892C6.50933 14.7031 3.40387 14.7083 3.16645 14.895ZM17.6989 15.0691C17.87 15.2402 17.8528 15.5087 17.6612 15.6595C17.4148 15.8533 10.014 15.8533 9.76765 15.6595C9.5759 15.5087 9.55877 15.2402 9.72989 15.0691C9.84636 14.9526 9.92811 14.9502 13.7144 14.9502C17.5006 14.9502 17.5824 14.9526 17.6989 15.0691ZM15.9414 17.6846C16.2885 17.8166 16.2904 18.2884 15.9443 18.4331C15.6973 18.5363 10.1472 18.561 9.88168 18.4601C9.55618 18.3363 9.53616 17.8615 9.84978 17.7028C10.0351 17.6091 15.6982 17.5922 15.9414 17.6846ZM19.0906 19.8333C18.9685 20.6606 18.9109 20.7633 18.4831 20.9172C18.318 20.9765 17.9744 21.1703 17.7196 21.3477C17.1615 21.7361 17.2262 21.7333 16.4035 21.4027C16.0373 21.2555 15.7271 21.1351 15.7141 21.1351C15.6882 21.1351 15.0822 22.1872 15.0822 22.2319C15.0822 22.2469 15.3498 22.4759 15.6769 22.7407C16.004 23.0056 16.2739 23.2478 16.2766 23.2789C16.2793 23.31 16.2815 23.7503 16.2815 24.2572C16.2815 24.7642 16.2793 25.2045 16.2766 25.2355C16.2739 25.2667 16.004 25.5088 15.6769 25.7737C15.3498 26.0386 15.0822 26.2676 15.0822 26.2826C15.0822 26.3274 15.6882 27.3794 15.7141 27.3794C15.7271 27.3794 16.0373 27.259 16.4035 27.1118C17.2133 26.7863 17.2259 26.786 17.6082 27.0809C17.777 27.2111 18.1205 27.4125 18.3717 27.5286C18.9388 27.7906 18.9708 27.8425 19.0979 28.7027L19.2011 29.4014H19.8409H20.4807L20.5143 29.2081C20.5328 29.1018 20.5788 28.7874 20.6166 28.5094C20.705 27.8591 20.7593 27.7821 21.3079 27.5286C21.5591 27.4125 21.9027 27.2111 22.0714 27.0809C22.4551 26.7849 22.4895 26.7858 23.2956 27.1118C23.6595 27.259 23.9644 27.3794 23.9733 27.3794C24.0014 27.3794 24.5975 26.3118 24.5956 26.2648C24.5946 26.24 24.3525 26.0336 24.0575 25.8061C23.7625 25.5785 23.4916 25.3568 23.4556 25.3134C23.4036 25.2507 23.3659 23.8065 23.4029 23.2938C23.4057 23.2545 23.6756 23.0056 24.0027 22.7407C24.3298 22.4759 24.5975 22.2436 24.5975 22.2245C24.5975 22.1726 23.9979 21.1351 23.9679 21.1351C23.9535 21.1351 23.6423 21.2555 23.2761 21.4027C22.4534 21.7333 22.5181 21.7361 21.9601 21.3477C21.7052 21.1703 21.3616 20.9765 21.1966 20.9172C20.7864 20.7697 20.7043 20.6424 20.6203 20.0242C20.5811 19.7357 20.5336 19.4127 20.5149 19.3063L20.4807 19.1131H19.8388H19.1969L19.0906 19.8333ZM13.2199 22.0374C13.3979 22.2047 13.3949 22.4116 13.2116 22.5948L13.0656 22.7407H9.89249C6.34339 22.7407 6.45902 22.7548 6.45902 22.3221C6.45902 21.892 6.32474 21.9082 9.8896 21.9082H13.0823L13.2199 22.0374ZM20.5729 22.0236C22.2455 22.5991 22.7385 24.6648 21.499 25.9043C20.1578 27.2455 17.8794 26.524 17.5189 24.6438C17.1959 22.9596 18.9412 21.4622 20.5729 22.0236ZM1.22565 22.544C1.22565 22.5709 1.92148 23.2883 2.77191 24.1383L4.31809 25.6837V24.2523V22.821L4.16478 22.6768C4.00759 22.529 1.22565 22.4033 1.22565 22.544ZM19.4232 22.7927C17.7513 23.3413 18.0905 25.7412 19.8399 25.7412C21.7787 25.7412 21.8663 22.8736 19.9307 22.7641C19.7336 22.753 19.5051 22.7658 19.4232 22.7927Z" fill="#9A9A9A"/>
</svg>
