<svg width="51" height="49" viewBox="0 0 51 49" fill="none" xmlns="http://www.w3.org/2000/svg">
<path d="M9.96924 42.8L11.5701 44.7827C18.8731 51.0913 28.5443 45.0367 33.78 39.1022C39.7527 32.3348 44.8533 19.0759 39.6451 10.7519C37.277 6.96671 33.6476 6.10645 29.3695 6.91209C26.281 7.49379 23.6645 8.92482 21.2716 10.8775C21.1998 10.9348 21.0949 11.1096 21.0038 10.9649C24.8017 6.77827 31.307 3.90527 37.0258 5.23799C42.1595 6.43689 44.6877 12.0655 44.9499 16.8611C45.6289 29.2297 37.0369 43.6302 25.1439 47.9971C20.6478 49.6493 14.9594 49.5128 11.6611 45.6593C10.9877 44.8728 10.2866 43.775 9.96924 42.8Z" fill="url(#paint0_linear_346_144)"/>
<path d="M0.176646 0L9.23783 8.29401C9.47243 8.69273 8.30218 10.3422 8.61131 10.8939L16.3891 23.5848C16.6485 23.6094 16.9852 23.6722 17.1812 23.4728L21.1805 17.3472L19.7066 25.8488C21.7297 28.4542 19.0773 31.7586 15.9916 30.2757C14.2252 29.4264 14.1065 27.5611 14.6447 25.887L7.28925 11.8525C7.22577 11.7159 7.12088 11.7214 6.99116 11.705C6.59372 11.6586 4.38293 11.7897 4.28081 11.7023L0 0.0409631L0.176646 0Z" fill="url(#paint1_linear_346_144)"/>
<path d="M4.71695 17.4374L9.96929 36.9011L13.6181 29.0632L14.5482 30.3877L15.6632 31.0896L12.1028 38.9248H7.65638L1.78027 17.4374H4.71695Z" fill="url(#paint2_linear_346_144)"/>
<path d="M30.1147 17.4374L24.8652 36.9011L21.2136 29.0632L20.2835 30.3877L19.1685 31.0896L22.7317 38.9248H27.1781L33.0514 17.4374H30.1147Z" fill="url(#paint3_linear_346_144)"/>
<path d="M50.9999 17.4374V38.7937L50.8702 38.9057C49.8931 38.78 48.8609 38.8101 47.8838 38.9275V29.9453H43.5229L44.4117 27.2143H47.8838V17.4401H50.9999V17.4374Z" fill="url(#paint4_linear_346_144)"/>
<defs>
<linearGradient id="paint0_linear_346_144" x1="44.9875" y1="26.9543" x2="9.96924" y2="26.9543" gradientUnits="userSpaceOnUse">
<stop stop-color="#E596C5"/>
<stop offset="1" stop-color="#C17DEE"/>
</linearGradient>
<linearGradient id="paint1_linear_346_144" x1="21.1805" y1="15.322" x2="0" y2="15.322" gradientUnits="userSpaceOnUse">
<stop stop-color="#E596C5"/>
<stop offset="1" stop-color="#C17DEE"/>
</linearGradient>
<linearGradient id="paint2_linear_346_144" x1="15.6632" y1="28.1811" x2="1.78027" y2="28.1811" gradientUnits="userSpaceOnUse">
<stop stop-color="#E596C5"/>
<stop offset="1" stop-color="#C17DEE"/>
</linearGradient>
<linearGradient id="paint3_linear_346_144" x1="33.0514" y1="28.1811" x2="19.1685" y2="28.1811" gradientUnits="userSpaceOnUse">
<stop stop-color="#E596C5"/>
<stop offset="1" stop-color="#C17DEE"/>
</linearGradient>
<linearGradient id="paint4_linear_346_144" x1="50.9999" y1="28.1824" x2="43.5229" y2="28.1824" gradientUnits="userSpaceOnUse">
<stop stop-color="#E596C5"/>
<stop offset="1" stop-color="#C17DEE"/>
</linearGradient>
</defs>
</svg>
