<svg width="24" height="24" viewBox="0 0 24 24" fill="none" xmlns="http://www.w3.org/2000/svg">
<path fill-rule="evenodd" clip-rule="evenodd" d="M4.16639 3.528C2.76294 4.93144 2.76294 7.19026 2.76294 11.7079C2.76294 16.2255 2.76294 18.4843 4.16639 19.8878C5.56983 21.2912 7.82865 21.2912 12.3463 21.2912C16.8639 21.2912 19.1227 21.2912 20.5262 19.8878C21.9296 18.4843 21.9296 16.2255 21.9296 11.7079C21.9296 7.19026 21.9296 4.93144 20.5262 3.528C19.1227 2.12455 16.8639 2.12455 12.3463 2.12455C7.82865 2.12455 5.56983 2.12455 4.16639 3.528ZM6.07933 10.8294C6.43655 7.68277 9.111 5.23913 12.3555 5.23913C14.2549 5.23913 15.9593 6.07739 17.1163 7.40164C17.3775 7.70057 17.3469 8.15463 17.048 8.41581C16.7491 8.67699 16.295 8.64638 16.0338 8.34745C15.1384 7.32264 13.823 6.67663 12.3555 6.67663C9.90458 6.67663 7.87701 8.4804 7.52904 10.8294H7.87713C8.16792 10.8294 8.43007 11.0046 8.54126 11.2733C8.65245 11.542 8.59078 11.8513 8.38501 12.0567L7.26543 13.1748C6.98482 13.455 6.53027 13.455 6.24966 13.1748L5.13007 12.0567C4.92431 11.8513 4.86264 11.542 4.97383 11.2733C5.08502 11.0046 5.34716 10.8294 5.63796 10.8294H6.07933ZM17.4272 10.241C17.7078 9.96074 18.1624 9.96074 18.443 10.241L19.5626 11.359C19.7683 11.5645 19.83 11.8737 19.7188 12.1424C19.6076 12.4111 19.3455 12.5864 19.0547 12.5864H18.6133C18.2561 15.733 15.5816 18.1766 12.3372 18.1766C10.4378 18.1766 8.73331 17.3384 7.57629 16.0141C7.31512 15.7152 7.34572 15.2611 7.64465 15C7.94358 14.7388 8.39764 14.7694 8.65881 15.0683C9.55421 16.0931 10.8696 16.7391 12.3372 16.7391C14.7881 16.7391 16.8156 14.9354 17.1636 12.5864H16.8155C16.5247 12.5864 16.2626 12.4111 16.1514 12.1424C16.0402 11.8737 16.1019 11.5645 16.3076 11.359L17.4272 10.241Z" fill="#777D86"/>
</svg>
