<svg width="24" height="24" viewBox="0 0 24 24" fill="none" xmlns="http://www.w3.org/2000/svg">
<path fill-rule="evenodd" clip-rule="evenodd" d="M14.8719 1.20624C14.4821 1.04639 13.9879 1.04639 12.9995 1.04639C12.0111 1.04639 11.5169 1.04639 11.1271 1.20624C10.6073 1.41938 10.1943 1.82819 9.97905 2.34275C9.88076 2.57764 9.8423 2.85081 9.82725 3.24928C9.80513 3.83485 9.50178 4.37688 8.98916 4.66986C8.47654 4.96285 7.85071 4.9519 7.32739 4.67808C6.97128 4.49175 6.71308 4.38814 6.45845 4.35495C5.90066 4.28226 5.33654 4.43189 4.8902 4.77095C4.55545 5.02524 4.30835 5.44893 3.81415 6.29631C3.31995 7.1437 3.07285 7.56739 3.01777 7.98154C2.94434 8.53373 3.09549 9.09218 3.43798 9.53404C3.59431 9.73572 3.81401 9.90526 4.15499 10.1174C4.65626 10.4292 4.9788 10.9603 4.97877 11.5464C4.97873 12.1324 4.65621 12.6635 4.15499 12.9753C3.81395 13.1874 3.59422 13.357 3.43788 13.5587C3.09539 14.0005 2.94423 14.559 3.01767 15.1112C3.07274 15.5253 3.31984 15.949 3.81404 16.7964C4.30824 17.6438 4.55534 18.0675 4.8901 18.3218C5.33644 18.6608 5.90056 18.8104 6.45834 18.7377C6.71296 18.7046 6.97115 18.601 7.32723 18.4146C7.85058 18.1408 8.47646 18.1299 8.98911 18.4229C9.50176 18.7159 9.80513 19.2579 9.82725 19.8436C9.8423 20.242 9.88077 20.5151 9.97905 20.75C10.1943 21.2646 10.6073 21.6734 11.1271 21.8865C11.5169 22.0464 12.0111 22.0464 12.9995 22.0464C13.9879 22.0464 14.4821 22.0464 14.8719 21.8865C15.3917 21.6734 15.8047 21.2646 16.02 20.75C16.1183 20.5151 16.1567 20.2419 16.1718 19.8435C16.1939 19.2579 16.4972 18.7159 17.0098 18.4229C17.5225 18.1298 18.1484 18.1408 18.6717 18.4146C19.0278 18.6009 19.286 18.7045 19.5406 18.7377C20.0984 18.8104 20.6625 18.6607 21.1088 18.3217C21.4436 18.0674 21.6907 17.6437 22.1849 16.7963C22.6791 15.9489 22.9262 15.5252 22.9813 15.1111C23.0547 14.5589 22.9035 14.0005 22.561 13.5586C22.4047 13.3569 22.185 13.1873 21.844 12.9752C21.3427 12.6634 21.0202 12.1323 21.0203 11.5463C21.0203 10.9603 21.3428 10.4293 21.844 10.1175C22.185 9.90539 22.4048 9.73583 22.5611 9.53411C22.9036 9.09225 23.0548 8.5338 22.9814 7.98161C22.9263 7.56747 22.6792 7.14377 22.185 6.29639C21.6908 5.449 21.4437 5.02531 21.1089 4.77102C20.6626 4.43197 20.0985 4.28233 19.5407 4.35503C19.2861 4.38821 19.0279 4.49181 18.6718 4.67812C18.1484 4.95196 17.5226 4.96291 17.0099 4.6699C16.4973 4.37689 16.1939 3.83483 16.1718 3.24922C16.1567 2.85079 16.1183 2.57763 16.02 2.34275C15.8047 1.82819 15.3917 1.41938 14.8719 1.20624ZM12.9995 14.6964C14.7568 14.6964 16.1815 13.2861 16.1815 11.5464C16.1815 9.80669 14.7568 8.39639 12.9995 8.39639C11.2422 8.39639 9.81757 9.80669 9.81757 11.5464C9.81757 13.2861 11.2422 14.6964 12.9995 14.6964Z" fill="#777D86"/>
</svg>
