<svg width="25" height="25" viewBox="0 0 25 25" fill="none" xmlns="http://www.w3.org/2000/svg">
<path fill-rule="evenodd" clip-rule="evenodd" d="M4.68274 0.702488C4.06387 0.933348 3.47671 1.52423 3.86299 1.52739C4.37827 1.53166 4.86239 2.0723 4.95644 2.74841C5.02973 3.27573 4.20356 3.22359 12.4865 3.22359H19.7761L19.7749 2.38859C19.7734 1.29961 19.6131 0.934539 19.025 0.680271C18.6913 0.536036 5.07247 0.557062 4.68274 0.702488ZM3.40084 2.45707C3.30619 2.55512 3.21849 12.7508 3.31227 12.7508C3.32167 12.7508 3.52099 12.6647 3.75514 12.5595C7.83024 10.7291 12.5393 13.8668 12.5393 18.4127V18.9927L16.5406 18.9915C21.0115 18.9902 20.7591 19.0116 21.1336 18.6024C21.457 18.2491 21.4664 18.1846 21.4664 16.3194V14.6281L20.3968 14.5985C18.0607 14.5337 16.8972 13.5189 16.8972 11.5462C16.8972 9.48975 18.152 8.48179 20.7137 8.48038L21.4664 8.47996V6.78082C21.4664 4.90661 21.457 4.84136 21.1336 4.49192C20.7662 4.09495 21.5018 4.13007 12.9091 4.09965L5.17037 4.07225L4.93271 3.95597C4.49504 3.74186 4.24582 3.37182 4.16941 2.8227C4.10694 2.37317 3.6784 2.1693 3.40084 2.45707ZM22.3116 7.15823C22.3116 8.44345 22.3145 8.47996 22.4173 8.47996C22.5854 8.47996 22.7236 8.29031 22.7633 8.00479C22.8573 7.32868 23.3414 6.78804 23.8567 6.78377C24.4269 6.77907 23.2796 5.92754 22.6195 5.86551L22.3116 5.83657V7.15823ZM23.6888 7.70945C23.6328 7.76755 23.5704 7.93386 23.5503 8.07908C23.3982 9.17233 23.0918 9.31762 20.859 9.35504L19.1686 9.38343L18.8517 9.54448C17.2627 10.3519 17.2627 12.7414 18.8517 13.5481L19.1686 13.7089H21.0438H22.919L23.236 13.5479C23.6405 13.3423 24.0444 12.9236 24.2427 12.5044L24.3981 12.1758L24.4136 10.0017C24.4287 7.8745 24.4268 7.82523 24.3212 7.71576C24.1776 7.56697 23.8297 7.56346 23.6888 7.70945ZM20.0402 11.2724C20.0989 11.3333 20.1459 11.4549 20.1459 11.5462C20.1459 11.6374 20.0989 11.7591 20.0402 11.8199C19.9815 11.8808 19.8641 11.9295 19.7761 11.9295C19.688 11.9295 19.5707 11.8808 19.512 11.8199C19.4533 11.7591 19.4063 11.6374 19.4063 11.5462C19.4063 11.4549 19.4533 11.3333 19.512 11.2724C19.5707 11.2116 19.688 11.1629 19.7761 11.1629C19.8641 11.1629 19.9815 11.2116 20.0402 11.2724ZM5.11756 12.9511C0.892298 13.8873 -0.706097 19.2924 2.2915 22.5073C2.88427 23.1429 2.9028 23.1486 2.93776 22.7023C3.0145 21.7246 3.61417 20.7471 4.50221 20.1521L4.81073 19.9455L4.54589 19.647C3.14567 18.0693 4.19659 15.5432 6.25328 15.5432C8.30996 15.5432 9.36088 18.0693 7.96066 19.647L7.69582 19.9455L8.00434 20.1521C8.89238 20.7471 9.49205 21.7246 9.5688 22.7023C9.60355 23.1457 9.62289 23.1406 10.1922 22.536C13.961 18.5343 10.3869 11.7836 5.11756 12.9511ZM5.68938 16.4542C4.91202 16.7397 4.45745 17.8431 4.79437 18.6268C5.25157 19.6902 6.64564 19.9341 7.40238 19.0831C8.51578 17.8311 7.24605 15.8824 5.68938 16.4542ZM5.88349 20.4738C4.58537 20.6556 3.68746 21.7747 3.72891 23.1593L3.74419 23.6694L4.18848 23.8558C5.45178 24.3858 7.03963 24.3868 8.31692 23.8584L8.76236 23.6742L8.77765 23.1617C8.82768 21.4823 7.49825 20.2475 5.88349 20.4738Z" fill="#9A9A9A"/>
</svg>
