<svg width="29" height="28" viewBox="0 0 29 28" fill="none" xmlns="http://www.w3.org/2000/svg">
<path fill-rule="evenodd" clip-rule="evenodd" d="M4.86302 0.380008C4.77585 0.429106 4.76421 0.532267 4.76421 1.25258V2.06947H5.01827H5.2724V1.28111C5.2724 0.359166 5.19651 0.19208 4.86302 0.380008ZM10.6227 0.380008C10.5356 0.429106 10.5238 0.532267 10.5238 1.25258V2.06947H10.778H11.032V1.28111C11.032 0.359166 10.9561 0.19208 10.6227 0.380008ZM16.3824 0.380008C16.2952 0.429106 16.2836 0.532267 16.2836 1.25258V2.06947H16.5376H16.7917V1.28111C16.7917 0.359166 16.7158 0.19208 16.3824 0.380008ZM22.142 0.380008C22.0549 0.429106 22.0432 0.532267 22.0432 1.25258V2.06947H22.2973H22.5514V1.28111C22.5514 0.359166 22.4755 0.19208 22.142 0.380008ZM1.91255 2.5031C1.49268 2.602 1.12248 2.91176 0.928842 3.32622C0.81869 3.56199 0.81392 3.67613 0.812691 6.0992L0.811462 8.62633H13.6896H26.5677L26.55 6.0992C26.5305 3.31217 26.5359 3.35469 26.1518 2.91526C25.8052 2.51856 25.6258 2.48121 23.9772 2.46233L22.4949 2.44533V3.28279V4.12018L22.7631 4.21299C24.2997 4.74474 23.9258 6.90518 22.2973 6.90518C20.6687 6.90518 20.2949 4.74474 21.8314 4.21299L22.0996 4.12018V3.28608V2.45198H19.4175H16.7353V3.28608L16.7352 4.12018L17.0034 4.21299C18.5409 4.74509 18.1478 6.93882 16.5164 6.93127C14.959 6.92414 14.5896 4.72173 16.0609 4.21607L16.34 4.12018V3.28608V2.45198H13.6578H10.9756V3.28608V4.12018L11.2452 4.21285C12.708 4.71558 12.4592 6.78279 10.9195 6.91791C9.21843 7.06716 8.74103 4.71565 10.3686 4.20397L10.5803 4.13739V3.29468V2.45198H7.89812H5.21595V3.28608V4.12018L5.50225 4.21859C7.04842 4.74999 6.6355 6.9368 4.99008 6.93099C3.42786 6.92547 3.09365 4.64214 4.59147 4.20788L4.82066 4.14144V3.29671V2.45198L3.45128 2.45757C2.69821 2.46065 2.00572 2.48114 1.91255 2.5031ZM4.56552 4.60444C3.7839 4.934 3.78043 6.1029 4.55995 6.44547C5.34201 6.78908 6.13244 6.2311 6.04932 5.39406C5.98528 4.74894 5.20612 4.33434 4.56552 4.60444ZM10.3262 4.60577C9.51123 4.95778 9.53812 6.13011 10.3688 6.46596C11.1302 6.77377 11.8898 6.20837 11.809 5.39406C11.7446 4.74586 10.9634 4.33056 10.3262 4.60577ZM16.0849 4.60444C15.3032 4.934 15.2998 6.1029 16.0793 6.44547C16.8613 6.78908 17.6518 6.2311 17.5687 5.39406C17.5046 4.74894 16.7255 4.33434 16.0849 4.60444ZM21.8445 4.60444C21.063 4.934 21.0595 6.1029 21.839 6.44547C22.621 6.78908 23.4114 6.2311 23.3283 5.39406C23.2643 4.74894 22.4851 4.33434 21.8445 4.60444ZM26.9429 14.3422L26.9276 24.0076L26.7774 24.3177C26.5666 24.7528 26.2323 25.0829 25.8122 25.2706L25.4595 25.4283L14.2873 25.4426L3.11511 25.4569L3.13499 25.9115C3.16672 26.6367 3.62012 27.1699 4.2973 27.2782C4.57535 27.3226 27.3705 27.3226 27.6486 27.2782C27.9959 27.2226 28.4269 26.937 28.6196 26.6346L28.791 26.3658L28.8076 16.1164C28.8189 9.16333 28.8054 5.80391 28.7658 5.67096C28.6026 5.12389 28.0766 4.75845 27.3788 4.70739L26.9583 4.67662L26.9429 14.3422ZM0.811462 16.5157V24.0225L0.968812 24.3156C1.1589 24.6696 1.52514 24.9294 1.95548 25.0155C2.16386 25.0573 5.67564 25.0705 13.8272 25.0603L25.403 25.0458L25.6577 24.9317C25.9745 24.7898 26.2634 24.5152 26.3985 24.2274C26.4968 24.0181 26.5017 23.6531 26.5029 16.5083L26.5041 9.00883H13.6578H0.811462V16.5157ZM12.5244 14.2309C12.829 14.5256 12.5972 14.5822 11.0845 14.5822H9.73334V15.7013V16.8204L11.0683 16.8351C12.4824 16.8506 12.5801 16.87 12.4827 17.1155C12.4513 17.1949 12.2945 17.2049 11.0903 17.2049H9.73334V18.4334V19.6619L11.2431 19.6765C12.8536 19.692 12.9443 19.7098 12.7239 19.9669C12.6328 20.073 9.51463 20.086 9.40578 19.9806C9.28117 19.86 9.31116 14.2749 9.43685 14.204C9.61509 14.1036 12.418 14.1279 12.5244 14.2309ZM21.9303 14.2016C23.6634 14.4648 24.0921 16.3992 22.5624 17.054C22.4255 17.1125 22.3353 17.178 22.3619 17.1994C22.3885 17.2207 22.505 17.3054 22.6207 17.3873C22.919 17.5986 23.0858 17.915 23.2304 18.5436C23.2996 18.8441 23.4184 19.258 23.4945 19.4633C23.6486 19.8789 23.6359 19.9916 23.4353 19.9916C23.2343 19.9916 23.0413 19.5173 22.8049 18.4427C22.6274 17.6353 22.0076 17.2596 20.8534 17.2596H20.577L20.5619 18.6119C20.5471 19.9361 20.5444 19.9646 20.4289 19.9806C20.1804 20.0149 20.1779 19.9851 20.1934 17.1174L20.208 14.3924L20.3556 14.3239C20.4897 14.2617 21.0684 14.1686 21.422 14.1523C21.4997 14.1488 21.7284 14.171 21.9303 14.2016ZM4.86649 15.6722C5.32263 16.467 5.72031 17.1154 5.75023 17.113C5.78008 17.1105 6.17891 16.4602 6.63658 15.6678C7.33717 14.4546 7.49026 14.2244 7.60554 14.2104C7.90658 14.1739 7.83683 14.3476 6.88355 16.0093L5.95001 17.6367V18.7841C5.95001 20.0168 5.92363 20.1242 5.65497 19.985C5.56383 19.9378 5.55472 19.829 5.55472 18.7894V17.6458L4.62284 16.0209C3.66768 14.3552 3.59497 14.1737 3.89724 14.2102C4.01649 14.2245 4.15903 14.4394 4.86649 15.6722ZM16.5527 14.268C16.6561 14.3915 18.6038 19.7388 18.5869 19.8529C18.5677 19.9827 18.3624 20.0312 18.2776 19.9259C18.2461 19.8869 18.0705 19.4433 17.8872 18.9401L17.5541 18.0252L16.4166 18.0248C15.3856 18.0246 15.2756 18.0334 15.2405 18.1201C15.2193 18.1727 15.0611 18.5969 14.8892 19.0627C14.7171 19.5285 14.5377 19.9394 14.4905 19.9758C14.3962 20.0483 14.1942 19.9797 14.1942 19.8752C14.1942 19.8164 16.2116 14.3228 16.2624 14.2432C16.3053 14.1761 16.4889 14.1917 16.5527 14.268ZM21.168 14.5644C21.0437 14.5746 20.8595 14.5961 20.7586 14.6123L20.5751 14.6418V15.7594V16.8771H21.1843C22.6942 16.8771 23.4011 16.2512 23.005 15.2652C22.835 14.842 22.0124 14.4571 21.4503 14.5378C21.4192 14.5423 21.2921 14.5542 21.168 14.5644ZM16.3751 15.0632C16.3399 15.1181 15.4365 17.5787 15.4365 17.6193C15.4365 17.6319 15.8833 17.6421 16.4294 17.6421C16.9755 17.6421 17.4138 17.6214 17.4034 17.5963C17.3931 17.5712 17.1836 16.9995 16.9377 16.3259C16.481 15.0744 16.4345 14.9701 16.3751 15.0632Z" fill="url(#paint0_linear_2_2476)"/>
<defs>
<linearGradient id="paint0_linear_2_2476" x1="28.8115" y1="13.8115" x2="0.811462" y2="13.8115" gradientUnits="userSpaceOnUse">
<stop stop-color="#09D1C7"/>
<stop offset="1" stop-color="#15919B"/>
</linearGradient>
</defs>
</svg>
