<svg width="33" height="33" viewBox="0 0 33 33" fill="none" xmlns="http://www.w3.org/2000/svg">
<path fill-rule="evenodd" clip-rule="evenodd" d="M16.0353 1.03115L15.8665 1.23596V3.58571C15.8665 5.85126 15.8712 5.94169 15.9998 6.10849C16.1635 6.32088 16.5126 6.39947 16.7837 6.28483C17.1756 6.11923 17.1716 6.14795 17.1716 3.55401V1.18414L16.9885 1.00515C16.7141 0.736927 16.268 0.749029 16.0353 1.03115ZM8.51977 2.96667C7.95761 3.24496 8.03705 3.53474 9.27496 5.72043C10.5746 8.01503 10.6098 8.05381 11.1716 7.81636C11.8035 7.54924 11.744 7.30625 10.5104 5.11775C9.24213 2.86746 9.07808 2.69018 8.51977 2.96667ZM23.7685 3.07355C23.4323 3.39437 21.4786 6.94069 21.4786 7.23005C21.4786 7.77136 22.1523 8.09617 22.5405 7.74195C22.7992 7.50586 24.8154 3.90542 24.8553 3.60813C24.9318 3.03921 24.1879 2.67331 23.7685 3.07355ZM2.77577 8.84332C2.49285 9.132 2.48684 9.5181 2.76107 9.78214C3.03279 10.0437 6.5757 12.0795 6.75921 12.0795C7.36848 12.0795 7.67846 11.3964 7.26874 10.9569C6.99969 10.6683 3.56145 8.67481 3.26208 8.63382C3.04298 8.60381 2.98676 8.62802 2.77577 8.84332ZM29.5705 8.66544C29.2473 8.79064 25.9173 10.798 25.7692 10.9569C25.3676 11.3877 25.6871 12.0795 26.2879 12.0795C26.4735 12.0795 30.0153 10.0356 30.2883 9.77089C30.7748 9.29931 30.2038 8.41997 29.5705 8.66544ZM15.5075 8.88755C12.187 9.34823 9.50291 11.7905 8.69334 15.0878C8.47817 15.9642 8.43014 17.0406 8.42855 21.0188L8.42705 24.7311H16.525H24.6229L24.5919 20.4196C24.5582 15.7548 24.55 15.6363 24.1809 14.5078C22.961 10.7778 19.244 8.36926 15.5075 8.88755ZM18.0852 14.5433V15.6752H19.1945H20.304V17.3066V18.938H19.1945H18.0852V20.07V21.202H16.519H14.9528V20.07V18.938H13.8434H12.7341V17.3066V15.6752H13.8434H14.9528V14.5433V13.4112H16.519H18.0852V14.5433ZM0.702895 16.6498C0.450886 16.9069 0.459406 17.3438 0.721606 17.6114L0.912388 17.806H3.23042H5.54845L5.72161 17.654C6.00268 17.4073 6.02323 16.9411 5.76463 16.6772L5.56574 16.4743H3.2204H0.874966L0.702895 16.6498ZM27.2733 16.6772C27.0147 16.9411 27.0353 17.4073 27.3164 17.654L27.4895 17.806H29.8075H32.1256L32.3164 17.6114C32.5839 17.3383 32.5873 16.9106 32.324 16.6532L32.141 16.4743H29.8066H27.4722L27.2733 16.6772ZM7.25246 26.3958V27.0617H16.519H25.7856V26.3958V25.7299H16.519H7.25246V26.3958ZM6.30122 28.1949C5.78718 28.4545 5.75143 28.6021 5.75176 30.4667C5.75201 32.2768 5.77315 32.3749 6.22404 32.6554C6.55874 32.8636 26.4792 32.8636 26.8139 32.6554C27.2757 32.3681 27.2916 32.2894 27.2717 30.391C27.2515 28.473 27.2478 28.4576 26.7275 28.1946C26.3093 27.9832 6.71979 27.9835 6.30122 28.1949Z" fill="url(#paint0_linear_2_2496)"/>
<defs>
<linearGradient id="paint0_linear_2_2496" x1="32.5193" y1="16.8115" x2="0.519287" y2="16.8115" gradientUnits="userSpaceOnUse">
<stop stop-color="#09D1C7"/>
<stop offset="1" stop-color="#15919B"/>
</linearGradient>
</defs>
</svg>
