<svg width="31" height="30" viewBox="0 0 31 30" fill="none" xmlns="http://www.w3.org/2000/svg">
<path fill-rule="evenodd" clip-rule="evenodd" d="M14.0944 0.351625C1.87523 1.60415 -3.43506 16.4515 5.23524 25.1217C8.10152 27.988 11.4026 29.3442 15.5134 29.3442C25.1087 29.3442 31.9964 20.4461 29.596 11.1511C27.8284 4.30593 21.1188 -0.368357 14.0944 0.351625ZM11.534 5.45326C11.8671 5.73362 11.7986 6.22468 11.4009 6.40696C10.7083 6.72423 7.53461 7.7038 7.35051 7.65709C6.93559 7.55167 6.77896 7.03518 7.07276 6.74138C7.24255 6.57159 10.8406 5.31979 11.1812 5.31202C11.296 5.30941 11.4238 5.36055 11.534 5.45326ZM21.8431 5.93153C24.1847 6.71152 24.2073 6.72431 24.1156 7.21289C24.0006 7.82586 23.7971 7.81438 21.5573 7.06824C19.2246 6.29123 19.1935 6.27372 19.2843 5.78985C19.3999 5.17355 19.6008 5.18466 21.8431 5.93153ZM11.3416 10.4301C13.0655 11.3116 12.497 13.8479 10.5753 13.8489C8.50946 13.85 8.05662 11.0463 10.0081 10.3373C10.3803 10.202 10.9766 10.2436 11.3416 10.4301ZM21.2236 10.4187C22.9706 11.2617 22.3874 13.8526 20.4515 13.8494C18.3476 13.846 17.9788 10.96 19.9974 10.2957C20.2626 10.2085 20.9257 10.275 21.2236 10.4187ZM10.1592 11.5541C9.68417 11.9278 9.95952 12.6884 10.5688 12.6854C11.0855 12.6829 11.3602 12.1968 11.114 11.7207C10.9554 11.414 10.4496 11.3257 10.1592 11.5541ZM20.075 11.5386C19.5845 11.9359 19.8337 12.6824 20.458 12.6854C20.9182 12.6877 21.1941 12.318 21.0693 11.8663C20.9615 11.476 20.3863 11.2864 20.075 11.5386ZM5.01293 12.1126C5.19623 12.2039 6.25332 13.2329 8.75902 15.7593L12.2497 19.2786L12.5903 19.159C15.2202 18.2352 18.7343 18.7811 21.0908 20.4797C22.4591 21.4661 22.7701 21.9315 22.345 22.3566C22.0601 22.6415 21.8049 22.5907 21.3216 22.1526C17.9792 19.1236 13.0444 19.1265 9.69746 22.1596C9.48721 22.3502 9.26032 22.5091 9.19319 22.5128C8.54934 22.5483 8.28271 21.9993 8.70838 21.5145L8.88311 21.3155L5.74323 18.1366C2.52038 14.8738 2.41031 14.7476 2.28768 14.1766C1.98668 12.7752 3.71551 11.4659 5.01293 12.1126ZM3.96289 13.1387C3.68419 13.2552 3.452 13.5883 3.452 13.8715V14.1418L4.35804 15.0887C4.85629 15.6094 5.29104 16.0355 5.3241 16.0355C5.35715 16.0355 5.61311 15.8055 5.89296 15.5244L6.40167 15.0133L5.5228 14.13C4.47356 13.0753 4.33102 12.9847 3.96289 13.1387ZM6.67238 16.391L6.14884 16.9167L7.97895 18.7418L9.80906 20.5671L10.0929 20.37C10.249 20.2616 10.5365 20.0825 10.7318 19.9721L11.0869 19.7714L9.17604 17.8183C8.12506 16.7441 7.2496 15.8653 7.23056 15.8653C7.21145 15.8653 6.9603 16.1018 6.67238 16.391Z" fill="url(#paint0_linear_2_2486)"/>
<defs>
<linearGradient id="paint0_linear_2_2486" x1="30.0765" y1="14.8114" x2="0.962036" y2="14.8114" gradientUnits="userSpaceOnUse">
<stop stop-color="#09D1C7"/>
<stop offset="1" stop-color="#15919B"/>
</linearGradient>
</defs>
</svg>
