<svg width="29" height="29" viewBox="0 0 29 29" fill="none" xmlns="http://www.w3.org/2000/svg">
<path fill-rule="evenodd" clip-rule="evenodd" d="M3.41469 2.25939V3.70725H4.37982H5.34496V2.25939V0.811523H4.37982H3.41469V2.25939ZM12.5835 2.25939V3.70725H13.5486H14.5137V2.25939V0.811523H13.5486H12.5835V2.25939ZM21.7522 2.25939V3.70725H22.7174H23.6825V2.25939V0.811523H22.7174H21.7522V2.25939ZM0.639967 2.8627C0.524615 2.97799 0.519287 3.06378 0.519287 4.79319V6.60298H13.5486H26.5779V4.79319C26.5779 2.54803 26.6806 2.74201 25.4922 2.74201H24.6476V3.43768C24.6476 4.6789 24.6577 4.67249 22.7064 4.67249C20.7738 4.67249 20.7871 4.68114 20.7871 3.42679V2.74201H18.133H15.4789V3.43768C15.4789 4.6779 15.4874 4.67249 13.5486 4.67249C11.6098 4.67249 11.6183 4.6779 11.6183 3.43768V2.74201H8.96421H6.31009V3.42679C6.31009 4.68207 6.32499 4.67249 4.37982 4.67249C2.43465 4.67249 2.44955 4.68207 2.44955 3.42679V2.74201H1.6051C0.841024 2.74201 0.749066 2.75351 0.639967 2.8627ZM0.519287 16.6174C0.519287 25.586 0.520368 25.6676 0.639967 25.7872C0.81732 25.9646 16.662 25.9796 16.6051 25.8023C16.5865 25.7442 16.4898 25.4748 16.3902 25.2037C15.656 23.2046 15.99 20.892 17.2708 19.1063L17.5849 18.6685H10.528C2.76025 18.6685 3.13395 18.6866 3.00061 18.304C2.95196 18.1646 2.93212 16.8664 2.93212 13.8313C2.93212 9.10905 2.92401 9.21446 3.29656 9.08457C3.57266 8.98828 23.5195 8.98658 23.7954 9.08272C24.1407 9.20318 24.1324 9.11608 24.1651 12.9311L24.1953 16.4539L24.4968 16.5386C25.0324 16.6888 25.7153 16.9833 26.1518 17.2525L26.5779 17.5152V12.5417V7.56822H13.5486H0.519287V16.6174ZM3.89726 13.8423V17.7033H7.31136H10.7255L10.4199 17.4469C8.24839 15.6247 8.24839 12.0599 10.4199 10.2377L10.7255 9.98132H7.31136H3.89726V13.8423ZM12.493 10.0952C8.19365 11.3459 9.0757 17.7015 13.5486 17.7015C16.4995 17.7015 18.338 14.6446 16.972 12.0092C16.1645 10.451 14.182 9.60388 12.493 10.0952ZM16.6772 10.2377C18.8488 12.0599 18.8488 15.6247 16.6772 17.4469L16.3717 17.7033H17.4856H18.5996L19.0147 17.4227C20.0639 16.7136 21.3269 16.3178 22.5704 16.3082L23.1999 16.3034V13.1424V9.98132H19.7858H16.3717L16.6772 10.2377ZM14.0312 11.2466C14.0312 11.5127 14.0499 11.5566 14.197 11.6337C14.575 11.8316 14.936 12.3645 14.936 12.7243C14.936 12.8742 14.9274 12.877 14.4835 12.877C14.0714 12.877 14.0312 12.8663 14.0312 12.7564C14.0312 12.5548 13.8173 12.3944 13.5486 12.3944C12.8472 12.3944 12.884 13.2923 13.5895 13.3922C15.0479 13.5987 15.4574 15.3908 14.197 16.0509C14.0499 16.128 14.0312 16.1718 14.0312 16.4379V16.738H13.5486H13.066V16.4379C13.066 16.1718 13.0473 16.128 12.9002 16.0509C12.5222 15.853 12.1612 15.3201 12.1612 14.9603C12.1612 14.8104 12.1698 14.8075 12.6136 14.8075C13.0258 14.8075 13.066 14.8183 13.066 14.9282C13.066 15.1298 13.2799 15.2902 13.5486 15.2902C14.25 15.2902 14.2132 14.3923 13.5077 14.2924C12.0493 14.0858 11.6398 12.2938 12.9002 11.6337C13.0473 11.5566 13.066 11.5127 13.066 11.2466V10.9466H13.5486H14.0312V11.2466ZM7.75779 13.8423V14.3249H6.79266H5.82752V13.8423V13.3597H6.79266H7.75779V13.8423ZM21.2697 13.8423V14.3249H20.3045H19.3394V13.8423V13.3597H20.3045H21.2697V13.8423ZM21.5109 17.3109C17.4288 18.222 15.5806 22.9239 17.9546 26.3583C20.2425 29.6682 25.2681 29.6201 27.5453 26.2665C29.0977 23.9801 28.7613 20.749 26.7719 18.8382C25.4084 17.5285 23.2905 16.9137 21.5109 17.3109ZM21.8531 20.0684L22.7174 20.9254L23.5816 20.0684C24.7168 18.9427 24.5869 18.9443 25.6858 20.0433C26.7847 21.1424 26.7863 21.0124 25.6607 22.1478L24.8038 23.0121L25.6607 23.8764C26.7863 25.0118 26.7847 24.8818 25.6858 25.9809C24.5869 27.0799 24.7168 27.0815 23.5816 25.9558L22.7174 25.0988L21.8531 25.9558C20.7179 27.0815 20.8479 27.0799 19.7489 25.9809C18.6501 24.8818 18.6484 25.0118 19.774 23.8764L20.6309 23.0121L19.774 22.1478C18.6484 21.0124 18.6501 21.1424 19.7489 20.0433C20.8479 18.9443 20.7179 18.9427 21.8531 20.0684ZM20.3653 20.689L19.9772 21.0807L20.8346 21.9455C21.9609 23.0816 21.9609 22.9426 20.834 24.0793L19.976 24.9447L20.3805 25.3492L20.7849 25.7538L21.6502 24.8957C22.4171 24.1353 22.5385 24.0376 22.7174 24.0376C22.8962 24.0376 23.0176 24.1353 23.7845 24.8957L24.6498 25.7538L25.0542 25.3492L25.4587 24.9447L24.6008 24.0793C23.8405 23.3124 23.7428 23.1909 23.7428 23.0121C23.7428 22.8333 23.8405 22.7118 24.6008 21.9448L25.4587 21.0794L25.0542 20.675L24.6498 20.2704L23.7845 21.1285C22.649 22.2544 22.7848 22.2536 21.6638 21.1419C20.662 20.1485 20.8396 20.2104 20.3653 20.689Z" fill="url(#paint0_linear_2_2506)"/>
<defs>
<linearGradient id="paint0_linear_2_2506" x1="28.5193" y1="14.8115" x2="0.519287" y2="14.8115" gradientUnits="userSpaceOnUse">
<stop stop-color="#09D1C7"/>
<stop offset="1" stop-color="#15919B"/>
</linearGradient>
</defs>
</svg>
