<svg width="25" height="29" viewBox="0 0 25 29" fill="none" xmlns="http://www.w3.org/2000/svg">
<path fill-rule="evenodd" clip-rule="evenodd" d="M10.3543 1.02099L10.1229 1.2524V2.08051C10.1229 3.54778 9.83309 3.44079 13.8101 3.44262L17.0551 3.44418L17.2645 3.23474L17.474 3.02529V2.17626C17.474 0.690618 17.7393 0.789591 13.7544 0.789591H10.5857L10.3543 1.02099ZM11.8245 5.0478V5.97079L12.318 5.91564C12.9591 5.84394 14.7253 5.84472 15.3129 5.91695L15.7724 5.97341V5.0491V4.1248H13.7984H11.8245V5.0478ZM4.37126 4.35864C4.25896 4.40952 3.83362 4.78825 3.42596 5.20035C2.38857 6.24915 2.34579 6.62562 3.16711 7.47743C4.10945 8.45488 4.53105 8.41611 5.67394 7.24708C6.71691 6.18024 6.75969 5.81615 5.94342 4.95492C5.29826 4.27431 4.8954 4.12149 4.37126 4.35864ZM22.3407 4.35681C21.999 4.50841 21.2408 5.35142 21.153 5.67736C21.0145 6.19191 21.1391 6.44632 21.9224 7.24708C23.0642 8.41437 23.4758 8.45288 24.4315 7.48205C25.2584 6.64208 25.2127 6.25891 24.1583 5.18972C23.2436 4.26228 22.9044 4.10677 22.3407 4.35681ZM12.8114 6.48125C9.09366 6.88063 5.94011 9.05055 4.27037 12.3585L4.06301 12.7692L4.42136 12.7697C4.94715 12.7704 5.60015 12.8899 6.14102 13.0845C6.403 13.1788 6.66342 13.2702 6.71953 13.2879C6.78766 13.3093 6.89717 13.1933 7.04833 12.9397C7.40981 12.3332 8.06385 11.5625 8.62084 11.0866C9.38762 10.4315 9.30904 10.4271 9.72148 11.1478C10.1717 11.9347 10.2576 12.0204 10.5944 12.0204C11.2183 12.0204 11.2797 11.5526 10.7693 10.6893C10.5938 10.3924 10.4234 10.0994 10.3906 10.0382C10.2866 9.84373 11.7862 9.33928 12.8966 9.19526L13.2539 9.14891V9.99855C13.2539 11.0198 13.3222 11.1665 13.7984 11.1665C14.2738 11.1665 14.3429 11.0191 14.3429 10.005C14.3429 9.0218 14.2515 9.09176 15.2764 9.29154C15.8665 9.40654 16.8622 9.72176 17.1575 9.88703C17.247 9.93713 17.2007 10.0567 16.8582 10.659C16.3207 11.6043 16.3709 12.034 17.0187 12.034C17.3572 12.034 17.4134 11.9777 17.857 11.1942C18.0947 10.7745 18.2659 10.5405 18.3147 10.5687C18.8704 10.8897 20.3328 12.3779 20.3327 12.6221C20.3327 12.6469 20.0413 12.8311 19.685 13.0314C18.7978 13.5306 18.584 13.923 19.0146 14.2617C19.2871 14.476 19.4912 14.4364 20.2154 14.0284C20.5808 13.8225 20.8963 13.654 20.9164 13.654C21.0687 13.654 21.5935 15.3505 21.6692 16.0874L21.7128 16.5128H20.8958C19.912 16.5128 19.7201 16.6025 19.7201 17.0622C19.7201 17.5385 19.852 17.6019 20.8433 17.6019H21.694L21.6932 17.8231C21.691 18.3577 21.1282 20.3816 20.9513 20.4909C20.9243 20.5077 20.6132 20.3548 20.26 20.1511C19.5253 19.7274 19.2274 19.6775 18.9832 19.9375C18.6241 20.3198 18.7999 20.6281 19.6525 21.1108C20.0266 21.3226 20.3327 21.5129 20.3327 21.5336C20.3327 21.7303 19.1109 23.0324 18.5487 23.4347L18.245 23.6522L17.8765 23.0014C17.3417 22.0572 17.0542 21.8909 16.652 22.2932C16.3751 22.5701 16.3968 22.6963 16.86 23.5036L17.267 24.213L16.9081 24.3717C16.7107 24.459 16.3465 24.593 16.0988 24.6695C15.7008 24.7924 15.4334 24.8485 14.5641 24.9909L14.3429 25.0272V24.1511C14.3429 23.1576 14.2614 22.979 13.808 22.979C13.352 22.979 13.2539 23.1905 13.2539 24.1726V25.0319L13.0667 24.9961C12.9637 24.9764 12.7416 24.9407 12.5732 24.9169C11.8279 24.8111 10.3951 24.3347 10.3951 24.1925C10.3951 24.1541 10.5635 23.825 10.7695 23.4614C11.2643 22.5874 11.2453 22.2258 10.6991 22.1233C10.348 22.0574 10.1835 22.2048 9.74623 22.9772L9.36018 23.659L9.14594 23.5099C8.88108 23.3255 7.59608 22.053 7.44527 21.8259L7.33497 21.6595L6.82381 21.9279L6.31265 22.1963L6.31187 23.4351L6.31117 24.6739L6.87269 25.145C13.882 31.025 24.3659 26.2007 24.3746 17.0913C24.3806 10.7966 18.9581 5.82111 12.8114 6.48125ZM6.08726 7.71781L5.56112 8.24718L5.85586 8.53643L6.1506 8.82577L6.69034 8.37769C7.35074 7.82933 7.33166 7.8958 6.93943 7.50949L6.61349 7.18853L6.08726 7.71781ZM20.6882 7.54687L20.3318 7.90774L20.8938 8.35913L21.4558 8.81044L21.7614 8.50942L22.067 8.20841L21.5558 7.69716L21.0445 7.186L20.6882 7.54687ZM13.4019 11.9057C13.2577 12.0591 13.2539 12.1094 13.2539 13.841C13.2539 15.5364 13.2478 15.6207 13.1227 15.6604C11.969 16.0266 12.0235 18.0254 13.2006 18.5171C13.8887 18.8046 15.2278 18.2924 15.2278 17.7419C15.2278 17.7044 15.9732 17.6694 17.0375 17.657L18.8472 17.6359L19.0115 17.4449C19.1922 17.2347 19.2144 17.0807 19.1001 16.8298C18.9673 16.5385 18.796 16.5128 16.9773 16.5122L15.2618 16.5117L15.1032 16.234C15.0132 16.0766 14.815 15.8776 14.6458 15.7751L14.3473 15.5939L14.3451 13.819C14.3429 12.0531 14.3421 12.0434 14.1854 11.8962C13.9695 11.6934 13.5971 11.6979 13.4019 11.9057ZM3.35025 13.5738C-0.747384 14.7866 -0.659475 20.802 3.46996 21.762L3.8608 21.8529V22.5861V23.3194H3.61999H3.37926L3.39878 25.6628C3.4176 27.9179 3.4237 28.0134 3.56074 28.1982C3.94557 28.7173 4.57365 28.8503 5.12219 28.5288C5.62498 28.234 5.63047 28.2027 5.63047 25.6064V23.3194H5.39227H5.15407V22.5843V21.8492L5.55589 21.7662C8.11116 21.2384 9.52179 18.1249 8.29517 15.7203C7.40781 13.9806 5.20565 13.0246 3.35025 13.5738ZM5.60982 15.4618C7.17074 16.2205 7.46906 18.242 6.19756 19.4445C5.18701 20.4002 3.5847 20.3271 2.67103 19.2836C0.895782 17.256 3.18262 14.2819 5.60982 15.4618Z" fill="url(#paint0_linear_131_1985)"/>
<defs>
<linearGradient id="paint0_linear_131_1985" x1="25.0055" y1="14.7454" x2="0.324463" y2="14.7454" gradientUnits="userSpaceOnUse">
<stop stop-color="#09D1C7"/>
<stop offset="1" stop-color="#15919B"/>
</linearGradient>
</defs>
</svg>
