<svg width="29" height="29" viewBox="0 0 29 29" fill="none" xmlns="http://www.w3.org/2000/svg">
<path fill-rule="evenodd" clip-rule="evenodd" d="M12.6788 0.940507C4.19753 2.09131 -1.25139 10.4156 1.04777 18.709C2.37074 23.481 6.21652 27.2041 11.0569 28.3989C12.1336 28.6647 14.0173 28.8949 13.944 28.7517C13.5956 28.0716 13.5218 27.7086 13.5213 26.6725L13.5209 25.9505L12.9645 25.8764C11.0344 25.6194 9.0338 24.7377 7.45157 23.4469L7.02759 23.1011L7.74788 22.3716C8.55393 21.5551 8.65366 21.3193 8.32381 21.0093C7.99548 20.7007 7.78118 20.7934 6.97066 21.5941L6.24143 22.3146L5.89721 21.8905C4.50566 20.1759 3.59581 17.9698 3.43908 15.9304L3.39788 15.3933L4.44138 15.3722L5.48497 15.3512L5.6354 15.1761C5.83198 14.9472 5.83094 14.673 5.63268 14.4747C5.48217 14.3241 5.46173 14.3215 4.42222 14.3215H3.3649L3.38925 14.0875C3.66129 11.4732 4.41631 9.57052 5.90272 7.7539L6.24734 7.33265L6.9737 8.05022C7.77447 8.84144 8.03317 8.95343 8.34337 8.64304C8.65373 8.33265 8.54179 8.07395 7.74996 7.27202L7.03174 6.54462L7.42243 6.2288C9.26528 4.73934 11.2415 3.93414 13.6613 3.68661L14.0199 3.64995V4.73798V5.82601L14.1843 5.95532C14.3937 6.1201 14.6443 6.1201 14.8537 5.95532L15.018 5.82601V4.73846C15.018 4.14037 15.0391 3.65123 15.0648 3.65155C17.1006 3.67383 19.9778 4.80635 21.6811 6.25588L22.0127 6.53807L21.2913 7.26875C20.4959 8.07427 20.3839 8.33225 20.6946 8.64304C21.0055 8.95406 21.263 8.842 22.0708 8.04375L22.8037 7.31971L23.1943 7.80981C24.6431 9.62755 25.6618 12.2475 25.6837 14.2123C25.6848 14.3121 25.5936 14.3215 24.6314 14.3215C23.4424 14.3215 23.3404 14.3547 23.275 14.763C23.2463 14.9427 23.2698 15.0216 23.3962 15.1686L23.5529 15.3512L24.6237 15.3709L25.6945 15.3907L25.6617 15.6205C25.6437 15.7469 25.6111 16.0188 25.5892 16.2247C25.5522 16.5744 25.4088 17.3463 25.3389 17.573C25.3129 17.6573 25.3867 17.6786 25.8083 17.7074C26.6106 17.7624 27.4107 18.2311 27.7184 18.8263C27.8633 19.1065 27.9008 19.0465 28.1074 18.206C30.459 8.63521 22.4038 -0.379071 12.6788 0.940507ZM14.1731 7.67298L14.0199 7.82618V10.3722V12.9182L13.7159 13.0578C13.3277 13.236 12.9348 13.629 12.7566 14.0174L12.6171 14.3215H10.3288H8.04052L7.91125 14.4859C7.74653 14.6954 7.74653 14.946 7.91125 15.1555L8.04052 15.3199H10.3288H12.6171L12.7628 15.6377C13.3174 16.8469 14.9727 17.133 15.8978 16.1794C16.825 15.2237 16.5284 13.6093 15.3258 13.0656L15.018 12.9265V10.3763V7.82618L14.8649 7.67298C14.7684 7.5765 14.6405 7.51987 14.519 7.51987C14.3975 7.51987 14.2695 7.5765 14.1731 7.67298ZM19.0103 15.7936C18.3339 16.0863 18.1184 16.5322 18.0863 17.7068C18.0724 18.213 18.036 18.6271 18.0054 18.6271C17.9738 18.6271 17.9499 19.7261 17.9499 21.1756V23.7241L18.7847 23.9524C19.2438 24.0781 19.6368 24.1809 19.6579 24.1809C19.6792 24.1809 19.6965 24.0105 19.6965 23.8023C19.6965 23.1696 19.6741 23.1824 20.7779 23.1824C21.8962 23.1824 21.8798 23.1739 21.8798 23.7565C21.8798 23.9899 21.9008 24.1816 21.9265 24.1825C21.9523 24.1834 22.3453 24.0801 22.7999 23.9527L23.6264 23.7213V21.1742C23.6264 19.5178 23.6046 18.6271 23.564 18.6271C23.5254 18.6271 23.5016 18.2937 23.5016 17.7516C23.5016 16.5692 23.3169 16.147 22.6669 15.8442C22.2608 15.6552 19.4213 15.6159 19.0103 15.7936ZM22.3119 16.9195C22.4268 17.0658 22.4412 17.1695 22.4412 17.8556V18.6271H20.7832H19.1251L19.1457 17.8103C19.1739 16.6877 19.0668 16.7552 20.8217 16.7552H22.1826L22.3119 16.9195ZM15.3683 18.719C14.6066 18.9906 14.4566 19.4171 14.4566 21.31V22.7221L15.6262 23.0547C16.2695 23.2377 16.845 23.4007 16.905 23.4169C17.0076 23.4447 17.0142 23.3015 17.0142 21.0368V18.6271L16.3124 18.6299C15.8797 18.6316 15.5177 18.6658 15.3683 18.719ZM24.5621 21.0296C24.5621 22.3509 24.581 23.432 24.6042 23.432C24.6374 23.432 26.5276 22.9114 27.0105 22.7693C27.1445 22.7299 27.1776 19.9422 27.0486 19.5569C26.8218 18.879 26.3493 18.6287 25.2951 18.6278L24.5621 18.6271V21.0296ZM14.4684 25.7877L14.4878 27.8313L14.6532 28.112C14.8364 28.4231 15.0655 28.6148 15.386 28.7253C15.792 28.8654 26.0296 28.8234 26.3443 28.6803C26.6452 28.5437 26.9733 28.1677 27.0582 27.8624C27.156 27.5112 27.1385 23.744 27.0391 23.744C26.9674 23.744 22.5841 24.9645 22.0859 25.1232C21.909 25.1795 21.8844 25.2158 21.8676 25.4461C21.8486 25.7057 21.1341 26.2858 20.8177 26.2986C20.7437 26.3016 19.8945 25.8203 19.7629 25.7008C19.748 25.6872 19.7199 25.5596 19.7005 25.4173L19.6653 25.1584L17.1701 24.4526C15.7978 24.0644 14.6241 23.7462 14.5619 23.7454C14.4546 23.7441 14.4498 23.8487 14.4684 25.7877Z" fill="url(#paint0_linear_160_1848)"/>
<defs>
<linearGradient id="paint0_linear_160_1848" x1="28.5195" y1="14.8115" x2="0.519531" y2="14.8115" gradientUnits="userSpaceOnUse">
<stop stop-color="#09D1C7"/>
<stop offset="1" stop-color="#15919B"/>
</linearGradient>
</defs>
</svg>
