<svg width="43" height="42" viewBox="0 0 43 42" fill="none" xmlns="http://www.w3.org/2000/svg">
<path fill-rule="evenodd" clip-rule="evenodd" d="M18.8855 7.14487C16.8573 7.43967 13.0733 8.72056 13.0733 9.11242C13.0733 9.36014 15.945 14.1741 16.0702 14.1363C16.1452 14.1136 16.5602 13.9488 16.9926 13.77C17.9397 13.3782 18.9155 13.1203 19.992 12.977L20.7926 12.8704V9.9352V7.00003L20.2704 7.0098C19.9832 7.01514 19.36 7.07594 18.8855 7.14487ZM22.2457 9.9352V12.8704L23.0462 12.977C24.1228 13.1203 25.0985 13.3782 26.0457 13.77C26.4781 13.9488 26.8931 14.1138 26.9681 14.1366C27.0937 14.175 29.965 9.362 29.965 9.11335C29.965 9.01362 28.6546 8.3809 27.7428 8.0403C26.3647 7.52557 23.7924 7.00003 22.6513 7.00003H22.2457V9.9352ZM11.0299 10.2753C8.92534 11.7837 5.83859 15.159 6.22301 15.5313C6.29078 15.597 10.5192 18.0544 11.0906 18.3603C11.2125 18.4255 11.3273 18.322 11.6774 17.8312C12.2349 17.0499 13.4056 15.8792 14.1866 15.3219C14.7892 14.892 14.7946 14.8842 14.6683 14.6443C14.0402 13.4521 11.8847 9.85627 11.7884 9.84023C11.7209 9.82896 11.3795 10.0248 11.0299 10.2753ZM30.9825 10.1105C30.8456 10.3376 28.4296 14.5395 28.272 14.8247C28.2539 14.8577 28.5139 15.0809 28.8501 15.3208C29.6325 15.8791 30.8029 17.0494 31.3609 17.8312C31.7602 18.3908 31.8125 18.4327 31.9931 18.3368C32.5402 18.0466 36.7424 15.6017 36.8153 15.5312C37.1986 15.1605 34.0697 11.7355 32.0431 10.3073C31.2232 9.72945 31.2134 9.72771 30.9825 10.1105ZM19.5666 15.869C13.892 17.082 10.6169 23.0926 12.6592 28.5454C14.7776 34.2009 21.749 36.4035 26.8301 33.0225C30.8068 30.3766 32.1978 24.6595 29.8472 20.6225C29.5673 20.1417 29.5547 20.076 29.511 18.8766C29.4497 17.1942 29.4882 17.2327 27.8058 17.1714C26.6002 17.1275 26.5428 17.1163 26.049 16.8287C24.3838 15.8593 21.5647 15.4419 19.5666 15.869ZM5.01011 17.512C3.95787 19.7479 3.35595 22.3181 3.35595 24.5761C3.35595 25.9843 3.14695 25.8898 6.26206 25.8898C9.43449 25.8898 9.16864 26.0575 9.29965 23.9736C9.35986 23.0167 9.68337 21.7074 10.1217 20.647C10.3028 20.2089 10.4698 19.7892 10.4925 19.7143C10.5309 19.5887 5.71792 16.7174 5.46928 16.7174C5.42243 16.7174 5.21575 17.0749 5.01011 17.512ZM34.9807 18.1524C33.1896 19.1835 32.5156 19.6157 32.5456 19.7143C32.5685 19.7892 32.7355 20.2089 32.9166 20.647C33.3549 21.7074 33.6784 23.0167 33.7386 23.9736C33.8697 26.0575 33.6038 25.8898 36.7762 25.8898C39.8914 25.8898 39.6823 25.9843 39.6823 24.5761C39.6823 22.8997 39.2548 20.5896 38.6396 18.9423C38.2742 17.9637 37.6655 16.7168 37.5558 16.722C37.5017 16.7246 36.3429 17.3682 34.9807 18.1524ZM23.6862 22.5506C25.42 23.4428 24.8917 25.8757 22.8972 26.1844L22.2457 26.2853V26.7716C22.2457 27.6835 21.9072 28.0956 21.2861 27.9397C20.856 27.8317 20.7926 27.4777 20.7926 25.1797C20.7926 22.8611 20.8412 22.5826 21.2817 22.3809C21.7315 22.1748 23.1505 22.275 23.6862 22.5506ZM16.7931 22.4368C17.0053 22.5504 17.16 22.9939 17.16 23.4884V23.8752L17.9117 23.1116C18.7359 22.2743 19.0535 22.1526 19.4304 22.5296C19.829 22.9281 19.7015 23.1939 18.5575 24.3524C17.9459 24.9715 17.5292 25.4627 17.5654 25.5214C17.6 25.5771 18.0487 25.9047 18.5626 26.2496C19.5066 26.8831 19.612 26.9981 19.612 27.3957C19.612 28.1026 18.9776 28.1325 17.9911 27.472C17.575 27.1934 17.2271 26.9788 17.2178 26.9952C17.2086 27.0116 17.1407 27.2081 17.067 27.4319C16.8444 28.1073 16.0969 28.191 15.8371 27.5695C15.6775 27.1874 15.6481 23.2447 15.8018 22.8307C15.967 22.3859 16.3865 22.2192 16.7931 22.4368ZM26.9645 22.4368C27.2736 22.6022 27.3314 23.0343 27.3314 25.1797C27.3314 27.8117 27.2134 28.1509 26.3718 27.9397C25.9413 27.8317 25.8783 27.4781 25.8783 25.1721C25.8783 22.4904 26.0863 21.9667 26.9645 22.4368ZM22.2457 24.2551V24.8H22.6816C23.2031 24.8 23.3355 24.6896 23.3355 24.2551C23.3355 23.8205 23.2031 23.7102 22.6816 23.7102H22.2457V24.2551ZM4.26417 27.5245C3.79745 27.9911 4.14246 28.7959 4.80901 28.7959C5.2934 28.7959 5.53554 28.5537 5.53554 28.0693C5.53554 27.5849 5.2934 27.3428 4.80901 27.3428C4.56687 27.3428 4.38518 27.4034 4.26417 27.5245ZM7.17028 27.5245C6.70356 27.9911 7.04857 28.7959 7.71512 28.7959C8.19951 28.7959 8.44165 28.5537 8.44165 28.0693C8.44165 27.5849 8.19951 27.3428 7.71512 27.3428C7.47298 27.3428 7.29129 27.4034 7.17028 27.5245ZM34.7783 27.5245C34.6572 27.6455 34.5966 27.8272 34.5966 28.0693C34.5966 28.3115 34.6572 28.4932 34.7783 28.6143C34.8993 28.7353 35.081 28.7959 35.3232 28.7959C35.5653 28.7959 35.747 28.7353 35.8681 28.6143C35.9891 28.4932 36.0497 28.3115 36.0497 28.0693C36.0497 27.8272 35.9891 27.6455 35.8681 27.5245C35.747 27.4034 35.5653 27.3428 35.3232 27.3428C35.081 27.3428 34.8993 27.4034 34.7783 27.5245ZM37.6844 27.5245C37.5633 27.6455 37.5028 27.8272 37.5028 28.0693C37.5028 28.3115 37.5633 28.4932 37.6844 28.6143C37.8055 28.7353 37.9872 28.7959 38.2293 28.7959C38.4714 28.7959 38.6531 28.7353 38.7742 28.6143C38.8953 28.4932 38.9558 28.3115 38.9558 28.0693C38.9558 27.8272 38.8953 27.6455 38.7742 27.5245C38.6531 27.4034 38.4714 27.3428 38.2293 27.3428C37.9872 27.3428 37.8055 27.4034 37.6844 27.5245Z" fill="url(#paint0_linear_119_2444)"/>
<defs>
<linearGradient id="paint0_linear_119_2444" x1="39.6853" y1="20.8115" x2="3.35303" y2="20.8115" gradientUnits="userSpaceOnUse">
<stop stop-color="#09D1C7"/>
<stop offset="1" stop-color="#15919B"/>
</linearGradient>
</defs>
</svg>
