<svg width="25" height="29" viewBox="0 0 25 29" fill="none" xmlns="http://www.w3.org/2000/svg">
<path fill-rule="evenodd" clip-rule="evenodd" d="M2.98441 0.213479C2.63366 0.462755 2.61029 0.575628 2.61029 2.02206C2.61029 3.20912 2.6189 3.33449 2.71304 3.5144C3.0242 4.10909 3.85069 4.10909 4.16185 3.5144C4.31835 3.21521 4.31835 0.828916 4.16185 0.529723C3.93828 0.102458 3.35946 -0.0530024 2.98441 0.213479ZM8.77725 0.213479C8.42651 0.462755 8.40314 0.575628 8.40314 2.02206C8.40314 3.20912 8.41174 3.33449 8.50588 3.5144C8.81704 4.10909 9.64353 4.10909 9.95469 3.5144C10.1112 3.21521 10.1112 0.828916 9.95469 0.529723C9.73112 0.102458 9.1523 -0.0530024 8.77725 0.213479ZM14.5701 0.213479C14.2193 0.462755 14.196 0.575628 14.196 2.02206C14.196 3.20912 14.2046 3.33449 14.2987 3.5144C14.6099 4.10909 15.4364 4.10909 15.7475 3.5144C15.904 3.21521 15.904 0.828916 15.7475 0.529723C15.524 0.102458 14.9451 -0.0530024 14.5701 0.213479ZM20.3629 0.213479C20.0122 0.462755 19.9888 0.575628 19.9888 2.02206C19.9888 3.20912 19.9974 3.33449 20.0916 3.5144C20.4027 4.10909 21.2292 4.10909 21.5404 3.5144C21.6969 3.21521 21.6969 0.828916 21.5404 0.529723C21.3168 0.102458 20.738 -0.0530024 20.3629 0.213479ZM0.501765 2.14227C0.12811 2.40774 0.127646 2.41098 0.127448 4.74952L0.127249 6.84403H12.1267H24.1262L24.126 4.74952C24.1257 2.04027 24.1186 2.02276 23.0271 2.02229L22.4711 2.02206L22.4707 2.42888C22.4691 4.01033 21.9065 4.82505 20.816 4.82467C19.7189 4.82428 19.1628 4.01921 19.1613 2.42888L19.1609 2.02206H17.9195H16.6782L16.6778 2.42888C16.6763 4.01033 16.1136 4.82505 15.0231 4.82467C13.9261 4.82428 13.37 4.01921 13.3684 2.42888L13.368 2.02206H12.1267H10.8854L10.885 2.42888C10.8835 4.01033 10.3208 4.82505 9.23029 4.82467C8.13322 4.82428 7.57711 4.01921 7.57559 2.42888L7.57519 2.02206H6.33387H5.09254L5.09215 2.42888C5.09062 4.01033 4.52796 4.82505 3.43744 4.82467C2.34038 4.82428 1.78427 4.01921 1.78274 2.42888L1.78235 2.02206L1.22637 2.02229C0.762807 2.02245 0.642316 2.04243 0.501765 2.14227ZM0.127448 17.6181C0.127646 28.6474 0.0914329 27.6489 0.501765 27.9405C0.767507 28.1293 23.4859 28.1293 23.7517 27.9405C24.162 27.6489 24.1258 28.6474 24.126 17.6181L24.1262 7.80842H12.1267H0.127249L0.127448 17.6181ZM14.6094 12.3893V15.5236H14.1956H13.7818V12.8715V10.2194H10.0578C8.00962 10.2194 6.33387 10.2284 6.33387 10.2392C6.33387 10.2501 7.63676 10.9079 9.22923 11.7009L12.1247 13.1428L12.1256 19.8483C12.1262 23.5363 12.1169 26.5538 12.1049 26.5538C12.0929 26.5538 10.8073 25.9164 9.2479 25.1373L6.41278 23.7209H5.95955H5.50632V16.488V9.25501H10.0578H14.6094V12.3893ZM18.6954 16.9698C18.6954 17.1557 18.5967 17.29 17.6238 18.4286L16.5522 19.6825L16.2785 19.3675L16.0047 19.0525L16.6899 18.2524L17.375 17.4524H15.1647H12.9543V16.9702V16.488H15.1647H17.375L16.6905 15.6886L16.0059 14.8892L16.2774 14.5726L16.5489 14.256L17.6222 15.5105C18.5968 16.6498 18.6954 16.7838 18.6954 16.9698ZM10.5751 18.5373C10.3093 18.847 10.5058 19.3811 10.8854 19.3811C11.1613 19.3811 11.2992 19.2204 11.2992 18.899C11.2992 18.7382 11.2647 18.6177 11.1957 18.5373C11.1268 18.4569 11.0233 18.4168 10.8854 18.4168C10.7475 18.4168 10.644 18.4569 10.5751 18.5373ZM14.6094 21.0387V23.6607H14.1956H13.7818V21.0387V18.4168H14.1956H14.6094V21.0387Z" fill="url(#paint0_linear_131_2017)"/>
<defs>
<linearGradient id="paint0_linear_131_2017" x1="24.1267" y1="14.0821" x2="0.126709" y2="14.0821" gradientUnits="userSpaceOnUse">
<stop stop-color="#09D1C7"/>
<stop offset="1" stop-color="#15919B"/>
</linearGradient>
</defs>
</svg>
