<svg width="33" height="39" viewBox="0 0 33 39" fill="none" xmlns="http://www.w3.org/2000/svg">
<path fill-rule="evenodd" clip-rule="evenodd" d="M22.0104 0.896963C20.968 1.20975 20.4699 2.58513 21.0443 3.56494C21.9652 5.1363 24.4197 4.46524 24.4197 2.64217C24.4197 1.38883 23.2337 0.529752 22.0104 0.896963ZM21.1851 5.15015C19.7688 5.58247 19.052 6.67199 18.9862 8.49234L18.9467 9.58634H22.5881H26.2293L26.1993 8.4148C26.1561 6.72511 25.5481 5.71683 24.2882 5.24547C23.7981 5.06213 21.686 4.99724 21.1851 5.15015ZM12.7215 5.83364C11.0699 6.36455 11.2073 8.92019 12.9095 9.32851C14.8361 9.79061 16.0111 7.20269 14.3924 6.06267C14.0141 5.79623 13.1895 5.68324 12.7215 5.83364ZM11.9841 10.0636C10.4801 10.4677 9.82982 11.4271 9.78106 13.3141L9.74964 14.5282H13.3449H16.9401L16.9087 13.3141C16.8393 10.6318 14.8228 9.30081 11.9841 10.0636ZM3.52142 10.4621C1.45717 11.1306 2.11209 14.178 4.2815 13.9982C6.04753 13.8517 6.49291 11.3856 4.90185 10.563C4.57351 10.3932 3.8887 10.3431 3.52142 10.4621ZM19.7363 15.6998V19.257H21.2489C22.9038 19.257 23.3883 19.3414 24.5512 19.8314C24.8793 19.9695 25.2341 20.1027 25.3396 20.1271L25.5313 20.1715V16.157V12.1425H22.6338H19.7364L19.7363 15.6998ZM2.54744 14.7681C1.10364 15.2798 0.521578 16.214 0.52016 18.0216L0.519287 19.1719H4.09846H7.67775L7.70426 18.4049C7.76578 16.6282 7.18056 15.4872 5.90802 14.9027C5.20411 14.5793 3.29574 14.5028 2.54744 14.7681ZM10.5052 16.8844C10.4734 16.9163 10.4473 20.5976 10.4473 25.0651V33.1879H12.6204C14.1386 33.1879 14.7936 33.1598 14.7936 33.0946C14.7936 33.0433 14.5834 32.6854 14.3265 32.2994C12.0556 28.8872 12.5322 24.4954 15.4896 21.5792L16.2454 20.8339L16.2225 18.8526L16.1997 16.8713L13.3815 16.8489C11.8315 16.8365 10.5372 16.8526 10.5052 16.8844ZM20.2903 20.3257C14.1311 21.2812 11.7946 28.952 16.3963 33.1095C18.9286 35.3974 23.0668 35.6089 25.7094 33.5856L26.1007 33.2861L27.0888 34.2807C27.9767 35.1747 28.0719 35.2997 28.0288 35.5147C27.9605 35.856 30.8687 38.8115 31.2728 38.8115C31.6555 38.8115 32.5193 37.9239 32.5193 37.5308C32.5193 37.053 29.7819 34.3515 29.2851 34.3391C28.9565 34.3308 28.875 34.2706 27.9638 33.3622L26.9928 32.3941L27.2924 32.0029C31.1726 26.9369 26.6195 19.344 20.2903 20.3257ZM1.15839 27.3088V33.1879H4.05592H6.95334V27.3088V21.4298H4.05592H1.15839V27.3088ZM22.5326 22.5815C26.3861 23.4898 27.828 28.2338 25.1348 31.1424C22.0235 34.5022 16.4419 32.4836 16.1845 27.9053C15.9913 24.4692 19.1834 21.7921 22.5326 22.5815ZM23.0151 24.1665C22.6872 24.326 18.7989 30.2395 18.7989 30.5789C18.7989 31.0803 19.4139 31.3347 19.802 30.9939C20.2042 30.6409 23.9121 24.951 23.9121 24.6869C23.9121 24.2413 23.433 23.9634 23.0151 24.1665ZM19.0877 24.4102C18.606 24.6048 18.4059 25.2624 18.672 25.7769C18.936 26.2876 19.7394 26.3816 20.169 25.9521C20.8955 25.2258 20.0507 24.0212 19.0877 24.4102ZM22.6639 29.1771C22.3528 29.3667 22.1671 29.8272 22.2498 30.2038C22.3964 30.8708 23.3367 31.1347 23.8471 30.6521C24.6834 29.8614 23.6514 28.5749 22.6639 29.1771Z" fill="url(#paint0_linear_160_1846)"/>
<defs>
<linearGradient id="paint0_linear_160_1846" x1="32.5193" y1="19.8115" x2="0.519287" y2="19.8115" gradientUnits="userSpaceOnUse">
<stop stop-color="#09D1C7"/>
<stop offset="1" stop-color="#15919B"/>
</linearGradient>
</defs>
</svg>
