<svg width="30" height="27" viewBox="0 0 30 27" fill="none" xmlns="http://www.w3.org/2000/svg">
<path fill-rule="evenodd" clip-rule="evenodd" d="M13.9016 0.811548C6.00944 1.46182 2.34627 11.1294 7.81426 16.8768C13.4179 22.7667 23.3047 19.4249 24.2323 11.3274C24.3633 10.1841 24.2739 9.86272 23.8246 9.8628C23.4657 9.8628 23.3869 10.003 23.3395 10.7259C22.8657 17.9543 14.5117 21.5006 9.08212 16.7782C4.96998 13.2017 5.21995 6.73074 9.59734 3.44405C13.0025 0.887388 17.6237 1.18987 20.7535 4.1744L21.2043 4.60427L20.8405 4.54161C20.1586 4.42414 19.7355 4.99529 20.2558 5.3311C20.6046 5.55622 22.4182 5.78646 22.6113 5.63014C22.7901 5.48534 23.0308 3.51733 22.9028 3.24618C22.631 2.66991 22.0007 3.04639 21.9909 3.79104L21.9874 4.05636L21.5033 3.57255C19.92 1.98958 17.7962 1.00942 15.5254 0.813386C14.7141 0.7433 14.7292 0.7433 13.9016 0.811548ZM12.7682 7.39956C11.6749 8.68892 10.7711 9.77058 10.7596 9.80334C10.7469 9.83946 11.154 9.8628 11.7969 9.8628C12.7729 9.8628 12.8679 9.87279 13.0196 9.99218L13.1841 10.1216V12.5207V14.9199H14.8074H16.4307V12.5207V10.1216L16.5952 9.99218C16.7468 9.87287 16.8419 9.8628 17.8127 9.8628C18.3918 9.8628 18.8656 9.84649 18.8656 9.82668C18.8656 9.76554 14.8566 5.05531 14.8046 5.05531C14.7778 5.05531 13.8614 6.11028 12.7682 7.39956ZM1.71653 23.1386C0.0857717 23.7164 0.226104 26.1838 1.91472 26.6237C2.68631 26.8247 2.55213 26.9475 3.66727 25.0186C4.2083 24.0829 4.69171 23.2541 4.74158 23.1768L4.83228 23.0363L3.40475 23.0413C2.31374 23.045 1.91576 23.068 1.71653 23.1386ZM4.69307 24.8224C4.12647 25.8024 3.65353 26.6302 3.6421 26.662C3.62971 26.6967 4.26192 26.72 5.21388 26.72H6.80652L7.75568 25.0811C8.27777 24.1797 8.75974 23.3509 8.82687 23.2392L8.94882 23.0363L7.33604 23.0385L5.72326 23.0407L4.69307 24.8224ZM9.78737 23.1768C9.64289 23.4008 7.7524 26.6723 7.7524 26.6985C7.7524 26.7114 8.47188 26.7146 9.35136 26.7054L10.9504 26.6887L11.804 25.2216C12.2736 24.4146 12.7502 23.5928 12.8631 23.3953L13.0684 23.0363H11.4732C9.88743 23.0363 9.87744 23.0372 9.78737 23.1768ZM13.9531 23.1144C13.9255 23.1573 13.4462 23.9791 12.8879 24.9406L11.8729 26.6887L13.4461 26.7054C14.6542 26.7183 15.036 26.7038 15.0914 26.643C15.1525 26.5759 16.8892 23.5937 17.11 23.1768L17.1843 23.0363H15.5937C14.3896 23.0363 13.9909 23.0554 13.9531 23.1144ZM17.7851 23.6139C16.6744 25.5084 16.0561 26.5955 16.0561 26.6536C16.0561 26.7724 27.8641 26.7436 28.3245 26.6237C29.7361 26.256 30.1625 24.4449 29.0649 23.4788C28.54 23.0167 28.802 23.0363 23.1661 23.0363H18.1237L17.7851 23.6139Z" fill="url(#paint0_linear_131_2019)"/>
<defs>
<linearGradient id="paint0_linear_131_2019" x1="29.6857" y1="13.7457" x2="0.567627" y2="13.7457" gradientUnits="userSpaceOnUse">
<stop stop-color="#09D1C7"/>
<stop offset="1" stop-color="#15919B"/>
</linearGradient>
</defs>
</svg>
