<svg width="34" height="34" viewBox="0 0 34 34" fill="none" xmlns="http://www.w3.org/2000/svg">
<path fill-rule="evenodd" clip-rule="evenodd" d="M2.87365 0.426153C1.58512 0.780414 0.476074 1.90924 0.125771 3.22312C-0.0191371 3.76676 -0.0191371 25.13 0.125771 25.6736C0.397402 26.6924 1.23547 27.7392 2.12376 28.1693C3.0015 28.5943 2.69256 28.5793 10.6033 28.5803L17.9052 28.5811L18.2198 29.1859C20.3967 33.3701 26.0654 34.6266 29.874 31.7689C34.4693 28.321 33.9392 21.1333 28.8962 18.5096L28.2914 18.195L28.2905 10.8931C28.2898 4.79948 28.2723 3.52584 28.1845 3.19598C27.8366 1.88908 26.7179 0.770427 25.411 0.422573C24.8458 0.272106 3.42153 0.275593 2.87365 0.426153ZM11.3827 5.10645C11.5935 5.20246 11.8034 5.53589 11.8028 5.77398C11.8021 6.10177 11.5378 6.35409 9.46412 8.00583C6.8295 10.1045 7.14871 10.0455 5.78876 8.68552C4.66285 7.5597 4.56383 7.32284 5.02559 6.86108C5.42263 6.46404 5.67645 6.53847 6.42568 7.27158C6.7773 7.61567 7.10198 7.89729 7.1472 7.89729C7.19243 7.89729 7.96869 7.30842 8.87224 6.5886C11.0643 4.84245 10.9506 4.90953 11.3827 5.10645ZM23.2917 6.86108C23.5947 7.16408 23.5947 7.59994 23.2917 7.90294L23.0765 8.11814H19.2812H15.4859L15.2472 7.90483C15.0497 7.72826 15.0085 7.63809 15.0085 7.38201C15.0085 7.12592 15.0497 7.03576 15.2472 6.85919L15.4859 6.64598H19.2812H23.0765L23.2917 6.86108ZM11.3827 12.1728C11.5935 12.2688 11.8034 12.6023 11.8028 12.8404C11.8021 13.1681 11.5378 13.4205 9.46412 15.0722C6.8295 17.1709 7.14871 17.1118 5.78876 15.7519C4.66285 14.6261 4.56383 14.3892 5.02559 13.9274C5.42263 13.5304 5.67645 13.6048 6.42568 14.338C6.7773 14.682 7.10198 14.9637 7.1472 14.9637C7.19243 14.9637 7.96869 14.3748 8.87224 13.655C11.0643 11.9088 10.9506 11.9759 11.3827 12.1728ZM23.2917 13.9274C23.5947 14.2305 23.5947 14.6663 23.2917 14.9693L23.0765 15.1845H19.2812H15.4859L15.2472 14.9712C15.0497 14.7946 15.0085 14.7045 15.0085 14.4484C15.0085 14.1923 15.0497 14.1021 15.2472 13.9256L15.4859 13.7123H19.2812H23.0765L23.2917 13.9274ZM11.3827 19.2392C11.5935 19.3352 11.8034 19.6686 11.8028 19.9067C11.8021 20.2345 11.5378 20.4868 9.46412 22.1386C6.8295 24.2373 7.14871 24.1782 5.78876 22.8183C4.66285 21.6924 4.56383 21.4556 5.02559 20.9938C5.42263 20.5968 5.67645 20.6712 6.42568 21.4043C6.7773 21.7484 7.10198 22.03 7.1472 22.03C7.19243 22.03 7.96869 21.4412 8.87224 20.7213C11.0643 18.9752 10.9506 19.0423 11.3827 19.2392ZM26.7414 19.4147C31.0435 20.5393 32.7881 25.7947 30.0242 29.3041C26.8155 33.3782 20.2923 31.9035 19.0802 26.8299C18.0093 22.3462 22.2507 18.241 26.7414 19.4147ZM27.8498 23.1759C27.7485 23.245 26.92 24.0423 26.0087 24.9478L24.3517 26.5942L23.4335 25.6738C22.4341 24.6721 22.2095 24.5372 21.7783 24.6795C21.4115 24.8005 21.225 25.07 21.225 25.479V25.8165L22.6073 27.1989L23.9897 28.5811H24.3843H24.7788L26.7977 26.5753C29.0383 24.349 29.1386 24.2262 29.0788 23.7804C29.0014 23.2032 28.3091 22.8627 27.8498 23.1759Z" fill="url(#paint0_linear_160_1840)"/>
<defs>
<linearGradient id="paint0_linear_160_1840" x1="33.0215" y1="16.8115" x2="0.0170898" y2="16.8115" gradientUnits="userSpaceOnUse">
<stop stop-color="#09D1C7"/>
<stop offset="1" stop-color="#15919B"/>
</linearGradient>
</defs>
</svg>
