<svg width="15" height="14" viewBox="0 0 15 14" fill="none" xmlns="http://www.w3.org/2000/svg">
<path fill-rule="evenodd" clip-rule="evenodd" d="M9.59695 0.614735C9.54258 0.629563 9.37812 0.727487 9.23149 0.832324C8.85627 1.10059 8.80215 1.12015 8.34834 1.15129C7.72422 1.19416 7.58452 1.30445 7.44875 1.86169C7.34724 2.27816 7.30078 2.35773 7.00963 2.61335C6.54887 3.01783 6.51469 3.19726 6.79163 3.75715C6.98663 4.15137 6.98775 4.1586 6.94212 4.73619C6.90275 5.23476 6.99271 5.36524 7.5318 5.59144C7.93426 5.76029 7.98493 5.80039 8.20775 6.126C8.5699 6.65526 8.71877 6.70946 9.34441 6.53974C9.77518 6.42291 9.81329 6.42291 10.244 6.53974C10.8609 6.70704 11.021 6.64804 11.3837 6.11967C11.6017 5.80201 11.6555 5.75974 12.0552 5.59203C12.5954 5.36538 12.6835 5.23939 12.646 4.74756C12.6 4.14536 12.599 4.15175 12.7956 3.75715C13.0719 3.20241 13.0388 3.01762 12.5933 2.62807C12.3003 2.3718 12.2589 2.30799 12.1698 1.97371C12.1306 1.82646 12.0853 1.65965 12.0692 1.60303C11.9877 1.31607 11.7495 1.18628 11.24 1.15129C10.7961 1.12081 10.738 1.10114 10.4155 0.871867C10.0384 0.603812 9.8519 0.545223 9.59695 0.614735ZM4.55059 1.24016C4.19765 2.17181 4.21787 2.14395 3.89044 2.14899C2.98636 2.16303 2.97131 2.18276 3.53937 2.61065C3.74643 2.76658 3.91639 2.91241 3.91707 2.9347C3.91776 2.95696 3.8618 3.17486 3.79267 3.41886C3.61602 4.04273 3.61055 4.03945 4.20538 3.66635L4.63181 3.39888L4.83041 3.52681C5.66634 4.0653 5.64993 4.06956 5.45072 3.36677C5.38127 3.1217 5.32437 2.91925 5.32434 2.9169C5.32427 2.91455 5.502 2.77622 5.71927 2.60951C6.26707 2.18916 6.25387 2.16586 5.46126 2.1549C5.04571 2.14917 5.07201 2.16652 4.93095 1.80489C4.72699 1.28192 4.68801 1.20643 4.62205 1.20643C4.58978 1.20643 4.55764 1.2216 4.55059 1.24016ZM10.1738 1.86801C11.3347 2.10133 11.9741 3.35581 11.4537 4.3794C10.7661 5.73216 8.79653 5.71577 8.11728 4.35164C7.47131 3.0544 8.69909 1.57161 10.1738 1.86801ZM2.51985 4.0756C2.50441 4.09417 2.41991 4.29164 2.33208 4.51445C2.1311 5.02415 2.19638 4.97946 1.61918 5.00234C0.932618 5.02954 0.932762 5.02889 1.50784 5.47022C1.70496 5.62151 1.86629 5.7643 1.86629 5.78753C1.86629 5.81079 1.81483 6.01107 1.75196 6.2326C1.57434 6.85834 1.58751 6.86839 2.13416 6.52381C2.34989 6.38779 2.54118 6.2711 2.55928 6.26443C2.57735 6.25776 2.7784 6.3692 3.006 6.51209C3.58234 6.87392 3.58871 6.86915 3.40274 6.21569C3.25588 5.6996 3.22324 5.78992 3.68079 5.44609C4.00077 5.20559 4.05709 5.15229 4.05158 5.09505L4.04507 5.0275L3.52638 5.00051L3.00769 4.97351L2.83691 4.54144C2.64666 4.06022 2.63741 4.04187 2.58494 4.04187C2.56457 4.04187 2.53525 4.05704 2.51985 4.0756ZM13.0762 5.03943C13.0542 5.27181 12.9456 5.47672 12.7441 5.66617L12.5726 5.82735L12.89 6.5346C13.2899 7.42587 13.2973 7.5511 12.9588 7.71273L12.8211 7.7785L12.3589 7.69085C12.1047 7.64263 11.8937 7.60692 11.8901 7.61155C11.8864 7.61615 11.8181 7.72271 11.7384 7.84833L11.5935 8.07673V10.6095V13.1423H10.8485H10.1035V10.0268V6.91132L9.98224 6.87873C9.91556 6.86079 9.81869 6.85011 9.76698 6.85498L9.67291 6.8638L9.26153 7.70381C8.7282 8.79283 8.73784 8.78049 8.42369 8.77454L8.27612 8.77174V10.957V13.1423H7.51705H6.75798V10.7254V8.30853H5.84432H4.93063V10.7254V13.1423H4.18563H3.44063V11.5896V10.0368H2.52693H1.61327V11.5896V13.1423H1.12618C0.653374 13.1423 0.637289 13.1441 0.577949 13.2048C0.500546 13.284 0.497019 13.4368 0.570572 13.5241L0.624334 13.5879H7.51705H14.4098L14.4635 13.5241C14.54 13.4333 14.5345 13.2753 14.4522 13.201C14.3906 13.1455 14.3613 13.1423 13.904 13.1423H13.4209V9.01066V4.87901H13.2561H13.0913L13.0762 5.03943ZM12.0011 6.04701C11.9196 6.09098 11.8374 6.18182 11.7028 6.3767C11.4062 6.80583 11.1605 6.98153 10.7883 7.03054C10.7209 7.03942 10.6657 7.05415 10.6657 7.06331C10.6657 7.10372 11.0844 8.02399 11.1057 8.03055C11.1189 8.03456 11.2554 7.84286 11.4091 7.6045C11.5629 7.36614 11.6959 7.16683 11.7047 7.16158C11.7135 7.15636 11.9596 7.19991 12.2515 7.2584C12.5434 7.31685 12.7858 7.36126 12.7902 7.35705C12.813 7.33517 12.1904 5.99911 12.1547 5.99316C12.1321 5.98939 12.063 6.01362 12.0011 6.04701ZM7.1749 6.83006C6.92506 7.34816 6.80627 7.62275 6.82963 7.62818C6.8492 7.63271 7.08077 7.59928 7.34418 7.55393C7.60759 7.50855 7.83998 7.47142 7.8606 7.47142C7.88122 7.47142 8.02296 7.67823 8.17558 7.93101C8.32819 8.18378 8.45755 8.3863 8.46306 8.38101C8.47983 8.36487 9.1195 7.06072 9.11946 7.04267C9.11946 7.03341 9.0214 7.02501 8.90161 7.02401C8.47785 7.02045 8.20382 6.84738 7.89432 6.38783C7.74181 6.16139 7.62954 6.04017 7.57232 6.04017C7.56322 6.04017 7.38437 6.39561 7.1749 6.83006Z" fill="url(#paint0_linear_105_3918)"/>
<defs>
<linearGradient id="paint0_linear_105_3918" x1="14.5176" y1="7.08789" x2="0.517578" y2="7.08789" gradientUnits="userSpaceOnUse">
<stop stop-color="#09D1C7"/>
<stop offset="1" stop-color="#15919B"/>
</linearGradient>
</defs>
</svg>
