<svg width="35" height="37" viewBox="0 0 35 37" fill="none" xmlns="http://www.w3.org/2000/svg">
<path fill-rule="evenodd" clip-rule="evenodd" d="M15.6142 0.831148C3.47013 2.34597 -3.46343 15.0867 1.93129 25.974C4.45293 31.0629 9.51077 34.7373 14.9638 35.4415C16.2049 35.6018 16.2124 35.6048 15.9853 35.8557C15.6046 36.2763 15.8239 36.914 16.3493 36.914C16.7238 36.914 18.0453 35.4864 18.0453 35.0817C18.0453 34.7983 17.2726 33.3526 17.0049 33.1352C16.4424 32.6785 15.8901 33.2793 16.2339 33.974C16.5091 34.5303 16.588 34.5005 15.3167 34.322C1.89224 32.4381 -3.51731 15.9019 6.22152 6.51933C16.2086 -3.10245 32.9034 3.37505 33.7518 17.2009C33.8374 18.5965 33.8932 18.7335 34.3759 18.7335C35.0498 18.7335 35.1416 17.349 34.6351 14.8223C32.8726 6.03071 24.3264 -0.255624 15.6142 0.831148ZM15.2412 5.68725L14.8152 6.80074L13.8687 7.11878C13.3481 7.29381 12.5725 7.62011 12.1451 7.8441L11.368 8.25128L10.4948 7.84967C9.06714 7.19326 9.30579 7.12954 7.88474 8.54688C6.42993 9.99789 6.51072 9.74263 7.09654 11.0376L7.56002 12.0621L7.15432 12.8362C6.93125 13.262 6.60514 14.0377 6.42965 14.5601L6.11068 15.5097L5.02252 15.9358L3.93435 16.3619V18.205V20.0483L5.02771 20.476L6.12097 20.9038L6.45674 21.9063C6.6414 22.4576 6.96835 23.2285 7.18326 23.6194L7.57393 24.3301L7.16693 25.2153C6.50413 26.6566 6.44041 26.4152 7.85868 27.8372C8.54708 28.5274 9.15303 29.0921 9.20524 29.0921C9.25746 29.0921 9.77038 28.8794 10.3451 28.6195L11.3901 28.147L12.1016 28.5382C12.493 28.7533 13.2642 29.0804 13.8157 29.2651L14.818 29.6009L15.2459 30.6942L15.6737 31.7875H17.5118H19.35L19.652 31.0505C19.897 30.4526 19.9334 30.263 19.8444 30.0463C19.6044 29.4615 19.423 28.2436 19.4213 27.2046C19.4196 26.2047 19.4034 26.1164 19.2345 26.1841C18.8717 26.3294 16.9186 26.3719 16.2168 26.2497C9.23242 25.0334 6.92392 16.1432 12.4664 11.8065C17.7451 7.67631 25.3334 11.2038 25.6275 17.9244L25.6869 19.2822L26.0148 19.2153C27.3427 18.9442 29.057 19.0654 30.4122 19.5263L31.1572 19.7798L31.1283 18.0707L31.0993 16.3617L30.0111 15.9357L28.9229 15.5097L28.604 14.5601C28.4285 14.0377 28.1024 13.262 27.8793 12.8362L27.4736 12.0621L27.9371 11.0376C28.192 10.4743 28.4013 9.96496 28.4022 9.90597C28.4032 9.84689 27.8346 9.23074 27.1387 8.53668L25.8735 7.27479L24.7627 7.75942L23.6518 8.24405L22.8817 7.84048C22.4581 7.61853 21.6855 7.29381 21.1649 7.11878L20.2184 6.80074L19.7925 5.68725L19.3666 4.57377H17.5168H15.6671L15.2412 5.68725ZM16.9354 12.1965C16.3997 12.4896 16.3663 12.9479 16.5669 17.2538C16.6845 19.7789 16.7615 20.002 17.5168 20.002C18.2735 20.002 18.3581 19.7671 18.4692 17.3595C18.5853 14.8416 18.6019 12.7992 18.5081 12.5549C18.3546 12.1547 17.4067 11.9388 16.9354 12.1965ZM26.4505 20.3192C20.835 21.3324 18.6347 28.2707 22.6433 32.3243C27.1147 36.846 34.7826 33.7027 34.7826 27.3481C34.7826 22.9651 30.7306 19.5469 26.4505 20.3192ZM17.0293 22.1774C16.1994 22.5868 16.2186 23.7797 17.0614 24.1796C17.5061 24.3906 17.9353 24.3111 18.2952 23.9513C19.1868 23.0596 18.1594 21.6199 17.0293 22.1774ZM31.707 24.5525C32.295 25.1897 32.1822 25.4511 30.6417 27.0223C29.8959 27.7828 28.892 28.8183 28.4107 29.3232C26.8526 30.9583 26.6976 30.9449 24.7891 29.011C23.3431 27.5459 23.1812 27.256 23.4832 26.6719C23.9433 25.7822 24.6202 25.8951 25.7863 27.0558L26.7138 27.979L28.5365 26.1617C30.7573 23.9478 31.024 23.8124 31.707 24.5525Z" fill="url(#paint0_linear_163_1964)"/>
<defs>
<linearGradient id="paint0_linear_163_1964" x1="34.9579" y1="18.8115" x2="0.078125" y2="18.8115" gradientUnits="userSpaceOnUse">
<stop stop-color="#09D1C7"/>
<stop offset="1" stop-color="#15919B"/>
</linearGradient>
</defs>
</svg>
