<svg width="36" height="36" viewBox="0 0 36 36" fill="none" xmlns="http://www.w3.org/2000/svg">
<path fill-rule="evenodd" clip-rule="evenodd" d="M6.18046 0.636698C5.56588 1.26383 5.62763 2.35113 6.38163 4.18019C6.65523 4.84382 6.81508 5.11248 7.19556 5.5486C7.45599 5.84704 7.66928 6.10831 7.66966 6.12923C7.66995 6.15005 10.2166 6.15764 13.3289 6.14587C18.0949 6.12796 19.0367 6.14188 19.2986 6.23393L19.6097 6.3432L19.7557 6.10315C20.9859 4.08045 21.6059 1.68955 21.1107 0.877724C20.645 0.114262 19.9856 0.150363 18.315 1.03049C16.8872 1.78277 16.9913 1.78082 15.6104 1.0809C13.9489 0.238619 13.2961 0.23171 11.6054 1.03867C11.0839 1.28758 10.5069 1.5322 10.3233 1.58232L9.9895 1.6733L8.69937 1.01064C7.10213 0.190258 6.67947 0.127496 6.18046 0.636698ZM3.51163 4.11675C2.03493 4.88118 2.13236 6.68329 3.69753 7.55505L4.08622 7.77156L3.76815 7.85826C2.31607 8.25429 1.90314 9.94556 3.00546 10.9816C3.94393 11.8637 5.35861 11.4952 7.53654 9.80116L7.96197 9.47023L13.4878 9.47315C18.497 9.47567 19.038 9.4641 19.2757 9.34908C20.0649 8.96725 20.1639 7.64817 19.4443 7.10131C19.0861 6.82915 18.735 6.81329 13.242 6.82088L7.81692 6.82837L7.50123 6.41706C5.89732 4.32644 4.57702 3.56522 3.51163 4.11675ZM4.82877 5.03687C5.40728 5.33083 7.36352 7.45551 7.20472 7.61742C7.06492 7.75998 5.0851 7.24581 4.36765 6.88062C3.4538 6.4155 3.17562 5.99884 3.42641 5.47076C3.72654 4.83846 4.16896 4.70165 4.82877 5.03687ZM7.04822 8.5319C7.74353 8.72204 5.45785 10.4002 4.34389 10.5173C3.21589 10.636 2.83579 9.24983 3.87179 8.79541C4.48913 8.5247 6.4324 8.36337 7.04822 8.5319ZM19.2264 10.125C18.9118 10.2463 8.31993 10.2828 7.91349 10.164C7.15128 9.94109 3.23717 13.4876 1.89283 15.6193C-1.15515 20.4522 -0.394658 28.0267 3.49913 31.6196C4.90817 32.9198 4.7279 32.8977 13.7465 32.8719L21.2766 32.8503L21.7799 32.6762C22.0567 32.5805 22.2831 32.4855 22.2831 32.4653C22.2831 32.4449 22.1698 32.1984 22.0313 31.9171C21.8928 31.6359 21.7184 31.2007 21.6438 30.9498C21.5691 30.699 21.5048 30.4865 21.5008 30.4775C21.4968 30.4686 20.9918 30.6133 20.3786 30.7991C18.4555 31.3817 18.4621 31.3948 19.4873 29.0395C19.8768 28.1445 20.1956 27.3865 20.1956 27.355C20.1956 27.3234 19.556 26.9733 18.7743 26.577C16.6505 25.5003 16.6514 25.5719 18.7478 24.5046L20.2701 23.7296L20.2656 23.3486C20.2632 23.1391 20.186 22.17 20.0943 21.1952C19.8418 18.5128 19.9543 18.4627 21.5867 20.5302C22.1953 21.3011 22.7104 21.9339 22.7314 21.9366C22.7524 21.9392 23.2536 21.5822 23.8453 21.1431C25.268 20.0875 25.3885 20.0926 25.466 21.2118C25.4909 21.5713 25.5378 21.8653 25.5705 21.8653C25.6268 21.8653 27.0004 21.4086 27.0329 21.3791C27.0814 21.3349 26.8018 19.6709 26.6447 19.0694C25.8847 16.1576 24.3276 14.0132 20.6487 10.8121C19.6865 9.97476 19.6551 9.95958 19.2264 10.125ZM13.7783 15.5869C13.8263 15.6459 13.8844 15.8126 13.9075 15.9575C13.9442 16.1881 13.9878 16.2323 14.258 16.313C15.2169 16.5991 15.9794 17.4766 16.0731 18.4015C16.1567 19.2278 15.5031 19.3363 15.3796 18.5167C15.2666 17.7676 14.5734 17.0001 14.0098 17.0001C13.959 17.0001 13.9329 17.6545 13.9329 18.9318V20.8634L14.4734 21.1676C16.7052 22.4234 16.5936 25.214 14.2871 25.8312C13.9984 25.9085 13.9329 25.9573 13.9329 26.0953C13.9329 26.5803 13.6035 26.863 13.3311 26.6117C13.2366 26.5245 13.1874 26.3789 13.1874 26.1867C13.1874 25.931 13.1656 25.8945 13.0129 25.8945C11.9663 25.8945 10.4903 23.8553 11.0924 23.2413C11.3558 22.9727 11.6963 23.1841 11.6963 23.6163C11.6963 24.2634 12.2646 24.9296 13.0196 25.1676L13.1874 25.2206L13.187 23.2579L13.1867 21.2952L12.6294 21.0035C10.3585 19.8148 10.4414 17.0708 12.7703 16.3395C13.1755 16.2123 13.1874 16.2008 13.1874 15.9353C13.1874 15.5197 13.5497 15.3061 13.7783 15.5869ZM12.7027 17.1056C11.2979 17.7314 11.3649 19.4951 12.8243 20.305L13.1874 20.5065V18.7533C13.1874 16.8106 13.2079 16.8807 12.7027 17.1056ZM13.9329 23.4546V25.196L14.1995 25.1125C15.083 24.8361 15.6525 23.5878 15.2512 22.8076C15.0696 22.4544 14.2086 21.7134 13.9801 21.7134C13.9541 21.7134 13.9329 22.497 13.9329 23.4546ZM27.2411 22.1317C22.2597 23.0915 20.2737 29.3126 23.7209 33.1585C27.6162 37.5041 34.7433 34.8509 35.0101 28.9558C35.207 24.6055 31.4643 21.318 27.2411 22.1317ZM30.5589 25.0204C30.6154 25.0898 30.6338 25.2274 30.6056 25.3708C30.5693 25.5562 30.6002 25.6565 30.749 25.8369C31.2619 26.4584 31.4293 27.363 31.135 27.9226C30.853 28.4586 30.3008 28.2374 30.4713 27.6568C30.5967 27.2303 30.5802 26.9758 30.4031 26.6026C30.193 26.16 30.2271 26.1271 29.54 27.4346L28.9313 28.5932L29.0769 28.8213C30.1833 30.5532 29.4404 32.2484 27.6351 32.1112C27.2156 32.0793 27.1494 32.0941 27.0023 32.2538C26.663 32.6225 26.2197 32.2786 26.4554 31.8295C26.5108 31.7238 26.4839 31.652 26.3362 31.5114C25.6376 30.8472 25.5719 29.1818 26.241 29.1025C26.5624 29.0643 26.6469 29.2483 26.5322 29.7359C26.4279 30.1795 26.4891 30.5671 26.712 30.8752C26.8555 31.0736 26.8585 31.0697 27.5361 29.7796L28.1108 28.6854L27.9644 28.4835C26.7916 26.8661 27.7535 24.8342 29.523 25.1909C29.8601 25.2588 29.893 25.2515 30 25.085C30.1311 24.881 30.4185 24.8477 30.5589 25.0204ZM28.6964 26.0276C28.1222 26.3218 27.9459 26.9905 28.2741 27.6299C28.4045 27.8839 28.4606 27.9361 28.5199 27.858C28.6166 27.7306 29.515 25.9974 29.515 25.9383C29.515 25.8406 28.9387 25.9034 28.6964 26.0276ZM28.0023 30.3813L27.4962 31.3679H27.8383C28.7081 31.3679 29.194 30.5146 28.788 29.7C28.585 29.2928 28.5412 29.3308 28.0023 30.3813Z" fill="url(#paint0_linear_163_1944)"/>
<defs>
<linearGradient id="paint0_linear_163_1944" x1="35.0176" y1="17.8115" x2="0.0175781" y2="17.8115" gradientUnits="userSpaceOnUse">
<stop stop-color="#09D1C7"/>
<stop offset="1" stop-color="#15919B"/>
</linearGradient>
</defs>
</svg>
