<svg width="14" height="14" viewBox="0 0 14 14" fill="none" xmlns="http://www.w3.org/2000/svg">
<path fill-rule="evenodd" clip-rule="evenodd" d="M4.81277 0.60027C4.56416 0.677543 4.47769 1.02275 4.66162 1.20362C4.70306 1.24437 5.64216 1.80069 6.74847 2.43986C7.85477 3.07899 8.90872 3.68813 9.09058 3.79346L9.42118 3.98497L9.18336 4.04711C8.74555 4.16153 8.65549 4.24169 8.67453 4.50007C8.69435 4.76879 8.89786 4.89041 9.19924 4.81365C11.0017 4.35474 10.909 4.45283 10.6046 3.327C10.3805 2.49842 10.3522 2.44656 10.1064 2.41649C9.77995 2.37656 9.64499 2.64127 9.76641 3.08355C9.80231 3.21432 9.82668 3.32628 9.82061 3.33241C9.81453 3.33849 8.74423 2.72725 7.44215 1.97411C5.07408 0.604351 4.97166 0.550852 4.81277 0.60027ZM0.689003 1.26648L0.607422 1.34824V6.25596C0.607422 10.6602 0.611664 11.1697 0.64879 11.2229C0.749239 11.3666 0.656391 11.3614 3.15854 11.3614H5.47371L5.65204 11.0611C5.75011 10.896 5.83034 10.7525 5.83034 10.7423C5.83034 10.7321 4.79238 10.7237 3.52376 10.7237H1.21721V6.04458V1.36541L1.12705 1.27508C1.00009 1.14785 0.81107 1.14414 0.689003 1.26648ZM2.13599 3.19959C2.08295 3.25833 2.0669 9.69692 2.11953 9.79551C2.14573 9.84452 2.18296 9.8469 2.92724 9.8469C3.67151 9.8469 3.70874 9.84452 3.73494 9.79551C3.79158 9.68943 3.77105 3.2468 3.7139 3.19497C3.63629 3.12456 2.19992 3.12878 2.13599 3.19959ZM4.60414 4.40195C4.54495 4.4365 4.53063 9.75596 4.58958 9.81503C4.63498 9.86054 6.12429 9.86054 6.1697 9.81503C6.23285 9.75171 6.21374 4.43484 6.15022 4.40076C6.0816 4.36396 4.66739 4.36505 4.60414 4.40195ZM7.04055 5.64437C7.00031 5.68889 6.99705 5.8284 7.00329 7.23197L7.01015 8.77076L7.72222 7.57507C8.11387 6.91744 8.48669 6.31061 8.55073 6.22657C8.6823 6.05386 8.71752 5.78572 8.6259 5.65457C8.56688 5.57016 7.11599 5.56081 7.04055 5.64437ZM9.16928 6.24164C9.04083 6.27772 8.9286 6.34779 8.83576 6.44985C8.78139 6.50961 5.29778 12.3534 5.18827 12.5685C5.01788 12.9032 5.15698 13.3293 5.49498 13.508L5.63151 13.5802L9.27695 13.5873C11.8379 13.5923 12.9639 13.5858 13.0621 13.5653C13.4488 13.485 13.7005 13.04 13.5748 12.659C13.5302 12.5236 9.95516 6.52485 9.85831 6.42278C9.69772 6.25357 9.40282 6.17606 9.16928 6.24164ZM10.576 6.84224C10.576 6.85567 10.6923 7.06127 10.8345 7.29907L11.093 7.73149L11.1004 7.32404C11.1096 6.81261 11.1127 6.81782 10.7973 6.81782C10.6756 6.81782 10.576 6.8288 10.576 6.84224ZM11.1438 9.93989L12.8822 12.8627L11.1193 12.8696C10.1497 12.8733 8.56563 12.8733 7.599 12.8696L5.84154 12.8627L6.88421 11.109C7.45766 10.1445 8.24996 8.81236 8.64483 8.1487C9.14192 7.31325 9.36936 6.95359 9.38412 6.97957C9.39587 7.00018 10.1877 8.33236 11.1438 9.93989ZM8.9077 8.66808C8.87746 8.70658 8.85279 8.74542 8.85286 8.75444C8.85296 8.76342 8.8946 9.29688 8.94547 9.93989C8.99631 10.5829 9.03801 11.1171 9.03811 11.1271C9.03927 11.2264 9.51617 11.279 9.63382 11.1928C9.67909 11.1596 9.85634 9.29354 9.85946 8.81729C9.86079 8.6156 9.82074 8.59805 9.3584 8.59805H8.96264L8.9077 8.66808ZM9.23718 11.5665C8.98463 11.628 8.84499 11.9956 8.99193 12.212C9.27356 12.6267 9.89055 12.3697 9.78144 11.8831C9.73054 11.6561 9.47639 11.5083 9.23718 11.5665Z" fill="#B5B5B5"/>
</svg>
