<svg width="33" height="43" viewBox="0 0 33 43" fill="none" xmlns="http://www.w3.org/2000/svg">
<path fill-rule="evenodd" clip-rule="evenodd" d="M15.5949 0.891772C14.1712 1.2041 12.6643 2.4731 12.757 3.28173C12.8306 3.92348 13.3207 3.84656 13.9833 3.08903C15.4119 1.45604 17.6081 1.45604 19.0366 3.08903C20.019 4.21201 20.7697 3.63812 19.8961 2.43198C18.9897 1.18065 17.1997 0.539686 15.5949 0.891772ZM15.7715 4.0055C15.0948 4.75929 5.18151 22.2294 5.18151 22.6681C5.18151 23.707 4.338 23.6349 16.5099 23.6349C29.9664 23.6349 28.9192 24.0863 26.2339 19.4431C25.3514 17.9171 23.0275 13.8853 21.0695 10.4835C17.1049 3.5953 17.1838 3.71255 16.5099 3.71255C16.1816 3.71255 15.9531 3.80317 15.7715 4.0055ZM17.808 9.63288C18.3699 10.231 17.932 16.1109 17.2865 16.6335C16.6544 17.1453 15.3434 16.7136 15.3355 15.991C15.3341 15.8624 15.2467 15.1125 15.1413 14.3248C14.8465 12.1221 14.8776 9.90239 15.2078 9.57205C15.6294 9.15063 17.3936 9.19176 17.808 9.63288ZM15.9892 11.4208C15.9892 12.5762 16.373 15.8223 16.5096 15.8223C16.6412 15.8223 16.9205 13.566 16.9969 11.8834L17.0666 10.3534H16.5278H15.9892V11.4208ZM17.7666 18.2156C18.7125 19.3153 18.0251 20.7703 16.5596 20.7703C15.0814 20.7703 14.3427 19.4781 15.1566 18.3159C15.6257 17.6463 17.2241 17.5847 17.7666 18.2156ZM16.082 18.8977C15.7405 19.2393 15.9974 19.7285 16.5182 19.7285C17.0367 19.7285 17.0465 19.7201 17.0066 19.3054C16.9661 18.8863 16.3606 18.6193 16.082 18.8977ZM2.67283 20.4773C1.44189 23.1922 3.57254 26.6298 6.48609 26.6298C7.40584 26.6298 7.31737 25.6491 6.38549 25.5149C4.0566 25.1793 2.81376 23.1286 3.63643 20.979C4.10928 19.7433 3.21648 19.2785 2.67283 20.4773ZM29.2848 20.0927C29.1856 20.2782 29.2169 20.5147 29.4063 21.0134C30.172 23.0284 28.9225 25.2203 26.8461 25.505C25.9046 25.634 25.5359 26.1733 26.1605 26.5076C27.8393 27.406 30.7103 24.7003 30.699 22.2303C30.6915 20.5796 29.7698 19.1866 29.2848 20.0927ZM5.24665 30.4281C1.29723 31.1758 -0.948744 35.5733 0.752442 39.2278C1.18054 40.1472 1.23639 40.1757 1.67571 39.6989C2.01465 39.3311 3.40793 38.6096 3.77973 38.6094C3.95804 38.6092 3.89981 38.4695 3.50389 37.9462C0.626017 34.1439 5.8841 29.6591 9.13954 33.1394L9.72783 33.7683L10.1959 32.9166L10.6641 32.0649L10.3643 31.7456C9.42536 30.7456 6.94387 30.1068 5.24665 30.4281ZM15.537 30.4146C11.8942 31.0236 9.53592 34.6035 10.4545 38.1302C10.6125 38.7366 11.0625 39.817 11.242 40.0203C11.2633 40.0444 11.5808 39.8269 11.9476 39.5369C12.3144 39.247 12.9343 38.909 13.3253 38.7857C14.135 38.5305 14.1511 38.5024 13.721 38.0983C12.8479 37.2782 12.5367 35.3639 13.0817 34.1661C14.2386 31.6235 17.5846 31.1169 19.3413 33.2183L19.8237 33.7954L20.135 33.1749C20.3063 32.8337 20.5418 32.446 20.6585 32.3137C21.181 31.7207 17.9182 30.1791 16.3798 30.292C16.2724 30.2999 15.8931 30.355 15.537 30.4146ZM25.4295 30.4281C21.7057 31.1331 19.4057 35.3188 20.7866 38.8775C21.2695 40.1219 21.3411 40.1712 21.9229 39.6604C22.4502 39.1974 23.5873 38.6126 23.9646 38.6105C24.2656 38.6089 24.254 38.5587 23.8536 38.1277C21.682 35.7904 23.3954 31.9213 26.6014 31.9227C29.8666 31.9241 31.5012 35.6318 29.3566 38.1716L29.0114 38.5805L29.4365 38.6602C29.9726 38.7608 30.8252 39.2184 31.3436 39.6835C31.8626 40.1495 31.8271 40.1663 32.2615 39.2476C34.4242 34.6746 30.405 29.4861 25.4295 30.4281ZM5.95048 33.0122C2.8039 33.5542 3.22328 38.2143 6.41857 38.2143C9.60276 38.2143 10.0561 33.7136 6.93945 33.0435C6.65296 32.982 6.20798 32.9678 5.95048 33.0122ZM25.9835 33.0731C22.9409 33.8457 23.4659 38.2143 26.6014 38.2143C29.8063 38.2143 30.2174 33.588 27.0638 33.0114C26.7961 32.9625 26.31 32.9902 25.9835 33.0731ZM15.4031 33.1953C14.2825 33.6969 13.6458 35.0572 13.9615 36.2746C14.6364 38.8764 18.3835 38.8764 19.0585 36.2746C19.6038 34.1721 17.389 32.3062 15.4031 33.1953ZM9.05537 38.2752C8.74962 38.4998 8.76763 38.5674 9.15302 38.6411C9.49525 38.7066 9.51474 38.6785 9.37177 38.3259C9.29746 38.1429 9.24671 38.1347 9.05537 38.2752ZM19.1403 38.2447C18.9188 38.4661 18.9454 38.5688 19.2444 38.647C19.4516 38.7011 19.5048 38.6509 19.5048 38.4017C19.5048 38.0577 19.3808 38.0042 19.1403 38.2447ZM4.02873 39.6535C3.40397 39.7843 2.50959 40.264 2.15037 40.6608C1.66041 41.2022 3.73714 42.5001 5.54119 42.78C7.30355 43.0535 10.235 42.1084 10.6036 41.1478C11.0436 40.0009 6.88417 39.0556 4.02873 39.6535ZM14.2109 39.6499C13.0466 39.8941 11.8871 40.7558 12.206 41.1399C13.7706 43.0252 17.6295 43.341 19.9864 41.7767C20.8676 41.1917 20.8727 41.1807 20.5185 40.636C19.9117 39.7029 16.5006 39.1697 14.2109 39.6499ZM24.235 39.6495C23.5683 39.7902 23.0677 40.0484 22.5973 40.4941C22.1409 40.9266 22.1459 40.9743 22.6986 41.4596C24.837 43.3372 28.7268 43.2204 30.8102 41.2161L31.1128 40.9251L30.8175 40.6108C29.9503 39.6877 26.4652 39.1788 24.235 39.6495Z" fill="url(#paint0_linear_163_1949)"/>
<defs>
<linearGradient id="paint0_linear_163_1949" x1="32.8606" y1="21.8119" x2="0.177734" y2="21.8119" gradientUnits="userSpaceOnUse">
<stop stop-color="#09D1C7"/>
<stop offset="1" stop-color="#15919B"/>
</linearGradient>
</defs>
</svg>
