<svg width="33" height="39" viewBox="0 0 33 39" fill="none" xmlns="http://www.w3.org/2000/svg">
<path fill-rule="evenodd" clip-rule="evenodd" d="M22.0087 0.897024C20.9663 1.20981 20.4682 2.58519 21.0425 3.565C21.9635 5.13636 24.418 4.4653 24.418 2.64223C24.418 1.38889 23.232 0.529814 22.0087 0.897024ZM21.1834 5.15021C19.7671 5.58253 19.0503 6.67205 18.9845 8.4924L18.945 9.5864H22.5864H26.2276L26.1976 8.41486C26.1544 6.72517 25.5464 5.71689 24.2865 5.24553C23.7964 5.06219 21.6843 4.9973 21.1834 5.15021ZM12.7197 5.8337C11.0681 6.36461 11.2056 8.92025 12.9078 9.32858C14.8344 9.79067 16.0094 7.20275 14.3907 6.06273C14.0124 5.79629 13.1878 5.6833 12.7197 5.8337ZM11.9824 10.0637C10.4783 10.4677 9.82811 11.4271 9.77935 13.3141L9.74793 14.5283H13.3431H16.9384L16.9069 13.3141C16.8376 10.6319 14.8211 9.30087 11.9824 10.0637ZM3.51972 10.4622C1.45546 11.1307 2.11038 14.1781 4.27979 13.9983C6.04582 13.8518 6.4912 11.3857 4.90014 10.563C4.57181 10.3932 3.88699 10.3432 3.51972 10.4622ZM19.7345 15.6998V19.2571H21.2472C22.9021 19.2571 23.3866 19.3414 24.5495 19.8314C24.8776 19.9696 25.2324 20.1028 25.3378 20.1272L25.5296 20.1716V16.157V12.1426H22.6321H19.7347L19.7345 15.6998ZM2.54573 14.7681C1.10193 15.2798 0.519869 16.2141 0.518451 18.0217L0.517578 19.1719H4.09676H7.67604L7.70255 18.405C7.76407 16.6283 7.17885 15.4873 5.90631 14.9027C5.2024 14.5793 3.29403 14.5029 2.54573 14.7681ZM10.5035 16.8845C10.4717 16.9163 10.4456 20.5977 10.4456 25.0652V33.188H12.6187C14.1369 33.188 14.7919 33.1598 14.7919 33.0946C14.7919 33.0434 14.5817 32.6854 14.3248 32.2995C12.0539 28.8872 12.5305 24.4954 15.4879 21.5792L16.2437 20.8339L16.2208 18.8527L16.198 16.8714L13.3798 16.8489C11.8298 16.8366 10.5355 16.8526 10.5035 16.8845ZM20.2886 20.3258C14.1294 21.2813 11.7929 28.952 16.3946 33.1096C18.9269 35.3975 23.0651 35.6089 25.7077 33.5856L26.099 33.2861L27.0871 34.2808C27.975 35.1748 28.0702 35.2997 28.0271 35.5148C27.9587 35.8561 30.867 38.8115 31.2711 38.8115C31.6538 38.8115 32.5176 37.924 32.5176 37.5308C32.5176 37.053 29.7802 34.3516 29.2834 34.3391C28.9548 34.3308 28.8733 34.2706 27.9621 33.3623L26.9911 32.3941L27.2907 32.0029C31.1709 26.937 26.6178 19.344 20.2886 20.3258ZM1.15669 27.3089V33.188H4.05421H6.95163V27.3089V21.4298H4.05421H1.15669V27.3089ZM22.5309 22.5815C26.3844 23.4899 27.8263 28.2339 25.1331 31.1424C22.0218 34.5023 16.4402 32.4837 16.1828 27.9054C15.9896 24.4693 19.1817 21.7921 22.5309 22.5815ZM23.0134 24.1665C22.6855 24.3261 18.7972 30.2396 18.7972 30.579C18.7972 31.0804 19.4122 31.3348 19.8003 30.994C20.2025 30.641 23.9104 24.9511 23.9104 24.687C23.9104 24.2413 23.4313 23.9634 23.0134 24.1665ZM19.086 24.4103C18.6042 24.6048 18.4042 25.2625 18.6702 25.7769C18.9343 26.2877 19.7377 26.3817 20.1673 25.9522C20.8938 25.2258 20.049 24.0212 19.086 24.4103ZM22.6622 29.1771C22.3511 29.3668 22.1654 29.8272 22.2481 30.2038C22.3947 30.8709 23.335 31.1348 23.8454 30.6522C24.6817 29.8615 23.6497 28.575 22.6622 29.1771Z" fill="url(#paint0_linear_163_1877)"/>
<defs>
<linearGradient id="paint0_linear_163_1877" x1="32.5176" y1="19.8115" x2="0.517578" y2="19.8115" gradientUnits="userSpaceOnUse">
<stop stop-color="#09D1C7"/>
<stop offset="1" stop-color="#15919B"/>
</linearGradient>
</defs>
</svg>
