<svg width="37" height="28" viewBox="0 0 37 28" fill="none" xmlns="http://www.w3.org/2000/svg">
<path fill-rule="evenodd" clip-rule="evenodd" d="M15.884 0.144841C13.8558 0.439637 10.0718 1.72053 10.0718 2.11239C10.0718 2.36011 12.9435 7.17403 13.0687 7.13625C13.1437 7.11358 13.5587 6.94874 13.9911 6.76996C14.9383 6.37822 15.914 6.12027 16.9906 5.97694L17.7912 5.87034V2.93517V0L17.269 0.00976449C16.9817 0.0151117 16.3586 0.0759079 15.884 0.144841ZM19.2442 2.93517V5.87034L20.0448 5.97694C21.1213 6.12027 22.0971 6.37822 23.0442 6.76996C23.4767 6.94874 23.8917 7.11381 23.9666 7.1366C24.0922 7.17496 26.9635 2.36197 26.9635 2.11332C26.9635 2.01359 25.6531 1.38087 24.7413 1.04027C23.3632 0.525541 20.791 0 19.6498 0H19.2442V2.93517ZM8.02848 3.2753C5.92388 4.78369 2.83712 8.15897 3.22154 8.5313C3.28931 8.59697 7.5177 11.0544 8.08916 11.3602C8.21099 11.4254 8.32584 11.322 8.67596 10.8312C9.23347 10.0499 10.4042 8.87922 11.1851 8.32182C11.7877 7.89195 11.7932 7.88416 11.6668 7.64423C11.0387 6.45203 8.88323 2.85624 8.78698 2.8402C8.71944 2.82892 8.37803 3.0248 8.02848 3.2753ZM27.981 3.11047C27.8441 3.33761 25.4282 7.5395 25.2706 7.82465C25.2524 7.85766 25.5125 8.08085 25.8486 8.32078C26.6311 8.8791 27.8014 10.0493 28.3594 10.8312C28.7587 11.3908 28.811 11.4326 28.9917 11.3367C29.5387 11.0466 33.7409 8.60162 33.8138 8.53118C34.1971 8.16048 31.0682 4.73545 29.0416 3.30727C28.2218 2.72942 28.2119 2.72768 27.981 3.11047ZM16.5651 8.86899C10.8905 10.082 7.61547 16.0925 9.65776 21.5453C11.7761 27.2009 18.7475 29.4034 23.8287 26.0225C27.8054 23.3765 29.1964 17.6595 26.8458 13.6225C26.5659 13.1417 26.5532 13.076 26.5095 11.8766C26.4482 10.1942 26.4867 10.2326 24.8043 10.1714C23.5987 10.1274 23.5413 10.1163 23.0475 9.8287C21.3823 8.85922 18.5633 8.4419 16.5651 8.86899ZM2.00865 10.512C0.956402 12.7478 0.354488 15.3181 0.354488 17.576C0.354488 18.9842 0.145481 18.8897 3.2606 18.8897C6.43303 18.8897 6.16718 19.0575 6.29818 16.9735C6.3584 16.0166 6.68191 14.7074 7.12026 13.647C7.30137 13.2089 7.4683 12.7892 7.49108 12.7142C7.52944 12.5887 2.71646 9.71734 2.46781 9.71734C2.42097 9.71734 2.21428 10.0749 2.00865 10.512ZM31.9793 11.1524C30.1882 12.1835 29.5142 12.6157 29.5442 12.7142C29.5671 12.7892 29.734 13.2089 29.9151 13.647C30.3535 14.7074 30.677 16.0166 30.7372 16.9735C30.8682 19.0575 30.6023 18.8897 33.7748 18.8897C36.8899 18.8897 36.6809 18.9842 36.6809 17.576C36.6809 15.8997 36.2533 13.5896 35.6382 11.9423C35.2727 10.9637 34.664 9.71676 34.5543 9.72199C34.5002 9.72455 33.3414 10.3682 31.9793 11.1524ZM20.6847 15.5506C22.4185 16.4428 21.8903 18.8757 19.8958 19.1844L19.2442 19.2853V19.7716C19.2442 20.6835 18.9057 21.0956 18.2846 20.9397C17.8545 20.8317 17.7912 20.4776 17.7912 18.1797C17.7912 15.8611 17.8397 15.5826 18.2802 15.3809C18.7301 15.1748 20.1491 15.275 20.6847 15.5506ZM13.7916 15.4368C14.0038 15.5504 14.1585 15.9938 14.1585 16.4883V16.8752L14.9103 16.1116C15.7344 15.2743 16.052 15.1526 16.4289 15.5296C16.8275 15.928 16.7001 16.1939 15.556 17.3524C14.9444 17.9715 14.5277 18.4626 14.564 18.5213C14.5985 18.577 15.0472 18.9047 15.5611 19.2496C16.5051 19.883 16.6106 19.9981 16.6106 20.3957C16.6106 21.1026 15.9761 21.1324 14.9897 20.4719C14.5735 20.1934 14.2256 19.9788 14.2163 19.9952C14.2071 20.0116 14.1392 20.208 14.0655 20.4318C13.8429 21.1073 13.0955 21.191 12.8357 20.5695C12.6761 20.1874 12.6466 16.2447 12.8003 15.8306C12.9655 15.3859 13.385 15.2192 13.7916 15.4368ZM23.963 15.4368C24.2721 15.6022 24.3299 16.0343 24.3299 18.1797C24.3299 20.8117 24.2119 21.1509 23.3703 20.9397C22.9399 20.8317 22.8769 20.4781 22.8769 18.172C22.8769 15.4904 23.0848 14.9667 23.963 15.4368ZM19.2442 17.2551V17.7999H19.6801C20.2016 17.7999 20.334 17.6896 20.334 17.2551C20.334 16.8205 20.2016 16.7101 19.6801 16.7101H19.2442V17.2551ZM1.26271 20.5245C0.795985 20.9911 1.141 21.7958 1.80754 21.7958C2.29193 21.7958 2.53407 21.5537 2.53407 21.0693C2.53407 20.5849 2.29193 20.3428 1.80754 20.3428C1.56541 20.3428 1.38372 20.4033 1.26271 20.5245ZM4.16882 20.5245C3.7021 20.9911 4.04711 21.7958 4.71365 21.7958C5.19805 21.7958 5.44018 21.5537 5.44018 21.0693C5.44018 20.5849 5.19805 20.3428 4.71365 20.3428C4.47152 20.3428 4.28983 20.4033 4.16882 20.5245ZM31.7769 20.5245C31.6557 20.6455 31.5952 20.8272 31.5952 21.0693C31.5952 21.3114 31.6557 21.4931 31.7769 21.6143C31.8979 21.7353 32.0796 21.7958 32.3217 21.7958C32.5639 21.7958 32.7455 21.7353 32.8667 21.6143C32.9877 21.4931 33.0482 21.3114 33.0482 21.0693C33.0482 20.8272 32.9877 20.6455 32.8667 20.5245C32.7455 20.4033 32.5639 20.3428 32.3217 20.3428C32.0796 20.3428 31.8979 20.4033 31.7769 20.5245ZM34.683 20.5245C34.5619 20.6455 34.5013 20.8272 34.5013 21.0693C34.5013 21.3114 34.5619 21.4931 34.683 21.6143C34.804 21.7353 34.9857 21.7958 35.2278 21.7958C35.47 21.7958 35.6516 21.7353 35.7728 21.6143C35.8938 21.4931 35.9544 21.3114 35.9544 21.0693C35.9544 20.8272 35.8938 20.6455 35.7728 20.5245C35.6516 20.4033 35.47 20.3428 35.2278 20.3428C34.9857 20.3428 34.804 20.4033 34.683 20.5245Z" fill="url(#paint0_linear_163_1871)"/>
<defs>
<linearGradient id="paint0_linear_163_1871" x1="36.6838" y1="13.8114" x2="0.351563" y2="13.8114" gradientUnits="userSpaceOnUse">
<stop stop-color="#09D1C7"/>
<stop offset="1" stop-color="#15919B"/>
</linearGradient>
</defs>
</svg>
