<svg width="31" height="33" viewBox="0 0 31 33" fill="none" xmlns="http://www.w3.org/2000/svg">
<path fill-rule="evenodd" clip-rule="evenodd" d="M6.79546 0.930008C6.62669 1.06656 6.48785 4.01979 6.62459 4.56462C6.73762 5.015 7.30039 5.16702 7.63087 4.83653L7.80641 4.66109V2.88272C7.80641 1.11635 7.80531 1.10335 7.64094 0.948953C7.43135 0.752089 7.02655 0.743028 6.79546 0.930008ZM16.1773 0.981809C16.0365 1.16074 16.0291 1.25811 16.0291 2.91567V4.66109L16.2046 4.83653C16.3257 4.95771 16.4595 5.01207 16.6368 5.01207C16.8141 5.01207 16.9479 4.95771 17.0691 4.83653L17.2446 4.66109V2.91567C17.2446 0.873905 17.2216 0.793457 16.6368 0.793457C16.3856 0.793457 16.2968 0.829883 16.1773 0.981809ZM2.27665 2.40571C1.68102 2.62417 1.19779 3.10677 0.961386 3.71933C0.791979 4.15836 0.762326 30.753 0.930635 31.3317C1.08403 31.8591 1.48562 32.3261 2.01746 32.5954L2.47955 32.8295L10.1494 32.81L17.8191 32.7904L17.1676 32.3617C15.0053 30.9389 13.1691 27.8872 13.1691 25.7163V25.468L10.4951 25.4468C7.49478 25.4231 7.5204 25.4278 7.5204 24.9142C7.5204 24.3817 7.47977 24.389 10.4506 24.389L13.0948 24.3889L13.1274 24.2281C13.1453 24.1396 13.1793 23.8742 13.2029 23.6382C13.2655 23.0135 13.4902 22.1693 13.7812 21.4657C13.9214 21.1269 14.0539 20.7933 14.0757 20.7245C14.1129 20.6067 13.933 20.5994 10.9733 20.5994H7.83131L7.6759 20.4339C7.45588 20.1998 7.47053 19.8625 7.70876 19.6751C7.89345 19.5298 7.96511 19.5269 11.3504 19.5269H14.8036L15.2555 18.9806C16.9294 16.9569 19.5164 15.7372 22.1504 15.7297L23.0402 15.7271L23.0204 9.81543L23.0005 3.90374L22.8255 3.54818C22.317 2.51471 21.783 2.29497 19.7802 2.29497H18.3172V3.4486C18.3172 5.06818 18.0045 5.73894 17.129 5.99758C16.4864 6.18749 15.9925 6.05286 15.4904 5.55077C15.0112 5.07156 14.9566 4.8563 14.9566 3.4486V2.29497H11.9178H8.87896V3.53225C8.87896 5.3605 8.39041 6.09039 7.1718 6.08297C6.04562 6.0762 5.5643 5.33743 5.53081 3.5641L5.50674 2.29497L4.02893 2.3C2.94668 2.30375 2.47763 2.33203 2.27665 2.40571ZM5.32644 9.66862C5.80007 9.91253 5.96554 10.3076 5.78002 10.7516C5.49447 11.4351 4.54274 11.3517 4.30194 10.6222C4.11377 10.0521 4.81099 9.40312 5.32644 9.66862ZM19.5545 10.0191C19.8708 10.2678 19.8362 10.7709 19.4937 10.9022C19.4301 10.9267 16.7844 10.9467 13.6147 10.9467H7.85135L7.68588 10.7912C7.45195 10.5714 7.46256 10.2161 7.70876 10.0224C8.00209 9.79163 19.2615 9.78852 19.5545 10.0191ZM5.32644 14.5307C5.80007 14.7746 5.96554 15.1697 5.78002 15.6137C5.49447 16.2972 4.54274 16.2138 4.30194 15.4843C4.11377 14.9142 4.81099 14.2652 5.32644 14.5307ZM19.6082 14.8682C19.8232 15.0422 19.8261 15.4042 19.6141 15.6161L19.4572 15.7731H13.6255H7.79378L7.65705 15.6043C7.47986 15.3854 7.4827 15.06 7.66345 14.8792C7.87862 14.6641 19.3429 14.6534 19.6082 14.8682ZM20.8855 16.882C15.5969 17.7771 12.6723 23.4985 15.0196 28.3573C18.0362 34.6016 27.3311 34.2135 29.6919 27.7447C31.8586 21.8079 27.0229 15.8433 20.8855 16.882ZM23.0804 19.1384C23.2928 19.2697 23.509 19.4867 23.6421 19.7019L23.8586 20.0519V22.8159V25.58L23.6421 25.93C22.8896 27.1471 21.0423 26.9338 20.6414 25.5835C20.4849 25.0566 20.484 20.5783 20.6403 20.0521C20.943 19.0325 22.1676 18.5741 23.0804 19.1384ZM5.59167 19.3747C5.95904 19.742 5.95904 20.1698 5.59167 20.5371C5.19318 20.9355 4.51189 20.7561 4.2992 20.1965C4.02024 19.4628 5.03476 18.8177 5.59167 19.3747ZM21.7544 20.1442C21.5235 20.4378 21.5235 25.1941 21.7544 25.4877C21.9556 25.7434 22.4362 25.7555 22.6663 25.5105C22.8199 25.347 22.8218 25.3145 22.8218 22.806V20.2668L22.6562 20.1114C22.4092 19.8793 21.9497 19.896 21.7544 20.1442ZM5.59167 24.2368C5.95904 24.6041 5.95904 25.0319 5.59167 25.3992C5.19318 25.7976 4.51189 25.6182 4.2992 25.0586C4.02024 24.3249 5.03476 23.6798 5.59167 24.2368ZM23.1194 27.7171C24.4367 28.643 23.9123 30.6506 22.3299 30.74C20.591 30.8382 19.9087 28.6049 21.3983 27.6911C21.9271 27.3668 22.6362 27.3775 23.1194 27.7171ZM21.8124 28.6714C21.685 28.7746 21.6452 28.8786 21.6452 29.1081C21.6452 29.6573 22.3396 29.9163 22.6735 29.4917C23.1278 28.9142 22.3856 28.2072 21.8124 28.6714Z" fill="url(#paint0_linear_19_1348)"/>
<defs>
<linearGradient id="paint0_linear_19_1348" x1="30.2181" y1="16.8115" x2="0.818359" y2="16.8115" gradientUnits="userSpaceOnUse">
<stop stop-color="#09D1C7"/>
<stop offset="1" stop-color="#15919B"/>
</linearGradient>
</defs>
</svg>
