<svg width="34" height="34" viewBox="0 0 34 34" fill="none" xmlns="http://www.w3.org/2000/svg">
<path fill-rule="evenodd" clip-rule="evenodd" d="M2.87218 0.426214C1.58365 0.780475 0.474609 1.9093 0.124306 3.22318C-0.0206019 3.76682 -0.0206019 25.1301 0.124306 25.6737C0.395937 26.6925 1.23401 27.7393 2.1223 28.1694C3.00004 28.5944 2.6911 28.5794 10.6019 28.5803L17.9038 28.5812L18.2184 29.186C20.3953 33.3702 26.0639 34.6266 29.8725 31.769C34.4678 28.3211 33.9377 21.1333 28.8947 18.5096L28.2899 18.195L28.2891 10.8931C28.2883 4.79955 28.2708 3.5259 28.183 3.19604C27.8351 1.88914 26.7165 0.770488 25.4096 0.422634C24.8444 0.272168 3.42006 0.275654 2.87218 0.426214ZM11.3812 5.10651C11.592 5.20252 11.8019 5.53596 11.8013 5.77405C11.8006 6.10183 11.5363 6.35415 9.46266 8.00589C6.82803 10.1046 7.14724 10.0455 5.7873 8.68558C4.66139 7.55976 4.56237 7.3229 5.02413 6.86114C5.42116 6.4641 5.67499 6.53853 6.42421 7.27165C6.77584 7.61573 7.10051 7.89735 7.14574 7.89735C7.19096 7.89735 7.96723 7.30849 8.87078 6.58866C11.0629 4.84251 10.9491 4.90959 11.3812 5.10651ZM23.2902 6.86114C23.5932 7.16414 23.5932 7.6 23.2902 7.903L23.075 8.1182H19.2797H15.4844L15.2458 7.90489C15.0482 7.72832 15.007 7.63815 15.007 7.38207C15.007 7.12598 15.0482 7.03582 15.2458 6.85925L15.4844 6.64604H19.2797H23.075L23.2902 6.86114ZM11.3812 12.1729C11.592 12.2689 11.8019 12.6023 11.8013 12.8404C11.8006 13.1682 11.5363 13.4205 9.46266 15.0723C6.82803 17.171 7.14724 17.1119 5.7873 15.752C4.66139 14.6261 4.56237 14.3893 5.02413 13.9275C5.42116 13.5305 5.67499 13.6049 6.42421 14.338C6.77584 14.6821 7.10051 14.9637 7.14574 14.9637C7.19096 14.9637 7.96723 14.3749 8.87078 13.655C11.0629 11.9089 10.9491 11.976 11.3812 12.1729ZM23.2902 13.9275C23.5932 14.2305 23.5932 14.6664 23.2902 14.9694L23.075 15.1846H19.2797H15.4844L15.2458 14.9713C15.0482 14.7947 15.007 14.7045 15.007 14.4484C15.007 14.1924 15.0482 14.1022 15.2458 13.9256L15.4844 13.7124H19.2797H23.075L23.2902 13.9275ZM11.3812 19.2393C11.592 19.3353 11.8019 19.6687 11.8013 19.9068C11.8006 20.2346 11.5363 20.4869 9.46266 22.1386C6.82803 24.2373 7.14724 24.1783 5.7873 22.8183C4.66139 21.6925 4.56237 21.4556 5.02413 20.9939C5.42116 20.5968 5.67499 20.6713 6.42421 21.4044C6.77584 21.7485 7.10051 22.0301 7.14574 22.0301C7.19096 22.0301 7.96723 21.4412 8.87078 20.7214C11.0629 18.9753 10.9491 19.0423 11.3812 19.2393ZM26.7399 19.4148C31.042 20.5394 32.7866 25.7948 30.0227 29.3041C26.814 33.3782 20.2908 31.9035 19.0788 26.83C18.0078 22.3463 22.2492 18.241 26.7399 19.4148ZM27.8483 23.176C27.747 23.245 26.9186 24.0423 26.0072 24.9478L24.3502 26.5943L23.432 25.6739C22.4327 24.6722 22.208 24.5372 21.7768 24.6796C21.41 24.8006 21.2236 25.07 21.2236 25.4791V25.8165L22.6058 27.1989L23.9882 28.5812H24.3828H24.7774L26.7962 26.5754C29.0368 24.3491 29.1371 24.2262 29.0773 23.7805C29 23.2033 28.3076 22.8628 27.8483 23.176Z" fill="url(#paint0_linear_163_1873)"/>
<defs>
<linearGradient id="paint0_linear_163_1873" x1="33.0201" y1="16.8115" x2="0.015625" y2="16.8115" gradientUnits="userSpaceOnUse">
<stop stop-color="#09D1C7"/>
<stop offset="1" stop-color="#15919B"/>
</linearGradient>
</defs>
</svg>
