<svg width="14" height="14" viewBox="0 0 14 14" fill="none" xmlns="http://www.w3.org/2000/svg">
<path d="M4 0C4.55312 0 5 0.417083 5 0.933333V1.86667H9V0.933333C9 0.417083 9.44687 0 10 0C10.5531 0 11 0.417083 11 0.933333V1.86667H12C13.1031 1.86667 14 2.70375 14 3.73333V12.1333C14 13.1629 13.1031 14 12 14H2C0.896875 14 0 13.1629 0 12.1333V3.73333C0 2.70375 0.896875 1.86667 2 1.86667H3V0.933333C3 0.417083 3.44688 0 4 0ZM2 7V7.93333C2 8.19 2.225 8.4 2.5 8.4H3.5C3.775 8.4 4 8.19 4 7.93333V7C4 6.74333 3.775 6.53333 3.5 6.53333H2.5C2.225 6.53333 2 6.74333 2 7ZM6 7V7.93333C6 8.19 6.225 8.4 6.5 8.4H7.5C7.775 8.4 8 8.19 8 7.93333V7C8 6.74333 7.775 6.53333 7.5 6.53333H6.5C6.225 6.53333 6 6.74333 6 7ZM10.5 6.53333C10.225 6.53333 10 6.74333 10 7V7.93333C10 8.19 10.225 8.4 10.5 8.4H11.5C11.775 8.4 12 8.19 12 7.93333V7C12 6.74333 11.775 6.53333 11.5 6.53333H10.5ZM2 10.7333V11.6667C2 11.9233 2.225 12.1333 2.5 12.1333H3.5C3.775 12.1333 4 11.9233 4 11.6667V10.7333C4 10.4767 3.775 10.2667 3.5 10.2667H2.5C2.225 10.2667 2 10.4767 2 10.7333ZM6.5 10.2667C6.225 10.2667 6 10.4767 6 10.7333V11.6667C6 11.9233 6.225 12.1333 6.5 12.1333H7.5C7.775 12.1333 8 11.9233 8 11.6667V10.7333C8 10.4767 7.775 10.2667 7.5 10.2667H6.5ZM10 10.7333V11.6667C10 11.9233 10.225 12.1333 10.5 12.1333H11.5C11.775 12.1333 12 11.9233 12 11.6667V10.7333C12 10.4767 11.775 10.2667 11.5 10.2667H10.5C10.225 10.2667 10 10.4767 10 10.7333Z" fill="#777D86"/>
</svg>
