<svg width="18" height="20" viewBox="0 0 18 20" fill="none" xmlns="http://www.w3.org/2000/svg">
<path d="M11.0015 18.093C10.846 18.3002 10.6589 18.4837 10.4448 18.635C10.0753 18.8961 9.6426 19.0506 9.19385 19.0852L9.00049 19.093H8.99951C8.48262 19.0932 7.97833 18.9332 7.55615 18.635C7.34222 18.4838 7.15489 18.3001 6.99951 18.093H11.0015ZM9.00049 1.09302C10.7241 1.0931 12.3773 1.77763 13.5962 2.99634C14.8152 4.21532 15.5005 5.86911 15.5005 7.59302V11.1213L15.5103 11.2952C15.5238 11.4102 15.5508 11.5232 15.5903 11.6321L15.6587 11.7922L17.3745 15.2249C17.4202 15.3163 17.4425 15.4177 17.438 15.5198C17.4334 15.622 17.4029 15.7218 17.3491 15.8088C17.2954 15.8958 17.2197 15.9671 17.1304 16.0168C17.0411 16.0666 16.9406 16.093 16.8384 16.093H1.16162C1.0595 16.093 0.958834 16.0666 0.869629 16.0168C0.780544 15.9671 0.705559 15.8956 0.651855 15.8088C0.598078 15.7218 0.567585 15.622 0.562988 15.5198C0.558429 15.4177 0.579805 15.3163 0.625488 15.2249L2.34229 11.7913C2.42014 11.635 2.47079 11.4667 2.49072 11.2942L2.50049 11.1204V7.59302C2.50049 5.86911 3.18482 4.21532 4.40381 2.99634C5.62278 1.77745 7.27666 1.09302 9.00049 1.09302Z" fill="url(#paint0_linear_147_2499)" stroke="url(#paint1_linear_147_2499)"/>
<defs>
<linearGradient id="paint0_linear_147_2499" x1="17.9383" y1="10.093" x2="0.0620117" y2="10.093" gradientUnits="userSpaceOnUse">
<stop stop-color="#E596C5"/>
<stop offset="1" stop-color="#C17DEE"/>
</linearGradient>
<linearGradient id="paint1_linear_147_2499" x1="17.9383" y1="10.093" x2="0.0620117" y2="10.093" gradientUnits="userSpaceOnUse">
<stop stop-color="#E596C5"/>
<stop offset="1" stop-color="#C17DEE"/>
</linearGradient>
</defs>
</svg>
