<svg width="20" height="19" viewBox="0 0 20 19" fill="none" xmlns="http://www.w3.org/2000/svg">
<path d="M18.5 18L15.1944 14.6944M14.7222 7.61111C14.7222 8.47929 14.5512 9.33898 14.219 10.1411C13.8867 10.9432 13.3998 11.672 12.7859 12.2859C12.172 12.8998 11.4432 13.3867 10.6411 13.719C9.83898 14.0512 8.97929 14.2222 8.11111 14.2222C7.24293 14.2222 6.38325 14.0512 5.58115 13.719C4.77905 13.3867 4.05025 12.8998 3.43635 12.2859C2.82245 11.672 2.33548 10.9432 2.00324 10.1411C1.671 9.33898 1.5 8.47929 1.5 7.61111C1.5 5.85774 2.19653 4.17617 3.43635 2.93635C4.67617 1.69653 6.35774 1 8.11111 1C9.86449 1 11.546 1.69653 12.7859 2.93635C14.0257 4.17617 14.7222 5.85774 14.7222 7.61111Z" stroke="url(#paint0_linear_147_2501)" stroke-width="2" stroke-linecap="round"/>
<defs>
<linearGradient id="paint0_linear_147_2501" x1="18.5" y1="9.5" x2="1.5" y2="9.5" gradientUnits="userSpaceOnUse">
<stop stop-color="#E596C5"/>
<stop offset="1" stop-color="#C17DEE"/>
</linearGradient>
</defs>
</svg>
