<svg width="15" height="16" viewBox="0 0 15 16" fill="none" xmlns="http://www.w3.org/2000/svg">
<path d="M7.5 0.5C6.01664 0.5 4.56659 0.939865 3.33323 1.76398C2.09986 2.58809 1.13856 3.75943 0.570906 5.12987C0.00324899 6.50032 -0.145275 8.00832 0.144114 9.46318C0.433503 10.918 1.14781 12.2544 2.1967 13.3033C3.24559 14.3522 4.58197 15.0665 6.03682 15.3559C7.49168 15.6453 8.99968 15.4968 10.3701 14.9291C11.7406 14.3614 12.9119 13.4001 13.736 12.1668C14.5601 10.9334 15 9.48336 15 8C14.9977 6.01157 14.2068 4.10523 12.8008 2.69919C11.3948 1.29316 9.48843 0.50226 7.5 0.5ZM14.3823 7.69479H11.3147C11.2939 6.57855 11.0844 5.47387 10.6951 4.42752C11.3438 4.1215 11.9451 3.72375 12.4806 3.24651C13.6335 4.44947 14.3094 6.03076 14.3823 7.69539V7.69479ZM7.80501 1.37659C8.26725 1.75814 8.68162 2.19422 9.03908 2.67533C9.37084 3.12101 9.65541 3.59994 9.88823 4.1044C9.21971 4.35112 8.51693 4.4925 7.80501 4.52349V1.37659ZM8.52361 1.18647C9.82866 1.38286 11.0494 1.95125 12.0398 2.82357C11.5635 3.24151 11.0316 3.59159 10.4594 3.86386C9.99796 2.85211 9.33993 1.94221 8.52361 1.18709V1.18647ZM5.99203 2.67574C6.34153 2.20551 6.74531 1.77819 7.19499 1.40263V4.5239C6.49242 4.49353 5.79868 4.35548 5.138 4.11458C5.37181 3.60654 5.65804 3.12431 5.99203 2.67574ZM4.56601 3.87666C3.98391 3.60268 3.44317 3.24832 2.95962 2.82397C3.95929 1.94365 5.1935 1.37321 6.51177 1.1822C5.6899 1.94162 5.02833 2.85783 4.56601 3.87687V3.87666ZM7.19499 5.13392V7.696H4.32667C4.34977 6.66523 4.5446 5.64553 4.90314 4.67884C5.63857 4.94958 6.41193 5.10301 7.19499 5.13392ZM7.19499 8.30602V10.8246C6.43027 10.8546 5.67468 11.0018 4.95459 11.261C4.57285 10.3205 4.36028 9.32003 4.32667 8.30562L7.19499 8.30602ZM7.19499 11.4346V14.536C6.37602 13.7551 5.7019 12.8352 5.20388 11.8191C5.84492 11.5931 6.51591 11.4634 7.19499 11.4342V11.4346ZM6.61344 14.832C5.24734 14.6552 3.96607 14.0713 2.93624 13.1565C3.44186 12.7076 4.01097 12.3358 4.62518 12.0532C5.12286 13.087 5.79552 14.027 6.61344 14.8316V14.832ZM7.80501 14.565V11.4336C8.4935 11.4632 9.17362 11.5962 9.82255 11.8281C9.3187 12.8533 8.63541 13.7801 7.80501 14.5646V14.565ZM10.4 12.0652C11.0045 12.3464 11.565 12.7141 12.0638 13.1565C11.0431 14.0632 9.77517 14.6449 8.42215 14.8273C9.23509 14.0268 9.90416 13.0923 10.4 12.0648V12.0652ZM7.80501 10.8248V8.30562H10.704C10.6705 9.32356 10.4567 10.3275 10.0725 11.2707C9.34431 11.0054 8.57938 10.8548 7.80501 10.8242V10.8248ZM7.80501 7.69621V5.13412C8.59751 5.10264 9.37996 4.9454 10.1231 4.66827C10.4842 5.63789 10.6804 6.66116 10.7034 7.6956L7.80501 7.69621ZM2.51939 3.24733C3.0621 3.73117 3.67244 4.13333 4.33115 4.44114C3.94507 5.48377 3.73734 6.58397 3.71665 7.6956H0.617751C0.690806 6.0312 1.36669 4.45018 2.51939 3.24733ZM0.617751 8.30562H3.71665C3.74778 9.39931 3.97192 10.4789 4.37873 11.4946C3.6926 11.8094 3.05804 12.2262 2.49661 12.7309C1.35731 11.5306 0.690057 9.95899 0.617751 8.30562ZM12.5024 12.7311C11.9485 12.2329 11.3233 11.8202 10.6475 11.5066C11.0572 10.4874 11.283 9.40364 11.3143 8.30562H14.3823C14.3096 9.95918 13.642 11.5308 12.5024 12.7311Z" fill="#777D86"/>
</svg>
