<svg width="37" height="28" viewBox="0 0 37 28" fill="none" xmlns="http://www.w3.org/2000/svg">
<path fill-rule="evenodd" clip-rule="evenodd" d="M30.0543 0.159856C28.132 0.99357 28.4946 4.93433 30.5734 5.80017C32.2882 6.5144 33.9097 2.32047 32.5455 0.699257C32.0046 0.0564288 30.8629 -0.190726 30.0543 0.159856ZM16.405 3.27959C15.5865 3.65131 15.2754 4.33218 15.3599 5.56636C15.5626 8.52376 18.0148 9.23658 18.8422 6.57856C19.5662 4.25243 18.2338 2.44898 16.405 3.27959ZM4.11686 6.39857C3.38047 6.781 3.23542 7.06385 3.23787 8.11334C3.2435 10.5808 5.04244 11.5683 6.0088 9.63432C7.021 7.60851 5.80185 5.52352 4.11686 6.39857ZM30.7112 6.56043C30.6397 6.60768 30.5315 7.66976 30.4228 9.39364L30.2488 12.1513L30.5705 12.7137C30.9602 13.3947 30.8971 13.3948 31.2873 12.7129L31.6096 12.1496L31.4331 9.3928C31.2648 6.76277 31.2165 6.48471 30.9287 6.48471C30.8721 6.48471 30.7742 6.51881 30.7112 6.56043ZM28.149 7.14351C25.0632 7.96435 25.2151 7.63866 25.2151 13.438V17.6871L25.4704 17.9904C25.7663 18.342 26.2238 18.5581 26.5694 18.5092L26.8108 18.475L26.8623 14.4085C26.9126 10.4279 26.9181 10.3422 27.1196 10.3422C27.3234 10.3422 27.326 10.4279 27.3769 18.7473C27.4379 28.6976 27.2307 27.5858 29.0242 27.5858C30.7651 27.5858 30.6087 27.995 30.6713 23.2771C30.7217 19.4873 30.7273 19.4015 30.9287 19.4015C31.13 19.4015 31.1357 19.4873 31.186 23.2771C31.2487 27.995 31.0923 27.5858 32.8331 27.5858C34.6266 27.5858 34.4194 28.6976 34.4804 18.7473C34.5313 10.4279 34.5339 10.3422 34.7377 10.3422C34.9397 10.3422 34.9442 10.4197 34.9706 14.4343L34.9974 18.5264L35.3308 18.5261C35.7245 18.5256 36.2559 18.2257 36.4865 17.8738C36.6315 17.6524 36.6472 17.1096 36.6207 13.2106L36.5907 8.79788L36.3012 8.37121C36.1389 8.13222 35.822 7.84928 35.5805 7.72772C35.1853 7.52894 31.9203 6.63417 31.8566 6.70725C31.8415 6.72473 31.8668 7.27174 31.913 7.92283C31.9591 8.57402 32.0467 9.82088 32.1075 10.6936L32.2179 12.2804L31.6813 13.187C30.9282 14.459 30.9189 14.4584 30.1217 13.0985L29.6486 12.2915L29.7476 10.8536C29.9345 8.13955 29.984 6.68734 29.8895 6.69636C29.8382 6.70134 29.055 6.90246 28.149 7.14351ZM16.942 9.13249C16.9139 9.2316 16.8337 10.3556 16.7639 11.6303L16.637 13.9478L16.9222 14.3997L17.2074 14.8515L17.4884 14.347L17.7694 13.8423L17.6117 11.3974C17.4561 8.98078 17.4516 8.95232 17.2237 8.95232C17.0923 8.95232 16.9712 9.02982 16.942 9.13249ZM14.6655 9.48646C12.0281 10.1902 12.1408 9.94479 12.1408 14.9844C12.1408 19.1519 12.1302 19.0767 12.7596 19.4021C13.5141 19.7923 13.4732 19.983 13.5035 15.927L13.5305 12.2982H13.7879H14.0452L14.0717 19.7544C14.1027 28.5017 13.9384 27.5865 15.4768 27.5843C16.9589 27.582 16.8165 27.9611 16.8763 23.8578L16.9278 20.328H17.1852H17.4426L17.4697 23.7702C17.5024 27.9123 17.3824 27.5865 18.874 27.5843C19.4456 27.5833 19.9828 27.5387 20.0677 27.4851C20.2019 27.4003 20.2289 26.3992 20.2736 19.8428L20.3251 12.2982H20.5825H20.8398L20.8668 15.927C20.8971 19.983 20.8562 19.7923 21.6108 19.4021C22.2406 19.0764 22.2296 19.1556 22.2296 14.9477C22.2296 9.91369 22.3566 10.1834 19.6531 9.47631C18.7825 9.2486 18.0642 9.07237 18.0569 9.08458C18.0496 9.0968 18.1122 10.222 18.196 11.585L18.3484 14.0633L17.9128 14.7965C17.2043 15.989 17.2042 15.989 16.5135 14.8513L16.0349 14.0629L16.1478 12.0996C16.21 11.0197 16.2888 9.89303 16.3231 9.5958C16.3573 9.29848 16.3453 9.05978 16.2962 9.06523C16.2473 9.07068 15.5134 9.26025 14.6655 9.48646ZM4.58242 11.8606C4.27609 14.7175 4.34898 16.3645 4.78176 16.3645C5.19031 16.3645 5.33704 12.6908 4.9781 11.4489C4.87664 11.0976 4.63756 11.3464 4.58242 11.8606ZM2.61815 11.8072C0.316627 12.404 0.404743 12.2151 0.404743 16.5499C0.404743 20.0907 0.415264 20.1702 0.917465 20.4299C1.56527 20.7649 1.53718 20.9019 1.53718 17.405C1.53718 14.4897 1.55193 14.219 1.71464 14.1566C2.14601 13.991 2.15484 14.1266 2.15484 20.8934C2.15484 28.3038 2.02633 27.5858 3.35322 27.5858C4.56176 27.5858 4.46209 27.8666 4.52268 24.2915L4.57416 21.2545L4.80572 21.2217L5.03737 21.1888V24.2255C5.03737 26.8489 5.05935 27.2843 5.19914 27.424C5.3841 27.609 7.03049 27.6568 7.30225 27.4851C7.43602 27.4005 7.46355 26.5021 7.50808 20.7693C7.5589 14.237 7.56228 14.1512 7.76547 14.1512C7.96631 14.1512 7.97204 14.2289 7.99863 17.3206C8.02841 20.7933 8.02005 20.7519 8.62821 20.4374C9.14732 20.1689 9.15531 20.1092 9.15493 16.5C9.15437 12.1572 9.27996 12.4203 6.91203 11.799L5.5438 11.44L5.60138 12.0235C5.63304 12.3444 5.70256 13.322 5.75601 14.1958L5.85305 15.7847L5.412 16.5122C5.16936 16.9123 4.89599 17.254 4.8045 17.2717C4.52277 17.326 3.69065 15.7976 3.75312 15.3407C3.814 14.8947 4.01399 11.4938 3.98036 11.4742C3.96721 11.4665 3.35416 11.6163 2.61815 11.8072Z" fill="url(#paint0_linear_163_1889)"/>
<defs>
<linearGradient id="paint0_linear_163_1889" x1="36.6313" y1="13.8115" x2="0.404297" y2="13.8115" gradientUnits="userSpaceOnUse">
<stop stop-color="#09D1C7"/>
<stop offset="1" stop-color="#15919B"/>
</linearGradient>
</defs>
</svg>
