<svg width="38" height="44" viewBox="0 0 38 44" fill="none" xmlns="http://www.w3.org/2000/svg">
<path fill-rule="evenodd" clip-rule="evenodd" d="M16.8481 0.521557C10.8992 2.15994 10.0523 10.3988 15.5571 13.0796C21.3562 15.9037 27.2912 9.85052 24.4525 4.0073C23.1225 1.26989 19.7478 -0.277084 16.8481 0.521557ZM19.9586 1.27244C24.4705 2.42642 25.9169 8.19197 22.5029 11.4153C18.8675 14.848 12.8963 12.3986 12.6357 7.36762C12.4291 3.38117 16.137 0.294972 19.9586 1.27244ZM18.1549 3.45076C18.0822 3.53408 17.8405 3.97229 17.6181 4.42457C17.3956 4.87685 17.2015 5.26033 17.1868 5.27673C17.1721 5.29313 16.7156 5.37478 16.1724 5.45833C14.5879 5.70186 14.5036 5.96978 15.6644 7.07178L16.4072 7.77691L16.2638 8.65034C15.9627 10.4834 16.1418 10.6381 17.6327 9.83301L18.5176 9.35536L19.4024 9.83301C20.8912 10.6369 21.0721 10.4812 20.7722 8.65522L20.6295 7.78666L21.372 7.07943C22.5405 5.96623 22.4376 5.67029 20.8001 5.43606C20.2896 5.36304 19.8606 5.29069 19.8468 5.27506C19.833 5.25955 19.6396 4.87685 19.4171 4.42457C18.9339 3.44245 18.8195 3.29929 18.5176 3.29929C18.3909 3.29929 18.2277 3.36743 18.1549 3.45076ZM13.5232 17.0337C13.4919 17.0654 13.4661 19.8506 13.4661 23.2229V29.3544H8.84583C4.36547 29.3544 4.22289 29.3595 4.13686 29.5218C4.07933 29.6307 4.04832 31.1743 4.04832 33.9365V38.1837H2.13904C0.768182 38.1837 0.200835 38.213 0.127081 38.2876C0.018368 38.3974 -0.0284267 42.8782 0.0762316 43.1539C0.156013 43.3641 36.8791 43.3641 36.9589 43.1539C37.0636 42.8782 37.0168 38.3974 36.9082 38.2876C36.8343 38.213 36.267 38.1837 34.8961 38.1837H32.9868V29.6202C32.9868 21.9507 32.9728 21.0426 32.8524 20.9208C32.7334 20.8005 32.1878 20.7847 28.1434 20.7847H23.569V19.0173C23.569 18.0452 23.5456 17.1882 23.5171 17.113C23.4628 16.9701 13.663 16.8924 13.5232 17.0337ZM32.2163 29.8737V38.1837H27.8927H23.569V29.8737V21.5638H27.8927H32.2163V29.8737ZM13.4661 34.1585V38.1837H9.14249H4.81884V34.1585V30.1334H9.14249H13.4661V34.1585Z" fill="url(#paint0_linear_163_1885)"/>
<defs>
<linearGradient id="paint0_linear_163_1885" x1="37.0176" y1="21.8115" x2="0.0175781" y2="21.8115" gradientUnits="userSpaceOnUse">
<stop stop-color="#09D1C7"/>
<stop offset="1" stop-color="#15919B"/>
</linearGradient>
</defs>
</svg>
