<svg width="36" height="38" viewBox="0 0 36 38" fill="none" xmlns="http://www.w3.org/2000/svg">
<path fill-rule="evenodd" clip-rule="evenodd" d="M15.7043 1.64096L15.4971 2.97041L15.1121 3.06736C14.5718 3.20353 13.6933 3.55583 13.1378 3.85909C12.8789 4.0005 12.6272 4.09249 12.5788 4.06358C12.5303 4.03467 12.0584 3.69582 11.5302 3.31059C11.002 2.92546 10.5322 2.59587 10.4864 2.57831C10.4405 2.56066 9.90117 3.04904 9.2877 3.66347L8.17248 4.78059L8.39778 5.0994C8.52173 5.2747 8.87938 5.77118 9.19266 6.20269L9.76224 6.98726L9.35822 7.80552C9.13607 8.25563 8.87909 8.8922 8.7873 9.22018C8.6955 9.54824 8.61763 9.82354 8.6141 9.83213C8.61067 9.84062 8.07248 9.9327 7.41816 10.0367C6.76374 10.1407 6.15294 10.2434 6.06066 10.2649C5.89319 10.304 5.89291 10.3066 5.89291 11.8897V13.4753L7.25393 13.6873L8.61496 13.8995L8.78548 14.5045C8.87928 14.8374 9.12901 15.4619 9.34047 15.8924C9.81291 16.8546 9.84659 16.6587 9.0123 17.8004C8.62555 18.3296 8.28126 18.8082 8.2471 18.864C8.16637 18.9958 10.3528 21.2064 10.5058 21.1477C10.5623 21.126 11.0712 20.7729 11.6365 20.363L12.6646 19.6176L12.9404 19.7803C13.1816 19.9227 13.2242 19.9287 13.2803 19.8284C13.6022 19.2533 14.2077 18.625 14.9424 18.1038C15.0717 18.0121 15.0363 17.9786 14.5082 17.6938C8.4641 14.4336 10.6849 5.33796 17.5227 5.34741C24.3677 5.35686 26.5835 14.4324 20.5371 17.6938C20.009 17.9786 19.9736 18.0121 20.1029 18.1038C20.8376 18.625 21.4431 19.2533 21.765 19.8284C21.8211 19.9287 21.8637 19.9227 22.1052 19.7802L22.3812 19.6173L23.4156 20.3654C23.9846 20.7767 24.4933 21.13 24.5461 21.1502C24.693 21.2066 26.8758 18.9906 26.7982 18.864C26.7641 18.8082 26.4198 18.3296 26.033 17.8004C25.1987 16.6587 25.2324 16.8546 25.7049 15.8924C25.9163 15.4619 26.166 14.8374 26.2598 14.5046L26.4304 13.8996L27.7914 13.6894L29.1524 13.4792V11.8952C29.1524 10.4507 29.141 10.3079 29.022 10.2736C28.9502 10.2528 28.3382 10.1473 27.6618 10.0391C26.9855 9.93089 26.4305 9.83652 26.4285 9.82946C26.4265 9.82239 26.3498 9.54824 26.258 9.22018C26.1662 8.8922 25.9092 8.25563 25.6871 7.80552L25.2831 6.98726L25.8527 6.20269C26.1659 5.77118 26.5237 5.27451 26.6478 5.09902L26.8734 4.77983L25.7451 3.65164L24.6169 2.52344L23.5925 3.26259C23.029 3.6691 22.5251 4.02741 22.4728 4.05881C22.4165 4.09249 22.1854 4.01081 21.9071 3.8589C21.352 3.55573 20.4734 3.20353 19.9332 3.06736L19.5482 2.97041L19.3411 1.64096L19.1339 0.311523H17.5227H15.9114L15.7043 1.64096ZM16.3717 6.54765C10.7823 7.74559 10.6611 15.7671 16.2113 17.1608C20.8575 18.3275 24.6534 13.2238 22.2127 9.09154C21.0311 7.09099 18.6583 6.05755 16.3717 6.54765ZM18.1004 7.73472C18.3001 7.95992 18.3003 7.96535 18.1888 10.7485C18.1291 12.2412 18.0833 12.7648 18.0016 12.8906C17.7977 13.2049 17.2482 13.2044 17.0421 12.8898C16.8553 12.6046 16.713 8.06192 16.8828 7.80275C17.1358 7.41657 17.7862 7.38022 18.1004 7.73472ZM17.8444 14.7829C18.5523 15.1449 18.3113 16.2245 17.5227 16.2245C17.2633 16.2245 17.172 16.1828 16.9932 15.9827C16.4317 15.3543 17.1052 14.4048 17.8444 14.7829ZM16.5305 18.6135C13.2177 19.5242 12.7711 24.1318 15.851 25.6244C18.3874 26.8535 21.2572 25.0726 21.2622 22.2664C21.2666 19.756 18.9317 17.9534 16.5305 18.6135ZM5.40835 20.9878C2.15831 22.0615 2.33647 26.7344 5.65425 27.4384C8.50742 28.0437 10.7206 24.9609 9.22586 22.4633C8.49358 21.2396 6.72042 20.5544 5.40835 20.9878ZM27.5487 21.0577C24.4717 22.2297 24.6784 26.5816 27.8504 27.4079C30.7254 28.1567 33.0336 25.0244 31.5157 22.4342C30.7745 21.1695 28.9328 20.5304 27.5487 21.0577ZM15.9292 26.9671C12.5221 27.644 9.86644 30.3909 9.31966 33.8035C9.05343 35.4651 9.5024 36.6422 10.5896 37.1334C11.1154 37.3709 23.9299 37.3709 24.4558 37.1334C25.4088 36.7028 25.7627 36.0337 25.7539 34.6789C25.7224 29.8143 20.8496 25.9893 15.9292 26.9671ZM4.961 28.5405C2.76006 29.0111 0.898722 30.6838 0.14812 32.8655C-0.0574222 33.4629 -0.040437 33.7328 0.220928 34.0254L0.438494 34.2689L4.28397 34.2901C6.53988 34.3026 8.12945 34.2835 8.12945 34.244C8.12945 33.2243 8.91011 31.0635 9.69735 29.9042L9.99402 29.4673L9.65718 29.2698C8.34472 28.5007 6.49245 28.213 4.961 28.5405ZM27.2514 28.5402C26.6794 28.6622 25.9127 28.9625 25.3881 29.2698L25.0513 29.4673L25.3518 29.9098C26.1406 31.0713 26.916 33.2199 26.916 34.244C26.916 34.2835 28.5054 34.3026 30.7613 34.2901L34.6068 34.2689L34.8328 34.016C35.1173 33.6975 35.0994 33.3473 34.7551 32.4928C33.5746 29.5633 30.3697 27.8751 27.2514 28.5402Z" fill="url(#paint0_linear_163_1894)"/>
<defs>
<linearGradient id="paint0_linear_163_1894" x1="35.0311" y1="18.8115" x2="0.0078125" y2="18.8115" gradientUnits="userSpaceOnUse">
<stop stop-color="#09D1C7"/>
<stop offset="1" stop-color="#15919B"/>
</linearGradient>
</defs>
</svg>
