<svg width="37" height="35" viewBox="0 0 37 35" fill="none" xmlns="http://www.w3.org/2000/svg">
<path fill-rule="evenodd" clip-rule="evenodd" d="M17.7129 0.653189C10.8182 1.16295 7.72573 10.0206 12.7689 14.8136L13.4033 15.4165L13.4482 13.7259C13.511 11.3595 13.9563 10.3957 15.3123 9.69137L15.5296 9.57846L15.2719 9.03468C13.9038 6.14644 17.1029 2.95124 19.9926 4.31999C21.7484 5.15166 22.5704 7.33413 21.7668 9.03055L21.5111 9.57022L21.8473 9.76756C22.2704 10.0158 22.8235 10.5675 23.0737 10.9906C23.4939 11.7013 23.5383 11.9374 23.5872 13.7268L23.6334 15.4184L24.3246 14.7337C29.8646 9.2446 25.558 0.0732107 17.7129 0.653189ZM17.6585 5.36035C16.4423 5.79133 15.8085 7.37692 16.3749 8.57142C17.4558 10.8511 20.8528 10.0873 20.8528 7.56447C20.8528 5.89805 19.2542 4.79501 17.6585 5.36035ZM15.8819 10.7137C14.869 11.2151 14.6973 11.7001 14.667 14.1455L14.6419 16.1753L14.9877 16.3517C15.5329 16.6299 16.3639 16.8888 17.0457 16.9931C17.3905 17.0458 17.7179 17.1017 17.7732 17.117C17.8501 17.1385 17.874 17.5849 17.874 19.0004V20.8557L12.336 20.8561C6.3144 20.8566 6.37647 20.8522 5.86011 21.3187C5.26044 21.8605 5.19208 22.0849 5.16073 23.6146L5.1331 24.9638L3.58927 24.9643C1.83779 24.9649 1.56177 25.0167 1.10078 25.4323C0.465227 26.0053 0.478424 25.9092 0.476362 30.002L0.474609 33.6304L0.736399 34.0623C0.930962 34.3835 1.11192 34.5583 1.44124 34.7434L1.88429 34.9927H5.62997C11.2628 34.9927 10.9469 35.2949 10.9457 29.9084L10.9448 26.454L10.7545 26.0513C10.3071 25.1052 9.94965 24.9638 8.00309 24.9638H6.50443L6.53041 23.7576C6.55464 22.6275 6.56794 22.5397 6.73982 22.368L6.92325 22.1848L12.3986 22.1625L17.874 22.1401V23.5118V24.8833H16.4369C14.4233 24.8833 13.9234 25.0651 13.4877 25.9556L13.2776 26.3849L13.3002 30.0576L13.3227 33.7304L13.5667 34.0774C13.7008 34.2681 13.9667 34.534 14.1576 34.6682L14.5046 34.9121H18.5184H22.5321L22.8792 34.6682C23.0701 34.534 23.336 34.2681 23.4701 34.0774L23.7141 33.7304L23.7387 30.1325C23.7739 24.9914 23.761 24.969 20.7537 24.9656L19.1628 24.9638V23.5945V22.2251H24.6441H30.1253L30.323 22.4227C30.5148 22.6146 30.5207 22.6556 30.5207 23.7922V24.9638H29.0464C26.1421 24.9638 26.0653 25.1017 26.1047 30.24C26.1335 33.9956 26.1256 33.9405 26.7073 34.48C27.2805 35.0117 27.1066 34.9927 31.3665 34.9927C35.7062 34.9927 35.5844 35.0085 36.1212 34.3718C36.5658 33.8447 36.5623 33.8799 36.5614 29.9406L36.5606 26.293L36.3187 25.8711C36.1405 25.5604 35.9656 25.3854 35.6549 25.2073L35.233 24.9654L33.5697 24.9646L31.9063 24.9638L31.8754 23.6146C31.8411 22.1157 31.7746 21.8828 31.2326 21.3632C30.6821 20.8355 30.9392 20.8557 24.7638 20.8557H19.1628V19.0004C19.1628 17.5849 19.1866 17.1385 19.2635 17.117C19.3189 17.1017 19.6463 17.0458 19.9911 16.9931C20.6729 16.8888 21.5039 16.6299 22.0491 16.3517L22.3949 16.1753L22.3697 14.1455L22.3446 12.1157L22.1056 11.684C21.5436 10.6694 20.892 10.3902 20.0298 10.7943C19.1672 11.1986 17.878 11.204 17.0392 10.8068C16.3876 10.4981 16.3274 10.4932 15.8819 10.7137ZM6.07694 27.3819C6.37771 27.4962 7.91813 28.6294 8.15414 28.9099C8.50295 29.3243 8.49378 29.5905 8.08826 30.8313C7.52199 32.5639 7.45074 32.6163 5.66369 32.6163C3.92344 32.6163 3.81333 32.5299 3.25407 30.726C2.79597 29.248 2.85144 29.0893 4.15874 28.1413C5.31601 27.3021 5.58584 27.1952 6.07694 27.3819ZM19.5268 27.6145C21.1416 28.3288 21.5673 30.383 20.3696 31.6824C18.8041 33.3806 15.989 32.2725 15.989 29.9581C15.989 28.1254 17.868 26.8807 19.5268 27.6145ZM32.9856 27.695C33.633 27.9891 33.699 28.1807 33.7275 29.8483C33.7561 31.5151 33.7082 31.7251 33.2142 32.1022L32.9101 32.3344L31.4695 32.3597C29.215 32.3992 28.973 32.2081 28.922 30.3477C28.8709 28.4852 29.0303 27.9691 29.754 27.6538C30.1645 27.4749 32.5685 27.5056 32.9856 27.695ZM4.9406 29.0327C4.07295 29.6646 4.12718 29.5016 4.44589 30.522L4.71015 31.3678L5.67503 31.3903L6.63981 31.4127L6.93871 30.5079C7.10317 30.0102 7.20875 29.5832 7.17349 29.5591C7.13812 29.5349 6.79797 29.2886 6.41751 29.0116C5.58925 28.4088 5.80144 28.4059 4.9406 29.0327ZM18.0647 28.6764C17.7279 28.774 17.252 29.3133 17.1843 29.6742C16.93 31.0295 18.5812 31.8797 19.514 30.8738C20.4622 29.8513 19.4269 28.2815 18.0647 28.6764ZM30.118 29.9581V31.1664H31.3263H32.5346V29.9581V28.7498H31.3263H30.118V29.9581Z" fill="url(#paint0_linear_163_1881)"/>
<defs>
<linearGradient id="paint0_linear_163_1881" x1="36.5615" y1="17.8113" x2="0.474609" y2="17.8113" gradientUnits="userSpaceOnUse">
<stop stop-color="#09D1C7"/>
<stop offset="1" stop-color="#15919B"/>
</linearGradient>
</defs>
</svg>
