<svg width="34" height="34" viewBox="0 0 34 34" fill="none" xmlns="http://www.w3.org/2000/svg">
<path fill-rule="evenodd" clip-rule="evenodd" d="M13.7054 0.498432C13.1726 0.926299 13.1045 1.20376 13.1042 2.95025L13.1038 4.57239L12.5586 4.74445C12.2586 4.83902 11.6553 5.08206 11.2177 5.28457C10.2145 5.74873 10.4023 5.80566 9.33108 4.71281C7.32253 2.66365 7.16462 2.68133 4.6469 5.23813C2.52247 7.3954 2.51344 7.55578 4.40899 9.44151L5.49466 10.5216L5.09074 11.39C4.8687 11.8676 4.61002 12.5044 4.516 12.805L4.34501 13.3515H2.73945C0.0748833 13.3515 0.0175781 13.4234 0.0175781 16.7732C0.0175781 20.1216 0.0758115 20.1949 2.73338 20.1949H4.33286L4.55449 20.8365C4.67636 21.1893 4.93782 21.826 5.13556 22.2512L5.49509 23.0244L4.40916 24.1046C2.51335 25.9906 2.52247 26.151 4.6469 28.3083C7.16462 30.8651 7.32253 30.8827 9.33108 28.8337C10.4023 27.7407 10.2145 27.7977 11.2177 28.2618C11.6553 28.4643 12.2586 28.7074 12.5586 28.8019L13.1038 28.974V30.5879C13.1038 33.2658 13.161 33.3115 16.5176 33.3115C19.8742 33.3115 19.9314 33.2658 19.9314 30.5879V28.974L20.4767 28.8019C20.7765 28.7074 21.38 28.4643 21.8175 28.2618C22.8282 27.7942 22.6587 27.7433 23.7181 28.8329C25.6958 30.8672 25.8686 30.8525 28.246 28.4478C30.5317 26.1357 30.5426 26.0112 28.626 24.1046L27.5402 23.0244L27.8997 22.2512C28.0974 21.826 28.3589 21.1893 28.4808 20.8365L28.7023 20.1949H30.3018C32.9594 20.1949 33.0176 20.1216 33.0176 16.7732C33.0176 13.4248 32.9594 13.3515 30.3018 13.3515H28.7023L28.4808 12.7099C28.3589 12.3571 28.0974 11.7204 27.8997 11.2952L27.5402 10.522L28.626 9.44177C30.5426 7.53514 30.5317 7.41071 28.246 5.09864C25.8686 2.69394 25.6958 2.67922 23.7181 4.71349C22.6587 5.80312 22.8282 5.7522 21.8175 5.28457C21.38 5.08206 20.7765 4.83902 20.4767 4.74445L19.9314 4.57239L19.931 2.95025C19.9307 1.20376 19.8626 0.926299 19.3299 0.498432C19.0194 0.249139 14.0159 0.249139 13.7054 0.498432ZM17.2866 8.79117C20.1079 9.32748 21.6992 12.4243 20.4697 14.9864C18.8468 18.3682 14.2287 18.3727 12.5627 14.994C11.0214 11.868 13.8606 8.13998 17.2866 8.79117ZM15.5053 9.87099C13.7168 10.4565 12.6831 12.5403 13.3308 14.2545C14.6814 17.8287 19.9049 16.8811 19.8791 13.0664C19.8643 10.8626 17.5781 9.1923 15.5053 9.87099ZM17.9189 11.9787C18.0348 12.0601 18.1297 12.2197 18.1297 12.3335C18.1297 12.6027 16.3611 14.397 16.0956 14.397C15.8511 14.397 14.9056 13.4615 14.9056 13.2196C14.9056 12.7136 15.4868 12.5323 15.8538 12.9237L16.0766 13.1614L16.7611 12.496C17.488 11.7895 17.5867 11.7455 17.9189 11.9787ZM17.8391 19.0177C20.0592 19.5651 21.7111 21.5022 21.9746 23.8669C22.0322 24.3835 22.0167 24.4729 21.839 24.6511C21.4319 25.0591 20.9745 24.7433 20.9745 24.0543C20.9745 21.5322 18.1482 19.3567 15.6385 19.947C13.6216 20.4214 12.0607 22.2134 12.0607 24.0543C12.0607 24.4907 11.8244 24.8523 11.5392 24.8523C11.0902 24.8523 10.9527 24.4015 11.1167 23.4677C11.6771 20.2763 14.7347 18.2523 17.8391 19.0177Z" fill="url(#paint0_linear_2_8052)"/>
<defs>
<linearGradient id="paint0_linear_2_8052" x1="33.0176" y1="16.8115" x2="0.0175781" y2="16.8115" gradientUnits="userSpaceOnUse">
<stop stop-color="#09D1C7"/>
<stop offset="1" stop-color="#15919B"/>
</linearGradient>
</defs>
</svg>
