<svg width="39" height="39" viewBox="0 0 39 39" fill="none" xmlns="http://www.w3.org/2000/svg">
<path fill-rule="evenodd" clip-rule="evenodd" d="M16.5486 0.984639C16.0692 1.31504 16.0177 1.42313 15.3067 3.58846L14.6359 5.63192L13.8323 5.99558L13.0288 6.35924L11.019 5.35917C8.21657 3.9646 8.55638 3.8948 6.07925 6.37204C3.60244 8.84885 3.67224 8.50893 5.06518 11.3118L6.06415 13.3215L5.69414 14.1295L5.32414 14.9373L3.48986 15.534C0.273265 16.5805 0.481243 16.2846 0.481243 19.8116C0.481243 23.3393 0.27775 23.05 3.48855 24.0875L5.32129 24.6798L5.69272 25.4907L6.06415 26.3017L5.06518 28.3114C3.67224 31.1142 3.60244 30.7744 6.07925 33.2512C8.55638 35.7283 8.21657 35.6586 11.019 34.264L13.0288 33.264L13.8323 33.628L14.6359 33.9919L15.2373 35.8333C16.2909 39.0601 15.9916 38.8492 19.5189 38.8492C23.0436 38.8492 22.7263 39.0655 23.7606 35.9578L24.4143 33.9936L25.2259 33.6309L26.0376 33.2681L28.0306 34.2662C30.8155 35.6607 30.4799 35.7297 32.9585 33.2512C35.437 30.7726 35.3679 31.1082 33.9734 28.3234L32.9754 26.3302L33.3382 25.5186L33.7009 24.707L35.6651 24.0533C38.7728 23.019 38.5565 23.3364 38.5565 19.8116C38.5565 16.2868 38.7728 16.6042 35.6651 15.5699L33.7009 14.9162L33.3382 14.1045L32.9754 13.293L33.9734 11.2998C35.3679 8.51505 35.437 8.85049 32.9585 6.37204C30.4799 3.89348 30.8155 3.96252 28.0306 5.35699L26.0376 6.35508L25.2259 5.9923L24.4143 5.62951L23.7606 3.66537C22.7258 0.555993 23.0472 0.774035 19.4964 0.774035C17.2092 0.774035 16.8132 0.802262 16.5486 0.984639ZM21.4398 9.12268C30.0204 10.619 33.3658 21.3032 27.1882 27.4809C21.6523 33.0167 12.3111 31.0622 9.39398 23.7576C6.27793 15.9552 13.099 7.66815 21.4398 9.12268ZM18.5917 13.1225C13.9311 14.3823 14.7117 21.091 19.5189 21.091C24.7176 21.091 24.9553 13.3769 19.7662 13.0698C19.3242 13.0436 18.7958 13.0674 18.5917 13.1225ZM14.9642 20.9549C13.6115 23.1435 13.886 25.3917 15.6223 26.344C16.1825 26.6515 22.8553 26.6515 23.4155 26.344C25.1108 25.4141 25.411 23.2422 24.1432 21.0788L23.8307 20.5455L23.2509 21.061C21.0952 22.9781 17.9438 22.9793 15.7901 21.0638L15.2136 20.5512L14.9642 20.9549Z" fill="url(#paint0_linear_2_8063)"/>
<defs>
<linearGradient id="paint0_linear_2_8063" x1="38.5597" y1="19.8116" x2="0.478516" y2="19.8116" gradientUnits="userSpaceOnUse">
<stop stop-color="#09D1C7"/>
<stop offset="1" stop-color="#15919B"/>
</linearGradient>
</defs>
</svg>
