<svg width="35" height="28" viewBox="0 0 35 28" fill="none" xmlns="http://www.w3.org/2000/svg">
<path fill-rule="evenodd" clip-rule="evenodd" d="M24.3833 0.351952C23.3511 0.553486 22.1511 1.23385 21.3686 2.06137L20.6439 2.8276L21.4994 3.33356C24.2525 4.96169 25.814 8.3137 25.279 11.4466L25.1757 12.0514L26.0495 11.9688C30.9571 11.5043 33.1394 5.66407 29.7461 2.07616C28.3323 0.581257 26.3962 -0.0412192 24.3833 0.351952ZM7.45725 0.607753C2.0267 2.72992 2.39635 10.3438 8.00077 11.8035C9.04345 12.0752 9.88598 12.0792 9.78351 11.8121C8.78978 9.22241 10.9 4.62683 13.7185 3.24301L14.3744 2.92092L13.9059 2.35356C12.4531 0.594026 9.5226 -0.199339 7.45725 0.607753ZM15.6255 4.57224C11.4744 6.04916 10.303 11.3374 13.4646 14.3276C18.2246 18.8293 25.6857 13.322 22.7379 7.48256C21.4695 4.96956 18.2321 3.64491 15.6255 4.57224ZM4.55768 13.1758C1.39624 14.4608 0.226518 16.5071 0.221623 20.7616L0.21875 23.2673H3.23931H6.25986V22.7497C6.25986 20.4133 8.38724 17.134 10.7406 15.8428L11.583 15.3806L11.0935 14.6901L10.6038 13.9996L9.35863 13.9848C8.02823 13.969 7.13441 13.7582 6.03502 13.2012L5.34987 12.8538L4.55768 13.1758ZM29.0468 13.1774C27.999 13.7106 26.8646 13.9788 25.61 13.9895L24.434 13.9996L23.9468 14.702L23.4597 15.4044L24.3138 15.8957C26.7877 17.3185 28.755 20.3737 28.7734 22.8211L28.7768 23.2673H31.7974H34.8179L34.8163 20.8989C34.8145 18.3155 34.6985 17.6295 34.0431 16.3247C32.9854 14.2195 30.3103 12.5343 29.0468 13.1774ZM12.1889 17.4292C9.35746 18.7862 8.32372 20.7073 8.21635 24.8119L8.149 27.3863H17.5183H26.8877L26.8203 24.8119C26.7324 21.4526 26.33 20.2755 24.7444 18.7389C23.1972 17.2394 21.9685 16.771 20.9176 17.28C18.8071 18.3024 16.2383 18.3064 14.1408 17.2907C13.2678 16.8679 13.3765 16.8601 12.1889 17.4292Z" fill="url(#paint0_linear_2_8072)"/>
<defs>
<linearGradient id="paint0_linear_2_8072" x1="34.8179" y1="13.8115" x2="0.21875" y2="13.8115" gradientUnits="userSpaceOnUse">
<stop stop-color="#09D1C7"/>
<stop offset="1" stop-color="#15919B"/>
</linearGradient>
</defs>
</svg>
