<svg width="43" height="39" viewBox="0 0 43 39" fill="none" xmlns="http://www.w3.org/2000/svg">
<path fill-rule="evenodd" clip-rule="evenodd" d="M20.2017 0.874052C20.0777 0.96477 19.9245 1.31518 19.8614 1.65256C19.5519 3.30951 17.8235 4.04928 16.4447 3.11505C15.6786 2.59589 15.6224 2.61217 14.5882 3.65329C13.5719 4.67644 13.5378 4.77626 13.9932 5.39354C15.04 6.81235 14.3128 8.65342 12.6137 8.88628C11.7856 8.99979 11.6501 9.23815 11.6501 10.5805C11.6501 11.8857 11.7611 12.0776 12.6057 12.2336C14.3298 12.5523 15.0171 14.2818 14.0019 15.7468C13.5375 16.417 13.5667 16.5018 14.6095 17.513C15.6402 18.5124 15.7676 18.5583 16.291 18.1178C17.6425 16.9805 19.873 17.9145 19.873 19.6177C19.873 20.2521 20.2549 20.444 21.5176 20.444C22.7802 20.444 23.1622 20.2521 23.1622 19.6177C23.1622 17.9145 25.3926 16.9805 26.7442 18.1178C27.2676 18.5583 27.3949 18.5124 28.4256 17.513C29.4685 16.5018 29.4977 16.417 29.0332 15.7468C28.018 14.2818 28.7054 12.5523 30.4293 12.2336C31.2741 12.0776 31.385 11.8857 31.385 10.5805C31.385 9.23815 31.2495 8.99979 30.4215 8.88628C28.7223 8.65342 27.9951 6.81235 29.042 5.39354C29.4974 4.77626 29.4632 4.67644 28.4469 3.65329C27.4128 2.61217 27.3565 2.59589 26.5904 3.11505C25.2116 4.04928 23.4832 3.30951 23.1736 1.65256C23.0181 0.820161 22.8232 0.709122 21.5176 0.709122C20.8209 0.709122 20.3459 0.768627 20.2017 0.874052ZM23.6832 4.8709C27.7064 6.40839 28.9061 11.6856 25.925 14.7315C22.0639 18.6763 15.4452 16.0522 15.4452 10.5766C15.4452 6.34563 19.7467 3.36643 23.6832 4.8709ZM20.7806 5.78077C17.6116 6.20315 15.7408 9.78863 17.1677 12.7051C18.9367 16.3209 24.1111 16.2949 25.8889 12.6613C27.5931 9.17808 24.6844 5.26038 20.7806 5.78077ZM22.4033 6.99131C23.2231 7.47567 23.4838 8.51678 22.9994 9.37209L22.7143 9.87553L23.2815 10.2576C24.4619 11.0531 24.9525 12.8539 24.195 13.6113C23.179 14.6273 19.8561 14.6273 18.8402 13.6113C18.0834 12.8547 18.5645 11.087 19.7494 10.2704L20.3213 9.87631L20.036 9.37254C19.1553 7.81765 20.8747 6.08841 22.4033 6.99131ZM21.233 8.05657C20.681 8.37801 21.2066 9.23388 21.7705 8.93198C22.0968 8.75739 22.1019 8.22375 21.7788 8.05085C21.4877 7.89501 21.5107 7.89479 21.233 8.05657ZM20.5634 11.1917C19.916 11.5865 19.4513 12.5565 19.7793 12.8281C20.6226 13.5261 23.5213 13.1482 23.3323 12.3648C23.0453 11.1762 21.5958 10.5621 20.5634 11.1917ZM8.9935 19.432C8.85428 19.5712 8.74043 19.8292 8.74043 20.0054C8.74043 21.7063 6.66111 22.5986 5.20346 21.5232C4.59257 21.0724 4.5224 21.0962 3.4769 22.1101C2.44286 23.1128 2.39896 23.2376 2.86063 23.8634C3.93116 25.3145 3.03634 27.4019 1.34392 27.4019C0.709455 27.4019 0.517578 27.7838 0.517578 29.0465C0.517578 30.3887 0.653879 30.6069 1.57924 30.7456C3.18712 30.9868 3.87447 32.8554 2.86063 34.2295C2.40525 34.8468 2.43938 34.9466 3.45568 35.9697C4.4794 37.0003 4.54901 37.0236 5.22063 36.5581C6.67212 35.5522 8.41158 36.2466 8.72797 37.9582C8.88414 38.8036 9.07557 38.9139 10.385 38.9139C11.6907 38.9139 11.8856 38.8029 12.0411 37.9705C12.2326 36.9455 12.9799 36.1914 13.8645 36.1302C14.6445 36.0763 14.9155 36.1405 15.4579 36.508C16.2258 37.0284 16.3011 37.0077 17.3244 35.9966C18.3446 34.9885 18.371 34.8933 17.8465 34.1194C16.8993 32.7213 17.6497 30.9614 19.2889 30.7366C20.117 30.6232 20.2525 30.3849 20.2525 29.0425C20.2525 27.7374 20.1415 27.5455 19.2968 27.3893C17.5728 27.0708 16.8855 25.3412 17.9007 23.8762C18.3651 23.2061 18.3359 23.1212 17.2931 22.1101C16.2624 21.1106 16.135 21.0648 15.6116 21.5052C14.2601 22.6426 12.0296 21.7086 12.0296 20.0054C12.0296 19.3709 11.6477 19.179 10.385 19.179C9.41509 19.179 9.20895 19.2164 8.9935 19.432ZM31.2585 19.432C31.1194 19.5712 31.0055 19.8292 31.0055 20.0054C31.0055 21.7086 28.7751 22.6426 27.4235 21.5052C26.9 21.0648 26.7728 21.1106 25.742 22.1101C24.6992 23.1212 24.67 23.2061 25.1345 23.8762C26.1497 25.3412 25.4623 27.0708 23.7382 27.3893C22.8935 27.5455 22.7827 27.7374 22.7827 29.0425C22.7827 30.3849 22.9182 30.6232 23.7462 30.7366C24.731 30.8717 25.5045 31.6323 25.5664 32.526C25.6203 33.3059 25.556 33.577 25.1885 34.1194C24.6663 34.89 24.688 34.9657 25.7239 35.9852C26.7648 37.0099 26.8156 37.0242 27.5772 36.508C28.1195 36.1405 28.3907 36.0763 29.1705 36.1302C30.0553 36.1914 30.8025 36.9455 30.994 37.9705C31.1495 38.8029 31.3445 38.9139 32.6501 38.9139C33.9596 38.9139 34.151 38.8036 34.3072 37.9582C34.6236 36.2466 36.363 35.5522 37.8145 36.5581C38.4861 37.0236 38.5558 37.0003 39.5795 35.9697C40.5958 34.9466 40.6299 34.8468 40.1745 34.2295C39.1607 32.8554 39.848 30.9868 41.4558 30.7456C42.3813 30.6069 42.5176 30.3887 42.5176 29.0465C42.5176 27.7838 42.3257 27.4019 41.6912 27.4019C39.9987 27.4019 39.104 25.3145 40.1745 23.8634C40.6362 23.2376 40.5923 23.1128 39.5581 22.1101C38.5128 21.0962 38.4426 21.0724 37.8317 21.5232C36.374 22.5986 34.2947 21.7063 34.2947 20.0054C34.2947 19.3709 33.9128 19.179 32.6501 19.179C31.6802 19.179 31.4741 19.2164 31.2585 19.432ZM12.4303 23.3204C16.9862 24.9717 17.8911 31.1653 13.9853 33.9622C9.93896 36.8597 4.29729 33.9946 4.31582 29.0515C4.33131 24.8992 8.5554 21.9157 12.4303 23.3204ZM34.105 23.1463C38.7736 24.3952 40.2904 30.0462 36.8624 33.4198C33.1867 37.0373 26.9226 34.5967 26.6113 29.426C26.3639 25.3153 30.199 22.1016 34.105 23.1463ZM9.69263 24.2658C5.13216 24.8565 4.03131 31.3198 8.14616 33.3447C12.3625 35.4195 16.7146 31.2158 14.7632 26.9533C13.9138 25.0982 11.8228 23.99 9.69263 24.2658ZM31.8964 24.2695C28.6483 24.7478 26.8651 28.2654 28.3459 31.2733C30.0972 34.8309 35.3628 34.7243 37.0439 31.0972C38.6658 27.5975 35.731 23.7048 31.8964 24.2695ZM11.3919 25.5826C12.1989 26.2616 12.3645 27.224 11.8064 27.9902L11.5585 28.3305L12.1418 28.7326C13.2612 29.5039 13.7878 31.2028 13.1565 32.0055C12.2557 33.1507 8.36532 33.098 7.54696 31.9297C6.94584 31.0713 8.14268 28.4139 9.13047 28.4139C9.18616 28.4139 9.09342 28.172 8.92434 27.8762C7.97831 26.2215 9.96096 24.3786 11.3919 25.5826ZM33.657 25.5826C34.4676 26.2648 34.6128 26.9982 34.1107 27.8762C33.9416 28.172 33.849 28.4139 33.9047 28.4139C34.8925 28.4139 36.0893 31.0713 35.4881 31.9297C34.6698 33.098 30.7794 33.1507 29.8786 32.0055C29.1828 31.1207 30.0804 28.8511 31.2765 28.4715C31.5075 28.3982 31.5066 28.3828 31.2478 28.0193C30.1151 26.4286 32.1802 24.3399 33.657 25.5826ZM10.0809 26.5551C9.60651 26.9019 10.1109 27.7623 10.6064 27.4516C11.0319 27.1847 10.8662 26.3898 10.385 26.3898C10.342 26.3898 10.2052 26.4642 10.0809 26.5551ZM32.346 26.5551C31.8716 26.9019 32.376 27.7623 32.8715 27.4516C33.2971 27.1847 33.1313 26.3898 32.6501 26.3898C32.6071 26.3898 32.4703 26.4642 32.346 26.5551ZM9.396 29.6828C8.84642 30.0179 8.37464 31.0121 8.6395 31.2769C9.39117 32.0285 12.3977 31.655 12.1997 30.8347C11.9078 29.6252 10.4636 29.032 9.396 29.6828ZM31.6959 29.6616C30.4403 30.4273 30.5274 31.3562 31.877 31.594C33.655 31.9071 34.7217 31.437 34.3157 30.5194C33.867 29.505 32.6215 29.0972 31.6959 29.6616Z" fill="url(#paint0_linear_2_8042)"/>
<defs>
<linearGradient id="paint0_linear_2_8042" x1="42.5176" y1="19.8115" x2="0.517578" y2="19.8115" gradientUnits="userSpaceOnUse">
<stop stop-color="#09D1C7"/>
<stop offset="1" stop-color="#15919B"/>
</linearGradient>
</defs>
</svg>
