<svg width="49" height="54" viewBox="0 0 49 54" fill="none" xmlns="http://www.w3.org/2000/svg">
<path fill-rule="evenodd" clip-rule="evenodd" d="M28.9429 0.145408C28.573 0.326595 28.2721 0.690184 28.0858 1.18122C27.8173 1.88923 27.8675 15.6972 28.1407 16.3194C28.4813 17.0945 28.9192 17.3316 30.1367 17.4003C31.1988 17.4602 31.427 17.547 31.8679 18.059C32.23 18.4793 32.2866 18.7901 32.3385 20.6439L32.3896 22.4636L36.1715 19.9584L39.9532 17.4532L43.9341 17.4004L47.915 17.3478L48.2745 17.0455C49.0529 16.3911 49.0002 16.9981 48.9988 8.69845L48.9976 1.31502L48.7818 0.895268C48.6608 0.659806 48.3987 0.371014 48.185 0.237757L47.804 0L38.5171 0.00229521C30.989 0.0043204 29.1758 0.0313229 28.9429 0.145408ZM46.0401 4.20753C46.3389 4.53655 46.3882 4.82683 46.2086 5.19825C45.9656 5.70104 46.2103 5.68538 38.4888 5.68902L31.1841 5.6924L30.9492 5.43344C30.5556 4.99978 30.6499 4.31932 31.145 4.02094C31.2787 3.94047 33.5134 3.9047 38.5485 3.9024L45.7603 3.89916L46.0401 4.20753ZM3.15964 7.96938C1.30143 8.98967 1.19102 11.8918 2.96418 13.1062L3.4279 13.4238V16.4229C3.4279 18.0725 3.46418 19.4063 3.50842 19.387C3.55278 19.3677 3.96209 18.9184 4.41797 18.3887L5.24702 17.4257V15.4111V13.3966L5.61258 13.1911C7.12728 12.3397 7.48366 10.0467 6.32189 8.62689C5.55143 7.68518 4.19212 7.4026 3.15964 7.96938ZM36.4151 8.06078C36.6735 8.34539 36.7284 8.89395 36.5274 9.1822C36.2639 9.56037 36.0253 9.59507 33.6822 9.59507C31.339 9.59507 31.1004 9.56037 30.8369 9.1822C30.636 8.89395 30.6909 8.34539 30.9492 8.06078L31.1841 7.80197H33.6822H36.1802L36.4151 8.06078ZM43.2507 11.7542C43.7668 12.0481 43.817 12.7735 43.353 13.2341C43.1453 13.4402 43.0058 13.4449 37.1744 13.4449H31.2083L30.9612 13.1892C30.5964 12.8116 30.6172 12.2352 31.0088 11.8722L31.3034 11.5992H37.141C42.089 11.5992 43.02 11.6227 43.2507 11.7542ZM16.9753 13.5646C6.30277 15.3386 -0.220992 24.1076 0.00572307 36.3738C0.224963 48.2383 6.54334 54.0042 19.321 54C27.9737 53.9972 33.5481 51.3072 36.4398 45.739C39.0637 40.6867 39.2622 32.7739 36.9226 26.505C36.5329 25.4607 35.3896 23.0437 35.172 22.8039C35.1448 22.7739 34.6369 23.0715 34.0433 23.4652C32.7596 24.3166 32.3275 24.4209 31.6286 24.0482C30.8208 23.6173 30.6755 23.1764 30.6329 21.0236L30.5971 19.2131L29.7221 19.1758C27.796 19.0937 26.4496 17.695 26.3306 15.6527L26.285 14.8705L25.2551 14.5037C22.996 13.6992 18.9359 13.2386 16.9753 13.5646ZM20.6687 17.7088C21.0157 18.0911 21.0256 18.4438 20.7007 18.8691L20.4529 19.1936H19.2859C17.7778 19.1936 17.3405 18.8909 17.6115 18.0348C17.8414 17.3085 20.0879 17.069 20.6687 17.7088ZM22.0229 20.3585C22.6697 20.5565 22.8705 21.2479 22.441 21.7983L22.21 22.0943L19.3533 22.1227C16.6644 22.1495 16.4789 22.1391 16.1946 21.9457C15.6107 21.5488 15.724 20.5741 16.3781 20.3661C16.8084 20.2291 21.5791 20.2227 22.0229 20.3585ZM28.7198 24.488C40.2695 27.9751 38.7578 46.0966 26.8289 47.155C25.1356 47.3053 11.2536 47.2171 10.4903 47.0513C0.536605 44.8887 -1.39219 30.3581 7.61344 25.3779C9.79493 24.1714 9.87814 24.1632 19.6082 24.1878L27.7941 24.2084L28.7198 24.488ZM11.1829 26.0503C1.723 27.3256 0.674963 41.8501 9.81503 45.0087L10.6563 45.2995H19.1774C27.6519 45.2995 27.7025 45.2983 28.4643 45.0681C37.1885 42.4332 37.1725 28.9064 28.4421 26.285L27.5068 26.0043L19.6561 25.9853C15.3381 25.9749 11.5252 26.0041 11.1829 26.0503ZM10.5193 31.067C14.3476 32.2842 13.5843 38.4435 9.60522 38.4435C5.61001 38.4435 4.90302 32.3906 8.7415 31.0496C9.26993 30.8649 9.90338 30.8711 10.5193 31.067ZM29.8664 31.1131C32.2721 31.9491 33.0926 35.1736 31.4209 37.2221C30.1079 38.8309 27.8175 38.8966 26.4274 37.3651C23.9494 34.6352 26.5254 29.9521 29.8664 31.1131ZM9.14983 32.7952C7.24015 33.4623 7.47079 36.4686 9.44763 36.6779C11.7764 36.9244 12.1106 33.081 9.78868 32.7565C9.58133 32.7274 9.29383 32.7448 9.14983 32.7952ZM28.286 32.8446C26.5054 33.5668 26.7827 36.4443 28.6551 36.6768C29.8759 36.8284 30.7228 35.827 30.5966 34.3811C30.4947 33.2117 29.3149 32.4272 28.286 32.8446ZM22.5298 40.0072C23.2384 41.1218 20.9563 42.5644 18.802 42.3635C16.6823 42.1659 15.1116 40.6473 16.1768 39.8253C16.5042 39.5726 16.7242 39.6144 17.5534 40.0871L18.3088 40.5177L19.3175 40.4792C20.3488 40.4399 20.49 40.3955 21.4067 39.8214C21.8724 39.5298 22.2678 39.5952 22.5298 40.0072Z" fill="url(#paint0_linear_542_45997)"/>
<defs>
<linearGradient id="paint0_linear_542_45997" x1="49" y1="27" x2="0" y2="27" gradientUnits="userSpaceOnUse">
<stop stop-color="#09D1C7"/>
<stop offset="1" stop-color="#15919B"/>
</linearGradient>
</defs>
</svg>
