<svg width="39" height="55" viewBox="0 0 39 55" fill="none" xmlns="http://www.w3.org/2000/svg">
<path fill-rule="evenodd" clip-rule="evenodd" d="M10.7291 1.16443V2.32887L11.1244 2.46552C13.1824 3.17724 15.3077 5.3634 16.318 7.80775C18.6673 13.4922 16.0998 20.7319 11.1244 22.4522L10.7291 22.5889L10.7331 26.8948L10.7371 31.2009L12.4192 32.4342C14.8626 34.2257 14.861 34.0524 12.4527 35.8341L10.7304 37.1082L10.7297 40.4108L10.7291 43.7135H15.565H20.401L20.4245 27.2538L20.448 10.7942L22.1222 9.73931C23.0429 9.15915 26.8409 6.77021 30.5623 4.43062C34.2836 2.09103 37.3284 0.137065 37.3284 0.0883979C37.3284 0.0397309 31.3436 0 24.0287 0H10.7291V1.16443ZM30.1205 6.00363L21.4711 11.4497L21.4477 33.2248L21.4241 55L22.2437 54.4853C22.6944 54.2022 26.6483 51.7231 31.0302 48.9763L38.9973 43.982L38.9999 22.2595C39.0019 4.94616 38.9788 0.539048 38.8862 0.547297C38.8223 0.552934 34.8777 3.00828 30.1205 6.00363ZM6.6855 3.17421C2.52639 4.08019 0.00417175 7.56276 5.14913e-06 12.4051C-0.00856615 22.075 10.686 25.5441 15.0808 17.2971C18.6888 10.5269 13.4429 1.70224 6.6855 3.17421ZM8.41988 4.68866C8.64261 4.92155 8.65273 5.75659 8.43607 6.03305C7.92274 6.688 7.26715 5.57319 7.66322 4.71877C7.78262 4.461 8.18666 4.44492 8.41988 4.68866ZM4.06101 7.02262C4.47375 7.45911 4.51696 7.85807 4.17935 8.1135C3.66185 8.50503 2.79984 7.48248 3.15448 6.89779C3.3596 6.55959 3.66293 6.60139 4.06101 7.02262ZM12.9612 6.87387C13.2204 7.17329 13.2021 7.24918 12.7327 7.81985C12.2457 8.4121 11.8285 8.34501 11.7705 7.66518C11.7135 6.99691 12.573 6.42569 12.9612 6.87387ZM10.3147 9.71525C10.6528 10.1057 10.646 10.12 9.3107 11.8455C8.70201 12.632 8.6857 12.7334 9.01582 13.6855C9.30022 14.5061 9.2832 14.811 8.94034 15.0325C8.60809 15.2472 8.34059 14.9482 8.03107 14.0162C7.91334 13.6618 7.71893 13.2483 7.59894 13.0975C7.1718 12.5599 7.44846 11.5996 8.03048 11.5996C8.11821 11.5996 8.53571 11.1428 8.9582 10.5844C9.91449 9.32027 9.95199 9.29635 10.3147 9.71525ZM2.36259 11.9244C2.67163 12.1153 2.76425 12.4374 2.59568 12.7347C2.41294 13.0566 1.54784 13.1182 1.2957 12.8272C0.79904 12.2535 1.68391 11.5048 2.36259 11.9244ZM14.6392 11.9244C14.9482 12.1153 15.0408 12.4374 14.8723 12.7347C14.6735 13.0848 13.8296 13.1178 13.5691 12.7854C13.1187 12.2107 13.9806 11.5173 14.6392 11.9244ZM4.19804 16.8148C4.49696 17.0565 4.45303 17.387 4.06042 17.8514C3.67245 18.3102 3.46614 18.3561 3.19567 18.0439C2.71949 17.494 3.6409 16.3642 4.19804 16.8148ZM12.7633 17.1286C13.1966 17.6715 13.2019 17.6911 13.0024 18.02C12.7073 18.5065 11.7521 17.9445 11.7521 17.2845C11.7521 16.5657 12.2526 16.4886 12.7633 17.1286ZM8.41988 18.866C8.64261 19.0989 8.65273 19.9339 8.43607 20.2104C8.05107 20.7016 7.56691 20.3325 7.56691 19.5476C7.56691 18.768 7.99714 18.4243 8.41988 18.866ZM8.86904 31.5653C8.86904 32.2065 8.84356 32.2156 4.3347 33.1889C2.02307 33.6879 0.162027 34.1265 0.198931 34.1638C0.235835 34.2011 2.12843 34.6286 4.40482 35.1139C8.82237 36.0558 8.86904 36.0723 8.86904 36.6952C8.86904 36.8927 8.89523 37.0544 8.92725 37.0544C9.00058 37.0544 12.5968 34.3865 12.745 34.2222C12.8275 34.1307 12.3985 33.7628 11.0042 32.7294C8.79154 31.0893 8.86904 31.1315 8.86904 31.5653Z" fill="url(#paint0_linear_542_45974)"/>
<defs>
<linearGradient id="paint0_linear_542_45974" x1="39" y1="27.5" x2="0" y2="27.5" gradientUnits="userSpaceOnUse">
<stop stop-color="#09D1C7"/>
<stop offset="1" stop-color="#15919B"/>
</linearGradient>
</defs>
</svg>
