<svg width="45" height="45" viewBox="0 0 45 45" fill="none" xmlns="http://www.w3.org/2000/svg">
<path fill-rule="evenodd" clip-rule="evenodd" d="M0.686932 0.114644C0.580858 0.163121 0.383051 0.352073 0.247111 0.534598L0 0.866302V14.3542V27.8423H14.5162H29.0324L29.7223 27.0576C30.5283 26.1407 30.5231 26.1419 31.6852 26.6359L32.5387 26.9989L33.2299 26.6621C33.6101 26.4768 33.9382 26.2664 33.9591 26.1945C33.9893 26.0902 30.7635 26.0634 18.0402 26.0622C5.3613 26.061 2.03579 26.0334 1.85185 25.9283L1.62038 25.796L1.59561 13.977L1.57084 2.15803L1.76794 1.97497C2.09849 1.66778 37.7833 1.69349 38.0555 2.00109C38.2384 2.20772 38.2407 2.3498 38.2408 13.6594V25.1083L38.4801 25.7318C38.701 26.3075 39.2963 26.796 39.7768 26.796C39.7976 26.796 39.8147 21.0171 39.8147 13.954C39.8145 -0.404808 39.8613 0.588699 39.1666 0.1966C38.8119 -0.00373552 1.1213 -0.0839503 0.686932 0.114644ZM2.59259 13.8755V24.8083H18.5625H34.5322L34.6698 24.5077C34.8449 24.1252 35.0117 24.0791 36.2268 24.0773L37.2222 24.076V13.5094V2.94264H19.9074H2.59259V13.8755ZM31.2195 4.99902C31.4613 5.24622 31.4856 22.4086 31.2448 22.7972C31.0496 23.1121 27.4147 23.1643 27.1138 22.8566C26.864 22.6012 26.8484 5.32831 27.0977 5.01709C27.3194 4.74029 30.9508 4.72422 31.2195 4.99902ZM27.963 13.9279V21.879H29.1667H30.3703V13.9279V5.97672H29.1667H27.963V13.9279ZM18.836 9.59346C19.0638 9.85098 19.0564 22.5535 18.8283 22.8385C18.5833 23.1442 14.9948 23.1285 14.7222 22.8205C14.4668 22.5319 14.428 10.0701 14.6812 9.66163C14.872 9.35376 18.5702 9.29323 18.836 9.59346ZM15.5555 16.2294V21.879H16.7593H17.963V16.2294V10.58H16.7593H15.5555V16.2294ZM24.7837 13.4112C24.9261 13.4724 25.074 13.5783 25.1124 13.6466C25.2724 13.9308 25.1962 22.6333 25.0319 22.8385C24.7714 23.1637 21.0894 23.1272 20.8848 22.7972C20.7599 22.5957 20.7407 21.977 20.7407 18.1578C20.7407 13.4146 20.7254 13.573 21.2038 13.3743C21.4634 13.2663 24.5199 13.2979 24.7837 13.4112ZM21.7593 18.2172V21.879H22.9629H24.1667V18.2172V14.5555H22.9629H21.7593V18.2172ZM12.6085 16.0887C12.8493 16.335 12.8713 22.5953 12.6323 22.8654C12.4275 23.0968 8.83744 23.1109 8.5594 22.8813C8.22802 22.6077 8.23904 16.4556 8.5716 16.0798C8.7943 15.8281 12.3613 15.836 12.6085 16.0887ZM9.35193 19.4727V21.879H10.5556H11.7593V19.4727V17.0664H10.5556H9.35193V19.4727ZM35.0321 26.2462L34.5833 27.2657L33.576 27.7316L32.5688 28.1976L31.8631 27.9016C30.7383 27.43 30.7742 27.4242 30.113 28.1819L29.5316 28.848L29.866 29.8477L30.2005 30.8472L29.8096 31.934C29.3206 33.2935 29.3881 33.2073 28.4121 33.7196L27.5926 34.1498V35.1277V36.1057L28.4572 36.5622L29.3218 37.0187L29.7597 38.1983L30.1978 39.3778L29.8694 40.3839L29.5409 41.3898L30.1543 42.0882L30.7676 42.7864L31.668 42.421L32.5684 42.0556L33.5759 42.5168L34.5833 42.978L35.0269 43.9891L35.4705 45H36.3331H37.1958L37.5681 44.0818C38.0129 42.9846 37.956 43.0422 39.1426 42.4882L40.0907 42.0456L40.9944 42.4226L41.8981 42.7995L42.4997 42.1205L43.1015 41.4414L42.7841 40.4021L42.4666 39.3628L42.8305 38.3399C43.2733 37.0955 43.3749 36.9676 44.2792 36.5162L44.9936 36.1595L44.9968 35.1335L45 34.1073L44.1698 33.68L43.3396 33.2528L42.9198 32.129C42.4219 30.7962 42.4279 30.8919 42.7778 29.8652C43.14 28.8023 43.1431 28.8228 42.5205 28.1267C41.8981 27.4309 41.9013 27.4314 40.9571 27.8423C40.0532 28.2356 40.1637 28.2446 38.9825 27.6812L37.9867 27.2062L37.5909 26.2164L37.1952 25.2268H36.338H35.4808L35.0321 26.2462ZM37.6426 28.8377C41.7396 30.0145 43.3911 35.5789 40.7215 39.2112C37.282 43.8907 30.5636 41.0956 30.6208 35.0087C30.6588 30.9684 34.2062 27.8507 37.6426 28.8377ZM0 30.3056C0 31.8036 0.087111 32.1103 0.588681 32.3792C0.966636 32.5818 28.091 32.6481 28.4233 32.4472C28.5169 32.3905 28.7106 32.0074 28.8534 31.5959L29.1132 30.8476L28.8307 29.9465L28.548 29.0454L14.274 29.0189L0 28.9925V30.3056ZM35.0926 29.98C32.5242 30.7888 31.0274 33.8984 31.8411 36.735C32.1159 37.6927 32.1806 37.7871 32.3626 37.4953C32.6607 37.0173 33.471 36.5326 34.6191 36.1462C34.7258 36.1101 34.7237 36.0725 34.6067 35.922C33.4317 34.4113 33.809 31.8144 35.3189 31.0199C37.5826 29.8289 39.5355 32.6178 38.3333 35.3251C38.1551 35.7265 37.9972 36.0839 37.9825 36.1194C37.9678 36.1549 38.1136 36.213 38.3066 36.2486C38.8347 36.3462 39.7458 36.8733 40.123 37.2994L40.4577 37.6776L40.5992 37.3685C42.3615 33.5177 38.8444 28.7986 35.0926 29.98ZM35.546 32.1599C34.0794 33.267 35.4396 36.6418 36.9275 35.5872C37.6068 35.1056 37.9394 33.4059 37.5085 32.6179C37.1287 31.9237 36.1589 31.6974 35.546 32.1599ZM15.7884 34.3549C15.7556 34.7145 15.6773 35.6796 15.6142 36.4996L15.4996 37.9904H19.8899H24.2803L24.2267 37.5458C24.1972 37.3013 24.1282 36.4421 24.0732 35.6365C24.0183 34.8309 23.9535 34.0658 23.9293 33.9364L23.8854 33.701H19.8668H15.848L15.7884 34.3549ZM34.6296 37.3439C32.861 37.8682 32.5327 38.6332 33.6915 39.5296C35.3302 40.7975 37.7972 40.6878 39.2503 39.2826C40.6364 37.9419 37.3142 36.5482 34.6296 37.3439ZM8.98156 40.2398V41.3383H18.7376H28.4938L28.784 40.4384C28.9435 39.9434 29.0741 39.449 29.0741 39.3399C29.0741 39.146 28.8329 39.1413 19.0278 39.1413H8.98156V40.2398Z" fill="url(#paint0_linear_542_45992)"/>
<defs>
<linearGradient id="paint0_linear_542_45992" x1="45" y1="22.5" x2="0" y2="22.5" gradientUnits="userSpaceOnUse">
<stop stop-color="#09D1C7"/>
<stop offset="1" stop-color="#15919B"/>
</linearGradient>
</defs>
</svg>
