<svg width="42" height="49" viewBox="0 0 42 49" fill="none" xmlns="http://www.w3.org/2000/svg">
<path fill-rule="evenodd" clip-rule="evenodd" d="M4.97415 0.22775C4.36363 0.659804 4.32295 0.855438 4.32295 3.36245C4.32295 5.41989 4.33793 5.63718 4.5018 5.94902C5.0434 6.97975 6.482 6.97975 7.02361 5.94902C7.29602 5.43045 7.29602 1.29445 7.02361 0.775874C6.63446 0.0353245 5.62696 -0.234124 4.97415 0.22775ZM15.0572 0.22775C14.4467 0.659804 14.406 0.855438 14.406 3.36245C14.406 5.41989 14.421 5.63718 14.5849 5.94902C15.1265 6.97975 16.5651 6.97975 17.1067 5.94902C17.3791 5.43045 17.3791 1.29445 17.1067 0.775874C16.7175 0.0353245 15.71 -0.234124 15.0572 0.22775ZM25.1403 0.22775C24.5298 0.659804 24.4891 0.855438 24.4891 3.36245C24.4891 5.41989 24.5041 5.63718 24.668 5.94902C25.2096 6.97975 26.6482 6.97975 27.1898 5.94902C27.4622 5.43045 27.4622 1.29445 27.1898 0.775874C26.8006 0.0353245 25.7931 -0.234124 25.1403 0.22775ZM35.2234 0.22775C34.6129 0.659804 34.5722 0.855438 34.5722 3.36245C34.5722 5.41989 34.5872 5.63718 34.7511 5.94902C35.2927 6.97975 36.7313 6.97975 37.2729 5.94902C37.5453 5.43045 37.5453 1.29445 37.2729 0.775874C36.8837 0.0353245 35.8762 -0.234124 35.2234 0.22775ZM0.652826 3.57079C0.00243839 4.03092 0.00163182 4.03654 0.00128611 8.08977L0.000940378 11.72H20.8873H41.7737L41.7734 8.08977C41.7729 3.39401 41.7606 3.36365 39.8606 3.36285L38.8928 3.36245L38.8921 4.06756C38.8895 6.80858 37.9101 8.22068 36.012 8.22001C34.1024 8.21934 33.1344 6.82396 33.1318 4.06756L33.1311 3.36245H30.9704H28.8098L28.8091 4.06756C28.8064 6.80858 27.827 8.22068 25.9289 8.22001C24.0193 8.21934 23.0513 6.82396 23.0487 4.06756L23.048 3.36245H20.8873H18.7267L18.726 4.06756C18.7233 6.80858 17.7439 8.22068 15.8458 8.22001C13.9362 8.21934 12.9682 6.82396 12.9656 4.06756L12.9649 3.36245H10.8042H8.64358L8.64289 4.06756C8.64024 6.80858 7.66086 8.22068 5.7627 8.22001C3.85314 8.21934 2.88516 6.82396 2.88251 4.06756L2.88182 3.36245L1.91408 3.36285C1.1072 3.36312 0.897471 3.39775 0.652826 3.57079ZM0.00128611 30.394C0.00163182 49.5104 -0.0614019 47.7798 0.652826 48.2851C1.11538 48.6123 40.6593 48.6123 41.1218 48.2851C41.8361 47.7798 41.773 49.5104 41.7734 30.394L41.7737 13.3916H20.8873H0.000940378L0.00128611 30.394ZM25.2087 21.3313V26.7637H24.4884H23.7682V22.167V17.5704H17.2862C13.7211 17.5704 10.8042 17.5859 10.8042 17.6047C10.8042 17.6236 13.0721 18.7637 15.8439 20.1381L20.8838 22.6372L20.8855 34.2595C20.8865 40.6516 20.8703 45.8817 20.8493 45.8817C20.8284 45.8817 18.5907 44.7769 15.8764 43.4266L10.9416 40.9716H10.1527H9.3638V28.4352V15.8988H17.2862H25.2087V21.3313ZM32.3209 29.2703C32.3209 29.5926 32.149 29.8254 30.4555 31.7987L28.5903 33.9721L28.114 33.4261L27.6375 32.8801L28.83 31.4934L30.0226 30.1067H26.1752H22.3278V29.271V28.4352H26.1752H30.0226L28.8311 27.0497L27.6395 25.6641L28.1121 25.1155L28.5847 24.5667L30.4528 26.741C32.1493 28.7158 32.3209 28.9479 32.3209 29.2703ZM18.1866 31.9873C17.7239 32.524 18.0659 33.4498 18.7267 33.4498C19.2069 33.4498 19.4469 33.1712 19.4469 32.614C19.4469 32.3355 19.3869 32.1265 19.2669 31.9873C19.1468 31.8479 18.9667 31.7783 18.7267 31.7783C18.4866 31.7783 18.3065 31.8479 18.1866 31.9873ZM25.2087 36.3227V40.8672H24.4884H23.7682V36.3227V31.7783H24.4884H25.2087V36.3227Z" fill="url(#paint0_linear_542_45981)"/>
<defs>
<linearGradient id="paint0_linear_542_45981" x1="41.7747" y1="24.2652" x2="0" y2="24.2652" gradientUnits="userSpaceOnUse">
<stop stop-color="#09D1C7"/>
<stop offset="1" stop-color="#15919B"/>
</linearGradient>
</defs>
</svg>
