<svg width="44" height="50" viewBox="0 0 44 50" fill="none" xmlns="http://www.w3.org/2000/svg">
<path fill-rule="evenodd" clip-rule="evenodd" d="M13.5688 0.119969C11.4882 0.654682 10.9198 1.91599 10.9775 5.87066C11.0273 9.27981 11.3049 9.96147 13.008 10.8568L13.5859 11.1607H22H30.414L31.0182 10.8482C32.7285 9.9633 32.9832 9.27914 32.9832 5.56994C32.9832 1.87938 32.7298 1.19239 31.065 0.367937L30.379 0.0282708L22.2476 0.00380693C16.7614 -0.0128352 13.9382 0.0249428 13.5688 0.119969ZM5.44567 5.83538C2.52627 6.47644 0.683375 8.56885 0.157374 11.8399C-0.116726 13.5447 -0.00491465 43.9835 0.278886 44.9C1.00253 47.237 3.02037 49.2279 5.28338 49.8377C6.08825 50.0546 37.9173 50.0539 38.7133 49.8369C41.0169 49.2091 42.9886 47.2653 43.7211 44.9C44.0049 43.9835 44.1167 13.5447 43.8426 11.8399C43.3393 8.70981 41.6576 6.6858 38.9555 5.95803C37.3047 5.51352 37.0304 5.67911 37.0275 7.12365C37.0192 10.9778 34.7104 14.0836 31.1724 14.9994C29.6435 15.3951 14.3565 15.3951 12.8276 14.9994C9.31924 14.0912 6.9704 10.9568 6.9704 7.18373C6.9704 5.58359 6.89509 5.51702 5.44567 5.83538ZM33.3686 23.0698C35.4519 23.642 35.3952 26.4918 33.2914 26.9484C32.4166 27.1383 19.8047 27.1383 18.93 26.9484C16.8676 26.5008 16.7637 23.6565 18.7886 23.079C19.4325 22.8952 32.7027 22.8869 33.3686 23.0698ZM12.1247 23.3744C12.9613 23.9497 13.2359 25.0326 12.7701 25.9196C11.9631 27.4567 9.6887 27.2319 9.14379 25.561C8.59559 23.8796 10.6588 22.3662 12.1247 23.3744ZM11.9904 34.4043C13.2203 35.2432 13.3391 36.7255 12.2508 37.6525C10.5003 39.1433 8.03325 36.647 9.50619 34.8753C10.1626 34.0858 11.2274 33.8839 11.9904 34.4043ZM33.8178 34.3036C35.2701 35.0636 35.273 37.1066 33.8231 37.8465L33.2499 38.1391H26.1107H18.9714L18.3982 37.8465C16.9713 37.1183 16.907 35.3424 18.2734 34.4011L18.6981 34.1087H26.0719C32.3727 34.1087 33.4997 34.137 33.8178 34.3036Z" fill="url(#paint0_linear_542_46003)"/>
<defs>
<linearGradient id="paint0_linear_542_46003" x1="44" y1="25" x2="0" y2="25" gradientUnits="userSpaceOnUse">
<stop stop-color="#09D1C7"/>
<stop offset="1" stop-color="#15919B"/>
</linearGradient>
</defs>
</svg>
