<svg width="42" height="45" viewBox="0 0 42 45" fill="none" xmlns="http://www.w3.org/2000/svg">
<path fill-rule="evenodd" clip-rule="evenodd" d="M5.40012 0.247426C2.92374 0.943015 0.867869 3.16174 0.232645 5.82418C-0.0775482 7.1242 -0.0775482 37.8878 0.232645 39.1879C0.87303 41.8719 2.93587 44.0831 5.43973 44.7696C6.1907 44.9755 6.61121 44.9823 18.5078 44.9823H30.8001L30.2895 44.5231C27.6592 42.1574 26.7972 37.9151 28.2605 34.5359C30.7328 28.8258 37.6535 27.7521 41.5412 32.4753L41.9696 32.9957V19.8259C41.9696 7.07994 41.9631 6.62917 41.7711 5.82418C41.1308 3.14016 39.0679 0.928907 36.5641 0.242446C35.3735 -0.083979 6.5636 -0.0792758 5.40012 0.247426ZM10.9762 7.31937C13.0577 8.31095 13.5062 11.4448 11.781 12.9416C9.62772 14.8101 6.58657 13.3241 6.58657 10.4034C6.58657 7.92408 8.8734 6.31741 10.9762 7.31937ZM34.9632 9.69383C35.5768 9.96867 35.5768 10.8381 34.9632 11.113C34.4461 11.3445 17.2351 11.3445 16.718 11.113C16.1176 10.8441 16.1041 9.9742 16.696 9.6984C17.1858 9.47018 34.454 9.46589 34.9632 9.69383ZM10.9762 19.422C13.0577 20.4136 13.5062 23.5474 11.781 25.0442C9.62772 26.9128 6.58657 25.4267 6.58657 22.506C6.58657 20.0267 8.8734 18.42 10.9762 19.422ZM34.9632 21.7965C35.5768 22.0713 35.5768 22.9407 34.9632 23.2156C34.4461 23.4471 17.2351 23.4471 16.718 23.2156C16.1176 22.9467 16.1041 22.0768 16.696 21.801C17.1858 21.5728 34.454 21.5685 34.9632 21.7965ZM33.8838 31.3184C29.0938 32.5632 27.4096 39.2133 30.9288 42.9859C33.9832 46.2599 39.2706 45.4211 41.2391 41.35C43.8389 35.9738 39.3784 29.8904 33.8838 31.3184ZM11.2054 31.6365C14.0569 33.3018 12.9495 37.9822 9.70669 37.9711C6.38128 37.9599 5.35573 33.1921 8.33185 31.5792C9.18114 31.1189 10.3596 31.1424 11.2054 31.6365ZM24.4793 33.8991C24.8567 34.0681 25.0007 34.414 24.8903 34.886C24.7621 35.433 24.4692 35.4731 20.5987 35.4731C16.7281 35.4731 16.4352 35.433 16.3071 34.886C16.1997 34.4272 16.3415 34.0689 16.696 33.9036C17.1773 33.6794 23.9798 33.6754 24.4793 33.8991ZM35.9172 33.958C36.2153 34.129 36.3244 34.6699 36.3244 35.9755V37.2021H37.4869C39.1558 37.2021 39.6104 37.4725 39.4064 38.3439C39.3033 38.7844 38.8239 38.931 37.4869 38.931H36.3244V40.1771C36.3244 41.9661 36.0722 42.4534 35.2593 42.2347C34.8483 42.1242 34.7115 41.6103 34.7115 40.1771V38.931H33.5491C31.8802 38.931 31.4256 38.6606 31.6296 37.7892C31.7327 37.3487 32.2121 37.2021 33.5491 37.2021H34.7115V35.9663C34.7115 34.105 35.0861 33.4812 35.9172 33.958Z" fill="url(#paint0_linear_542_45986)"/>
<defs>
<linearGradient id="paint0_linear_542_45986" x1="42" y1="22.5" x2="0" y2="22.5" gradientUnits="userSpaceOnUse">
<stop stop-color="#09D1C7"/>
<stop offset="1" stop-color="#15919B"/>
</linearGradient>
</defs>
</svg>
