<svg width="35" height="35" viewBox="0 0 35 35" fill="none" xmlns="http://www.w3.org/2000/svg">
<path fill-rule="evenodd" clip-rule="evenodd" d="M8.37319 1.75244C8.04985 2.436 7.88331 2.70413 7.76448 2.73249C7.6744 2.75393 7.21919 2.82066 6.75276 2.88078C5.67792 3.01946 5.69035 2.95313 6.58092 3.80282L7.34274 4.52977L7.14745 5.54739C7.03993 6.10711 6.96458 6.57844 6.97992 6.59468C6.99525 6.61101 7.40386 6.40851 7.88802 6.14458C8.95354 5.56382 8.7813 5.56382 9.83129 6.14468C10.3083 6.40861 10.713 6.61011 10.7306 6.59257C10.7481 6.57504 10.6728 6.1037 10.5631 5.54519L10.3639 4.52977L11.1633 3.77687L11.9629 3.02397L11.6997 2.97868C11.555 2.95373 11.0979 2.89251 10.6841 2.84261C9.73911 2.72858 9.837 2.80904 9.32939 1.72869C9.09232 1.22418 8.8804 0.811462 8.85836 0.811462C8.83641 0.811462 8.61808 1.23491 8.37319 1.75244ZM17.6175 1.81526C16.4188 2.37638 16.4711 4.06494 17.7018 4.53498C19.0455 5.0481 20.2409 3.52336 19.4417 2.31566C19.0753 1.76195 18.2279 1.52949 17.6175 1.81526ZM26.5107 4.69008C26.0208 5.74278 26.0748 5.7016 25.0162 5.82705C23.7724 5.97444 23.7934 5.92254 24.6581 6.71632C25.52 7.50759 25.4909 7.4105 25.2419 8.66079C25.0345 9.70226 24.9815 9.6709 26.0034 9.11079C27.0469 8.53885 26.9324 8.53895 27.9561 9.11039C28.9674 9.67511 28.9113 9.71198 28.7071 8.6161C28.4791 7.39297 28.4434 7.5084 29.292 6.72494C30.1593 5.92434 30.1719 5.95991 28.9715 5.82314C27.8667 5.69729 27.9348 5.74789 27.4473 4.69119C27.2175 4.1934 27.0075 3.78608 26.9804 3.78608C26.9534 3.78608 26.7421 4.19289 26.5107 4.69008ZM32.3116 10.4514C31.4099 10.8977 31.2587 12.1838 32.0285 12.8597C33.1125 13.8115 34.794 12.7848 34.423 11.3976C34.1707 10.4543 33.1919 10.0157 32.3116 10.4514ZM17.6077 10.6034C17.1128 10.7482 16.9554 11.0597 16.9554 11.8941C16.9554 13.117 16.5923 13.3105 16.1073 12.3462C15.7174 11.5711 15.1628 11.3254 14.5354 11.6498C13.9491 11.953 13.9417 12.4728 14.5075 13.6094L14.9561 14.5105H17.9067H20.8572L21.2991 13.6868C21.8043 12.7449 21.8797 12.448 21.7012 12.1028C21.2502 11.2307 20.1823 11.351 19.765 12.3212C19.3485 13.2891 18.9126 13.1169 18.9121 11.9842C18.9117 10.8423 18.4524 10.3561 17.6077 10.6034ZM9.24493 11.4025C7.98241 12.1176 8.53892 14.1192 10.0002 14.1192C11.5454 14.1192 12.0558 12.045 10.6852 11.3362C10.3425 11.159 9.61586 11.1925 9.24493 11.4025ZM3.15109 15.614C2.91071 16.1134 2.66873 16.5586 2.61332 16.6034C2.53296 16.6684 0.94951 16.929 0.56815 16.9399C0.518151 16.9413 0.837086 17.2857 1.27686 17.7052C1.87295 18.2737 2.06794 18.5072 2.04269 18.6223C1.86804 19.4186 1.68608 20.4814 1.71864 20.5141C1.74109 20.5364 2.15 20.3396 2.62755 20.0768C3.67614 19.4996 3.48856 19.5 4.52823 20.0723C5.5658 20.6434 5.5151 20.6835 5.29226 19.4684L5.11039 18.4768L5.87051 17.7374C6.28864 17.3307 6.61689 16.9841 6.59996 16.9671C6.58303 16.9501 6.14956 16.8826 5.63674 16.8169C5.12402 16.7513 4.6597 16.6819 4.60509 16.6627C4.55048 16.6436 4.29928 16.1956 4.04698 15.6671L3.58816 14.7062L3.15109 15.614ZM13.9864 15.4996C13.7668 15.7788 13.7786 16.116 14.0163 16.3537L14.2084 16.5459H17.9217C21.342 16.5459 21.6481 16.5351 21.8025 16.4089C22.0554 16.2022 22.0964 15.773 21.8885 15.5086L21.7192 15.2934H17.9339H14.1486L13.9864 15.4996ZM30.5048 17.9203C30.0091 18.9774 30.0836 18.9238 28.9323 19.0509C28.4372 19.1055 28.0063 19.1648 27.9746 19.1826C27.943 19.2006 28.2669 19.5569 28.6945 19.9745L29.4719 20.7339L29.281 21.7124C29.176 22.2505 29.0986 22.7169 29.1091 22.7486C29.1195 22.7803 29.5156 22.5933 29.9891 22.333C31.0599 21.7444 30.9258 21.7446 31.976 22.33C32.4615 22.6005 32.8685 22.8101 32.8802 22.7956C32.8919 22.7811 32.8115 22.2982 32.7015 21.7225L32.5014 20.6759L33.261 19.9732C34.1944 19.1098 34.2057 19.1748 33.1008 19.0537C31.9187 18.9241 31.9619 18.9544 31.4646 17.9082C31.2312 17.4172 31.0152 17.0157 30.9844 17.016C30.9536 17.0163 30.7378 17.4232 30.5048 17.9203ZM14.4076 17.7941C12.5276 19.0719 12.1171 19.9508 12.0455 22.8515L12.0028 24.5778L12.346 24.6792C13.0132 24.8765 13.511 25.4785 13.511 26.0882C13.511 26.2289 13.5375 26.3321 13.5697 26.3174C14.4112 25.9371 14.5726 25.7821 14.3817 25.5378C12.3028 22.8793 14.4599 18.6529 17.8916 18.6606C21.2848 18.6683 23.4124 22.412 21.6462 25.267C21.4529 25.5793 21.4277 25.6686 21.5108 25.7444C21.6656 25.8855 23.2448 27.3081 24.0225 28.007C24.6713 28.59 24.716 28.6163 24.8189 28.4758C25.2291 27.9161 24.9155 27.103 24.1929 26.8531L23.8833 26.746L23.836 24.014C23.7645 19.876 23.4962 19.1768 21.4521 17.8027L20.6306 17.2504L17.9124 17.255L15.1941 17.2595L14.4076 17.7941ZM16.9636 19.4829C14.5986 20.1467 13.5225 22.9443 14.8417 25C15.1437 25.4707 15.1079 25.4682 15.9806 25.0797C16.3661 24.9081 16.7216 24.7673 16.7707 24.7666C16.8199 24.7659 16.8816 24.6797 16.9079 24.5749C16.9657 24.3445 17.2021 24.2546 17.4297 24.3764C17.6815 24.5111 18.5028 24.3977 18.6008 24.2147C18.8419 23.7641 18.6178 23.506 17.8556 23.3571C16.2934 23.0517 15.9161 21.6872 17.2098 21.0215C17.5125 20.8657 17.5816 20.7913 17.5816 20.6215C17.5816 20.5068 17.6239 20.3707 17.6756 20.319C17.896 20.0985 18.2861 20.3126 18.2861 20.6542C18.2861 20.7938 18.3699 20.8779 18.6387 21.008C19.2416 21.2999 19.1857 21.9705 18.5794 21.7197C17.8254 21.4077 17.1902 21.5803 17.1902 22.0972C17.1902 22.4099 17.3956 22.5529 18.0384 22.6882C19.0974 22.911 19.4054 23.2167 19.3658 24.0061L19.3429 24.4602L19.7995 24.6458C20.0507 24.7479 20.3934 24.9223 20.5611 25.0332L20.8659 25.2349L20.9808 25.0588C22.2467 23.1195 21.3867 20.4109 19.2462 19.5956C18.6555 19.3706 17.557 19.3163 16.9636 19.4829ZM17.4642 25.305C16.5234 25.562 15.8476 25.8629 14.3124 26.7084L13.5091 27.1508L13.5297 30.0024L13.5502 32.8539L14.4098 33.2332L15.2694 33.6125L19.4198 33.5269C21.7024 33.4798 23.6618 33.4127 23.7739 33.3777C24.2491 33.2294 31.021 28.6208 31.2078 28.3186C31.6142 27.661 31.4272 26.6771 30.8191 26.2729C30.1968 25.8593 29.8871 25.9938 27.171 27.8568L24.8305 29.4622H24.038C21.7495 29.4622 18.5503 28.3384 18.9124 27.6617C19.0318 27.4386 19.2044 27.4647 19.9014 27.8115C20.9025 28.3095 22.8645 28.811 23.545 28.7429C23.7795 28.7193 23.7489 28.6834 22.6283 27.6617C19.9665 25.2353 19.1251 24.8512 17.4642 25.305ZM10.1841 25.3873C9.69272 25.5885 9.71436 25.3721 9.71436 30.0639V34.3285L9.97007 34.5569C10.2724 34.827 11.9514 34.9076 12.4037 34.6738C12.8057 34.4659 12.8065 34.4568 12.8065 29.9987V25.8456L12.5404 25.5795L12.2742 25.3133L11.3074 25.3183C10.7757 25.3211 10.2702 25.3521 10.1841 25.3873ZM4.5087 30.0493V34.0808H6.73974H8.97078V30.0493V26.0178H6.73974H4.5087V30.0493Z" fill="url(#paint0_linear_163_1862)"/>
<defs>
<linearGradient id="paint0_linear_163_1862" x1="34.4754" y1="17.8115" x2="0.562988" y2="17.8115" gradientUnits="userSpaceOnUse">
<stop stop-color="#09D1C7"/>
<stop offset="1" stop-color="#15919B"/>
</linearGradient>
</defs>
</svg>
