<svg width="35" height="38" viewBox="0 0 35 38" fill="none" xmlns="http://www.w3.org/2000/svg">
<path fill-rule="evenodd" clip-rule="evenodd" d="M15.2552 0.345878C2.92849 2.05608 -3.45282 15.803 3.19589 26.3244C6.53452 31.6079 12.9774 34.7542 19.0706 34.0769L19.5951 34.0186L20.0769 34.5939C23.0952 38.1989 28.702 38.4103 32.0211 35.0442C34.6723 32.3556 35.124 28.007 33.0685 24.9613C32.7808 24.5349 32.7807 24.5935 33.0701 23.9487C38.4095 12.0525 28.2162 -1.45243 15.2552 0.345878ZM19.6301 1.66686C28.8241 2.93105 34.934 11.9783 32.6797 20.99C32.4901 21.7479 31.972 23.2596 31.8652 23.3663C31.8479 23.3836 31.5558 23.1883 31.2162 22.9324C30.8765 22.6764 30.4252 22.3726 30.2132 22.2572L29.8277 22.0474L30.0494 21.3917C31.7077 16.4859 30.2182 10.7155 26.4344 7.38658C17.6848 -0.311342 4.26344 5.67846 4.30457 17.2629C4.33074 24.6186 10.2254 30.4254 17.6671 30.4263L18.182 30.4264L18.3138 31.0265C18.3864 31.3565 18.5416 31.8759 18.6589 32.1805L18.8721 32.7345L18.6413 32.7807C18.2079 32.8673 16.5035 32.827 15.5882 32.7084C7.69543 31.6857 1.85935 25.0813 1.85945 17.1721C1.85945 7.68719 10.2392 0.37571 19.6301 1.66686ZM24.5237 8.77883C26.7319 10.4388 28.3643 13.6067 28.4393 16.378C28.4761 17.7342 27.4188 17.7649 27.2994 16.4111C27.061 13.7045 25.9382 11.4287 24.0904 9.90683C23.2387 9.20531 23.1126 8.94088 23.463 8.59051C23.7113 8.34213 24.0143 8.39595 24.5237 8.77883ZM17.9576 8.6253C18.4533 8.88161 18.4663 8.94821 18.4922 11.3781L18.5158 13.5849H17.5007H16.4856L16.5092 11.3781C16.5308 9.36349 16.5455 9.15238 16.6794 8.95495C16.9622 8.53778 17.5135 8.39555 17.9576 8.6253ZM18.553 15.1159C19.9231 15.8156 20.2408 17.6623 19.1789 18.7549C17.6638 20.3137 15.0485 19.1812 15.1972 17.0306C15.3122 15.3668 17.0749 14.361 18.553 15.1159ZM28.3399 18.8663C28.7584 19.3982 28.0097 20.0382 27.5138 19.5724C27.1427 19.2238 27.3878 18.6567 27.9097 18.6567C28.106 18.6567 28.218 18.7113 28.3399 18.8663ZM16.7198 20.7253C16.9011 20.7496 17.0638 20.8081 17.0814 20.8553C17.1162 20.949 15.1808 25.685 14.9861 25.9819C14.4643 26.7783 13.2419 26.418 13.2419 25.4678C13.2419 25.3339 13.6801 24.16 14.2189 22.8506C14.7563 21.5448 15.2239 20.4029 15.2581 20.3132C15.3194 20.1525 15.3281 20.1539 15.8552 20.4156C16.1494 20.5616 16.5384 20.701 16.7198 20.7253ZM28.0545 22.7943C33.3403 24.3465 34.7578 31.0825 30.5322 34.5679C26.5363 37.864 20.4441 35.5607 19.5448 30.414C18.7076 25.622 23.3942 21.4257 28.0545 22.7943ZM25.4471 24.0032C23.6806 24.447 23.1306 25.3451 22.7231 28.4519C22.3758 31.0985 22.3719 31.0777 23.2303 31.1774L23.6558 31.2268L23.329 31.3357C22.4267 31.6365 21.8807 32.5131 21.8775 33.6659C21.8746 34.7823 21.4572 34.6851 26.2591 34.6851C31.012 34.6851 30.5867 34.7828 30.5867 33.6923C30.5867 32.5249 30.2324 31.8873 29.3339 31.4383C28.9127 31.2278 28.885 31.2007 29.0916 31.2007C29.7078 31.2007 29.9673 30.9663 29.9673 30.41C29.9673 29.7318 29.5053 26.4901 29.3498 26.0775C28.785 24.5789 26.9782 23.6185 25.4471 24.0032ZM27.1835 25.5189C27.9633 25.9433 28.1494 26.3529 28.3857 28.1632C28.489 28.9545 28.5735 29.6654 28.5735 29.7432C28.5735 29.8678 28.5023 29.8844 27.9655 29.8844C25.9431 29.8844 25.9227 32.3921 27.9443 32.4938C28.6448 32.5291 28.972 32.6719 29.1623 33.0252C29.3588 33.3902 29.519 33.3727 26.1891 33.3504L23.1611 33.3301L23.2878 33.0685C23.4679 32.6967 23.8011 32.5178 24.3147 32.5169C25.4439 32.515 26.1021 31.9213 25.9982 30.9984C25.9142 30.2544 25.4075 29.8844 24.4719 29.8844C23.8646 29.8844 23.8482 29.8795 23.8849 29.7101C23.9056 29.6143 23.9967 28.9262 24.0873 28.1808C24.2783 26.6093 24.4112 26.2229 24.912 25.7821C25.5827 25.1918 26.4069 25.0963 27.1835 25.5189Z" fill="url(#paint0_linear_163_1868)"/>
<defs>
<linearGradient id="paint0_linear_163_1868" x1="34.5195" y1="18.8114" x2="0.519531" y2="18.8114" gradientUnits="userSpaceOnUse">
<stop stop-color="#09D1C7"/>
<stop offset="1" stop-color="#15919B"/>
</linearGradient>
</defs>
</svg>
