<svg width="31" height="33" viewBox="0 0 31 33" fill="none" xmlns="http://www.w3.org/2000/svg">
<path fill-rule="evenodd" clip-rule="evenodd" d="M11.46 0.899039C9.82959 5.06795 9.71524 14.4199 11.2462 18.3897C11.646 19.4266 12.3016 20.24 13.1274 20.724C13.4202 20.8955 13.4393 20.928 13.4845 21.3276C13.7051 23.2764 15.9862 24.1001 17.4165 22.7473L17.7291 22.4517L18.1168 22.6037C19.5366 23.1601 20.4814 23.8721 21.0278 24.7972L21.2168 25.1174L20.6978 25.6114C17.3006 28.8442 21.212 34.4396 25.4596 32.4235C29.3977 30.5542 28.0859 24.6084 23.7049 24.4704L22.9352 24.4461L22.7467 24.2041C21.6306 22.7712 20.3437 21.7617 18.8212 21.1254C18.1635 20.8505 18.1312 20.826 18.0196 20.5204C17.6491 19.5061 17.0352 18.9864 16.0482 18.8514C15.7945 18.8168 15.557 18.7582 15.5203 18.7213C15.4836 18.6844 14.5888 14.6264 13.5319 9.7036C11.4728 0.113334 11.5835 0.583266 11.46 0.899039ZM22.0687 1.78513L21.8894 2.36497L22.2133 2.38771C22.6226 2.41648 22.6087 2.44224 22.4804 1.89249C22.3063 1.14613 22.2694 1.1365 22.0687 1.78513ZM12.6458 3.08237C12.6467 3.22653 12.6994 3.48909 12.9071 4.38556L12.9483 4.56349L19.5591 4.51632C27.054 4.46283 26.4223 4.42273 26.7293 4.97106C27.192 5.79715 27.9551 6.51719 28.8418 6.9641L29.155 7.12203V10.762V14.402L28.7312 14.6381C27.9223 15.0888 27.2487 15.7364 26.7511 16.5418L26.4479 17.0326L21.0573 17.0516C16.2515 17.0684 15.6667 17.0828 15.6667 17.1844C15.6667 17.7133 15.9062 18.3225 16.114 18.3225C16.2319 18.3225 16.5029 18.3888 16.7162 18.4698C17.3379 18.7062 29.541 18.6999 29.9624 18.463C30.5621 18.126 30.5186 18.7248 30.5186 10.8044C30.5186 2.94378 30.5558 3.5123 30.0157 3.10973L29.8076 2.95463L21.2262 2.935L12.6447 2.91538L12.6458 3.08237ZM1.02145 3.13558C0.480851 3.46522 0.51991 2.8717 0.51991 10.7643C0.51991 18.655 0.486889 18.1473 1.02098 18.4729C1.24854 18.6116 1.426 18.6168 6.02164 18.617L10.7864 18.6173L10.5743 17.9576C9.53212 14.7169 9.3406 8.53211 10.1411 3.97148C10.2208 3.51739 10.286 3.11105 10.286 3.0686C10.286 2.90359 1.29524 2.96859 1.02145 3.13558ZM4.13559 4.69954C4.21701 4.95616 3.99794 5.05522 3.34875 5.05522C2.8074 5.05522 2.54682 4.96248 2.54682 4.76992C2.54682 4.48141 4.0453 4.41499 4.13559 4.69954ZM6.56497 4.6902C6.65431 4.97163 6.4843 5.05522 5.82304 5.05522C5.23923 5.05522 4.97912 4.96729 4.97912 4.76992C4.97912 4.48915 6.47723 4.41386 6.56497 4.6902ZM9.15766 4.65991C9.26305 4.93455 9.08747 5.01842 8.40649 5.01842C7.72551 5.01842 7.55003 4.93455 7.65541 4.65991C7.69381 4.55991 7.82193 4.53934 8.40649 4.53934C8.99105 4.53934 9.11926 4.55991 9.15766 4.65991ZM13.0869 5.15145C13.0869 5.20438 13.1864 5.7029 13.3081 6.25934C13.4297 6.81579 13.5291 7.28912 13.5291 7.31129C13.5291 7.33346 13.7033 7.20383 13.9161 7.02335C16.982 4.4232 21.6001 6.70041 21.5841 10.8044C21.5719 13.9385 18.6955 16.2871 15.7957 15.5308C15.2384 15.3854 15.2361 15.3872 15.3651 15.8902C15.4015 16.0321 15.4517 16.2393 15.4766 16.3509L15.5221 16.5535H20.8472H26.1723L26.4257 16.1297C26.7552 15.5786 27.6004 14.7411 28.16 14.4114L28.6023 14.1508L28.6214 10.7842L28.6406 7.41762L28.3478 7.26827C27.7053 6.94051 26.8861 6.16707 26.4528 5.47902L26.1858 5.05522H19.6364C14.2982 5.05522 13.0869 5.07305 13.0869 5.15145ZM16.2046 6.45898C15.3674 6.60785 14.2863 7.21062 13.845 7.77462L13.6769 7.98944L14.378 11.258C15.2001 15.0913 15.1021 14.7951 15.6036 14.9629C17.8126 15.7025 20.3141 14.3069 20.9435 11.9837C21.7681 8.94006 19.1851 5.92866 16.2046 6.45898ZM4.71562 7.50951C5.84455 8.13398 5.82898 9.72445 4.68779 10.3556C3.65207 10.9284 2.32567 10.125 2.32567 8.92487C2.32567 7.69697 3.64358 6.91646 4.71562 7.50951ZM17.1258 7.89698L17.1476 8.26955L17.4717 8.35625C18.1901 8.54843 18.8214 9.52189 18.4354 9.84228C18.2674 9.98172 18.0253 9.81304 18.0253 9.55661C18.0253 8.78854 16.6471 8.47985 16.0197 9.10734C15.3514 9.77558 15.7114 10.2664 17.104 10.5851C18.8863 10.993 19.1149 12.7323 17.4541 13.2489C17.1518 13.343 17.1409 13.357 17.1409 13.651C17.1409 14.2751 16.6802 14.2769 16.6392 13.653C16.6227 13.4014 16.5863 13.3104 16.5018 13.3104C15.8588 13.3104 14.9133 12.0817 15.3687 11.838C15.5563 11.7376 15.7404 11.8457 15.7404 12.0565C15.7404 12.7984 17.2443 13.0892 17.8013 12.4549C18.3904 11.7839 18.0521 11.3222 16.7568 11.0291C15.7253 10.7959 15.3174 10.472 15.2448 9.82879C15.1712 9.17536 15.7161 8.45239 16.3756 8.32871C16.6117 8.28446 16.6249 8.26568 16.6249 7.97321C16.6249 7.35035 17.0896 7.27959 17.1258 7.89698ZM3.54187 7.89094C3.02892 8.0768 2.76957 8.56296 2.86617 9.1579C3.07722 10.4584 5.05224 10.258 5.05271 8.936C5.05309 8.13964 4.29748 7.61706 3.54187 7.89094ZM8.22223 7.9667C8.28393 8.04095 8.29016 8.10747 8.24138 8.16936C2.9776 14.8445 3.18487 14.6013 2.95505 14.3715C2.79711 14.2136 2.67305 14.3859 5.48896 10.8535C7.85165 7.88953 8.01505 7.71697 8.22223 7.9667ZM7.90429 11.9166C8.89614 12.3968 9.11379 13.7358 8.32648 14.515C7.04236 15.7859 4.95167 14.2829 5.75672 12.6675C6.16419 11.8498 7.09424 11.5245 7.90429 11.9166ZM6.74809 12.3267C5.91238 12.6619 5.86653 13.954 6.67592 14.3607C7.80145 14.9262 8.86916 13.4807 7.98146 12.593C7.7122 12.3237 7.09028 12.1894 6.74809 12.3267ZM4.09983 16.6703C4.31371 16.9281 4.09955 17.0326 3.35762 17.0326C2.61559 17.0326 2.40143 16.9281 2.61541 16.6703C2.75523 16.5017 3.95992 16.5017 4.09983 16.6703ZM6.53214 16.6703C6.74611 16.9281 6.53195 17.0326 5.78993 17.0326C5.0479 17.0326 4.83374 16.9281 5.04771 16.6703C5.18763 16.5017 6.39222 16.5017 6.53214 16.6703ZM8.59593 16.6703C8.77292 16.8835 8.58886 17.0326 8.14855 17.0326C7.70824 17.0326 7.52417 16.8835 7.70117 16.6703C7.83325 16.5111 8.46385 16.5111 8.59593 16.6703ZM17.8779 19.1753C17.8779 19.1984 17.9727 19.3559 18.0885 19.5254C18.2044 19.6948 18.3454 19.9631 18.4018 20.1215C18.5036 20.4074 18.8936 20.6752 19.2144 20.6795C19.4716 20.683 20.6742 19.458 20.6779 19.1886C20.6784 19.1582 20.0486 19.1333 19.2783 19.1333C18.5081 19.1333 17.8779 19.1521 17.8779 19.1753ZM16.1794 20.0898C17.1312 20.5754 17.0023 21.8686 15.9737 22.1527C15.5827 22.2606 15.2166 22.1354 14.9007 21.7858C14.1113 20.9122 15.1336 19.5563 16.1794 20.0898ZM15.2839 20.6841C15.0955 20.8724 15.0673 20.9458 15.1071 21.1445C15.2142 21.6807 15.8127 21.864 16.1553 21.4657C16.6842 20.8507 15.8581 20.1098 15.2839 20.6841ZM11.7168 21.1545C10.8662 21.5823 10.0066 22.2698 9.30088 23.0868L8.7367 23.74L7.724 23.7471C3.18365 23.7795 1.71932 29.6644 5.75304 31.6681C9.82544 33.691 13.7879 28.4452 10.7345 25.0734C10.3671 24.6678 10.3605 24.6526 10.465 24.4505C10.8253 23.7537 11.7355 22.9323 12.6131 22.5119C12.894 22.3773 13.1356 22.2606 13.1502 22.2525C13.1646 22.2443 13.1405 22.0782 13.0966 21.8832C13.0526 21.6882 13.0002 21.4459 12.9801 21.3445C12.95 21.1923 12.758 21.0225 12.417 20.8466C12.3931 20.8342 12.078 20.9728 11.7168 21.1545ZM8.45545 25.8957C9.40296 26.3149 9.9345 27.2945 9.75383 28.2885C9.37145 30.3926 6.54638 30.7612 5.63105 28.8264C4.77874 27.0249 6.64063 25.093 8.45545 25.8957ZM7.10472 26.292C6.44798 26.4773 5.94059 27.1801 5.94059 27.9044C5.94059 29.5594 8.08968 30.2198 9.00737 28.8468C9.88912 27.5273 8.64546 25.8574 7.10472 26.292ZM24.5498 26.672C25.9202 27.3729 26.2192 29.0848 25.1602 30.1666C24.0514 31.2993 22.1225 30.8933 21.5677 29.4105C20.8781 27.5673 22.8177 25.7862 24.5498 26.672ZM23.014 27.053C21.828 27.476 21.5473 29.0805 22.5145 29.9083C23.9246 31.1154 25.9454 29.4913 25.0995 27.8308C24.7358 27.1167 23.8069 26.7702 23.014 27.053Z" fill="url(#paint0_linear_160_1853)"/>
<defs>
<linearGradient id="paint0_linear_160_1853" x1="30.5193" y1="16.8116" x2="0.519287" y2="16.8116" gradientUnits="userSpaceOnUse">
<stop stop-color="#09D1C7"/>
<stop offset="1" stop-color="#15919B"/>
</linearGradient>
</defs>
</svg>
