<svg width="37" height="36" viewBox="0 0 37 36" fill="none" xmlns="http://www.w3.org/2000/svg">
<path fill-rule="evenodd" clip-rule="evenodd" d="M17.9333 0.448911C13.1337 1.52749 11.4984 7.47092 15.0741 10.8407C18.6605 14.2207 24.5214 12.017 25.133 7.05843C25.6284 3.04221 21.8458 -0.430347 17.9333 0.448911ZM6.43789 2.48176C6.37457 2.54556 6.35015 3.0571 6.35015 4.31963V6.0691L5.67496 6.0903C4.47949 6.12781 4.48614 6.16221 6.11555 8.3923C7.58987 10.4099 7.68294 10.5036 8.00154 10.2886C8.15692 10.1837 10.6596 6.73519 10.7011 6.56876C10.8146 6.11301 10.6559 6.00106 9.89634 6.00106H9.20029V4.28561C9.20029 3.04946 9.17578 2.54547 9.11255 2.48176C8.98935 2.35765 6.56109 2.35765 6.43789 2.48176ZM29.3119 2.48176C29.2485 2.54556 29.2242 3.05766 29.2242 4.32236V6.07466H28.5717C27.3344 6.07466 27.3566 6.22591 28.9062 8.34763C30.4026 10.3968 30.3682 10.3576 30.6429 10.33C30.8814 10.3059 33.5359 6.80577 33.5359 6.51514C33.5359 6.0626 33.4398 6.00106 32.7338 6.00106H32.0743V4.33961C32.0743 3.3352 32.0443 2.6219 31.9987 2.53585C31.9063 2.36189 29.4793 2.31307 29.3119 2.48176ZM19.502 2.75666C19.5436 2.83507 19.5777 2.98415 19.5777 3.08801V3.27696H20.2853C21.4573 3.27696 22.3576 4.05604 21.9884 4.75096C21.8112 5.08467 21.3316 4.86961 21.3316 4.45637C21.3316 4.08582 21.0326 3.93956 20.2752 3.93956H19.5777V4.95961V5.97966L20.3149 6.02056C21.5109 6.08691 21.9707 6.4895 22.0441 7.53462C22.1337 8.81063 21.5802 9.38295 20.2536 9.38616L19.5777 9.38776V9.60338C19.5777 9.84426 19.4134 10.0505 19.2217 10.0505C19.0304 10.0505 18.9199 9.89976 18.9199 9.63891V9.40406L18.1279 9.37673C16.8886 9.33404 15.9563 8.40832 16.55 7.81009C16.7579 7.60069 17.0929 7.7837 17.0929 8.10666C17.0929 8.52245 17.3753 8.67983 18.1802 8.71234L18.9199 8.74231V7.70294V6.66366H18.2233C16.8256 6.66366 16.4023 6.23308 16.4471 4.8568C16.4869 3.63507 16.8774 3.27696 18.1697 3.27696H18.9199V3.03391C18.9199 2.63273 19.3318 2.43653 19.502 2.75666ZM17.4118 4.09929C17.1782 4.21323 17.0929 4.47569 17.0929 5.08005C17.0929 5.91671 17.2185 6.03008 18.1827 6.06316L18.9199 6.08842V5.05084V4.01316L18.2439 4.01815C17.8721 4.02089 17.4977 4.05736 17.4118 4.09929ZM19.5777 7.77512V8.81299L20.2661 8.78745C21.2401 8.75136 21.3316 8.66004 21.3316 7.72376C21.3316 6.8118 21.2508 6.73726 20.262 6.73726H19.5777V7.77512ZM5.50977 13.9078C5.34897 13.9588 5.14636 14.039 5.05955 14.086C4.93523 14.1534 4.85759 14.1484 4.69417 14.0624C3.96988 13.6819 3.42312 14.0538 2.6702 15.4393C2.17209 16.356 1.84684 16.7657 1.51159 16.8995C0.7654 17.1971 0.881018 17.7722 1.75807 18.1257L2.03823 18.2387L1.84712 18.4674C1.26978 19.1587 1.98061 20.7996 2.85757 20.7996C3.09133 20.7996 3.1193 20.8242 3.21312 21.1125C3.35699 21.5542 3.94425 22.4138 4.29765 22.7C4.8039 23.1098 4.68753 23.3015 3.86548 23.4124C1.04556 23.793 -0.360754 26.4496 1.11095 28.6162C1.97013 29.8811 2.49135 30.0164 6.39393 29.9881L9.45603 29.966L10.021 29.6878C11.163 29.1255 11.7654 28.2305 11.8183 27.0176C11.9076 24.9675 10.8763 23.8491 8.49096 23.4093C7.66461 23.257 7.53608 23.0352 8.04065 22.6326C8.3759 22.3651 9.01685 21.4205 9.13677 21.0173C9.21741 20.7463 9.2422 20.726 9.49336 20.726C10.4944 20.726 11.1331 18.9181 10.3626 18.265C10.2397 18.1608 10.0727 18.0755 9.99137 18.0755C9.8548 18.0755 9.84723 18.0436 9.89072 17.6522C10.1297 15.5018 7.51943 13.2707 5.50977 13.9078ZM30.2107 13.9814C30.05 14.0324 29.8448 14.114 29.7547 14.1628C29.6225 14.2343 29.5491 14.2297 29.3746 14.1389C28.6553 13.7641 28.0946 14.1489 27.3562 15.5245C26.8919 16.3893 26.495 16.8657 26.175 16.9423C25.4544 17.115 25.614 17.7851 26.4566 18.1247L26.7343 18.2367L26.519 18.4191C25.7803 19.0454 26.4224 20.8732 27.3812 20.8732C27.5885 20.8732 27.6248 20.917 27.9078 21.5058C28.1309 21.9702 28.3365 22.2641 28.6814 22.6115C29.398 23.3336 29.3675 23.3958 28.1971 23.5981C26.5805 23.8775 25.7949 24.4858 25.4126 25.7539C24.8713 27.5492 25.778 29.3122 27.5218 29.8549C28.2536 30.0826 33.5616 30.081 34.2948 29.8528C35.7622 29.3962 36.595 28.1833 36.5139 26.6208C36.4132 24.682 35.3629 23.7566 32.7915 23.3415C32.3705 23.2735 32.3871 23.0557 32.8486 22.5902C33.2493 22.1861 33.6738 21.5337 33.8341 21.0758C33.9218 20.8249 33.955 20.7996 34.1975 20.7996C35.1957 20.7996 35.8324 18.9903 35.0636 18.3387C34.9407 18.2344 34.7723 18.1491 34.6893 18.1491C34.5515 18.1491 34.5424 18.1178 34.5817 17.7832C34.8385 15.5982 32.2402 13.3381 30.2107 13.9814ZM17.6493 14.9916C17.4931 15.0286 17.243 15.128 17.0937 15.2125C16.8439 15.354 16.8051 15.3575 16.6103 15.2562C15.5251 14.6912 14.9664 15.0213 14.0616 16.7626C13.4651 17.9104 12.8998 18.5642 12.3427 18.7504C11.4721 19.0415 11.9829 19.868 13.1895 20.1206L13.471 20.1795L13.1809 20.3282C11.9471 20.9607 12.714 23.5237 14.1371 23.5237C14.4169 23.5237 14.4825 23.5499 14.5149 23.6745C14.7034 24.4007 15.4923 25.5495 16.1052 25.9902C16.5102 26.2815 16.5143 26.288 16.4666 26.5792C16.4025 26.9704 16.3908 26.9841 16.1203 26.9842C14.234 26.9851 12.1599 28.0659 11.5421 29.37C10.3598 31.8657 11.6944 34.6308 14.3524 35.193C15.0991 35.351 21.6446 35.351 22.3912 35.193C26.1261 34.403 26.8166 29.4757 23.4282 27.7942C22.7523 27.4589 21.6771 27.1624 20.8693 27.0887L20.3257 27.0391L20.2805 26.7059C20.2352 26.3731 20.2357 26.3721 20.6756 25.9711C21.1927 25.4996 21.6488 24.8746 22.0182 24.1312L22.2834 23.5974L22.5931 23.5957C24.2257 23.5873 24.7359 20.8031 23.1959 20.3062C22.9927 20.2406 22.9799 20.2155 23.0131 19.9471C23.3752 17.026 20.455 14.3281 17.6493 14.9916ZM5.72903 17.338C5.92996 17.3747 6.45613 17.4588 6.89831 17.5251C8.58179 17.7771 8.89506 18.052 8.77851 19.1747C8.30696 23.7179 3.93985 23.5396 3.6754 18.9664L3.63032 18.186L4.02198 17.9836C4.23731 17.8724 4.56153 17.6491 4.74244 17.4876C4.96984 17.2845 5.11633 17.2058 5.21745 17.2327C5.2978 17.254 5.52801 17.3015 5.72903 17.338ZM30.3935 17.3425C30.5341 17.3793 30.7756 17.4102 30.9301 17.4112C31.3923 17.4141 32.652 17.7014 33.0146 17.8867C33.5983 18.1849 33.6332 18.2577 33.5715 19.0474C33.2006 23.7872 28.6608 23.7154 28.3745 18.9653L28.3265 18.1704L28.5329 18.1181C28.8407 18.0403 29.3024 17.7482 29.59 17.4492C29.7762 17.2557 29.8842 17.1967 29.9913 17.2299C30.0718 17.2551 30.2528 17.3057 30.3935 17.3425ZM18.5976 19.2921C20.336 19.5116 21.3069 19.8325 21.7994 20.3504L21.991 20.5518L21.8733 21.4672C21.4085 25.083 19.3553 26.778 16.9361 25.543C15.7703 24.9479 14.9075 23.144 14.7835 21.0427L14.7367 20.2475L15.1788 20.0779C15.6948 19.8798 16.3838 19.4418 16.679 19.1241L16.8862 18.901L17.2702 19.037C17.4814 19.1117 18.0788 19.2265 18.5976 19.2921ZM32.4118 24.7073C31.9867 25.451 32.031 25.4197 31.7252 25.1925L31.4939 25.0206L31.9275 24.5054C32.3108 24.05 32.3858 23.9938 32.5735 24.0216L32.7857 24.053L32.4118 24.7073ZM7.72485 24.7279C7.52102 25.0577 7.34282 25.3406 7.32888 25.3566C7.31495 25.3725 7.19128 25.3082 7.05406 25.2135L6.80467 25.0413L7.24301 24.5542C7.62064 24.1343 7.70988 24.0712 7.88836 24.0976L8.09546 24.1282L7.72485 24.7279ZM5.23831 24.5729L5.61491 25.0331L5.41623 25.1984C5.12746 25.4385 5.10445 25.4231 4.73028 24.7376L4.38923 24.1127H4.62542C4.82635 24.1127 4.91802 24.1816 5.23831 24.5729ZM29.8849 24.5649L30.2753 25.0171L30.0603 25.1904C29.778 25.418 29.8255 25.4501 29.3896 24.7379L29.007 24.1127H29.2508C29.4583 24.1127 29.5526 24.1801 29.8849 24.5649ZM6.56595 27.7597C6.57222 28.0307 6.17906 28.1991 5.91172 28.04C5.79114 27.9682 5.69246 27.851 5.69246 27.7793C5.69246 27.6264 6.0438 25.894 6.1076 25.7325C6.14875 25.6281 6.55856 27.4405 6.56595 27.7597ZM31.267 27.7597C31.2735 28.0468 30.875 28.201 30.5881 28.0223L30.3471 27.8723L30.5541 26.8577C30.6679 26.2996 30.7816 25.7932 30.8067 25.7325C30.8493 25.6289 31.2595 27.4349 31.267 27.7597ZM20.9661 27.8326C20.9661 27.917 19.8477 29.7819 19.7971 29.7819C19.7673 29.7819 19.5736 29.6461 19.3667 29.4801L18.9905 29.1783L19.2235 28.9096C20.2447 27.7316 20.1641 27.7976 20.5825 27.7957C20.7935 27.7948 20.9661 27.8114 20.9661 27.8326ZM17.1037 28.5855L17.6625 29.2235L17.2513 29.5334L16.84 29.8433L16.3372 28.9843C15.676 27.8548 15.6913 27.9407 16.1533 27.9444L16.5448 27.9474L17.1037 28.5855ZM18.6401 31.2597C18.9877 32.9884 18.9903 32.8922 18.5899 33.1286L18.2599 33.3235L17.862 33.0804C17.6071 32.9247 17.4746 32.7976 17.4932 32.7269C17.5092 32.6661 17.6262 32.0366 17.7531 31.328C17.9772 30.0782 18.0786 29.8062 18.2935 29.8783C18.334 29.8919 18.4901 30.5136 18.6401 31.2597Z" fill="url(#paint0_linear_163_1857)"/>
<defs>
<linearGradient id="paint0_linear_163_1857" x1="36.5193" y1="17.8115" x2="0.519287" y2="17.8115" gradientUnits="userSpaceOnUse">
<stop stop-color="#09D1C7"/>
<stop offset="1" stop-color="#15919B"/>
</linearGradient>
</defs>
</svg>
