<svg width="20" height="19" viewBox="0 0 20 19" fill="none" xmlns="http://www.w3.org/2000/svg">
<path fill-rule="evenodd" clip-rule="evenodd" d="M9.41857 0.0692546C8.52021 0.400216 8.26102 0.869954 8.2817 2.12952L8.29465 2.91606L8.43793 3.21237C9.15235 4.68976 11.1978 4.69694 11.9009 3.22456L12.0482 2.91606V2.06655V1.21705L11.9256 0.958359C11.7187 0.521646 11.4377 0.263006 10.9898 0.0968179C10.7142 -0.00549483 9.67104 -0.0237523 9.41857 0.0692546ZM7.1243 4.05298C6.56469 4.80705 6.36184 5.47848 6.38465 6.50155C6.40371 7.35748 6.64258 7.78848 7.26733 8.0945L7.50442 8.21057H10.1714H12.8384L13.0755 8.09435C13.7411 7.76804 13.9448 7.36476 13.9448 6.37329C13.9448 5.36478 13.7705 4.79567 13.2449 4.08752C12.9926 3.7475 12.9914 3.7474 12.8208 4.04514C11.6876 6.02372 8.65525 6.02372 7.52202 4.04514C7.35371 3.7512 7.3482 3.75135 7.1243 4.05298ZM9.82535 8.94133C9.59184 9.0837 9.53955 9.22283 9.5394 9.70217L9.53924 10.1269H6.83147C3.81388 10.1269 3.90143 10.1196 3.44848 10.4082C2.82211 10.8072 2.58512 11.3182 2.58537 12.2691C2.58557 13.0856 2.71085 13.2875 3.2174 13.2875C3.69129 13.2875 3.82167 13.1046 3.85232 12.3969C3.89768 11.3493 3.75759 11.3934 7.04014 11.3922L9.53924 11.3913L9.5394 12.1321C9.5396 13.1007 9.64176 13.2875 10.1714 13.2875C10.7011 13.2875 10.8033 13.1007 10.8035 12.1321L10.8036 11.3913L13.3027 11.3922C16.5853 11.3934 16.4452 11.3493 16.4905 12.3969C16.5212 13.1046 16.6516 13.2875 17.1255 13.2875C17.6304 13.2875 17.7573 13.0848 17.7575 12.2776C17.7577 11.3167 17.5232 10.8088 16.8944 10.4082C16.4414 10.1196 16.529 10.1269 13.5114 10.1269H10.8036L10.8035 9.70217C10.8032 8.97987 10.3458 8.62402 9.82535 8.94133ZM1.44784 14.0044C1.16528 14.1129 0.87832 14.4039 0.771102 14.6904C0.644008 15.0301 0.644008 17.8674 0.771102 18.2071C0.881102 18.5011 1.16508 18.785 1.45907 18.895C1.79878 19.0221 4.63602 19.0221 4.97573 18.895C5.26972 18.785 5.5537 18.5011 5.6637 18.2071C5.7908 17.8674 5.7908 15.0301 5.6637 14.6904C5.5537 14.3964 5.26972 14.1124 4.97573 14.0024C4.64123 13.8773 1.7745 13.8788 1.44784 14.0044ZM8.40187 14.0044C8.11931 14.1129 7.83235 14.4039 7.72513 14.6904C7.59803 15.0301 7.59803 17.8674 7.72513 18.2071C7.83513 18.5011 8.11911 18.785 8.4131 18.895C8.75281 19.0221 11.59 19.0221 11.9298 18.895C12.2238 18.785 12.5077 18.5011 12.6177 18.2071C12.7448 17.8674 12.7448 15.0301 12.6177 14.6904C12.5077 14.3964 12.2238 14.1124 11.9298 14.0024C11.5953 13.8773 8.72853 13.8788 8.40187 14.0044ZM15.3559 14.0044C15.0733 14.1129 14.7864 14.4039 14.6792 14.6904C14.5521 15.0301 14.5521 17.8674 14.6792 18.2071C14.7892 18.5011 15.0731 18.785 15.3671 18.895C15.7068 19.0221 18.5441 19.0221 18.8838 18.895C19.1778 18.785 19.4618 18.5011 19.5718 18.2071C19.6989 17.8674 19.6989 15.0301 19.5718 14.6904C19.4618 14.3964 19.1778 14.1124 18.8838 14.0024C18.5493 13.8773 15.6826 13.8788 15.3559 14.0044Z" fill="url(#paint0_linear_72_1511)"/>
<defs>
<linearGradient id="paint0_linear_72_1511" x1="19.6671" y1="9.49957" x2="0.675781" y2="9.49957" gradientUnits="userSpaceOnUse">
<stop stop-color="#09D1C7"/>
<stop offset="1" stop-color="#15919B"/>
</linearGradient>
</defs>
</svg>
