<svg width="43" height="38" viewBox="0 0 43 38" fill="none" xmlns="http://www.w3.org/2000/svg">
<path fill-rule="evenodd" clip-rule="evenodd" d="M20.9794 0.414467C20.5502 0.612064 20.4627 0.781372 19.9521 2.403C19.4176 4.10084 19.6124 3.96984 17.6225 3.96984H15.9878L15.6877 4.24492C15.4274 4.48347 15.3826 4.58016 15.35 4.97356C15.2927 5.66367 15.4123 5.81524 16.8337 6.85537C17.5264 7.36214 18.1058 7.8118 18.1213 7.85455C18.1368 7.8973 17.9419 8.57738 17.6884 9.36577C17.1079 11.1701 17.1081 11.574 17.69 11.9982C18.2959 12.4399 18.6802 12.3213 20.1826 11.2284C20.8697 10.7285 21.4695 10.3196 21.5154 10.3196C21.5613 10.3196 22.161 10.7285 22.8481 11.2284C24.1839 12.2 24.3101 12.2613 24.8321 12.1913C25.8616 12.0532 25.9892 11.379 25.3585 9.40883C25.1043 8.61485 24.8964 7.92844 24.8964 7.88368C24.8964 7.83882 25.4581 7.39613 26.1448 6.90002C27.5983 5.84955 27.7223 5.69681 27.6779 5.00934C27.65 4.57319 27.6157 4.49466 27.3448 4.2465L27.0429 3.96984H25.4082C23.414 3.96984 23.6183 4.11297 23.0486 2.31676C22.4254 0.351557 21.9885 -0.0500767 20.9794 0.414467ZM22.1696 2.75777C22.9082 4.97345 22.7771 4.87697 25.0486 4.87697C27.2775 4.87697 27.2719 4.85829 25.4404 6.19323C23.6597 7.49113 23.6818 7.42368 24.3604 9.48768C25.0527 11.5933 25.0369 11.6066 23.3247 10.3588C22.6697 9.8815 21.9947 9.44894 21.8246 9.39743C21.3453 9.25251 21.0243 9.39806 19.7061 10.3588C17.9938 11.6067 17.9822 11.5968 18.6704 9.48029C19.3424 7.41365 19.3669 7.48806 17.5899 6.19292C15.759 4.8584 15.7534 4.87697 17.9822 4.87697C20.2537 4.87697 20.1226 4.97345 20.8611 2.75777C21.523 0.772084 21.5078 0.772084 22.1696 2.75777ZM6.93635 5.92164C6.57789 6.09834 6.54823 6.15829 5.9642 7.88685L5.46261 9.37125L3.77881 9.41253C2.02503 9.45538 1.92317 9.47586 1.56788 9.85575C0.912702 10.5562 1.22884 11.1884 2.80835 12.337C3.49223 12.8344 4.07204 13.2941 4.09674 13.3586C4.12154 13.4231 3.93176 14.1178 3.67505 14.9024C3.08606 16.7027 3.08849 17.0563 3.693 17.4868C4.33698 17.9453 4.63612 17.8536 6.19083 16.7208C7.64272 15.6629 7.38158 15.6636 8.82081 16.7125C10.4413 17.8935 10.9079 17.9918 11.5295 17.2839C11.9022 16.8595 11.8739 16.5204 11.3206 14.7921C10.8739 13.3967 10.8624 13.3383 11.0114 13.2268C11.0964 13.1631 11.6717 12.7433 12.2896 12.2938C13.7812 11.2091 13.9878 10.8552 13.5829 10.0783C13.2633 9.46488 13.0786 9.41253 11.2394 9.41253C9.36642 9.41253 9.61869 9.60157 9.03118 7.75744C8.5697 6.30882 8.4596 6.10467 8.01733 5.87678C7.76031 5.74442 7.25323 5.76542 6.93635 5.92164ZM34.9982 5.88027C34.5641 6.1204 34.4569 6.3218 33.9996 7.75744C33.412 9.60157 33.6643 9.41253 31.7914 9.41253C29.9521 9.41253 29.7675 9.46488 29.4479 10.0783C29.0384 10.8639 29.2307 11.1954 30.7266 12.2834C31.3525 12.7386 31.9332 13.1623 32.017 13.225C32.1628 13.3342 32.1495 13.4014 31.7078 14.7849C31.156 16.5129 31.1275 16.8583 31.5012 17.2839C32.1228 17.9918 32.5895 17.8935 34.2099 16.7125C35.6492 15.6636 35.388 15.6629 36.8399 16.7208C38.3946 17.8536 38.6938 17.9453 39.3377 17.4868C39.9423 17.0563 39.9447 16.7027 39.3557 14.9024C38.7964 13.193 38.7242 13.4254 40.134 12.4002C41.6329 11.3104 41.7471 11.1757 41.7019 10.5515C41.6667 10.0632 41.4955 9.77785 41.1006 9.54922C40.9976 9.48958 40.3031 9.43828 39.25 9.41253L37.5644 9.37125L37.0901 7.92812C36.8291 7.13435 36.5584 6.38745 36.4885 6.26818C36.2494 5.86053 35.423 5.64541 34.9982 5.88027ZM19.5775 16.4329C10.4879 17.2137 2.69245 24.0057 0.690511 32.8886C0.155774 35.2611 0.83892 36.7632 2.66986 37.2399C3.41644 37.4345 39.6143 37.4345 40.3609 37.2399C42.136 36.7776 42.8552 35.2927 42.3813 33.0686C40.1726 22.7021 30.3146 15.5107 19.5775 16.4329ZM21.0206 19.2257C21.0206 20.7926 21.0006 21.1224 20.9056 21.1224C17.7275 21.1224 13.1743 22.8996 10.8963 25.0291L10.6265 25.2814L9.2711 23.9278C8.16732 22.8256 7.93363 22.5525 8.01237 22.4576C10.0129 20.0471 16.4542 17.4074 20.5052 17.3378L21.0206 17.3291V19.2257ZM23.8607 17.4537C27.8595 17.9216 33.2661 20.3461 35.0184 22.4576C35.0971 22.5525 34.8649 22.824 33.7681 23.9193L32.4211 25.2645L31.813 24.7687C29.2425 22.6732 26.1483 21.4553 22.6492 21.1618L22.0102 21.1083V19.2187V17.3291H22.4023C22.6181 17.3291 23.2743 17.3851 23.8607 17.4537ZM8.54162 24.6002L9.87719 25.9338L9.3584 26.5175C6.99536 29.1756 5.48773 32.5331 5.21762 35.7392L5.16378 36.3782H4.07858C2.50097 36.3782 1.82353 35.9888 1.50454 34.8989C1.13268 33.6278 2.62658 29.337 4.37762 26.6475C5.13254 25.4879 6.95493 23.2665 7.15126 23.2665C7.18145 23.2665 7.80707 23.8666 8.54162 24.6002ZM36.5439 23.9468C39.1578 26.8484 40.9328 30.3632 41.5542 33.868C41.8441 35.5035 40.9333 36.3782 38.9403 36.3782H37.8433L37.8429 36.069C37.8399 33.2287 35.9942 29.0529 33.5693 26.4001L33.1547 25.9465L34.4879 24.6065C35.2211 23.8694 35.8458 23.2665 35.8761 23.2665C35.9063 23.2665 36.2069 23.5726 36.5439 23.9468ZM21.7993 24.027C21.9093 24.1841 21.9277 24.6075 21.9277 26.9893V29.7683L22.2369 29.8666C25.1132 30.7808 24.3692 35.0539 21.3642 34.8799C18.6448 34.7224 18.0592 30.8688 20.6131 29.9376L21.1031 29.759V26.9521C21.1031 24.4561 21.1182 24.1286 21.2396 23.9945C21.4231 23.7916 21.6434 23.8044 21.7993 24.027ZM20.912 30.6381C19.3032 31.2357 19.3667 33.5628 21.0049 34.039C23.0988 34.6477 24.2318 31.6964 22.2869 30.6998C21.9821 30.5437 21.2541 30.5111 20.912 30.6381Z" fill="url(#paint0_linear_163_1929)"/>
<defs>
<linearGradient id="paint0_linear_163_1929" x1="42.5236" y1="18.8125" x2="0.513672" y2="18.8125" gradientUnits="userSpaceOnUse">
<stop stop-color="#09D1C7"/>
<stop offset="1" stop-color="#15919B"/>
</linearGradient>
</defs>
</svg>
