<svg width="86" height="76" viewBox="0 0 86 76" fill="none" xmlns="http://www.w3.org/2000/svg">
<path d="M44.7019 0.0183295C24.2998 -0.537474 6.62724 13.1197 3.9572 31.0395C1.03795 50.6325 17.1052 68.2614 36.8754 71.085C61.4662 74.597 85.3177 54.2796 83.1761 32.2383C81.5626 15.6321 65.441 0.583297 44.7019 0.0183295Z" fill="#CDFFFC" fill-opacity="0.61"/>
<path d="M41.4634 69.1402C42.8871 64.8018 44.3361 58.1787 42.6398 50.8255C40.6919 42.382 36.3771 40.6927 32.5029 31.6671C26.9727 18.7835 33.2316 9.45096 27.5065 5.51325C24.7146 3.59301 20.3244 3.59145 17.6178 5.51931C9.89538 11.0196 12.0124 34.9777 24.2647 44.3268C29.8061 48.5551 34.6416 48.0535 38.7999 53.525C42.4744 58.3598 42.1862 64.7381 41.4634 69.1402Z" fill="url(#paint0_linear_71_1368)"/>
<mask id="mask0_71_1368" style="mask-type:luminance" maskUnits="userSpaceOnUse" x="13" y="4" width="31" height="66">
<path d="M41.4634 69.1402C42.8871 64.8018 44.3361 58.1787 42.6398 50.8255C40.6919 42.382 36.3771 40.6927 32.5029 31.6671C26.9727 18.7835 33.2316 9.45096 27.5065 5.51325C24.7146 3.59301 20.3244 3.59145 17.6178 5.51931C9.89538 11.0196 12.0124 34.9777 24.2647 44.3268C29.8061 48.5551 34.6416 48.0535 38.7999 53.525C42.4744 58.3598 42.1862 64.7381 41.4634 69.1402Z" fill="white"/>
</mask>
<g mask="url(#mask0_71_1368)">
<path d="M42.3499 58.2198C41.8855 56.3946 41.2609 54.6008 40.4937 52.888C38.7304 48.9523 36.7847 46.7877 34.3213 44.0474C32.7146 42.26 30.8934 40.2341 28.789 37.3295C24.8517 31.8953 23.6299 29.9864 22.5355 26.9102C20.3696 20.8226 20.7022 15.3644 21.0932 12.6528C21.6481 8.80594 22.9387 5.14526 24.9295 1.77246L25.0202 1.82603C23.0365 5.18689 21.7503 8.83465 21.1976 12.6678C20.8079 15.3698 20.4765 20.8086 22.6348 26.8749C23.7247 29.9386 24.944 31.8432 28.8743 37.2677C30.9755 40.1678 32.7947 42.1915 34.3997 43.977C36.8692 46.7242 38.8198 48.8941 40.5898 52.8449C41.3596 54.5632 41.9861 56.3628 42.452 58.1938L42.3499 58.2198Z" fill="white"/>
<path d="M21.4459 22.5859L21.3697 22.5446C21.3468 22.5322 19.0629 21.2767 17.0328 18.721C15.1586 16.3615 13.1221 12.3794 14.0637 6.80762L14.1676 6.82519C13.2328 12.3568 15.2533 16.31 17.1127 18.6522C18.9215 20.9305 20.9324 22.1687 21.3441 22.4087C21.4596 17.9435 24.3195 15.0515 26.7072 13.4082C29.3075 11.6186 31.9238 10.8847 31.9499 10.8775L31.9779 10.979C31.952 10.9862 29.3503 11.7164 26.7645 13.4967C24.3825 15.1367 21.5266 18.0298 21.4474 22.4991L21.4459 22.5859Z" fill="white"/>
<path d="M22.1454 36.9386C19.9481 36.9386 17.1625 36.4168 14.582 34.4083L14.6468 34.3252C17.7368 36.7303 21.1254 36.9848 23.4236 36.7746C25.7083 36.5658 27.3957 35.8704 27.6739 35.75C26.5318 31.3486 27.5377 28.1022 28.5851 26.1518C29.7243 24.0304 31.159 22.9404 31.1733 22.9297L31.2366 23.014C31.2224 23.0246 29.8034 24.1036 28.6755 26.2061C27.635 28.1457 26.6363 31.3787 27.7872 35.7668L27.7984 35.8096L27.7582 35.828C27.7403 35.8362 25.9425 36.6502 23.4332 36.8796C23.0341 36.916 22.6024 36.9386 22.1454 36.9386Z" fill="white"/>
<path d="M27.3136 45.3241C25.6064 45.3241 23.5116 45.0211 21.0527 44.1228L21.0889 44.0238C25.449 45.6167 28.6536 45.3278 30.5744 44.8048C32.4647 44.29 33.512 43.4565 33.6928 43.3037C31.7595 38.8042 34.4747 31.5098 34.5024 31.4365L34.601 31.4737C34.5733 31.5469 31.859 38.8399 33.8048 43.2971L33.8199 43.3317L33.7921 43.3571C33.7814 43.3669 32.7033 44.3344 30.6021 44.9065C29.7517 45.138 28.6517 45.3241 27.3136 45.3241Z" fill="white"/>
</g>
<path d="M45.8764 62.3383C46.3582 59.424 46.6352 54.8726 44.263 50.8023C40.1245 43.7012 32.5812 46.0568 25.3609 38.449C19.5373 32.3131 21.3726 27.5441 14.9197 23.4662C13.8395 22.7837 8.13244 19.0275 3.88841 21.2899C1.49682 22.5647 0.630331 25.1819 0.467683 25.6733C-1.99079 33.0989 5.57284 44.7248 15.4312 50.0421C21.0953 53.0971 22.9227 52.0987 32.8902 55.6618C38.7471 57.7554 43.1447 60.4514 45.8764 62.3383Z" fill="url(#paint1_linear_71_1368)"/>
<mask id="mask1_71_1368" style="mask-type:luminance" maskUnits="userSpaceOnUse" x="0" y="20" width="47" height="43">
<path d="M45.8764 62.3383C46.3582 59.424 46.6352 54.8726 44.263 50.8023C40.1245 43.7012 32.5812 46.0568 25.3609 38.449C19.5373 32.3131 21.3726 27.5441 14.9197 23.4662C13.8395 22.7837 8.13244 19.0275 3.88841 21.2899C1.49682 22.5647 0.630331 25.1819 0.467683 25.6733C-1.99079 33.0989 5.57284 44.7248 15.4312 50.0421C21.0953 53.0971 22.9227 52.0987 32.8902 55.6618C38.7471 57.7554 43.1447 60.4514 45.8764 62.3383Z" fill="white"/>
</mask>
<g mask="url(#mask1_71_1368)">
<path d="M46.7292 65.8433C45.2855 58.9085 42.5521 54.2521 38.605 52.0036C36.6782 50.906 35.1396 50.7317 33.5105 50.5474C31.7354 50.3465 29.8997 50.1388 27.4723 48.6709C25.1107 47.2428 24.2659 45.8708 23.1964 44.1337C22.2442 42.5874 21.0593 40.6629 18.4006 38.1004C16.0699 35.854 14.3719 34.8022 12.8737 33.8742C11.2368 32.8602 9.94377 32.0593 8.44328 30.093C5.99769 26.8882 4.71958 22.7817 4.64453 17.8874L4.74985 17.8857C4.82457 22.757 6.09539 26.8426 8.52703 30.029C10.0157 31.9799 11.3014 32.7763 12.9292 33.7846C14.4317 34.7154 16.1349 35.7703 18.4736 38.0245C21.1419 40.5963 22.3308 42.527 23.286 44.0784C24.3481 45.8033 25.187 47.1658 27.5269 48.5807C29.9345 50.0366 31.7585 50.243 33.5224 50.4426C35.1624 50.6283 36.7116 50.8036 38.6571 51.912C42.6316 54.1762 45.3822 58.8561 46.8324 65.8217L46.7292 65.8433Z" fill="white"/>
<path d="M12.9479 34.2993C7.88891 34.2993 4.11239 32.3604 1.80402 30.6968C-0.796423 28.8228 -2.14681 26.8832 -2.16016 26.8638L-2.07331 26.8041C-2.06006 26.8233 -0.717849 28.7504 1.86901 30.6138C4.24468 32.325 8.18338 34.3276 13.4829 34.1868C13.3526 33.7734 12.6642 31.509 12.35 28.8611C12.0297 26.163 12.0437 22.5027 13.9286 20.3877L14.0073 20.4578C10.4453 24.4546 13.5724 34.1238 13.6044 34.221L13.6265 34.288L13.556 34.2902C13.3513 34.2963 13.1484 34.2993 12.9479 34.2993Z" fill="white"/>
<path d="M12.5582 42.5379C9.32184 42.5379 5.19422 41.8718 1.05273 39.389L1.10692 39.2986C6.26734 42.3923 11.407 42.6517 14.8096 42.3247C18.2393 41.995 20.6416 41.02 20.9822 40.8757C19.6029 35.8139 20.8282 28.6588 20.8408 28.5869L20.9446 28.6051C20.932 28.677 19.7035 35.8508 21.0959 40.892L21.108 40.9357L21.0667 40.9541C21.0417 40.9653 18.5287 42.0724 14.8237 42.4292C14.1347 42.4955 13.3748 42.5379 12.5582 42.5379Z" fill="white"/>
<path d="M16.9515 54.2984C16.7047 54.2984 16.4554 54.2958 16.2031 54.2903L16.2054 54.185C21.3909 54.2969 25.3807 53.2193 27.8156 52.2955C30.1942 51.3931 31.5913 50.4584 31.8538 50.2753C28.0398 45.56 29.5309 37.8384 29.5466 37.7607L29.6498 37.7814C29.6343 37.8589 28.1435 45.5802 31.971 50.2524L32.0062 50.2953L31.9615 50.3282C31.906 50.3689 26.4499 54.2984 16.9515 54.2984Z" fill="white"/>
</g>
<path d="M86.0013 68.1342L8.56641 67.4648V69.4453C8.56641 69.9828 8.90415 70.4399 9.36155 70.5214L31.2578 74.4212C31.5177 74.4675 31.7812 74.4798 32.0434 74.4578L85.1598 70.0113C85.634 69.9717 86.0013 69.5131 86.0013 68.9609L86.0013 68.1342Z" fill="#7CA5A8"/>
<path d="M57.5043 64.9613L8.28814 68.5843C7.40746 68.6491 6.69141 67.9603 6.69141 67.0455V30.3956C6.69141 29.4808 7.40746 28.7393 8.28814 28.7393H57.5043C58.2298 28.7393 58.8164 29.4096 58.8164 30.2366V63.3674C58.8164 64.1943 58.2298 64.9079 57.5043 64.9613Z" fill="url(#paint2_linear_71_1368)"/>
<path d="M58.2895 64.9613L9.07334 68.5843C8.19262 68.6491 7.47656 67.9603 7.47656 67.0455V30.3956C7.47656 29.4808 8.19262 28.7393 9.07334 28.7393H58.2895C59.015 28.7393 59.6016 29.4096 59.6016 30.2366V63.3674C59.6016 64.1943 59.015 64.9079 58.2895 64.9613Z" fill="white"/>
<path d="M56.756 62.6255L10.9163 65.7726C10.1996 65.8218 9.61719 65.2564 9.61719 64.5096V32.4226C9.61719 31.6758 10.1996 31.0679 10.9163 31.0648L56.756 30.8672C57.3545 30.8646 57.8386 31.4139 57.8386 32.0942V61.3197C57.8387 61.9998 57.3545 62.5844 56.756 62.6255Z" fill="url(#paint3_linear_71_1368)" fill-opacity="0.61"/>
<path d="M35.4187 29.7412C35.4187 30.0817 35.1654 30.3586 34.8525 30.3596C34.5393 30.3606 34.2852 30.0847 34.2852 29.7434C34.2852 29.4021 34.5393 29.1252 34.8525 29.125C35.1653 29.1248 35.4187 29.4006 35.4187 29.7412Z" fill="white"/>
<path opacity="0.3" d="M9.07311 68.5843L58.0402 64.9796L58.2894 64.9613C58.6223 64.9368 58.925 64.7722 59.1562 64.5226C55.6324 64.3297 53.4438 63.0793 52.0319 61.7872C49.1967 59.1924 49.6885 56.6335 46.631 54.9275C42.8175 52.7995 39.8189 55.4959 36.925 52.8355C35.1706 51.2226 36.0319 50.0198 33.8731 47.6096C31.4821 44.94 29.9254 45.8374 27.5225 43.4347C24.4842 40.3967 26.0037 38.0331 23.3866 35.8519C20.2116 33.2058 16.7875 35.6549 13.7652 33.1173C12.4616 32.0228 11.7463 30.4315 11.3728 28.7393H9.07334C8.19267 28.7393 7.47656 29.4809 7.47656 30.3956V67.0455C7.47652 67.9602 8.19248 68.649 9.07311 68.5843Z" fill="white"/>
<path d="M60.6087 64.7587L8.56641 68.5722L31.2578 72.6137C31.5177 72.66 31.7812 72.6722 32.0434 72.6503L86.0013 68.1334L61.4366 64.7845C61.1618 64.7471 60.8848 64.7384 60.6087 64.7587Z" fill="url(#paint4_linear_71_1368)"/>
<path opacity="0.4" d="M16.1602 68.606L59.487 65.3838L72.8962 67.1971L29.9427 70.6415L16.1602 68.606Z" fill="#0A7A83"/>
<path opacity="0.56" d="M51.576 51.3203C45.1477 56.395 35.7961 55.1401 30.6849 48.3218C25.4673 41.3615 26.7611 31.4437 33.5753 26.3756C40.283 21.3866 49.6331 23.1378 54.4645 30.0883C59.2 36.901 57.9075 46.3222 51.576 51.3203Z" fill="white"/>
<path d="M3.43052 69.5447L3.10602 69.1472C2.58861 68.5133 2.70568 67.588 3.3675 67.0822L29.3166 47.249L31.336 49.9398L5.55481 69.7716C4.89736 70.2773 3.94628 70.1766 3.43052 69.5447Z" fill="#15919B"/>
<path d="M52.0294 52.5792C44.6563 58.4245 33.8965 57.023 27.9907 49.1901C21.9428 41.1689 23.4313 29.7125 31.3162 23.8754C39.0589 18.1436 49.8168 20.2021 55.3522 28.21C60.7617 36.0358 59.275 46.8348 52.0294 52.5792ZM50.4341 50.3686C56.5596 45.5377 57.8086 36.4263 53.2252 29.8409C48.5523 23.1267 39.5174 21.4427 33.0406 26.2651C26.4644 31.1613 25.2142 40.7363 30.2476 47.4595C35.1818 54.0503 44.2181 55.2709 50.4341 50.3686Z" fill="#0A5358"/>
<path opacity="0.3" d="M29.3166 47.249L26.008 49.7778C26.1958 51.0638 25.9522 51.9315 25.6059 52.5338C24.3033 54.7998 21.1502 54.0339 18.3212 57.1762C16.9016 58.753 17.4547 59.2134 16.0419 60.471C13.7062 62.5502 11.9081 61.547 9.851 63.4138C7.77032 65.3021 8.31626 67.5026 6.90144 67.9438C6.2962 68.1326 5.37172 67.9859 3.91024 66.6673L3.3675 67.0822C2.70568 67.588 2.58861 68.5133 3.10602 69.1472L3.43052 69.5447C3.94628 70.1765 4.89731 70.2773 5.55476 69.7715L31.3359 49.9398L29.3166 47.249Z" fill="url(#paint5_linear_71_1368)"/>
<path d="M52.879 53.125C45.5059 58.9704 34.7461 57.5689 28.8403 49.736C22.7924 41.7148 24.2809 30.2583 32.1658 24.4213C39.9086 18.6895 50.6665 20.748 56.2018 28.7559C61.6113 36.5817 60.1246 47.3807 52.879 53.125ZM51.2838 50.9144C57.4092 46.0835 58.6582 36.9722 54.0749 30.3868C49.4019 23.6726 40.367 21.9886 33.8902 26.811C27.3141 31.7073 26.0638 41.2822 31.0973 48.0055C36.0314 54.5962 45.0677 55.8168 51.2838 50.9144Z" fill="url(#paint6_linear_71_1368)"/>
<path d="M52.3161 52.3454C45.3512 57.857 35.2009 56.5176 29.6399 49.1235C23.9528 41.5619 25.3571 30.7729 32.777 25.2688C40.0709 19.8583 50.2195 21.7823 55.4509 29.3322C60.5699 36.7199 59.1673 46.9238 52.3161 52.3454ZM51.2838 50.9149C57.4093 46.084 58.6583 36.9727 54.075 30.3873C49.402 23.6731 40.3671 21.9891 33.8903 26.8115C27.3141 31.7078 26.0639 41.2827 31.0973 48.0059C36.0315 54.5967 45.0677 55.8173 51.2838 50.9149Z" fill="url(#paint7_linear_71_1368)"/>
<mask id="mask2_71_1368" style="mask-type:luminance" maskUnits="userSpaceOnUse" x="27" y="20" width="55" height="35">
<path d="M60.376 24.961L60.073 28.529L47.3063 24.9341C43.2811 23.314 38.6149 23.5612 34.6438 26.071C27.713 30.4511 25.7356 39.9026 30.2412 46.9904C34.6579 53.9386 43.5747 55.8453 50.1468 51.4317C50.2783 51.3434 50.4073 51.2525 50.535 51.1604L55.978 54.4107L79.382 42.6628L81.2806 20.3076L60.376 24.961Z" fill="white"/>
</mask>
<g mask="url(#mask2_71_1368)">
<path d="M15.2468 61.0086C14.0945 60.9505 12.9632 60.5329 12.08 59.7509C10.1239 58.0191 10.1392 55.175 12.1155 53.4185L41.0161 27.5503C41.961 26.7108 43.2575 26.3145 44.5673 26.4618C45.8712 26.6085 47.0605 27.2795 47.8298 28.2994L55.8658 38.9519L66.8944 28.7181C68.5441 27.1871 71.166 27.3083 72.7496 28.9714C74.3236 30.6244 74.2888 33.1911 72.6728 34.7209L58.35 48.2801C57.4578 49.1247 56.2267 49.5576 54.973 49.4645C53.7138 49.371 52.556 48.7564 51.8021 47.7775L43.6552 37.2008L19.0943 59.6745C18.0404 60.6309 16.6284 61.0784 15.2468 61.0086Z" fill="#436E71"/>
<path d="M75.3145 37.0918L65.0332 26.4011L79.6957 22.8252L80.6912 22.9097L76.2201 37.0803L75.3145 37.0918Z" fill="#436E71"/>
<path d="M16.2429 61.0926C15.0905 61.0344 13.9593 60.6168 13.0761 59.8349C11.12 58.1031 11.1353 55.259 13.1116 53.5025L42.0121 27.6343C42.9571 26.7948 44.2536 26.3985 45.5634 26.5458C46.8673 26.6925 48.0566 27.3635 48.8259 28.3834L56.8619 39.0359L67.8905 28.8021C69.5402 27.2711 72.1621 27.3922 73.7457 29.0554C75.3197 30.7084 75.2849 33.2751 73.669 34.8049L59.3461 48.3641C58.454 49.2086 57.2228 49.6416 55.9691 49.5485C54.71 49.455 53.5522 48.8403 52.7982 47.8615L44.6514 37.2848L20.0904 59.7584C19.0365 60.7149 17.6245 61.1623 16.2429 61.0926Z" fill="url(#paint8_linear_71_1368)"/>
<path d="M76.2207 37.0798L66.0293 26.485L80.6917 22.9092L76.2207 37.0798Z" fill="url(#paint9_linear_71_1368)"/>
</g>
<path d="M65.2564 35.4921C65.3612 35.3219 65.4135 34.3532 65.2564 33.8557C65.0993 33.3582 64.7721 32.5074 64.6674 32.7954C64.5626 33.0834 64.6674 33.7117 64.6674 33.7117C64.6674 33.7117 63.8557 33.9343 64.1568 34.6804C64.4579 35.4266 64.5364 35.7669 64.8114 35.7669C65.0862 35.767 65.2564 35.4921 65.2564 35.4921Z" fill="url(#paint10_linear_71_1368)"/>
<path d="M68.0566 45.6434C67.9822 45.6539 67.9068 45.6633 67.8303 45.6727C67.7308 45.6853 67.6324 45.6958 67.536 45.7052C63.856 46.0518 62.2432 44.1039 61.8484 41.779C61.3541 38.8718 62.7616 35.374 64.41 35.0294C67.4114 34.4011 65.3169 39.4635 65.8405 40.2573C66.2249 40.8406 69.1729 40.3296 70.7145 40.0154C71.2737 39.9023 71.6486 39.8144 71.6486 39.8144C71.6486 39.8144 76.3707 44.5207 68.0566 45.6434Z" fill="#09D1C7"/>
<path d="M77.6055 72.1277C77.6055 72.1277 77.9915 73.0985 77.8899 73.529C78.3044 73.5208 78.5726 73.4681 78.5726 73.4681C78.5726 73.4681 78.406 73.0254 78.3735 72.806C78.3296 72.5097 78.3329 72.0303 78.3329 72.0303L77.6055 72.1277Z" fill="url(#paint11_linear_71_1368)"/>
<path d="M70.4687 74.6686C70.4925 74.6973 70.5348 74.7573 70.5383 74.8386C70.5402 74.8827 70.5301 74.919 70.5174 74.9524C70.4547 75.1174 70.3562 75.1392 70.2499 75.3142C70.1849 75.4212 70.1972 75.4535 70.1377 75.5017C70.0592 75.5654 69.9644 75.569 69.8821 75.57C69.7431 75.5716 69.543 75.5666 69.291 75.5366C69.423 75.3665 69.5634 75.1937 69.7128 75.0193C69.7783 74.9428 69.8437 74.8681 69.9089 74.7951L70.2971 74.6641C70.3543 74.6656 70.4115 74.6671 70.4687 74.6686Z" fill="url(#paint12_linear_71_1368)"/>
<path d="M70.1474 72.7852C70.1474 72.7852 69.9255 73.9423 70.2078 74.2664C70.4484 74.5904 70.0917 74.3593 70.0917 74.3593L69.6657 74.7308L69.4102 75.1721C69.4102 75.1721 69.6454 74.0394 69.5827 73.59C69.5199 73.1405 69.4885 72.8374 69.4885 72.8374L70.1474 72.7852Z" fill="url(#paint13_linear_71_1368)"/>
<path d="M67.9753 51.053C67.6915 51.99 67.2862 53.5025 67.0254 55.4001C66.2813 60.8126 67.8628 60.9853 67.5675 66.9831C67.4732 68.8976 69.2261 73.3122 69.3806 73.4098C69.4553 73.417 69.5365 73.4219 69.623 73.4192C69.7754 73.4146 69.9904 73.3913 70.2404 73.3163C70.518 73.2685 71.5191 70.5569 71.2871 68.9447C71.1229 67.8036 71.1705 66.579 71.2657 64.1298C71.2811 63.733 72.2965 56.4089 72.2965 56.4089C72.6053 59.1199 72.9605 61.4233 73.2685 63.2092C74.2578 68.947 77.4746 72.4199 77.6424 72.4756C77.6755 72.4889 77.9774 72.5986 78.2242 72.4359C78.334 72.3635 78.3714 72.2701 78.3714 72.2701C78.4574 72.2027 78.346 66.5416 77.3648 62.281C75.9407 56.0969 76.5608 54.65 76.1096 51.8878C75.7193 49.4978 67.9753 51.053 67.9753 51.053Z" fill="url(#paint14_linear_71_1368)"/>
<path d="M77.7879 73.8975C77.7879 73.8975 77.6917 73.8975 77.6997 74.0217C77.7077 74.1459 77.6564 74.5732 78.1455 74.5932C78.6346 74.6132 78.71 74.5586 78.726 74.5586C78.7421 74.5586 78.5978 74.1499 78.5978 74.1499L78.4414 73.9496L78.0204 73.9055L77.7879 73.8975Z" fill="url(#paint15_linear_71_1368)"/>
<path d="M78.8715 74.3271C78.861 74.2239 78.8033 74.0615 78.7451 73.9308C78.6588 73.7366 78.7297 73.6639 78.6472 73.487C78.6186 73.4259 78.5909 73.3679 78.5306 73.3105C78.5168 73.2972 78.3818 73.1726 78.1852 73.1789C78.1465 73.1802 78.087 73.1828 78.0227 73.2171C77.9468 73.2575 77.9088 73.3181 77.8764 73.3714C77.8254 73.4551 77.8371 73.4808 77.7585 73.7207C77.7522 73.7399 77.7383 73.7818 77.7277 73.8395C77.7196 73.8838 77.7163 73.9209 77.7148 73.9462C77.8431 73.9462 78.3362 73.9663 78.4405 74.0424C78.5447 74.1185 78.5968 74.2468 78.5968 74.375C78.5968 74.5032 78.661 74.5633 78.7251 74.5593C78.7824 74.5557 78.8963 74.4496 78.8715 74.3271Z" fill="url(#paint16_linear_71_1368)"/>
<path d="M70.0866 74.1045C70.1916 74.1062 70.2686 74.1897 70.3267 74.3909C70.3848 74.5922 70.6636 74.7702 70.3383 74.7277C70.013 74.6851 69.7768 75.1457 69.6606 75.316C69.5445 75.4863 69.2326 75.6376 69.2404 75.4711C69.2481 75.3047 69.3857 75.2269 69.4245 75.0567C69.4632 74.8864 69.8471 74.1007 70.0866 74.1045Z" fill="url(#paint17_linear_71_1368)"/>
<path d="M78.2311 42.0228C76.8246 44.9111 76.7116 45.6997 76.2141 47.7072C75.9942 48.5922 75.5606 49.5441 75.903 51.137C75.9533 51.3737 76.0214 51.6239 76.1094 51.8899C75.4339 52.246 74.4746 52.645 73.2755 52.823C70.6511 53.2137 68.4488 52.4272 67.5931 51.9884C67.3962 51.0857 67.1794 49.7577 67.3983 46.8799C67.4182 46.6296 67.4538 46.2212 67.5355 45.7059C67.6109 45.2305 67.7229 44.6639 67.8916 44.0512C67.9135 43.9727 67.9366 43.8941 67.9596 43.8146C68.1889 43.0333 68.4173 42.5076 68.6697 42.0583C69.0184 41.4363 69.4028 40.9765 69.5148 40.8456C69.6352 40.7032 69.7326 40.5974 69.7525 40.5786C70.0426 40.3178 70.3704 40.1377 70.7139 40.0162C71.7853 39.635 73.0106 39.8172 73.7269 39.8382C74.573 39.8633 76.2037 39.902 77.1085 40.9734C77.698 41.6729 78.6196 41.2269 78.2311 42.0228Z" fill="#09D1C7"/>
<path d="M72.9884 38.5999C73.0624 38.0294 73.5134 37.6638 73.6118 37.5856C74.0238 37.2581 74.1077 37.2251 74.2492 37.1982L74.4425 37.1689C74.4425 37.1689 74.4529 37.1692 74.4636 37.1698C74.5767 37.1767 74.9159 37.309 74.9775 37.3524C75.1745 37.4909 75.0294 38.4718 74.4323 39.6918C74.4089 39.795 74.3854 39.8984 74.3619 40.0017C74.8823 40.0931 75.0112 40.187 75.0153 40.262C75.0242 40.4243 74.4544 40.6315 73.9263 40.645C73.2641 40.662 72.561 40.377 72.5744 40.1644C72.5799 40.0783 72.7048 39.9721 73.1856 39.8679C73.2607 39.7622 73.3359 39.6566 73.411 39.5509C73.3428 39.4681 72.9339 39.0202 72.9884 38.5999Z" fill="url(#paint18_linear_71_1368)"/>
<path d="M74.2486 36.7968C74.0409 36.9997 73.99 37.3526 74.0514 37.6068C74.0882 37.7589 74.1357 37.7749 74.1289 37.8745C74.1099 38.1542 73.6004 38.276 73.6288 38.4169C73.649 38.5175 73.9142 38.4807 73.9599 38.6071C74.0099 38.7455 73.7187 38.8646 73.5936 39.2128C73.5741 39.2671 73.4557 39.5966 73.6076 39.7904C73.7495 39.9714 74.0669 39.9285 74.4247 39.882C74.8194 39.8307 75.1026 39.7141 75.1855 39.6777C75.4467 39.563 75.7276 39.4397 75.9603 39.1565C76.0154 39.0894 76.3396 38.6825 76.3125 38.114C76.2767 37.367 75.6522 36.7291 75.0094 36.6277C74.9052 36.6113 74.5034 36.548 74.2486 36.7968Z" fill="url(#paint19_linear_71_1368)"/>
<path d="M73.8078 38.3851C73.958 38.2953 74.0724 38.4885 74.0016 38.6574C73.9309 38.8262 73.6931 38.9319 73.5489 38.8312C73.4048 38.7306 73.6057 38.5061 73.8078 38.3851Z" fill="url(#paint20_linear_71_1368)"/>
<path d="M75.9181 49.5442C75.9181 49.5442 75.7862 49.6322 75.5839 49.5882C75.3815 49.5442 75.1352 49.3771 74.9153 49.3067C74.6954 49.2363 74.6778 49.5618 75.0033 49.7289C75.3288 49.8961 75.6103 50.2304 75.7334 50.4855C75.8565 50.7405 76.1644 50.1776 76.1644 50.1776L75.9181 49.5442Z" fill="url(#paint21_linear_71_1368)"/>
<path d="M76.0591 40.2629C76.5588 40.2425 78.8305 40.204 80.7072 41.9078C81.0845 42.2504 82.8779 43.8785 82.7259 46.2069C82.5436 48.9998 79.6564 51.3652 77.4361 51.0281C76.9183 50.9495 76.4979 50.7333 76.1837 50.5185L75.8144 49.4739C75.8084 48.7273 76.2167 48.2054 76.4267 47.9171C76.9443 47.2062 77.6823 47.082 77.7912 46.4521C77.8515 46.1035 77.6815 45.8182 77.5295 45.5632C77.0122 44.6948 76.186 44.5877 75.7584 44.1435C75.3171 43.6849 74.8123 42.5357 76.0591 40.2629Z" fill="#09D1C7"/>
<path opacity="0.3" d="M76.1092 51.8895C75.4337 52.2456 74.4745 52.6446 73.2754 52.8226C70.6509 53.2132 68.4486 52.4268 67.5929 51.988C67.3961 51.0853 67.1793 49.7573 67.3981 46.8795C67.418 46.6292 67.4537 46.2207 67.5353 45.7055C63.8553 46.0521 62.2425 44.1043 61.8477 41.7793C62.5629 42.9522 63.7788 44.3953 65.355 44.1765C67.3154 43.9032 67.7259 43.4968 67.8914 44.0508C67.9459 44.232 67.9731 44.5168 68.0213 44.9441C68.0433 45.1399 68.0537 45.3766 68.0559 45.6437C68.0768 47.7319 67.6558 51.6255 69.0256 51.4632C70.4917 51.2893 74.1603 52.2476 75.9029 51.1365C75.9531 51.3733 76.0212 51.6235 76.1092 51.8895Z" fill="#094146"/>
<path d="M64.261 19.1558C64.8939 19.4771 65.6889 19.1821 66.0368 18.4969C66.3847 17.8117 66.1537 16.9958 65.5209 16.6745C65.4881 16.6578 65.4546 16.6438 65.421 16.6304C65.5386 16.2513 65.6273 15.8692 65.6867 15.4869C65.723 15.4868 65.7594 15.4862 65.7963 15.4829C66.5183 15.4185 67.0913 14.7551 67.0762 14.001C67.0611 13.247 66.4636 12.6878 65.7416 12.7522C65.7039 12.7556 65.6668 12.7616 65.6299 12.7681C65.5545 12.3944 65.4512 12.0293 65.3208 11.6761C65.354 11.6567 65.3871 11.6366 65.4194 11.614C66.0371 11.1812 66.2345 10.3271 65.8604 9.70622C65.4864 9.08537 64.6823 8.93288 64.0646 9.36565C64.033 9.38783 64.0032 9.4118 63.9738 9.43609C63.7298 9.16639 63.4623 8.91643 63.1727 8.68832C63.1931 8.65495 63.213 8.62112 63.231 8.58564C63.5789 7.90041 64.0335 7.15193 63.3958 6.84059C61.9204 6.12035 61.2873 6.73692 60.9394 7.4221C60.9214 7.45758 60.9058 7.49362 60.8909 7.52976C60.5359 7.43065 60.1762 7.36209 59.8145 7.3243C59.8167 7.28619 59.8185 7.24803 59.8177 7.2094C59.8026 6.45537 60.0263 6.04727 59.3016 6.03322C57.7212 6.00249 57.1881 6.68842 57.2032 7.44245C57.204 7.48187 57.2073 7.52041 57.2112 7.55866C56.849 7.66191 56.4933 7.79387 56.1471 7.95351C56.1307 7.91986 56.1136 7.88645 56.094 7.85398C55.72 7.23313 54.916 7.08068 54.2982 7.51346C53.6806 7.94623 53.4831 8.80035 53.8572 9.4212C53.8763 9.45301 53.8973 9.48276 53.9186 9.51209C53.6451 9.78564 53.3889 10.0827 53.1522 10.4014C53.1216 10.3821 53.0905 10.3634 53.0577 10.3468C52.4249 10.0255 51.6299 10.3205 51.282 11.0057C50.9341 11.6909 51.1651 12.5068 51.7979 12.8281C51.8307 12.8447 51.8641 12.8587 51.8977 12.8721C51.7801 13.2513 51.6915 13.6334 51.632 14.0157C51.5957 14.0158 51.5594 14.0164 51.5224 14.0197C50.8004 14.084 50.2274 14.7475 50.2425 15.5016C50.2576 16.2557 50.8551 16.8147 51.5772 16.7504C51.6149 16.747 51.6519 16.7411 51.6888 16.7345C51.7642 17.1082 51.8675 17.4732 51.9979 17.8265C51.9647 17.8459 51.9316 17.866 51.8994 17.8886C51.2817 18.3213 51.0842 19.1755 51.4583 19.7964C51.8324 20.4172 53.0708 20.7057 53.6885 20.2729C53.7202 20.2507 53.3154 20.0908 53.3449 20.0665C53.5888 20.3362 53.8564 20.5862 54.1459 20.8143C54.1256 20.8477 54.1057 20.8815 54.0877 20.917C53.7398 21.6022 53.9707 22.4181 54.6036 22.7394C55.2364 23.0607 56.0314 22.7657 56.3793 22.0805C56.3973 22.045 56.4129 22.009 56.4278 21.9729C56.7828 22.072 57.1424 22.1405 57.5042 22.1783C57.5019 22.2164 57.5002 22.2546 57.5009 22.2932C57.5161 23.0473 58.1136 23.6064 58.8356 23.542C59.5575 23.4776 60.1306 22.8142 60.1155 22.0601C60.1147 22.0207 60.1114 21.9822 60.1075 21.9439C60.4697 21.8407 60.8253 21.7087 61.1715 21.5491C61.188 21.5827 61.2051 21.6161 61.2246 21.6486C61.5987 22.2694 62.4027 22.4219 63.0204 21.9891C63.6382 21.5564 63.8356 20.7023 63.4615 20.0814C63.4423 20.0496 63.4213 20.0199 63.4 19.9905C63.6736 19.7169 63.9298 19.4199 64.1665 19.1012C64.1972 19.1204 64.2283 19.1392 64.261 19.1558ZM56.3724 19.2559C54.0747 18.0894 53.2362 15.1269 54.4993 12.6391C55.7624 10.1512 58.649 9.08007 60.9466 10.2466C63.2442 11.4132 64.0828 14.3756 62.8197 16.8635C61.5565 19.3514 58.67 20.4225 56.3724 19.2559Z" fill="#0A6167"/>
<path d="M65.7968 15.484C66.5188 15.4196 67.0918 14.7562 67.0767 14.0021C67.0616 13.2481 66.4641 12.6889 65.7421 12.7533C65.7044 12.7566 65.6673 12.7627 65.6304 12.7692C65.5551 12.3955 65.4517 12.0305 65.3213 11.6772C65.3545 11.6578 65.3876 11.6377 65.4199 11.6151C66.0376 11.1823 66.8017 10.1367 66.3659 9.55745C65.5388 8.45815 64.6828 8.93401 64.0652 9.36674C64.0335 9.38892 64.0038 9.41284 63.9744 9.43714C63.7304 9.16744 63.4628 8.91752 63.1733 8.68941C63.1936 8.65604 63.2136 8.62225 63.2316 8.58677C63.4209 8.21382 63.4376 7.80267 63.3126 7.45312C62.7159 8.50322 62.1274 9.55768 61.5493 10.6179C63.3823 11.9611 63.9658 14.608 62.8201 16.8646C61.8492 18.7769 59.9192 19.8506 58.0348 19.7161C57.9507 19.9341 57.8682 20.1533 57.7782 20.3692C57.5339 20.9551 57.2564 21.529 56.9785 22.102C57.1533 22.135 57.3288 22.1609 57.5048 22.1793C57.5026 22.2174 57.5008 22.2556 57.5016 22.2943C57.5167 23.0483 57.9745 23.689 59.283 23.6196C60.0068 23.5812 60.1312 22.8153 60.1161 22.0612C60.1153 22.0218 60.112 21.9833 60.1081 21.945C60.4703 21.8417 60.826 21.7098 61.1721 21.5501C61.1886 21.5837 61.2057 21.6171 61.2252 21.6496C61.5993 22.2704 62.8971 22.5342 63.5147 22.1015C64.1324 21.6687 63.8362 20.7033 63.4621 20.0824C63.4429 20.0506 63.4219 20.0208 63.4006 19.9915C63.6742 19.7179 63.9304 19.4209 64.1671 19.1022C64.1977 19.1214 64.2287 19.1402 64.2615 19.1568C64.8944 19.4781 65.6894 19.183 66.0373 18.4979C66.3852 17.8127 66.1542 16.9967 65.5214 16.6754C65.4886 16.6588 65.4551 16.6448 65.4215 16.6314C65.5391 16.2523 65.6278 15.8701 65.6872 15.4879C65.7234 15.4879 65.7598 15.4873 65.7968 15.484Z" fill="#0A6167"/>
<path d="M64.9425 19.2344C65.5754 19.5557 66.3704 19.2607 66.7183 18.5754C67.0662 17.8902 66.8352 17.0743 66.2024 16.753C66.1696 16.7364 66.1361 16.7223 66.1025 16.709C66.2201 16.3298 66.3088 15.9477 66.3682 15.5655C66.4045 15.5654 66.4409 15.5648 66.4778 15.5615C67.1998 15.4971 67.7728 14.8337 67.7577 14.0796C67.7426 13.3255 67.1451 12.7664 66.4231 12.8308C66.3854 12.8342 66.3483 12.8401 66.3114 12.8467C66.2361 12.473 66.1327 12.108 66.0023 11.7547C66.0356 11.7352 66.0686 11.7151 66.1009 11.6925C66.7186 11.2598 66.9161 10.4056 66.542 9.78478C66.1679 9.16394 65.3639 9.01144 64.7462 9.44421C64.7145 9.46639 64.6848 9.49036 64.6553 9.51466C64.4114 9.24496 64.1438 8.99504 63.8542 8.76693C63.8746 8.73356 63.8945 8.69972 63.9126 8.66424C64.2604 7.97902 64.0295 7.1631 63.3966 6.8418C62.7638 6.5205 61.9688 6.81553 61.6209 7.50071C61.6029 7.53619 61.5874 7.57223 61.5724 7.60837C61.2174 7.50926 60.8577 7.4407 60.4961 7.40291C60.4983 7.3648 60.5 7.32664 60.4993 7.28801C60.4842 6.53398 59.8866 5.97484 59.1646 6.03923C58.4427 6.10356 57.8697 6.76703 57.8848 7.52106C57.8856 7.56048 57.8888 7.59897 57.8927 7.63727C57.5306 7.74052 57.1749 7.87248 56.8287 8.03212C56.8123 7.99847 56.7952 7.96506 56.7756 7.93259C56.4016 7.31174 55.5976 7.15925 54.9798 7.59202C54.3621 8.02484 54.1647 8.87892 54.5388 9.49976C54.5579 9.53158 54.5789 9.56132 54.6002 9.59065C54.3267 9.8642 54.0705 10.1613 53.8338 10.4799C53.8032 10.4607 53.7721 10.442 53.7393 10.4253C53.1065 10.104 52.3115 10.399 51.9636 11.0842C51.6157 11.7695 51.8467 12.5854 52.4795 12.9067C52.5123 12.9233 52.5458 12.9373 52.5793 12.9507C52.4617 13.3299 52.3731 13.712 52.3137 14.0942C52.2774 14.0943 52.241 14.0949 52.204 14.0982C51.482 14.1626 50.909 14.826 50.9241 15.5801C50.9393 16.3342 51.5368 16.8933 52.2588 16.8289C52.2965 16.8256 52.3336 16.8196 52.3704 16.8131C52.4458 17.1868 52.5491 17.5518 52.6795 17.9051C52.6463 17.9246 52.6132 17.9446 52.581 17.9673C51.9633 18.4 51.7658 19.2542 52.1399 19.875C52.5139 20.4959 53.318 20.6484 53.9356 20.2156C53.9673 20.1934 53.9971 20.1694 54.0265 20.1451C54.2705 20.4148 54.538 20.6648 54.8275 20.8929C54.8072 20.9262 54.7873 20.9601 54.7693 20.9956C54.4214 21.6808 54.6523 22.4967 55.2852 22.818C55.918 23.1393 56.713 22.8443 57.0609 22.159C57.0789 22.1236 57.0944 22.0875 57.1094 22.0514C57.4644 22.1505 57.8241 22.219 58.1858 22.2568C58.1835 22.295 58.1818 22.3331 58.1826 22.3717C58.1977 23.1258 58.7952 23.6849 59.5172 23.6205C60.2392 23.5562 60.8122 22.8927 60.7971 22.1386C60.7963 22.0993 60.793 22.0607 60.7891 22.0224C61.1512 21.9192 61.5069 21.7872 61.8531 21.6276C61.8696 21.6612 61.8867 21.6946 61.9062 21.7271C62.2803 22.3479 63.0843 22.5005 63.702 22.0677C64.3197 21.6349 64.5171 20.7808 64.1431 20.1599C64.1239 20.1281 64.1029 20.0984 64.0816 20.069C64.3551 19.7955 64.6113 19.4984 64.848 19.1797C64.8787 19.199 64.9097 19.2178 64.9425 19.2344ZM57.0538 19.3345C54.7562 18.1679 53.9176 15.2055 55.1807 12.7176C56.4439 10.2298 59.3304 9.15863 61.6281 10.3252C63.9257 11.4918 64.7643 14.4542 63.5012 16.9421C62.238 19.4299 59.3515 20.501 57.0538 19.3345Z" fill="url(#paint22_linear_71_1368)"/>
<path d="M46.2333 13.1955C46.5623 13.3626 46.9758 13.2092 47.1566 12.8529C47.3376 12.4965 47.2175 12.0722 46.8884 11.9052C46.8713 11.8965 46.854 11.8892 46.8365 11.8823C46.8977 11.6851 46.9438 11.4864 46.9747 11.2876C46.9935 11.2876 47.0125 11.2872 47.0317 11.2855C47.4071 11.2521 47.7051 10.9071 47.6972 10.515C47.6894 10.1229 47.3786 9.8321 47.0032 9.86556C46.9836 9.86734 46.9643 9.8704 46.9451 9.87383C46.9059 9.67951 46.8522 9.48969 46.7844 9.30599C46.8017 9.29589 46.8188 9.28546 46.8356 9.27366C47.1568 9.04865 47.2595 8.60446 47.065 8.28165C46.8705 7.9588 46.4524 7.87952 46.1312 8.10453C46.1147 8.11605 46.0992 8.1285 46.0839 8.14119C45.9571 8.00096 45.818 7.87097 45.6674 7.75236C45.678 7.73501 45.6883 7.71744 45.6977 7.69897C45.8786 7.34266 46.115 6.9534 45.7834 6.79151C45.0162 6.41696 44.6869 6.7376 44.506 7.09392C44.4967 7.11238 44.4886 7.13113 44.4808 7.14989C44.2962 7.09833 44.1092 7.06271 43.9211 7.04302C43.9222 7.02324 43.9232 7.00336 43.9228 6.98324C43.9149 6.59112 44.0312 6.37894 43.6544 6.37161C42.8326 6.35563 42.5553 6.71232 42.5632 7.10444C42.5636 7.12493 42.5653 7.145 42.5673 7.16488C42.379 7.21855 42.1941 7.2872 42.014 7.3702C42.0055 7.35271 41.9966 7.33533 41.9865 7.31846C41.7919 6.9956 41.3738 6.91632 41.0526 7.14138C40.7314 7.36644 40.6287 7.81058 40.8232 8.13339C40.8332 8.14993 40.8441 8.16539 40.8552 8.18066C40.7129 8.32292 40.5797 8.47739 40.4566 8.64309C40.4407 8.63308 40.4246 8.62335 40.4075 8.6147C40.0785 8.44764 39.665 8.60103 39.4841 8.95734C39.3032 9.31365 39.4233 9.73797 39.7524 9.90503C39.7694 9.91368 39.7868 9.92096 39.8043 9.92792C39.7431 10.1251 39.697 10.3238 39.6661 10.5225C39.6473 10.5226 39.6283 10.5229 39.6091 10.5246C39.2336 10.5581 38.9357 10.9031 38.9435 11.2952C38.9514 11.6873 39.2621 11.9781 39.6376 11.9446C39.6572 11.9429 39.6764 11.9398 39.6956 11.9364C39.7348 12.1307 39.7886 12.3205 39.8563 12.5043C39.8391 12.5144 39.8219 12.5248 39.8051 12.5366C39.4839 12.7616 39.3812 13.2058 39.5757 13.5286C39.7702 13.8515 40.4142 14.0015 40.7355 13.7764C40.7519 13.7649 40.5415 13.6817 40.5568 13.6691C40.6837 13.8093 40.8228 13.9393 40.9733 14.0579C40.9628 14.0753 40.9524 14.0929 40.943 14.1113C40.7621 14.4676 40.8822 14.8919 41.2113 15.059C41.5403 15.2261 41.9537 15.0727 42.1347 14.7164C42.144 14.6979 42.1521 14.6792 42.1599 14.6604C42.3445 14.712 42.5315 14.7476 42.7196 14.7673C42.7184 14.7871 42.7175 14.8069 42.7179 14.827C42.7258 15.2191 43.0365 15.5099 43.4119 15.4764C43.7874 15.443 44.0854 15.0979 44.0775 14.7058C44.077 14.6854 44.0754 14.6653 44.0733 14.6454C44.2616 14.5917 44.4466 14.5231 44.6266 14.4401C44.6352 14.4576 44.644 14.475 44.6542 14.4918C44.8487 14.8147 45.2668 14.894 45.588 14.6689C45.9092 14.4439 46.0119 13.9997 45.8174 13.6769C45.8074 13.6603 45.7965 13.6449 45.7854 13.6296C45.9277 13.4874 46.0609 13.3329 46.184 13.1672C46.2 13.1771 46.2162 13.1868 46.2333 13.1955ZM42.1311 13.2475C40.9363 12.6409 40.5002 11.1004 41.157 9.80667C41.8139 8.51296 43.3149 7.95598 44.5097 8.56259C45.7045 9.16919 46.1405 10.7097 45.4837 12.0034C44.8269 13.2971 43.3258 13.8542 42.1311 13.2475Z" fill="#0A6167"/>
<path d="M47.0309 11.2855C47.4064 11.2521 47.7043 10.907 47.6965 10.5149C47.6886 10.1228 47.3779 9.83205 47.0025 9.86555C46.9828 9.86729 46.9636 9.8704 46.9444 9.87378C46.9052 9.67946 46.8514 9.48965 46.7837 9.30595C46.801 9.29584 46.8181 9.28541 46.8349 9.27361C47.1561 9.0486 47.5535 8.50483 47.3269 8.20364C46.8968 7.632 46.4516 7.87943 46.1304 8.10448C46.114 8.116 46.0985 8.12845 46.0832 8.14109C45.9563 8.00086 45.8172 7.87087 45.6666 7.75226C45.6772 7.73492 45.6876 7.71734 45.697 7.69887C45.7954 7.50493 45.8041 7.29115 45.7391 7.10938C45.4288 7.65545 45.1227 8.20378 44.8222 8.75512C45.7753 9.4536 46.0787 10.83 45.483 12.0035C44.9781 12.9979 43.9745 13.5562 42.9946 13.4863C42.9509 13.5996 42.908 13.7137 42.8612 13.8259C42.7341 14.1306 42.5898 14.429 42.4453 14.727C42.5362 14.7441 42.6275 14.7576 42.719 14.7672C42.7178 14.787 42.7169 14.8068 42.7173 14.827C42.7251 15.2191 42.9632 15.5522 43.6436 15.5161C44.02 15.4962 44.0847 15.0979 44.0769 14.7058C44.0764 14.6853 44.0748 14.6652 44.0727 14.6453C44.261 14.5917 44.446 14.523 44.626 14.44C44.6346 14.4575 44.6434 14.4749 44.6536 14.4917C44.8481 14.8146 45.523 14.9518 45.8442 14.7267C46.1654 14.5017 46.0114 13.9997 45.8168 13.6768C45.8068 13.6602 45.7959 13.6448 45.7848 13.6295C45.9271 13.4872 46.0603 13.3328 46.1834 13.1671C46.1993 13.1771 46.2154 13.1868 46.2325 13.1954C46.5616 13.3626 46.975 13.2091 47.1559 12.8528C47.3368 12.4965 47.2167 12.0722 46.8876 11.9051C46.8706 11.8965 46.8532 11.8892 46.8357 11.8822C46.8969 11.6851 46.943 11.4863 46.9739 11.2876C46.9928 11.2876 47.0117 11.2872 47.0309 11.2855Z" fill="#0A6167"/>
<path d="M46.5867 13.2355C46.9158 13.4025 47.3292 13.2492 47.5101 12.8928C47.691 12.5365 47.5709 12.1122 47.2418 11.9452C47.2248 11.9365 47.2074 11.9292 47.1899 11.9223C47.2511 11.7251 47.2972 11.5264 47.3281 11.3276C47.3469 11.3276 47.3659 11.3272 47.3851 11.3255C47.7605 11.2921 48.0585 10.9471 48.0506 10.555C48.0428 10.1628 47.7321 9.87209 47.3566 9.90555C47.337 9.90728 47.3177 9.91039 47.2985 9.91382C47.2594 9.7195 47.2056 9.52968 47.1378 9.34593C47.1551 9.33583 47.1723 9.3254 47.189 9.3136C47.5103 9.08859 47.6129 8.6444 47.4184 8.32155C47.2239 7.9987 46.8058 7.91942 46.4846 8.14443C46.4682 8.15594 46.4526 8.1684 46.4374 8.18104C46.3105 8.04081 46.1713 7.91082 46.0208 7.7922C46.0314 7.77486 46.0418 7.75724 46.0511 7.73882C46.232 7.3825 46.1119 6.95819 45.7828 6.79113C45.4538 6.62406 45.0404 6.77745 44.8594 7.13376C44.8501 7.15223 44.842 7.17098 44.8342 7.18974C44.6496 7.13818 44.4626 7.10256 44.2745 7.08287C44.2757 7.06304 44.2766 7.04321 44.2762 7.02309C44.2683 6.63097 43.9576 6.34022 43.5822 6.37372C43.2067 6.40718 42.9088 6.75221 42.9166 7.14429C42.9171 7.16478 42.9188 7.1848 42.9208 7.20473C42.7325 7.25839 42.5475 7.32705 42.3675 7.41004C42.3589 7.39256 42.35 7.37518 42.3399 7.35826C42.1454 7.03541 41.7273 6.95613 41.406 7.18118C41.0848 7.40624 40.9822 7.85038 41.1767 8.17324C41.1866 8.18978 41.1975 8.20524 41.2086 8.22051C41.0664 8.36276 40.9331 8.51724 40.8101 8.68294C40.7941 8.67293 40.778 8.6632 40.761 8.65455C40.4319 8.48749 40.0185 8.64088 39.8376 8.99719C39.6566 9.3535 39.7767 9.77782 40.1058 9.94488C40.1229 9.95353 40.1403 9.96081 40.1577 9.96777C40.0966 10.1649 40.0505 10.3636 40.0196 10.5624C40.0007 10.5625 39.9818 10.5628 39.9626 10.5645C39.5871 10.598 39.2891 10.943 39.297 11.3351C39.3049 11.7272 39.6156 12.0179 39.991 11.9845C40.0106 11.9827 40.03 11.9796 40.0491 11.9762C40.0883 12.1705 40.142 12.3604 40.2098 12.5441C40.1926 12.5542 40.1754 12.5646 40.1586 12.5764C39.8374 12.8014 39.7347 13.2456 39.9292 13.5685C40.1237 13.8913 40.5418 13.9706 40.863 13.7456C40.8795 13.734 40.895 13.7216 40.9103 13.709C41.0371 13.8492 41.1763 13.9792 41.3268 14.0978C41.3162 14.1151 41.3059 14.1327 41.2965 14.1512C41.1156 14.5075 41.2357 14.9318 41.5647 15.0989C41.8938 15.2659 42.3073 15.1125 42.4881 14.7562C42.4975 14.7378 42.5056 14.719 42.5134 14.7003C42.698 14.7518 42.885 14.7874 43.0731 14.8071C43.072 14.8269 43.0711 14.8467 43.0714 14.8668C43.0793 15.259 43.39 15.5497 43.7655 15.5162C44.1409 15.4828 44.4389 15.1377 44.431 14.7456C44.4306 14.7252 44.4289 14.7051 44.4269 14.6852C44.6152 14.6315 44.8001 14.5629 44.9802 14.4799C44.9887 14.4974 44.9976 14.5148 45.0078 14.5316C45.2023 14.8545 45.6204 14.9338 45.9416 14.7088C46.2628 14.4837 46.3655 14.0396 46.171 13.7167C46.161 13.7002 46.1501 13.6847 46.139 13.6695C46.2813 13.5272 46.4145 13.3728 46.5376 13.207C46.5535 13.2171 46.5697 13.2268 46.5867 13.2355ZM42.4846 13.2876C41.2898 12.6809 40.8537 11.1404 41.5105 9.84671C42.1674 8.553 43.6684 7.99602 44.8632 8.60262C46.0579 9.20923 46.494 10.7498 45.8372 12.0435C45.1804 13.3372 43.6793 13.8942 42.4846 13.2876Z" fill="url(#paint23_linear_71_1368)"/>
<defs>
<linearGradient id="paint0_linear_71_1368" x1="43.4059" y1="36.6067" x2="13.0898" y2="36.6067" gradientUnits="userSpaceOnUse">
<stop stop-color="#D3FFFD"/>
<stop offset="1" stop-color="#19A3AE"/>
</linearGradient>
<linearGradient id="paint1_linear_71_1368" x1="23.1016" y1="20.5732" x2="23.1016" y2="62.3383" gradientUnits="userSpaceOnUse">
<stop stop-color="#13AEBA"/>
<stop offset="1" stop-color="#094F54"/>
</linearGradient>
<linearGradient id="paint2_linear_71_1368" x1="6.69139" y1="48.6639" x2="58.8165" y2="48.6639" gradientUnits="userSpaceOnUse">
<stop stop-color="#96888E"/>
<stop offset="1" stop-color="#706369"/>
</linearGradient>
<linearGradient id="paint3_linear_71_1368" x1="33.7279" y1="30.8672" x2="33.7279" y2="65.7756" gradientUnits="userSpaceOnUse">
<stop stop-color="#CDFFFC"/>
<stop offset="1" stop-color="#7B9997"/>
</linearGradient>
<linearGradient id="paint4_linear_71_1368" x1="8.56641" y1="68.7045" x2="86.0013" y2="68.7045" gradientUnits="userSpaceOnUse">
<stop stop-color="#AEF9FF"/>
<stop offset="1" stop-color="#689599"/>
</linearGradient>
<linearGradient id="paint5_linear_71_1368" x1="2.78326" y1="58.6713" x2="31.336" y2="58.6713" gradientUnits="userSpaceOnUse">
<stop stop-color="#5D535A"/>
<stop offset="1" stop-color="#464143"/>
</linearGradient>
<linearGradient id="paint6_linear_71_1368" x1="42.2898" y1="21.1602" x2="42.2898" y2="56.7166" gradientUnits="userSpaceOnUse">
<stop stop-color="#0B5E65"/>
<stop offset="1" stop-color="#15BDCB"/>
</linearGradient>
<linearGradient id="paint7_linear_71_1368" x1="42.3396" y1="22.1836" x2="42.3396" y2="55.7247" gradientUnits="userSpaceOnUse">
<stop stop-color="#17BDCC"/>
<stop offset="1" stop-color="#0A757E"/>
</linearGradient>
<linearGradient id="paint8_linear_71_1368" x1="74.9039" y1="43.8076" x2="11.6191" y2="43.8076" gradientUnits="userSpaceOnUse">
<stop stop-color="#09D1C7"/>
<stop offset="1" stop-color="#15919B"/>
</linearGradient>
<linearGradient id="paint9_linear_71_1368" x1="80.6917" y1="29.9945" x2="66.0293" y2="29.9945" gradientUnits="userSpaceOnUse">
<stop stop-color="#09D1C7"/>
<stop offset="1" stop-color="#15919B"/>
</linearGradient>
<linearGradient id="paint10_linear_71_1368" x1="58.9318" y1="28.7324" x2="64.0802" y2="33.6376" gradientUnits="userSpaceOnUse">
<stop stop-color="#CBAF85"/>
<stop offset="1" stop-color="#BA7C44"/>
</linearGradient>
<linearGradient id="paint11_linear_71_1368" x1="78.0891" y1="73.7564" x2="78.0891" y2="71.9892" gradientUnits="userSpaceOnUse">
<stop stop-color="#CBAF85"/>
<stop offset="1" stop-color="#BA7C44"/>
</linearGradient>
<linearGradient id="paint12_linear_71_1368" x1="69.291" y1="75.1171" x2="70.5385" y2="75.1171" gradientUnits="userSpaceOnUse">
<stop stop-color="#3B3138"/>
<stop offset="1" stop-color="#241F21"/>
</linearGradient>
<linearGradient id="paint13_linear_71_1368" x1="69.8506" y1="74.5373" x2="69.8506" y2="72.5077" gradientUnits="userSpaceOnUse">
<stop stop-color="#CBAF85"/>
<stop offset="1" stop-color="#BA7C44"/>
</linearGradient>
<linearGradient id="paint14_linear_71_1368" x1="72.6095" y1="50.5557" x2="72.6095" y2="73.42" gradientUnits="userSpaceOnUse">
<stop/>
<stop offset="1" stop-color="#575757"/>
</linearGradient>
<linearGradient id="paint15_linear_71_1368" x1="77.6992" y1="74.2475" x2="78.7273" y2="74.2475" gradientUnits="userSpaceOnUse">
<stop stop-color="#3B3138"/>
<stop offset="1" stop-color="#241F21"/>
</linearGradient>
<linearGradient id="paint16_linear_71_1368" x1="77.7148" y1="73.8691" x2="78.875" y2="73.8691" gradientUnits="userSpaceOnUse">
<stop stop-color="#5D535A"/>
<stop offset="1" stop-color="#464143"/>
</linearGradient>
<linearGradient id="paint17_linear_71_1368" x1="69.2402" y1="74.8238" x2="70.4932" y2="74.8238" gradientUnits="userSpaceOnUse">
<stop stop-color="#5D535A"/>
<stop offset="1" stop-color="#464143"/>
</linearGradient>
<linearGradient id="paint18_linear_71_1368" x1="74.7129" y1="38.1836" x2="72.8567" y2="41.1862" gradientUnits="userSpaceOnUse">
<stop stop-color="#CBAF85"/>
<stop offset="1" stop-color="#BA7C44"/>
</linearGradient>
<linearGradient id="paint19_linear_71_1368" x1="73.5312" y1="38.2654" x2="76.314" y2="38.2654" gradientUnits="userSpaceOnUse">
<stop stop-color="#3B3138"/>
<stop offset="1" stop-color="#241F21"/>
</linearGradient>
<linearGradient id="paint20_linear_71_1368" x1="74.0485" y1="37.777" x2="72.9892" y2="41.0245" gradientUnits="userSpaceOnUse">
<stop stop-color="#CBAF85"/>
<stop offset="1" stop-color="#BA7C44"/>
</linearGradient>
<linearGradient id="paint21_linear_71_1368" x1="75.9382" y1="47.8797" x2="74.478" y2="53.6855" gradientUnits="userSpaceOnUse">
<stop stop-color="#CBAF85"/>
<stop offset="1" stop-color="#BA7C44"/>
</linearGradient>
<linearGradient id="paint22_linear_71_1368" x1="67.758" y1="14.8299" x2="50.9238" y2="14.8299" gradientUnits="userSpaceOnUse">
<stop stop-color="#09D1C7"/>
<stop offset="1" stop-color="#15919B"/>
</linearGradient>
<linearGradient id="paint23_linear_71_1368" x1="48.0508" y1="10.945" x2="39.2969" y2="10.945" gradientUnits="userSpaceOnUse">
<stop stop-color="#09D1C7"/>
<stop offset="1" stop-color="#15919B"/>
</linearGradient>
</defs>
</svg>
