<svg width="37" height="33" viewBox="0 0 37 33" fill="none" xmlns="http://www.w3.org/2000/svg">
<path fill-rule="evenodd" clip-rule="evenodd" d="M28.0079 1.02242C22.0506 2.00066 19.7128 9.39135 24.0406 13.5647C27.9512 17.3355 34.5188 15.7216 36.1597 10.5864C37.8328 5.35027 33.3906 0.138457 28.0079 1.02242ZM29.5203 3.69585C29.6666 3.8144 29.6954 3.91496 29.7194 4.39143L29.7476 4.94859H30.3566C31.2023 4.94859 31.5154 5.31279 31.0926 5.80481L30.916 6.01024L29.555 6.03302L28.194 6.05588V6.88895V7.72193L29.5917 7.7447C31.4188 7.77441 31.2692 7.60244 31.2692 9.67326C31.2692 11.6775 31.2655 11.6847 30.2477 11.6847H29.7315V12.1506C29.7315 12.7244 29.5581 13.0025 29.2001 13.0025C28.7977 13.0025 28.6333 12.7652 28.6333 12.1844V11.6847H28.0574C27.3669 11.6847 27.0957 11.5348 27.0957 11.1532C27.0957 10.6361 27.2449 10.5864 28.7925 10.5864H30.1709V9.70775V8.82913H28.8028C26.9461 8.82913 27.0957 9.00026 27.0957 6.87602C27.0957 4.87521 27.0609 4.94859 28.0109 4.94859H28.6333V4.43267C28.6333 3.67045 29.0556 3.31966 29.5203 3.69585ZM5.49641 4.65572C5.36295 4.78908 5.34993 4.89977 5.34993 5.9004V6.9987H4.59455C1.87557 6.9987 0.517578 8.38106 0.517578 11.149V11.9775H11.0321C21.0173 11.9775 21.5441 11.9711 21.4941 11.8493C20.8981 10.401 20.7026 9.41187 20.7415 8.04198L20.7711 6.9987H20.0216H19.2719L19.2483 8.09512C19.2217 9.33418 19.1488 9.51243 18.6683 9.51243C18.179 9.51243 18.1631 9.43643 18.1631 7.09673C18.1631 4.59143 18.1412 4.50924 17.4743 4.50924C16.993 4.50924 16.9183 4.69911 16.9183 5.92337L16.9184 6.9987H16.1496H15.3808V8.05042C15.3808 9.3414 15.1611 9.76145 14.6331 9.4802C14.2907 9.29782 14.2874 9.27373 14.2848 7.02682C14.2821 4.5486 14.2724 4.50924 13.6602 4.50924C13.1111 4.50924 13.0378 4.67859 13.0378 5.94689V6.9987H12.269H11.5002V8.05435C11.5002 9.34468 11.3471 9.68525 10.8395 9.52415C10.4206 9.39116 10.4019 9.28226 10.4019 6.96496V4.8276L10.2325 4.66847C10.018 4.46688 9.60346 4.4576 9.36673 4.64907C9.20103 4.78308 9.19288 4.83463 9.17029 5.89375L9.14668 6.9987H8.42513H7.70349L7.67988 8.09512C7.65326 9.33418 7.58025 9.51243 7.09985 9.51243C6.61204 9.51243 6.59461 9.43081 6.59461 7.1479C6.59461 5.05384 6.556 4.71851 6.29883 4.58093C6.06969 4.45825 5.65517 4.49687 5.49641 4.65572ZM0.517578 22.887V32.6982H13.6602H26.8028V24.546V16.3938L26.4917 16.3021C25.135 15.9026 22.9752 14.3344 22.3695 13.309L22.2317 13.0757H11.3747H0.517578V22.887ZM12.1362 16.3101C12.447 16.6021 12.2877 17.1051 11.8499 17.2135C11.7583 17.2362 10.239 17.2453 8.47359 17.2337L5.26389 17.2126L5.08189 17.0009C4.87196 16.7567 4.89408 16.4884 5.14149 16.2791C5.40466 16.0564 11.8968 16.0852 12.1362 16.3101ZM19.6221 16.3438C19.8613 16.6478 19.8551 19.3865 19.6147 19.6424C19.1502 20.1368 18.6757 19.7319 18.6757 18.8411C18.6757 18.2852 18.6689 18.2613 18.5405 18.3568C18.4662 18.4121 18.1779 18.6307 17.8999 18.8427C16.4665 19.9356 14.2129 20.7432 12.1227 20.9129C10.4564 21.0482 9.52286 21.5151 8.82916 22.5602C8.37312 23.2473 7.53433 23.0893 7.71961 22.3513C8.02833 21.1213 9.97487 19.9831 12.0591 19.8139C14.2878 19.6329 16.3676 18.8245 17.7657 17.5958L18.1184 17.2858L17.2641 17.2492C16.2923 17.2075 16.0885 17.1048 16.0885 16.6561C16.0885 16.188 16.2249 16.1509 17.9462 16.1509H19.4704L19.6221 16.3438ZM22.077 16.1964C22.4122 16.3251 22.4097 16.2743 22.4097 22.909C22.4097 29.3655 22.4019 29.5437 22.1139 29.6978C21.8093 29.8608 5.36867 29.7882 5.20354 29.6231C4.96549 29.3851 4.98311 29.0739 5.24796 28.8359C5.42078 28.6806 5.49397 28.6713 6.52554 28.6713H7.61971V27.473C7.61971 26.0917 7.69 25.8889 8.16881 25.8889C8.64762 25.8889 8.71801 26.0917 8.71801 27.473V28.6713H9.99633H11.2747L11.2959 26.3724C11.3198 23.791 11.3251 23.7656 11.8411 23.7656C12.3774 23.7656 12.3789 23.773 12.3789 26.3648V28.6713H13.6968H15.0147V26.032V23.3928L15.1945 23.2131C15.4314 22.9762 15.6378 22.9863 15.899 23.2474L16.113 23.4615V26.0663V28.6713H17.3923H18.6715L18.6919 25.1502L18.7122 21.6293L18.885 21.4894C19.1202 21.299 19.3787 21.3136 19.5942 21.5291L19.7739 21.7089V25.1901V28.6713H20.5426H21.3115V22.5805V16.4898L21.4707 16.3204C21.6281 16.1528 21.8468 16.1081 22.077 16.1964ZM9.49316 18.443C9.70955 18.6948 9.71555 18.8552 9.51808 19.1064L9.36626 19.2993H7.40069C6.31964 19.2993 5.38179 19.2788 5.31656 19.2538C5.09623 19.1693 4.96483 18.8097 5.07242 18.5855C5.2488 18.2174 5.37457 18.1979 7.42477 18.2186L9.31659 18.2376L9.49316 18.443ZM30.7411 21.1846L29.7372 23.07L31.7222 23.0895C32.814 23.1002 33.7224 23.094 33.7407 23.0757C33.773 23.0434 31.9938 19.6355 31.8271 19.4101C31.7607 19.3204 31.5528 19.6603 30.7411 21.1846ZM29.7315 26.2867C29.7315 26.3671 31.7274 30.0621 31.7699 30.0606C31.8246 30.0587 33.709 26.5328 33.7456 26.364C33.7661 26.2696 33.4994 26.255 31.7504 26.255C30.64 26.255 29.7315 26.2692 29.7315 26.2867Z" fill="url(#paint0_linear_163_1933)"/>
<defs>
<linearGradient id="paint0_linear_163_1933" x1="36.5176" y1="16.811" x2="0.517578" y2="16.811" gradientUnits="userSpaceOnUse">
<stop stop-color="#09D1C7"/>
<stop offset="1" stop-color="#15919B"/>
</linearGradient>
</defs>
</svg>
