<svg width="41" height="38" viewBox="0 0 41 38" fill="none" xmlns="http://www.w3.org/2000/svg">
<path fill-rule="evenodd" clip-rule="evenodd" d="M8.76029 0.84398L8.76009 1.64196L8.19581 1.77959C7.88557 1.85524 7.24625 2.10817 6.77515 2.34158L5.91877 2.76603L5.37233 2.22388L4.82589 1.68173L3.71777 2.79185C2.42318 4.08873 2.48028 3.9213 3.11492 4.56092L3.6201 5.06999L3.23073 5.84754C3.01645 6.27518 2.76282 6.91381 2.66704 7.2668L2.49294 7.90852L1.73372 7.90912L0.974609 7.90971V9.50588V11.1019H1.74489H2.51506L2.6504 11.6542C2.72485 11.9578 2.9729 12.5797 3.20172 13.0362L3.61781 13.866L3.11372 14.374C2.48038 15.0123 2.42328 14.8452 3.71777 16.142L4.82589 17.2521L5.38738 16.6943C5.81542 16.2691 5.97308 16.1563 6.05062 16.2197C6.30844 16.4305 7.47188 16.9526 8.06496 17.1237L8.72172 17.3132L8.74385 18.1006L8.76607 18.8879H10.3594H11.9529V18.0704C11.9529 17.3105 11.9636 17.2529 12.1054 17.2529C12.3594 17.2529 13.7127 16.7395 14.2308 16.4467L14.7169 16.1719L15.2822 16.7307L15.8475 17.2896L16.9946 16.1424L18.1417 14.9953L17.5889 14.4425L17.0361 13.8896L17.4418 13.0913C17.6649 12.6522 17.9169 12.0338 18.0019 11.7169L18.1564 11.1409L18.9476 11.1187L19.7388 11.0966L19.7389 9.50309V7.90971H18.9657H18.1927L18.0661 7.46204C17.864 6.74777 17.5783 6.03869 17.2895 5.535L17.0218 5.06779L17.5811 4.50252L18.1404 3.93724L16.9939 2.79075L15.8475 1.64425L15.2741 2.21391L14.7007 2.78347L14.3195 2.54897C13.8576 2.26494 12.8906 1.87068 12.3494 1.74571L11.9529 1.65422V0.850059V0.0458984H10.3568H8.76059L8.76029 0.84398ZM11.8361 3.59342C17.2296 5.04916 18.0133 12.3766 13.0429 14.878C8.24226 17.294 2.89447 12.6509 4.59627 7.54416C5.58052 4.59042 8.87321 2.79364 11.8361 3.59342ZM28.7437 3.92548C28.6729 4.00382 28.6149 4.17902 28.6149 4.31486V4.56172H27.258H25.9011L25.7397 4.76692C25.531 5.03221 25.5046 6.73721 25.6977 7.47878C26.0428 8.80377 27.1376 9.80346 28.4887 10.0274C28.9601 10.1055 28.9965 10.1272 29.1664 10.4307C29.6018 11.209 30.6159 12.0409 31.4481 12.3026L31.885 12.4401V13.6677V14.8953L31.4626 14.9389C30.3973 15.0489 29.5987 15.7869 29.4887 16.7632L29.4511 17.0971L32.8481 17.0972C36.6985 17.0972 36.3505 17.1688 36.1287 16.4219C35.8961 15.6386 35.153 15.051 34.2627 14.9463L33.8315 14.8956V13.6711V12.4465L34.2929 12.2782C35.1854 11.9528 35.9785 11.3041 36.4796 10.4897C36.7005 10.1306 36.7271 10.114 37.2261 10.022C38.3243 9.81971 39.2587 9.11162 39.7538 8.10644L40.0213 7.56349L40.0471 6.22465C40.0813 4.4482 40.192 4.56172 38.4253 4.56172H37.1016V4.32821C37.1016 3.76374 37.2534 3.78317 32.8314 3.78317C29.095 3.78317 28.8653 3.79114 28.7437 3.92548ZM9.28032 4.68849C6.20559 5.34814 4.61441 8.59259 5.89645 11.5886C6.09038 12.0417 6.13563 12.0453 6.39365 11.6276C6.65177 11.2097 7.29837 10.5351 7.72751 10.2361L8.05689 10.0065L7.82259 9.68297C6.4092 7.73192 7.86713 4.98996 10.3178 4.98996C12.7875 4.98996 14.1972 7.5605 12.8708 9.6451C12.7403 9.8501 12.6469 10.0267 12.6631 10.0375C13.4072 10.5333 14.0492 11.1865 14.3343 11.7378C14.4942 12.0468 14.5534 12.0187 14.7888 11.5214C16.4976 7.9122 13.2178 3.84366 9.28032 4.68849ZM28.6149 7.24787C28.6149 8.8242 28.6325 8.77826 28.1251 8.52402C27.3346 8.12787 26.9697 7.51267 26.9175 6.48875L26.8829 5.80747H27.7489H28.6149V7.24787ZM38.7836 6.4456C38.6889 7.58273 38.1445 8.37712 37.2768 8.64481L37.1016 8.69883V7.25315V5.80747H37.9692H38.8368L38.7836 6.4456ZM9.57811 6.22704C7.7885 7.00888 8.23937 9.67949 10.1874 9.83585C11.9423 9.97667 12.9075 7.82012 11.6315 6.60954C11.1399 6.14313 10.1797 5.96424 9.57811 6.22704ZM9.50027 10.6666C8.43131 10.9315 7.38258 11.8486 7.11061 12.7563C7.01623 13.0712 7.01703 13.0734 7.32309 13.338C8.89045 14.6928 11.7878 14.6707 13.4287 13.2914L13.6978 13.0653L13.4086 12.48C12.6901 11.0264 11.0743 10.2767 9.50027 10.6666ZM22.7889 13.5401C22.58 13.7625 22.5642 14.2085 22.7567 14.4462C22.8662 14.5814 23.1275 14.6618 24.0566 14.8463C24.6961 14.9733 25.2268 15.085 25.236 15.0944C25.245 15.104 21.2731 17.4067 16.4092 20.2116C6.72024 25.7991 7.1723 25.5196 7.1723 25.9221C7.1723 26.4899 7.68625 26.7527 8.23897 26.4674C8.42772 26.3699 23.014 17.9617 25.512 16.5104L25.9518 16.2549L25.5681 17.3962C25.0884 18.8233 25.1544 19.1994 25.8842 19.1994C26.3318 19.1994 26.4037 19.0666 27.1691 16.825C28.1045 14.0853 28.2338 14.3146 25.4417 13.7619C23.1159 13.3014 23.0206 13.2935 22.7889 13.5401ZM30.423 19.5542L30.2499 19.6753V28.4985C30.2499 36.6069 30.2604 37.3303 30.3786 37.4285C30.6265 37.6345 34.9937 37.6235 35.2572 37.4162L35.4665 37.2516V28.498C35.4665 19.8483 35.4646 19.7425 35.3109 19.5887C35.0977 19.3756 30.722 19.3447 30.423 19.5542ZM21.9699 23.3127C21.7879 23.5138 21.7701 37.1361 21.9516 37.3842C22.0959 37.5815 26.6953 37.6224 26.9289 37.4285C27.1214 37.2688 27.1276 23.4849 26.9353 23.2926C26.7345 23.0917 22.1532 23.1101 21.9699 23.3127ZM13.6233 27.0207L13.4322 27.2119V32.202V37.1921L13.6233 37.3832L13.8144 37.5743H16.0795H18.3444L18.5356 37.3832L18.7266 37.1921V32.202V27.2119L18.5356 27.0207L18.3444 26.8297H16.0795H13.8144L13.6233 27.0207ZM5.23002 30.7093C5.04933 30.909 5.03219 37.1388 5.21168 37.3842C5.38339 37.619 10.0356 37.619 10.2073 37.3842C10.3982 37.1231 10.3684 30.8705 10.1755 30.6958C9.94715 30.4892 5.41808 30.5016 5.23002 30.7093Z" fill="url(#paint0_linear_163_1935)"/>
<defs>
<linearGradient id="paint0_linear_163_1935" x1="40.0616" y1="18.8117" x2="0.974609" y2="18.8117" gradientUnits="userSpaceOnUse">
<stop stop-color="#09D1C7"/>
<stop offset="1" stop-color="#15919B"/>
</linearGradient>
</defs>
</svg>
