<svg width="40" height="40" viewBox="0 0 40 40" fill="none" xmlns="http://www.w3.org/2000/svg">
<path fill-rule="evenodd" clip-rule="evenodd" d="M12.5543 0.682055C10.6866 1.02676 9.18793 2.38273 8.80481 4.07479L8.70311 4.5236L7.92553 4.56282C6.66534 4.6263 6.71689 4.53564 6.71689 6.68473C6.71689 8.51549 6.73415 8.57637 7.28065 8.67546C7.42306 8.70124 10.3858 8.71197 13.8646 8.69933L20.1895 8.67636L20.3681 8.49794C20.5426 8.32323 20.5465 8.28321 20.5465 6.6392C20.5465 4.52471 20.5989 4.61457 19.342 4.57576L18.494 4.54958L18.4033 4.15703C17.8558 1.78488 15.183 0.196935 12.5543 0.682055ZM14.2427 3.17225C15.0297 3.7026 14.9848 4.7953 14.1568 5.26066C13.3561 5.71068 12.3976 5.1382 12.3976 4.21019C12.3976 3.2582 13.4728 2.65333 14.2427 3.17225ZM1.21358 7.14809C0.808695 7.27005 0.446835 7.55438 0.232407 7.91925L0.0175781 8.28462V23.0545V37.8242L0.237422 38.1982C0.358276 38.4038 0.602591 38.6683 0.780211 38.7858L1.10316 38.9996L12.1459 39.0199C22.664 39.0394 23.1856 39.0338 23.1233 38.9024C23.026 38.697 22.9925 33.0135 23.082 31.8928C23.2405 29.9108 23.8683 28.3234 25.0607 26.8907L25.4371 26.4384L25.1394 26.098C24.2012 25.0255 23.5225 23.6277 23.2038 22.1119C23.0677 21.4649 22.9467 15.526 23.0499 14.5622C23.1956 13.2019 23.8517 12.7661 25.8191 12.7232L27.1741 12.6937L27.1512 10.4369L27.1283 8.18021L26.8897 7.84062C26.4021 7.14648 26.263 7.11269 23.7786 7.08521L21.6043 7.06103L21.6026 7.75115C21.6 8.80053 21.1729 9.47851 20.3617 9.72163C19.9343 9.8496 7.21626 9.851 6.78921 9.72313C5.99819 9.48614 5.54356 8.75439 5.54236 7.71655L5.54165 7.07016L3.48483 7.07688C2.35352 7.08059 1.33153 7.11259 1.21358 7.14809ZM9.93552 12.784L10.1645 13.013V18.3863V23.7596H10.9456H11.7268L11.7487 20.4226L11.7708 17.0855L11.9557 16.9357C12.1227 16.8007 12.2797 16.7861 13.568 16.7861H14.9951L15.1851 16.9882L15.375 17.1903L15.3971 20.4749L15.4192 23.7596H16.2003H16.9814V22.0323V20.3049L17.1737 20.1126C17.4742 19.8121 20.1712 19.8121 20.4717 20.1126L20.664 20.3049V22.0323V23.7596H21.5295C22.6663 23.7596 23.1218 24.1463 22.6199 24.685L22.4601 24.8565H13.582C5.22483 24.8565 4.69688 24.8485 4.58355 24.7194C4.35327 24.4572 4.34866 24.2626 4.5667 24.0035L4.772 23.7596H5.6248H6.47769L6.49936 18.3464L6.52102 12.933L6.74086 12.744C6.95519 12.5597 6.99541 12.5549 8.33363 12.5549H9.70645L9.93552 12.784ZM7.65715 18.7449V23.7596H8.3232H8.98925V18.7449V13.7303H8.3232H7.65715V18.7449ZM24.3823 14.0793C24.1957 14.2658 24.19 14.3057 24.19 15.4113V16.551H31.5944H38.9989V15.4969C38.9989 14.3644 38.9386 14.1128 38.6341 13.974C38.4987 13.9123 36.424 13.8869 31.5089 13.8869H24.5746L24.3823 14.0793ZM24.2092 19.6655C24.2633 22.9782 24.9481 24.6827 26.8394 26.212L27.0991 26.4219L26.4476 27.0692C24.6977 28.8076 24.19 30.2684 24.19 33.5641V35.3561H31.6037H39.0173L38.9776 33.2993C38.9139 30.0029 38.173 28.0911 36.422 26.7047L36.0346 26.398L36.4653 26.0434C38.238 24.584 38.9176 22.8387 38.9793 19.5872L39.0176 17.5696H31.5962H24.1749L24.2092 19.6655ZM12.9069 20.8213V23.7596H13.573H14.2389V20.8213V17.883H13.573H12.9069V20.8213ZM18.1567 22.4276V23.7596H18.8226H19.4887V22.4276V21.0955H18.8226H18.1567V22.4276ZM22.6656 27.3995C22.9081 27.642 22.909 27.8442 22.6688 28.1235L22.4798 28.3434L13.7169 28.3623C6.7522 28.3775 4.91371 28.3609 4.75806 28.2817C4.33001 28.0639 4.30122 27.4959 4.70821 27.2988C4.82024 27.2446 7.78522 27.2161 13.6745 27.2125L22.4733 27.2072L22.6656 27.3995ZM22.6656 30.9255C22.9081 31.168 22.909 31.3702 22.6688 31.6494L22.4798 31.8693L13.685 31.8898C4.16743 31.9122 4.66729 31.9328 4.44083 31.5096C4.3277 31.2982 4.4653 30.9422 4.7049 30.8263C4.82114 30.7701 7.68212 30.7421 13.6745 30.7385L22.4733 30.7332L22.6656 30.9255ZM22.6656 34.4514C22.9081 34.694 22.909 34.8961 22.6688 35.1754L22.4798 35.3952H13.6211C4.86487 35.3952 4.76067 35.3934 4.61173 35.2385C4.33713 34.953 4.33131 34.7522 4.58987 34.4936L4.82435 34.2591H13.6488H22.4733L22.6656 34.4514ZM24.19 37.5456C24.19 38.5048 24.2002 38.5718 24.379 38.7797L24.5682 38.9996H31.5855H38.6029L38.7813 38.8213C38.9464 38.6565 38.9617 38.5636 38.9854 37.5872L39.0111 36.5314H31.6006H24.19V37.5456Z" fill="url(#paint0_linear_163_1940)"/>
<defs>
<linearGradient id="paint0_linear_163_1940" x1="39.0176" y1="19.8115" x2="0.0175781" y2="19.8115" gradientUnits="userSpaceOnUse">
<stop stop-color="#09D1C7"/>
<stop offset="1" stop-color="#15919B"/>
</linearGradient>
</defs>
</svg>
