<svg width="29" height="29" viewBox="0 0 29 29" fill="none" xmlns="http://www.w3.org/2000/svg">
<path fill-rule="evenodd" clip-rule="evenodd" d="M18.8334 0.856611C13.9006 1.36554 10.2133 5.57853 10.5645 10.3045L10.6047 10.846L13.9411 10.8686C18.0043 10.896 18.291 10.9495 19.5696 11.9198C21.0414 13.0367 21.476 14.1741 21.4774 16.9138L21.4784 18.6418L21.6806 18.603C24.3397 18.0917 27.038 15.6527 28.0124 12.8795C30.1638 6.75699 25.1607 0.203832 18.8334 0.856611ZM21.0427 4.05317C21.4754 4.36344 21.4781 4.37884 21.48 6.48429L21.4818 8.39173L22.852 9.53238C24.3244 10.7582 24.4651 10.9168 24.4651 11.3524C24.4651 12.0248 23.7096 12.5166 23.139 12.2156C22.8391 12.0575 19.787 9.45571 19.6872 9.27316C19.5743 9.06645 19.4876 5.39 19.5807 4.75613C19.6818 4.06841 20.5092 3.67061 21.0427 4.05317ZM7.0808 12.8544C5.53102 13.0812 4.55671 14.4056 4.55193 16.292L4.55073 16.7751L4.0684 16.7763C2.1717 16.7812 0.879069 17.742 0.631727 19.3306C0.103983 22.7203 1.46265 24.8156 4.18844 24.8156H4.92035L5.13766 25.2867C5.88455 26.9057 7.32543 28.1307 9.06448 28.6252C9.6687 28.797 13.6267 28.8811 14.5082 28.7408C16.9467 28.3528 18.9861 26.3557 19.461 23.8908C19.6139 23.0971 19.5884 15.4167 19.4312 14.9109C19.103 13.8549 18.1132 13.0086 17.0217 12.8505C16.4962 12.7744 7.60352 12.7779 7.0808 12.8544ZM4.55073 20.8018V22.7715L4.03263 22.7496C2.99419 22.7056 2.66599 22.2734 2.63054 20.9036C2.58577 19.1709 2.80348 18.8511 4.03725 18.8376L4.55073 18.832V20.8018Z" fill="url(#paint0_linear_542_49150)"/>
<defs>
<linearGradient id="paint0_linear_542_49150" x1="28.5195" y1="14.8115" x2="0.519531" y2="14.8115" gradientUnits="userSpaceOnUse">
<stop stop-color="#09D1C7"/>
<stop offset="1" stop-color="#15919B"/>
</linearGradient>
</defs>
</svg>
