<svg width="29" height="29" viewBox="0 0 29 29" fill="none" xmlns="http://www.w3.org/2000/svg">
<path d="M21.5198 2.68737C23.6314 3.90657 25.388 5.65611 26.6156 7.76279C27.8432 9.86948 28.4994 12.2603 28.5191 14.6984C28.5388 17.1366 27.9213 19.5377 26.7279 21.6639C25.5344 23.7902 23.8064 25.5679 21.7147 26.821C19.6231 28.0742 17.2405 28.7593 14.8026 28.8087C12.3648 28.858 9.95642 28.2698 7.8158 27.1023C5.67518 25.9348 3.87659 24.2285 2.59809 22.1523C1.31959 20.0761 0.605505 17.702 0.526531 15.265L0.519531 14.8114L0.526531 14.3578C0.604937 11.94 1.30851 9.58372 2.56865 7.51876C3.8288 5.45381 5.60251 3.75061 7.71687 2.57521C9.83123 1.39981 12.2141 0.792328 14.6331 0.811986C17.0521 0.831643 19.4248 1.47777 21.5198 2.68737ZM14.5197 6.41137C14.1768 6.41142 13.8458 6.53731 13.5896 6.76517C13.3333 6.99304 13.1696 7.30702 13.1295 7.64757L13.1197 7.81137V14.8114L13.1323 14.9948C13.1642 15.2377 13.2593 15.4679 13.4081 15.6626L13.5299 15.8026L17.7299 20.0026L17.8615 20.1174C18.1071 20.3079 18.409 20.4113 18.7198 20.4113C19.0305 20.4113 19.3324 20.3079 19.578 20.1174L19.7096 20.0012L19.8258 19.8696C20.0163 19.624 20.1197 19.3221 20.1197 19.0114C20.1197 18.7006 20.0163 18.3987 19.8258 18.1532L19.7096 18.0216L15.9197 14.2304V7.81137L15.9099 7.64757C15.8698 7.30702 15.7061 6.99304 15.4498 6.76517C15.1936 6.53731 14.8626 6.41142 14.5197 6.41137Z" fill="url(#paint0_linear_542_49127)"/>
<defs>
<linearGradient id="paint0_linear_542_49127" x1="28.5195" y1="14.8115" x2="0.519531" y2="14.8115" gradientUnits="userSpaceOnUse">
<stop stop-color="#09D1C7"/>
<stop offset="1" stop-color="#15919B"/>
</linearGradient>
</defs>
</svg>
