<svg width="29" height="26" viewBox="0 0 29 26" fill="none" xmlns="http://www.w3.org/2000/svg">
<path fill-rule="evenodd" clip-rule="evenodd" d="M2.16028 0.55147C1.82912 1.35724 1.86862 1.31146 1.2896 1.56081L0.75132 1.79258L1.13585 1.95738C1.8061 2.24475 1.82417 2.26067 2.03722 2.75375C2.29992 3.36172 2.28137 3.35768 2.49046 2.85289C2.729 2.277 2.77882 2.22586 3.29986 2.02147C3.84622 1.8071 3.84647 1.79374 3.30852 1.57879C2.75226 1.35641 2.75721 1.36112 2.5458 0.849974C2.30834 0.275897 2.28194 0.255441 2.16028 0.55147ZM11.4762 0.650202C6.22319 1.24267 1.82466 5.23564 0.782828 10.3575C-0.984767 19.0471 6.40738 26.6025 15.1653 25.0575L15.6003 24.9808V24.3363C15.6003 23.7645 15.6185 23.6607 15.7619 23.416L15.9236 23.1401L15.7582 22.8964C15.6673 22.7625 15.5851 22.645 15.5755 22.6354C15.566 22.6259 15.2974 22.6749 14.9788 22.7445C5.64615 24.7814 -0.944269 13.7 5.249 6.38462C9.31743 1.57903 17.3151 1.81444 20.8521 6.84388C21.0252 7.09 21.1416 7.1988 21.2065 7.17513C21.4531 7.08522 22.8703 7.08093 23.3169 7.16886C23.8834 7.28029 23.8823 7.28499 23.4584 6.57185C21.0288 2.48387 16.2329 0.113737 11.4762 0.650202ZM11.6051 3.52256C7.03837 4.26829 3.42473 8.13918 3.42152 12.2886L3.42127 12.6247L4.10629 12.643C4.88789 12.6639 5.0757 12.7687 4.86661 13.0671C4.77481 13.1982 4.71517 13.2091 4.08468 13.2091H3.40222L3.43942 13.7729C3.73 18.1797 7.51124 21.9887 11.9499 22.346L12.5717 22.3961V21.7048C12.5717 21.0653 12.5822 21.0061 12.7136 20.9141C13.0145 20.7034 13.1169 20.8916 13.1374 21.693L13.1556 22.3967L13.7496 22.3468C14.0764 22.3194 14.6234 22.2347 14.9652 22.1584L15.5867 22.02L15.6109 21.5922C15.6286 21.2796 15.6741 21.1097 15.7799 20.9611L15.9248 20.7576L15.7625 20.5185C15.6137 20.2991 15.6003 20.2213 15.6003 19.5763C15.6003 18.2586 15.8913 18.042 17.6617 18.042H18.7607L18.189 17.4782C15.054 14.3864 16.0267 9.08657 20.0094 7.55958C20.2602 7.4634 20.477 7.3763 20.4911 7.36607C20.549 7.32409 20.1174 6.7849 19.6309 6.29158C18.0613 4.69975 15.844 3.65058 13.7328 3.50071L13.1562 3.4598L13.1378 4.1543C13.1168 4.94604 13.0132 5.13394 12.7136 4.9241C12.5827 4.83238 12.5717 4.77234 12.5717 4.15174V3.47877L12.1689 3.48751C11.9474 3.49238 11.6937 3.50813 11.6051 3.52256ZM26.5238 4.87041C26.2331 5.55419 26.2317 5.55567 25.7001 5.76435C25.0932 6.00248 25.0926 5.97748 25.7112 6.23747L26.219 6.45077L26.4192 6.89848C26.5293 7.14477 26.6194 7.37498 26.6194 7.41012C26.6194 7.59702 26.7551 7.42257 26.9081 7.03903C27.1307 6.48087 27.1767 6.43402 27.716 6.21693C28.2692 5.99423 28.2693 5.98837 27.7224 5.77375C27.1964 5.56738 27.1365 5.50758 26.909 4.96089C26.8132 4.73052 26.7237 4.53025 26.7101 4.51598C26.6966 4.50171 26.6127 4.66115 26.5238 4.87041ZM13.3631 6.85386C14.007 7.12943 14.0537 7.31997 14.0537 9.67343V11.6712L14.2136 11.8807C14.9567 12.8549 14.4037 14.3796 13.2303 14.5921C13.0234 14.6295 12.7208 14.904 11.0251 16.5928C9.94413 17.6693 8.9781 18.5807 8.8783 18.6182C8.01166 18.944 7.01181 18.0241 7.29043 17.1573C7.35015 16.9715 7.81329 16.4671 9.26126 15.011C11.0365 13.2258 11.154 13.0933 11.154 12.8765C11.154 12.5766 11.3082 12.1448 11.5096 11.8807L11.6695 11.6712L11.6706 9.62089C11.6716 7.61863 11.675 7.56469 11.8156 7.31774C12.0852 6.84388 12.8229 6.62274 13.3631 6.85386ZM12.4193 7.47866L12.2494 7.6122V9.47292V11.3336L12.4496 11.2639C12.5647 11.2238 12.8249 11.2105 13.0618 11.2326L13.4738 11.271V9.44166V7.6122L13.304 7.47866C13.193 7.39131 13.0399 7.34512 12.8616 7.34512C12.6835 7.34512 12.5302 7.39131 12.4193 7.47866ZM21.2709 7.76405C16.4741 8.73338 15.2769 15.0891 19.3942 17.7272L19.8855 18.042H22.3034H24.7214L25.1388 17.8016C26.1107 17.242 27.1126 15.9947 27.4818 14.8845C28.8099 10.8922 25.3605 6.93766 21.2709 7.76405ZM23.4122 8.9273C26.0803 9.61619 27.4191 12.6393 26.1503 15.11C24.53 18.265 19.9989 18.1892 18.4367 14.9812C16.8396 11.7015 19.8711 8.01298 23.4122 8.9273ZM21.7188 9.40768C18.7169 9.87848 17.5249 13.6024 19.685 15.7614C22.0253 18.1007 26.0442 16.4726 26.0647 13.1769C26.0795 10.8104 24.042 9.04327 21.7188 9.40768ZM22.5615 10.4415C22.596 10.5059 22.6242 10.6554 22.6242 10.7737C22.6242 10.9548 22.6611 11.0087 22.8573 11.1144C23.3128 11.3597 23.6213 12.0137 23.4184 12.3035C23.227 12.5766 23.0216 12.459 22.8907 12.0012C22.6902 11.2998 21.7543 11.4292 21.7543 12.1583C21.7543 12.4983 21.9131 12.667 22.2905 12.7274C22.7552 12.8019 22.8179 12.8267 23.0451 13.0263C23.7232 13.6216 23.5584 14.7256 22.7534 14.9811C22.6487 15.0142 22.6242 15.0784 22.6242 15.3188C22.6242 15.5044 22.5843 15.6595 22.5176 15.7332C22.2836 15.9917 22.0442 15.7919 22.0442 15.338C22.0442 15.0693 22.0246 15.0224 21.8989 14.9909C21.4245 14.8718 20.9691 13.956 21.2651 13.7164C21.4651 13.5545 21.6673 13.6723 21.7319 13.9884C21.8514 14.5724 22.6265 14.6875 22.8493 14.1544C23.033 13.7147 22.7981 13.3862 22.2475 13.3131C21.0505 13.1544 20.762 11.5336 21.8506 11.0827C22.0236 11.011 22.0442 10.9728 22.0442 10.724C22.0442 10.3032 22.3872 10.1159 22.5615 10.4415ZM12.3283 11.9279C11.7739 12.2023 11.5761 12.8897 11.8838 13.4728C12.4137 14.4774 13.9842 14.0837 13.9882 12.9453C13.9914 12.0755 13.1151 11.5384 12.3283 11.9279ZM9.55754 15.5477C7.61896 17.4909 7.63785 17.4626 8.00316 17.8787C8.44362 18.3803 8.47991 18.358 10.4907 16.352C12.4745 14.3731 12.3229 14.5668 12.0171 14.4021C11.8893 14.3333 11.6908 14.1671 11.576 14.033C11.4611 13.8988 11.3547 13.7891 11.3396 13.7891C11.3244 13.7891 10.5225 14.5805 9.55754 15.5477ZM16.5025 18.6677C16.2205 18.7714 16.1803 18.8794 16.1803 19.5341C16.1803 20.5965 15.5345 20.5002 22.5063 20.4772L28.1556 20.4585L28.3218 20.3023C28.6302 20.0125 28.5623 18.8902 28.2258 18.7162C28.0424 18.6214 16.7554 18.5747 16.5025 18.6677ZM16.3091 21.1996C16.1975 21.3111 16.1803 21.4144 16.1803 21.9682C16.1803 22.9862 15.442 22.8801 22.382 22.8599L28.2418 22.8427L28.365 22.6906C28.5634 22.4455 28.5452 21.4045 28.339 21.2108L28.1899 21.0707H22.3139C16.5239 21.0707 16.4361 21.0726 16.3091 21.1996ZM2.54778 22.792C2.30924 23.3679 2.25943 23.419 1.73839 23.6234C1.18963 23.8388 1.18988 23.8535 1.74672 24.0719C2.27551 24.2794 2.27963 24.2835 2.51421 24.8395C2.74046 25.3759 2.76224 25.3741 3.00185 24.7996L3.1984 24.3282L3.74072 24.0894L4.28296 23.8506L3.90041 23.6866C3.23247 23.4003 3.21399 23.384 3.00102 22.8911C2.73832 22.2832 2.75688 22.2872 2.54778 22.792ZM16.35 23.5884C16.1039 23.7821 16.0889 24.8931 16.3294 25.1191L16.4785 25.2592H22.3251H28.1718L28.33 25.1011C28.4747 24.9563 28.4881 24.8931 28.4881 24.3571C28.4881 23.821 28.4747 23.7579 28.33 23.6131L28.1718 23.4549H22.3458C16.5494 23.4549 16.519 23.4556 16.35 23.5884Z" fill="url(#paint0_linear_542_49161)"/>
<defs>
<linearGradient id="paint0_linear_542_49161" x1="28.5195" y1="12.8113" x2="0.519531" y2="12.8113" gradientUnits="userSpaceOnUse">
<stop stop-color="#09D1C7"/>
<stop offset="1" stop-color="#15919B"/>
</linearGradient>
</defs>
</svg>
