<svg width="30" height="26" viewBox="0 0 30 26" fill="none" xmlns="http://www.w3.org/2000/svg">
<path fill-rule="evenodd" clip-rule="evenodd" d="M16.0096 0.3861C13.6697 0.630604 11.1515 1.73779 9.47285 3.26013L9.20792 3.50042L11.0346 5.32758C12.0394 6.33258 12.8857 7.15483 12.9155 7.15483C12.9452 7.15483 13.138 7.02821 13.3439 6.87348C14.2945 6.15907 15.4787 5.70246 16.6871 5.58442L16.8426 5.56922L16.8588 2.94208L16.875 0.315025L16.7033 0.323223C16.6088 0.32776 16.2967 0.356094 16.0096 0.3861ZM17.6822 2.94702V5.58244L18.1019 5.62271C18.3329 5.64483 18.6757 5.70493 18.8638 5.75626C19.2838 5.87087 19.1892 5.97951 19.9728 4.48352C20.7373 3.02398 21.0462 2.78004 21.5244 3.25782C21.7975 3.53066 21.7739 3.72542 21.291 5.18663C21.0456 5.92921 20.8539 6.56085 20.865 6.5903C20.8914 6.66065 21.5201 7.15483 21.5833 7.15483C21.6102 7.15483 22.4576 6.3278 23.4664 5.31692L25.3007 3.47901L25.052 3.26228C23.1156 1.57503 20.755 0.585555 18.1019 0.348931L17.6822 0.311523V2.94702ZM8.2911 4.45893C7.55092 5.32878 6.82332 6.5154 6.39583 7.54977C6.13035 8.1923 6.12541 8.17288 6.52153 8.04808C7.90748 7.61121 9.78157 8.04291 11.0381 9.08842L11.3285 9.33006L11.5479 8.93767C11.6686 8.7219 11.8977 8.36836 12.057 8.15203L12.3466 7.75877L10.4898 5.90788L8.63317 4.05699L8.2911 4.45893ZM23.9712 5.93462L22.145 7.76132L22.3965 8.07936C23.1151 8.98837 23.61 10.1806 23.7485 11.3365L23.7913 11.694H26.4054H29.0195L28.9773 11.0877C28.847 9.21879 28.1289 7.18086 27.0197 5.53277C26.535 4.81247 25.963 4.10801 25.8627 4.10801C25.8268 4.10801 24.9757 4.93003 23.9712 5.93462ZM18.7705 8.47222C17.2576 11.3708 17.2666 11.3561 16.9817 11.4155C15.4693 11.7307 15.5819 13.9956 17.1155 14.1065C18.2541 14.1888 18.9752 13.1088 18.4598 12.0931C18.2513 11.6822 18.1884 11.9459 19.2631 8.72413C19.7906 7.14282 20.2034 5.84938 20.1805 5.84986C20.1575 5.85026 19.5231 7.03035 18.7705 8.47222ZM6.77149 8.80897C3.66176 9.56103 2.56486 13.5571 4.84303 15.8349C7.47195 18.4634 11.9675 16.5959 11.9675 12.8754C11.9675 10.1413 9.44037 8.16357 6.77149 8.80897ZM7.01191 17.9124C3.30225 18.2953 0.0195312 21.656 0.0195312 25.0709V25.3115H7.82683H15.6341L15.597 24.985C15.0965 20.5817 11.3171 17.4681 7.01191 17.9124Z" fill="url(#paint0_linear_542_45511)"/>
<defs>
<linearGradient id="paint0_linear_542_45511" x1="29.0195" y1="12.8115" x2="0.0195313" y2="12.8115" gradientUnits="userSpaceOnUse">
<stop stop-color="#09D1C7"/>
<stop offset="1" stop-color="#15919B"/>
</linearGradient>
</defs>
</svg>
