<svg width="24" height="29" viewBox="0 0 24 29" fill="none" xmlns="http://www.w3.org/2000/svg">
<path fill-rule="evenodd" clip-rule="evenodd" d="M11.0579 0.855111C10.4834 0.977399 10.0582 1.3694 9.7221 2.0866C9.25506 3.08298 8.3852 3.49562 7.48296 3.1487C5.69532 2.46138 4.24582 3.84992 4.92347 5.60058C5.34845 6.69846 5.0082 7.57278 3.93847 8.13153C3.1009 8.56901 2.80459 9.03728 2.80459 9.92333V10.4764L2.3229 10.5075C1.16416 10.5822 0.237289 11.4521 0.0741475 12.6179C-0.00118901 13.1565 0.00256657 26.0994 0.0782786 26.6469C0.220314 27.6743 0.887751 28.4423 1.8678 28.706C2.39088 28.8467 20.6465 28.8467 21.1696 28.706C22.1496 28.4423 22.8171 27.6743 22.9591 26.6469C23.0395 26.0649 23.0398 13.1428 22.9593 12.6133C22.7669 11.3465 21.785 10.4982 20.5052 10.4931C20.1735 10.4918 20.1368 10.4799 20.1738 10.3856C20.5089 9.53132 20.0245 8.46146 19.1072 8.02958C18.0331 7.52398 17.6454 6.6699 18.0095 5.61176C18.6515 3.74571 17.3628 2.39007 15.5598 3.03487C14.4467 3.43301 13.67 3.09462 13.1364 1.97898C12.7103 1.08813 11.9342 0.668498 11.0579 0.855111ZM12.6711 5.97218C14.4459 6.55134 15.7432 8.59966 15.4136 10.3022L15.3769 10.4916H11.5187H7.66045L7.62379 10.3022C7.10478 7.62136 10.0313 5.11073 12.6711 5.97218ZM12.5219 8.11229C12.373 8.27066 12.0225 8.65258 11.7433 8.96101C11.1304 9.63786 11.1023 9.64275 10.6137 9.15802C10.2435 8.79077 10.0983 8.7318 9.8718 8.85703C9.42203 9.10572 10.4348 10.2491 11.1048 10.2491C11.5727 10.2491 13.2791 8.6563 13.2791 8.21968C13.2791 7.77693 12.8895 7.72168 12.5219 8.11229ZM5.59782 9.47158C6.22275 9.69419 6.37011 10.0248 6.34458 11.1464C6.3137 12.5011 5.59226 13.1269 4.76206 12.5189C4.16064 12.0785 4.06886 10.2421 4.62145 9.70575C4.88629 9.44876 5.27327 9.35588 5.59782 9.47158ZM18.2139 9.55507C18.9045 9.92402 19.0567 11.7511 18.4491 12.3789C17.8946 12.9517 16.958 12.6963 16.748 11.9148C16.3302 10.3601 17.1751 9.00004 18.2139 9.55507ZM3.59739 11.6586C3.60047 14.0055 6.91061 14.0345 7.04679 11.6889L7.07406 11.2191H11.5177H15.9614L15.9948 11.6305C16.1903 14.0402 19.4992 13.8912 19.4992 11.4726V11.2069L20.2517 11.2281C21.7619 11.2708 22.2431 11.8063 22.3001 13.5075L22.329 14.3713H11.5313H0.733698L0.76164 13.4772C0.815044 11.7674 1.33031 11.2256 2.90734 11.2211L3.59678 11.2191L3.59739 11.6586ZM5.71424 18.4187C5.89849 18.6319 5.97022 19.6493 5.82811 20.0353C5.65904 20.4947 4.41505 20.6142 4.06135 20.205C3.86966 19.9833 3.79846 18.7096 3.96543 18.4907C4.26512 18.0978 5.3966 18.0513 5.71424 18.4187ZM10.1593 18.2761C10.6383 18.532 10.6462 20.0416 10.1701 20.3321C9.94826 20.4675 9.06488 20.4735 8.81746 20.3414C8.29739 20.0635 8.32113 18.4707 8.84871 18.2477C9.05203 18.1618 9.98296 18.1819 10.1593 18.2761ZM14.6053 18.3965L14.8048 18.6026V19.3049C14.8048 19.9951 14.8019 20.0104 14.6335 20.205L14.4624 20.403H13.8072H13.1521L12.9809 20.205C12.8125 20.0104 12.8097 19.9951 12.8097 19.3049V18.6026L13.0092 18.3965L13.2087 18.1904H13.8072H14.4058L14.6053 18.3965ZM18.9552 18.3886C19.1366 18.576 19.2289 19.6609 19.0944 20.0241C18.9204 20.4943 17.713 20.6169 17.3144 20.2049L17.1227 20.0067V19.3504C17.1227 18.3145 17.2497 18.1784 18.1924 18.2042C18.7601 18.2198 18.8015 18.2298 18.9552 18.3886ZM5.72303 22.5499C5.96188 22.7703 6.04488 23.8023 5.85665 24.2121C5.63928 24.6853 4.50954 24.799 4.1113 24.3877C3.76256 24.0275 3.80086 22.7925 4.17011 22.4923C4.43255 22.2791 5.47126 22.3177 5.72303 22.5499ZM10.3406 22.5597L10.5211 22.7462V23.4555C10.5211 24.4463 10.3751 24.6161 9.52358 24.6161C8.68421 24.6161 8.52595 24.4403 8.52595 23.5075C8.52595 22.4799 8.61796 22.3765 9.53372 22.3745C10.1556 22.3732 10.1613 22.3745 10.3406 22.5597ZM14.664 22.5793L14.8635 22.7854V23.431C14.8635 24.4347 14.7041 24.6163 13.8238 24.6159C13.0627 24.6155 12.8922 24.4469 12.8328 23.6365C12.7563 22.5894 12.9305 22.3732 13.8504 22.3732H14.4645L14.664 22.5793ZM18.8997 22.4678C19.1338 22.6371 19.2059 22.8725 19.2059 23.4673C19.2059 24.3992 19.0119 24.6161 18.1789 24.6161C17.346 24.6161 17.152 24.3992 17.152 23.4673C17.152 22.5283 17.2977 22.3732 18.1789 22.3732C18.6186 22.3732 18.8023 22.3973 18.8997 22.4678Z" fill="url(#paint0_linear_542_45469)"/>
<defs>
<linearGradient id="paint0_linear_542_45469" x1="23.0195" y1="14.8115" x2="0.0195313" y2="14.8115" gradientUnits="userSpaceOnUse">
<stop stop-color="#09D1C7"/>
<stop offset="1" stop-color="#15919B"/>
</linearGradient>
</defs>
</svg>
