<svg width="33" height="39" viewBox="0 0 33 39" fill="none" xmlns="http://www.w3.org/2000/svg">
<path fill-rule="evenodd" clip-rule="evenodd" d="M22.1239 0.294973C21.0815 0.607762 20.5835 1.98314 21.1578 2.96295C22.0788 4.53431 24.5332 3.86325 24.5332 2.04018C24.5332 0.786841 23.3473 -0.0722373 22.1239 0.294973ZM21.2986 4.54816C19.8823 4.98048 19.1655 6.07 19.0997 7.89035L19.0603 8.98435H22.7016H26.3429L26.3129 7.81281C26.2697 6.12312 25.6616 5.11484 24.4017 4.64348C23.9116 4.46014 21.7995 4.39525 21.2986 4.54816ZM12.835 5.23165C11.1834 5.76256 11.3208 8.3182 13.023 8.72652C14.9496 9.18862 16.1247 6.6007 14.5059 5.46068C14.1276 5.19424 13.303 5.08125 12.835 5.23165ZM12.0976 9.4616C10.5936 9.86567 9.94334 10.8251 9.89458 12.7121L9.86317 13.9263H13.4584H17.0536L17.0222 12.7121C16.9528 10.0298 14.9363 8.69882 12.0976 9.4616ZM3.63495 9.86011C1.57069 10.5287 2.22562 13.5761 4.39503 13.3962C6.16106 13.2497 6.60644 10.7836 5.01537 9.96099C4.68704 9.79118 4.00223 9.74112 3.63495 9.86011ZM19.8498 15.0978V18.6551H21.3624C23.0173 18.6551 23.5018 18.7394 24.6647 19.2294C24.9929 19.3676 25.3476 19.5007 25.4531 19.5251L25.6448 19.5695V15.555V11.5405H22.7473H19.8499L19.8498 15.0978ZM2.66096 14.1661C1.21716 14.6778 0.635103 15.612 0.633685 17.4196L0.632812 18.5699H4.21199H7.79128L7.81778 17.803C7.87931 16.0262 7.29408 14.8852 6.02154 14.3007C5.31764 13.9773 3.40926 13.9008 2.66096 14.1661ZM10.6188 16.2824C10.5869 16.3143 10.5609 19.9956 10.5609 24.4631V32.5859H12.734C14.2522 32.5859 14.9071 32.5578 14.9071 32.4926C14.9071 32.4413 14.6969 32.0834 14.44 31.6974C12.1691 28.2852 12.6457 23.8934 15.6031 20.9772L16.359 20.2319L16.3361 18.2507L16.3133 16.2693L13.495 16.2469C11.945 16.2345 10.6507 16.2506 10.6188 16.2824ZM20.4038 19.7237C14.2446 20.6792 11.9081 28.35 16.5098 32.5075C19.0421 34.7954 23.1804 35.0069 25.823 32.9836L26.2142 32.6841L27.2023 33.6787C28.0902 34.5727 28.1855 34.6977 28.1424 34.9128C28.074 35.254 30.9822 38.2095 31.3863 38.2095C31.769 38.2095 32.6328 37.3219 32.6328 36.9288C32.6328 36.451 29.8954 33.7495 29.3987 33.7371C29.07 33.7288 28.9885 33.6686 28.0774 32.7602L27.1063 31.7921L27.406 31.4009C31.2861 26.335 26.733 18.742 20.4038 19.7237ZM1.27192 26.7069V32.5859H4.16945H7.06687V26.7069V20.8278H4.16945H1.27192V26.7069ZM22.6461 21.9795C26.4996 22.8878 27.9416 27.6318 25.2483 30.5404C22.137 33.9002 16.5554 31.8816 16.298 27.3033C16.1048 23.8672 19.297 21.1901 22.6461 21.9795ZM23.1287 23.5645C22.8008 23.724 18.9124 29.6376 18.9124 29.977C18.9124 30.4783 19.5274 30.7328 19.9156 30.3919C20.3177 30.0389 24.0256 24.3491 24.0256 24.0849C24.0256 23.6393 23.5466 23.3614 23.1287 23.5645ZM19.2012 23.8082C18.7195 24.0028 18.5194 24.6604 18.7855 25.1749C19.0496 25.6856 19.8529 25.7796 20.2825 25.3501C21.009 24.6238 20.1643 23.4192 19.2012 23.8082ZM22.7774 28.5751C22.4663 28.7647 22.2807 29.2252 22.3633 29.6018C22.51 30.2688 23.4502 30.5327 23.9606 30.0501C24.797 29.2594 23.7649 27.973 22.7774 28.5751Z" fill="url(#paint0_linear_163_1909)"/>
<defs>
<linearGradient id="paint0_linear_163_1909" x1="32.6328" y1="19.2095" x2="0.632813" y2="19.2095" gradientUnits="userSpaceOnUse">
<stop stop-color="#09D1C7"/>
<stop offset="1" stop-color="#15919B"/>
</linearGradient>
</defs>
</svg>
