<svg width="34" height="35" viewBox="0 0 34 35" fill="none" xmlns="http://www.w3.org/2000/svg">
<path fill-rule="evenodd" clip-rule="evenodd" d="M15.6298 0.376346C13.9902 0.903157 13.0309 2.67541 13.4709 4.36466C14.3294 7.66075 19.0557 7.65269 19.915 4.35369C20.5739 1.82369 18.1441 -0.431587 15.6298 0.376346ZM4.02424 4.13829C2.01659 4.78207 1.38436 7.45806 2.88539 8.95909C3.99522 10.0689 5.87803 10.0689 6.98786 8.95909C9.10831 6.83874 6.88428 3.22105 4.02424 4.13829ZM27.4832 4.16294C25.0617 5.02621 24.8907 8.45859 27.2151 9.54793C28.2405 10.0284 29.6794 9.77722 30.4785 8.97812C32.6348 6.82195 30.3459 3.14242 27.4832 4.16294ZM12.773 8.0402C12.2663 8.12301 11.7742 8.4781 11.5046 8.9555L11.2691 9.37262L11.2449 12.5108L11.2206 15.6489L11.3965 15.6056C11.4933 15.5818 11.9669 15.4258 12.4491 15.2589C15.1896 14.3101 18.2253 14.31 20.9384 15.2587C21.418 15.4263 21.8873 15.5823 21.9812 15.6052L22.1518 15.6469L22.1511 12.851C22.1503 9.00811 22.0986 8.7664 21.166 8.24221L20.7488 8.00778L19.0304 7.9807L17.3118 7.95362L17.2861 9.18168L17.2602 10.4097L17.0475 10.5926C16.9305 10.6933 16.7702 10.7756 16.6915 10.7756C16.6128 10.7756 16.4525 10.6933 16.3355 10.5926L16.1228 10.4097L16.0971 9.18964L16.0715 7.96963L14.5804 7.97905C13.7602 7.98429 12.9469 8.01186 12.773 8.0402ZM1.52347 10.9966C1.00403 11.1587 0.66059 11.4403 0.433149 11.8904C0.32569 12.1032 0.310547 12.5506 0.310547 15.5127V18.8924L0.806392 19.882L1.30224 20.8715L1.79255 24.0709C2.3812 27.9123 2.37149 27.8843 3.09177 27.825L3.38201 27.8011L3.43336 26.929C3.6577 23.1253 5.89046 19.1368 8.97483 17.0303L9.63822 16.5771L9.61949 14.3779C9.59716 11.7719 9.54465 11.588 8.69061 11.1285C8.37211 10.957 2.02426 10.8403 1.52347 10.9966ZM24.9372 11.0263C23.9091 11.3516 23.7864 11.702 23.7635 14.3779L23.7448 16.5771L24.4082 17.0303C27.4925 19.1368 29.7253 23.1253 29.9496 26.929L30.001 27.8011L30.2912 27.825C31.011 27.8843 31.0004 27.915 31.5923 24.0666L32.0849 20.8631L32.5787 19.8777L33.0725 18.8924V15.5127C33.0725 10.6159 33.4245 10.9719 28.5601 10.9505C26.1493 10.9399 25.1439 10.961 24.9372 11.0263ZM14.5641 15.8583C13.3147 16.0786 11.1554 16.8388 11.1554 17.0585C11.1554 17.1194 12.8346 20.0783 13.1719 20.6117L13.2773 20.7785L13.6916 20.5952C14.161 20.3877 15.0944 20.1374 15.6866 20.0601L16.0848 20.0082V17.8566V15.705L15.7246 15.7112C15.5264 15.7145 15.0042 15.7808 14.5641 15.8583ZM17.2982 17.8566V20.0082L17.6964 20.0601C18.2886 20.1374 19.222 20.3877 19.6914 20.5952L20.1057 20.7785L20.2112 20.6117C20.5633 20.0548 22.2276 17.124 22.2276 17.0608C22.2276 16.7158 18.7729 15.705 17.594 15.705H17.2982V17.8566ZM9.38487 18.1045C8.37483 18.8625 6.45338 20.9194 6.45338 21.2426C6.45338 21.2643 7.29742 21.7691 8.32901 22.3644L10.2046 23.4467L10.3511 23.2457C10.8079 22.6185 11.471 21.9555 12.0981 21.4987L12.2992 21.3522L11.2168 19.4766C10.6216 18.445 10.1167 17.601 10.095 17.601C10.0734 17.601 9.75374 17.8275 9.38487 18.1045ZM22.1662 19.4766L21.0838 21.3522L21.2849 21.4987C21.912 21.9555 22.5751 22.6185 23.0319 23.2457L23.1784 23.4467L25.054 22.3644C26.0856 21.7691 26.9296 21.2643 26.9296 21.2426C26.9296 20.8205 23.7101 17.601 23.288 17.601C23.2663 17.601 22.7614 18.445 22.1662 19.4766ZM5.58856 22.8528C5.07146 23.9922 4.68492 25.4423 4.58775 26.6076L4.53562 27.2324H6.6982H8.86068L8.9129 26.8342C8.99114 26.2379 9.18364 25.5121 9.41651 24.9354L9.62444 24.4206L9.46087 24.3172C8.9063 23.9669 5.97637 22.3029 5.91385 22.3029C5.87221 22.3029 5.72582 22.5504 5.58856 22.8528ZM25.6398 23.3147C24.701 23.8636 23.8927 24.3388 23.8435 24.371C23.7779 24.4138 23.8026 24.5391 23.9363 24.8415C24.143 25.3088 24.3934 26.2429 24.4705 26.8342L24.5223 27.2324H26.6739H28.8255V26.9366C28.8255 25.7041 27.8064 22.2849 27.4464 22.3098C27.3916 22.3136 26.5786 22.7658 25.6398 23.3147ZM19.7921 24.6455C19.6927 24.7243 19.1172 25.4154 18.5134 26.1812L17.4158 27.5737L16.7969 27.5473C14.5247 27.4504 13.6523 30.3845 15.6119 31.5329C17.3913 32.5758 19.5646 30.5589 18.6366 28.7259L18.4582 28.3736L19.6205 26.9119C20.6535 25.6125 20.7828 25.4182 20.7847 25.1623C20.7886 24.6111 20.2136 24.3117 19.7921 24.6455ZM4.55746 28.7416C4.55746 29.7771 5.16678 32.0173 5.78581 33.2578C6.40523 34.4992 6.46328 34.5022 8.39182 33.3942C10.1949 32.3583 10.1736 32.3923 9.68395 31.3403C9.30653 30.529 9.00036 29.5474 8.91708 28.881L8.86271 28.4458H6.71014H4.55746V28.7416ZM24.4659 28.881C24.3826 29.5474 24.0765 30.529 23.6991 31.3403C23.2094 32.3923 23.1881 32.3583 24.9912 33.3942C26.9197 34.5022 26.9778 34.4992 27.5972 33.2578C28.2162 32.0173 28.8255 29.7771 28.8255 28.7416V28.4458H26.6729H24.5203L24.4659 28.881ZM13.8097 33.1478C13.7086 33.2488 13.658 33.4005 13.658 33.6027C13.658 34.2238 13.586 34.2094 16.6915 34.2094C19.797 34.2094 19.725 34.2238 19.725 33.6027C19.725 32.9817 19.797 32.996 16.6915 32.996C14.0625 32.996 13.9557 33.0017 13.8097 33.1478Z" fill="url(#paint0_linear_163_1900)"/>
<defs>
<linearGradient id="paint0_linear_163_1900" x1="33.0781" y1="17.2095" x2="0.310547" y2="17.2095" gradientUnits="userSpaceOnUse">
<stop stop-color="#09D1C7"/>
<stop offset="1" stop-color="#15919B"/>
</linearGradient>
</defs>
</svg>
