<svg width="36" height="35" viewBox="0 0 36 35" fill="none" xmlns="http://www.w3.org/2000/svg">
<path fill-rule="evenodd" clip-rule="evenodd" d="M16.2444 0.258745C10.7253 0.871821 7.81303 7.65094 11.0689 12.306C11.5099 12.9365 11.5082 12.9362 11.7585 12.4304C12.1398 11.6597 13.0023 10.6682 13.6867 10.2139L13.8819 10.0844L13.6009 9.47061C12.4328 6.91918 13.1622 4.37388 15.3728 3.28779C19.2169 1.399 22.7037 5.52123 20.7073 9.59467C20.5892 9.83568 20.5031 10.0404 20.5157 10.0496C21.5401 10.7856 22.4201 11.7704 22.7862 12.5902C22.9048 12.8558 22.9141 12.851 23.2741 12.3451C27.0981 6.96951 22.7731 -0.466497 16.2444 0.258745ZM16.7028 3.88908C13.8566 4.21771 13.1168 8.10526 15.447 10.4884C16.7995 11.8715 18.499 11.4922 19.6333 9.55392C21.341 6.63608 19.7386 3.53858 16.7028 3.88908ZM13.93 11.2741C13.2513 11.8319 12.5171 12.8552 12.3211 13.5162C12.2199 13.8578 13.9831 14.9132 15.2597 15.2754C16.19 15.5393 18.3001 15.5172 19.2175 15.234C20.3701 14.8782 22.1173 13.8667 22.1173 13.5551C22.1173 13.1575 21.2751 11.9403 20.5897 11.3473C20.0026 10.8394 19.9851 10.8391 19.4557 11.328C17.9799 12.6905 16.1557 12.6501 14.8163 11.2252C14.4549 10.8408 14.4575 10.8406 13.93 11.2741ZM29.0631 12.4824C28.4898 13.6865 28.5716 13.6243 27.3294 13.802C25.9794 13.9953 26.0208 13.8838 26.9451 14.8399C27.9205 15.8485 27.8669 15.6916 27.6529 16.9139C27.5563 17.467 27.4769 17.9809 27.4767 18.0563C27.4763 18.1695 27.649 18.1016 28.4768 17.663C29.6947 17.0178 29.5566 17.0177 30.7571 17.6647C31.2998 17.9573 31.7548 18.1848 31.7684 18.1704C31.7819 18.1559 31.7151 17.7059 31.6199 17.1704C31.3498 15.6507 31.3063 15.8051 32.2663 14.8694C33.2331 13.9271 33.2529 13.9872 31.914 13.8037C30.6892 13.6358 30.7193 13.659 30.1213 12.4226C29.8601 11.8826 29.6267 11.4408 29.6027 11.4408C29.5787 11.4408 29.3359 11.9095 29.0631 12.4824ZM5.37837 16.4612C5.02891 17.173 4.80959 17.5349 4.69881 17.5828C4.5665 17.64 2.67919 17.9569 2.47096 17.9569C2.43977 17.9569 2.8006 18.356 3.27287 18.8438C3.74514 19.3316 4.13153 19.7568 4.13153 19.7885C4.13153 19.8203 4.04762 20.3523 3.94501 20.9707C3.84249 21.5891 3.77371 22.1105 3.79232 22.1295C3.81092 22.1485 4.26976 21.9251 4.81185 21.6332C6.00851 20.9889 5.84134 20.9888 7.04157 21.635C7.58554 21.9279 8.0425 22.1554 8.05706 22.1405C8.07153 22.1258 7.9958 21.5829 7.88867 20.9341L7.69398 19.7547L8.57275 18.8557C9.05611 18.3613 9.42991 17.9569 9.4035 17.9569C9.07067 17.9569 7.20845 17.6177 7.08075 17.5338C6.97702 17.4656 6.72678 17.0271 6.44282 16.416C6.18582 15.8629 5.95729 15.4103 5.93493 15.4103C5.91266 15.4103 5.66215 15.8832 5.37837 16.4612ZM13.308 21.065V22.226H17.5658H21.8237V21.065V19.9041H17.5658H13.308V21.065ZM25.3474 23.6864V24.8474H29.6052H33.8631V23.6864V22.5255H29.6052H25.3474V23.6864ZM14.4826 28.1428V33.086H11.7296H8.97671V31.0264V28.9666H5.93014H2.88357V31.0264V33.086H1.64087H0.398259L0.246128 33.2833C0.0442884 33.5451 0.0539669 33.801 0.27413 34.0256L0.454357 34.2095H17.5658H34.6772L34.8574 34.0256C35.4254 33.4462 34.986 33.086 33.7108 33.086H32.6885V29.4535V25.821H29.6052H26.522V29.4535V33.086H23.5855H20.6491V28.1428V23.1996H17.5658H14.4826V28.1428ZM1.70899 26.8321V27.993H5.93014H10.1513V26.8321V25.6712H5.93014H1.70899V26.8321Z" fill="url(#paint0_linear_163_1913)"/>
<defs>
<linearGradient id="paint0_linear_163_1913" x1="35.1016" y1="17.2095" x2="0.101563" y2="17.2095" gradientUnits="userSpaceOnUse">
<stop stop-color="#09D1C7"/>
<stop offset="1" stop-color="#15919B"/>
</linearGradient>
</defs>
</svg>
