<svg width="31" height="33" viewBox="0 0 31 33" fill="none" xmlns="http://www.w3.org/2000/svg">
<path fill-rule="evenodd" clip-rule="evenodd" d="M1.74431 0.160428C1.27755 0.339797 0.803524 0.820342 0.626411 1.2937L0.490234 1.6577V16.8955C0.490234 32.0462 0.490986 32.1341 0.620814 32.2639C0.826917 32.47 30.4383 32.47 30.6444 32.2639C31.0178 31.8904 30.7927 29.2615 30.3874 29.2615C30.266 29.2615 30.26 29.1932 30.2405 27.5808L30.2201 25.9002L30.0281 25.5085C29.6361 24.7087 28.8681 24.1573 27.9938 24.0475C26.8302 23.9014 26.8302 23.1343 27.9938 22.9882C28.8681 22.8784 29.6361 22.3269 30.0281 21.5271L30.2201 21.1355L30.2405 19.4548C30.26 17.8424 30.266 17.7742 30.3874 17.7742C30.7358 17.7742 30.7749 17.616 30.7749 16.2077C30.7749 14.4239 31.3727 14.6413 26.4672 14.6413H22.4205V7.46176C22.4205 0.369204 22.4189 0.280564 22.29 0.151656C22.0828 -0.0555335 2.28417 -0.047012 1.74431 0.160428ZM3.10416 1.27775C3.57861 1.59747 3.58671 1.63966 3.62313 3.96987C3.6411 5.1186 3.67886 6.09406 3.7071 6.13758C3.89515 6.42782 4.05497 6.3954 7.62782 5.34224C18.0796 2.26148 20.8485 1.44308 21.0989 1.36054L21.3762 1.26914V7.95517V14.6413H20.9846C20.3348 14.6413 20.3319 14.6481 20.3319 16.2077C20.3319 17.616 20.371 17.7742 20.7195 17.7742C20.8409 17.7742 20.8469 17.8424 20.8664 19.4548L20.8867 21.1355L21.0787 21.5271C21.4695 22.3242 22.2476 22.8795 23.1288 22.9902C24.278 23.1344 24.2665 23.9026 23.113 24.0475C22.2387 24.1573 21.4708 24.7087 21.0787 25.5085L20.8867 25.9002L20.8664 27.5808C20.8469 29.1932 20.8409 29.2615 20.7195 29.2615C20.3959 29.2615 20.3319 29.4554 20.3319 30.4363V31.3501H10.9326H1.53311L1.55016 16.6157C1.5672 1.88469 1.5672 1.88118 1.7012 1.65302C2.00163 1.14174 2.64634 0.969217 3.10416 1.27775ZM2.70941 7.46176C2.50498 7.6661 2.50498 14.3063 2.70941 14.5108C2.83657 14.6379 2.92696 14.6413 6.23388 14.6413C9.54081 14.6413 9.6312 14.6379 9.75836 14.5108C9.96279 14.3063 9.96279 7.6661 9.75844 7.46176C9.55401 7.25732 2.91376 7.25732 2.70941 7.46176ZM8.05255 10.3336C8.05088 10.3515 7.53567 10.8434 6.90758 11.4268C5.47781 12.7547 5.54473 12.7389 4.82592 11.9167L4.32691 11.3459L4.67662 11.0363C5.09677 10.6643 5.04113 10.6656 5.31983 11.0213C5.60446 11.3846 5.46353 11.4498 6.52412 10.4648L7.43441 9.61945L7.74494 9.96014C7.91579 10.1476 8.05414 10.3156 8.05255 10.3336ZM13.544 12.0305V12.5527H16.4158H19.2876V12.0305V11.5084H16.4158H13.544V12.0305ZM10.9332 14.1191V14.6413H15.1104H19.2876V14.1191V13.597H15.1104H10.9332V14.1191ZM2.70941 15.294C2.50498 15.4984 2.50498 22.1386 2.70941 22.343C2.83657 22.4702 2.92696 22.4735 6.23388 22.4735C9.54081 22.4735 9.6312 22.4702 9.75836 22.343C9.96279 22.1386 9.96279 15.4984 9.75844 15.294C9.6312 15.1668 9.54081 15.1634 6.23388 15.1634C2.92696 15.1634 2.83657 15.1668 2.70941 15.294ZM8.05222 18.1658C8.05047 18.1837 7.53918 18.6757 6.91602 19.259C5.4941 20.5903 5.55626 20.5757 4.83394 19.7486L4.3351 19.1775L4.6808 18.8682C5.09602 18.4966 5.04113 18.4978 5.31983 18.8536C5.60446 19.2169 5.46353 19.2821 6.52412 18.2971L7.43441 17.4517L7.74494 17.7924C7.91579 17.9799 8.05406 18.1479 8.05222 18.1658ZM29.1957 19.2264C29.159 21.3291 28.9366 21.7057 27.6044 21.9214C25.4764 22.2658 25.5072 24.8781 27.642 25.1174C28.8862 25.2569 29.1625 25.7352 29.197 27.8092L29.2211 29.2615H25.5534H21.8858L21.9099 27.8092C21.9444 25.7352 22.2207 25.2569 23.4648 25.1174C25.5996 24.8781 25.6305 22.2658 23.5025 21.9214C22.1626 21.7045 21.945 21.3362 21.9099 19.2264L21.8858 17.7742H25.5534H29.2211L29.1957 19.2264ZM23.5954 18.9491C23.269 19.2754 23.5191 20.3024 24.0553 20.8387C25.3423 22.1257 27.642 21.2263 27.642 19.4361C27.642 18.8042 27.6903 18.8185 25.5534 18.8185C23.813 18.8185 23.7197 18.8247 23.5954 18.9491ZM13.544 19.8628V20.3849H16.4158H19.2876V19.8628V19.3406H16.4158H13.544V19.8628ZM10.9332 21.9514V22.4735H15.1104H19.2876V21.9514V21.4292H15.1104H10.9332V21.9514ZM2.70941 23.1263C2.50498 23.3306 2.50498 29.9708 2.70941 30.1753C2.83657 30.3024 2.92696 30.3058 6.23388 30.3058C9.54081 30.3058 9.6312 30.3024 9.75836 30.1753C9.96279 29.9708 9.96279 23.3306 9.75844 23.1263C9.6312 22.999 9.54081 22.9957 6.23388 22.9957C2.92696 22.9957 2.83657 22.999 2.70941 23.1263ZM8.05222 25.9981C8.05047 26.016 7.53918 26.5079 6.91602 27.0913C5.4941 28.4225 5.55626 28.4079 4.83394 27.5808L4.3351 27.0097L4.6808 26.7004C5.09602 26.3288 5.04113 26.3301 5.31983 26.6858C5.60446 27.0491 5.46353 27.1143 6.52412 26.1293L7.43441 25.2839L7.74494 25.6246C7.91579 25.8121 8.05406 25.9801 8.05222 25.9981ZM24.7189 25.7458C23.9975 26.023 23.4648 26.8104 23.4648 27.5995C23.4648 28.2315 23.4165 28.2172 25.5534 28.2172C27.6903 28.2172 27.642 28.2315 27.642 27.5995C27.642 26.1665 26.126 25.2051 24.7189 25.7458ZM13.544 27.695V28.2172H16.4158H19.2876V27.695V27.1729H16.4158H13.544V27.695ZM10.9332 29.7836V30.3058H15.1104H19.2876V29.7836V29.2615H15.1104H10.9332V29.7836Z" fill="url(#paint0_linear_163_1907)"/>
<defs>
<linearGradient id="paint0_linear_163_1907" x1="30.8345" y1="16.2095" x2="0.490234" y2="16.2095" gradientUnits="userSpaceOnUse">
<stop stop-color="#09D1C7"/>
<stop offset="1" stop-color="#15919B"/>
</linearGradient>
</defs>
</svg>
