<svg width="37" height="28" viewBox="0 0 37 28" fill="none" xmlns="http://www.w3.org/2000/svg">
<path fill-rule="evenodd" clip-rule="evenodd" d="M30.0543 0.159734C28.132 0.993448 28.4946 4.93421 30.5734 5.80005C32.2882 6.51428 33.9097 2.32034 32.5455 0.699135C32.0046 0.0563067 30.8629 -0.190848 30.0543 0.159734ZM16.405 3.27947C15.5865 3.65119 15.2754 4.33206 15.3599 5.56624C15.5626 8.52364 18.0148 9.23646 18.8422 6.57844C19.5662 4.25231 18.2338 2.44885 16.405 3.27947ZM4.11686 6.39845C3.38047 6.78088 3.23542 7.06373 3.23787 8.11322C3.2435 10.5806 5.04244 11.5681 6.0088 9.6342C7.021 7.60839 5.80185 5.5234 4.11686 6.39845ZM30.7112 6.56031C30.6397 6.60756 30.5315 7.66964 30.4228 9.39352L30.2488 12.1512L30.5705 12.7136C30.9602 13.3946 30.8971 13.3947 31.2873 12.7128L31.6096 12.1495L31.4331 9.39268C31.2648 6.76265 31.2165 6.48459 30.9287 6.48459C30.8721 6.48459 30.7742 6.51869 30.7112 6.56031ZM28.149 7.14339C25.0632 7.96423 25.2151 7.63854 25.2151 13.4379V17.687L25.4704 17.9903C25.7663 18.3419 26.2238 18.558 26.5694 18.509L26.8108 18.4748L26.8623 14.4084C26.9126 10.4278 26.9181 10.342 27.1196 10.342C27.3234 10.342 27.326 10.4278 27.3769 18.7472C27.4379 28.6974 27.2307 27.5857 29.0242 27.5857C30.7651 27.5857 30.6087 27.9949 30.6713 23.2769C30.7217 19.4871 30.7273 19.4014 30.9287 19.4014C31.13 19.4014 31.1357 19.4871 31.186 23.2769C31.2487 27.9949 31.0923 27.5857 32.8331 27.5857C34.6266 27.5857 34.4194 28.6974 34.4804 18.7472C34.5313 10.4278 34.5339 10.342 34.7377 10.342C34.9397 10.342 34.9442 10.4196 34.9706 14.4341L34.9974 18.5263L35.3308 18.5259C35.7245 18.5255 36.2559 18.2255 36.4865 17.8737C36.6315 17.6523 36.6472 17.1094 36.6207 13.2105L36.5907 8.79776L36.3012 8.37108C36.1389 8.1321 35.822 7.84916 35.5805 7.7276C35.1853 7.52882 31.9203 6.63405 31.8566 6.70713C31.8415 6.72461 31.8668 7.27162 31.913 7.92271C31.9591 8.5739 32.0467 9.82076 32.1075 10.6935L32.2179 12.2803L31.6813 13.1869C30.9282 14.4588 30.9189 14.4583 30.1217 13.0984L29.6486 12.2914L29.7476 10.8534C29.9345 8.13943 29.984 6.68722 29.8895 6.69624C29.8382 6.70121 29.055 6.90234 28.149 7.14339ZM16.942 9.13237C16.9139 9.23148 16.8337 10.3555 16.7639 11.6301L16.637 13.9477L16.9222 14.3996L17.2074 14.8514L17.4884 14.3469L17.7694 13.8422L17.6117 11.3973C17.4561 8.98066 17.4516 8.95219 17.2237 8.95219C17.0923 8.95219 16.9712 9.02969 16.942 9.13237ZM14.6655 9.48633C12.0281 10.19 12.1408 9.94467 12.1408 14.9842C12.1408 19.1518 12.1302 19.0765 12.7596 19.4019C13.5141 19.7922 13.4732 19.9829 13.5035 15.9269L13.5305 12.298H13.7879H14.0452L14.0717 19.7543C14.1027 28.5016 13.9384 27.5864 15.4768 27.5842C16.9589 27.5819 16.8165 27.961 16.8763 23.8577L16.9278 20.3279H17.1852H17.4426L17.4697 23.7701C17.5024 27.9122 17.3824 27.5864 18.874 27.5842C19.4456 27.5832 19.9828 27.5386 20.0677 27.485C20.2019 27.4001 20.2289 26.3991 20.2736 19.8427L20.3251 12.298H20.5825H20.8398L20.8668 15.9269C20.8971 19.9829 20.8562 19.7922 21.6108 19.4019C22.2406 19.0762 22.2296 19.1554 22.2296 14.9476C22.2296 9.91357 22.3566 10.1833 19.6531 9.47619C18.7825 9.24848 18.0642 9.07225 18.0569 9.08446C18.0496 9.09667 18.1122 10.2219 18.196 11.5848L18.3484 14.0632L17.9128 14.7964C17.2043 15.9889 17.2042 15.9889 16.5135 14.8512L16.0349 14.0628L16.1478 12.0995C16.21 11.0196 16.2888 9.89291 16.3231 9.59568C16.3573 9.29836 16.3453 9.05966 16.2962 9.06511C16.2473 9.07056 15.5134 9.26013 14.6655 9.48633ZM4.58242 11.8605C4.27609 14.7174 4.34898 16.3644 4.78176 16.3644C5.19031 16.3644 5.33704 12.6907 4.9781 11.4487C4.87664 11.0975 4.63756 11.3462 4.58242 11.8605ZM2.61815 11.8071C0.316627 12.4039 0.404743 12.215 0.404743 16.5497C0.404743 20.0906 0.415264 20.1701 0.917465 20.4298C1.56527 20.7648 1.53718 20.9018 1.53718 17.4049C1.53718 14.4896 1.55193 14.2189 1.71464 14.1564C2.14601 13.9909 2.15484 14.1265 2.15484 20.8932C2.15484 28.3036 2.02633 27.5857 3.35322 27.5857C4.56176 27.5857 4.46209 27.8665 4.52268 24.2914L4.57416 21.2544L4.80572 21.2215L5.03737 21.1887V24.2254C5.03737 26.8488 5.05935 27.2842 5.19914 27.4239C5.3841 27.6089 7.03049 27.6567 7.30225 27.485C7.43602 27.4004 7.46355 26.502 7.50808 20.7692C7.5589 14.2369 7.56228 14.1511 7.76547 14.1511C7.96631 14.1511 7.97204 14.2288 7.99863 17.3205C8.02841 20.7932 8.02005 20.7518 8.62821 20.4372C9.14732 20.1688 9.15531 20.1091 9.15493 16.4999C9.15437 12.157 9.27996 12.4202 6.91203 11.7988L5.5438 11.4399L5.60138 12.0234C5.63304 12.3443 5.70256 13.3219 5.75601 14.1957L5.85305 15.7846L5.412 16.5121C5.16936 16.9122 4.89599 17.2539 4.8045 17.2716C4.52277 17.3259 3.69065 15.7975 3.75312 15.3406C3.814 14.8945 4.01399 11.4936 3.98036 11.4741C3.96721 11.4664 3.35416 11.6162 2.61815 11.8071Z" fill="url(#paint0_linear_2_6091)"/>
<defs>
<linearGradient id="paint0_linear_2_6091" x1="36.6313" y1="13.8114" x2="0.404297" y2="13.8114" gradientUnits="userSpaceOnUse">
<stop stop-color="#09D1C7"/>
<stop offset="1" stop-color="#15919B"/>
</linearGradient>
</defs>
</svg>
