<svg width="35" height="43" viewBox="0 0 35 43" fill="none" xmlns="http://www.w3.org/2000/svg">
<path fill-rule="evenodd" clip-rule="evenodd" d="M16.0715 0.923407C12.3322 1.51969 9.21734 4.31771 8.16536 8.02537C7.83774 9.17981 7.68253 25.4856 7.99904 25.4839C8.42058 25.4818 11.3144 24.6444 11.8874 24.3586C12.7277 23.9395 12.9751 23.5681 13.2449 22.3199L13.4722 21.2693L12.576 20.3193C9.44577 17.0011 9.315 11.6887 12.2916 8.7709C12.858 8.21579 13.3036 7.65518 13.3488 7.4409C13.3918 7.23726 13.4588 6.91713 13.4978 6.72964C13.6083 6.1971 14.1508 6.27161 14.5207 6.87023C15.7534 8.86471 19.4688 9.34555 22.8216 7.94466C24.1098 7.40639 24.8142 9.26589 24.8156 13.2086C24.8169 16.7045 24.2466 18.4276 22.462 20.3193L21.5659 21.2693L21.7931 22.3199C22.0646 23.5754 22.3096 23.9392 23.1742 24.3704C23.7034 24.6343 26.6895 25.4796 27.1072 25.4837C27.3624 25.4863 27.1406 8.96951 26.8727 8.02537C25.5283 3.28737 20.7889 0.171092 16.0715 0.923407ZM13.1223 9.31174C8.03693 14.7335 13.5457 23.9074 20.0571 20.8603C23.3249 19.3312 24.8984 14.0906 23.4337 9.61515C23.1894 8.86903 23.3711 8.88915 21.4746 9.39853C18.8453 10.1049 15.5535 9.61398 14.513 8.36024C14.2782 8.0773 14.2839 8.07344 13.1223 9.31174ZM14.3131 22.2453C14.2635 22.4891 14.1277 23.001 14.0115 23.3829L13.8 24.0773L15.6255 28.6674C16.6294 31.1919 17.4815 33.2575 17.519 33.2575C17.5566 33.2575 18.4086 31.1919 19.4125 28.6674L21.238 24.0773L21.0265 23.3829C20.9103 23.001 20.7745 22.4891 20.7249 22.2453C20.6752 22.0014 20.622 21.802 20.6066 21.802C20.5912 21.802 20.2125 21.9359 19.765 22.0998C19.1213 22.3353 18.6518 22.3975 17.519 22.3975C16.3862 22.3975 15.9167 22.3353 15.2731 22.0998C14.8256 21.9359 14.4468 21.802 14.4314 21.802C14.4161 21.802 14.3628 22.0014 14.3131 22.2453ZM12.5541 25.1439C12.4116 25.2518 11.982 25.4415 11.5993 25.5656C10.6302 25.8798 10.6618 25.7411 10.9767 28.2886C11.3128 31.0085 11.1352 30.7017 12.2797 30.5397C13.3724 30.385 13.251 30.3271 14.9274 31.8032C15.565 32.3647 16.1094 32.8024 16.1368 32.776C16.2342 32.6822 13.0839 24.9425 12.9496 24.9452C12.8746 24.9467 12.6966 25.0361 12.5541 25.1439ZM20.4016 28.8351C19.5489 30.976 18.8737 32.7494 18.9012 32.776C18.9287 32.8024 19.473 32.3647 20.1106 31.8032C21.8105 30.3064 21.6977 30.3603 22.7718 30.5319C23.8954 30.7114 23.7254 31.0072 24.0613 28.2886C24.3762 25.7411 24.4079 25.8798 23.4387 25.5656C23.056 25.4415 22.6264 25.2518 22.4839 25.1439C22.3414 25.0361 22.1634 24.9467 22.0885 24.9452C22.0135 24.9437 21.2544 26.6942 20.4016 28.8351ZM7.56171 26.6337C3.4993 27.6983 2.1852 28.2481 1.30107 29.2524C0.478459 30.1871 0.470387 30.2607 0.469569 36.8403L0.46875 42.8079H3.53778C5.22581 42.8079 6.60693 42.7858 6.60693 42.7589C6.60693 42.7319 6.38774 42.2356 6.12 41.656C4.75854 38.7092 4.82217 35.4343 6.2675 34.0766C6.85279 33.5268 7.50241 34.1475 6.96402 34.7423C5.70688 36.1315 5.86455 39.1434 7.33643 41.8538L7.81739 42.7396L12.3954 42.7756L16.9734 42.8115V38.8819V34.9523L15.0297 33.2152L13.0859 31.4779L12.1312 31.5573C11.606 31.601 11.0754 31.6663 10.952 31.7026C10.4883 31.839 10.3388 31.4153 10.0975 29.2825C9.75046 26.2146 9.74087 26.1654 9.48799 26.1768C9.36623 26.1825 8.49941 26.388 7.56171 26.6337ZM25.253 26.6784C25.2113 26.9597 25.0707 28.1316 24.9405 29.2825C24.6992 31.4153 24.5497 31.839 24.086 31.7026C23.9626 31.6663 23.432 31.601 22.9069 31.5573L21.9521 31.4779L20.0084 33.2152L18.0646 34.9523V38.8819V42.8115L22.6528 42.7756L27.2411 42.7396L27.7667 41.7166C29.187 38.953 29.3122 36.1105 28.074 34.7423C27.5646 34.1796 28.1679 33.525 28.7286 34.0321C30.2123 35.3739 30.2935 38.6791 28.9159 41.6606C28.6493 42.2377 28.4311 42.7319 28.4311 42.7589C28.4311 42.7858 29.8122 42.8079 31.5002 42.8079H34.5693L34.5684 36.8403C34.5676 30.2607 34.5596 30.1871 33.7369 29.2524C32.8498 28.2447 31.3361 27.6167 27.2966 26.5804C25.285 26.0643 25.3444 26.0614 25.253 26.6784ZM16.4373 36.0674C16.778 36.478 16.4249 36.738 15.5263 36.738C14.7831 36.738 14.7193 36.7135 14.6768 36.4124C14.597 35.8482 16.0234 35.5686 16.4373 36.0674ZM16.4373 37.8407C16.778 38.2512 16.4249 38.5112 15.5263 38.5112C14.7831 38.5112 14.7193 38.4868 14.6768 38.1856C14.597 37.6213 16.0234 37.3419 16.4373 37.8407ZM16.4223 39.5958C16.7015 39.9322 16.4621 40.3339 15.922 40.4352C15.0208 40.6042 14.3652 40.1154 14.7964 39.5958C15.0168 39.3303 16.202 39.3303 16.4223 39.5958ZM16.3498 41.3854C16.7635 41.7991 16.3985 42.2623 15.6589 42.2623C14.8067 42.2623 14.3713 41.7818 14.8183 41.3347C15.0571 41.0959 16.0946 41.1302 16.3498 41.3854Z" fill="url(#paint0_linear_2_6135)"/>
<defs>
<linearGradient id="paint0_linear_2_6135" x1="34.5693" y1="21.8115" x2="0.46875" y2="21.8115" gradientUnits="userSpaceOnUse">
<stop stop-color="#09D1C7"/>
<stop offset="1" stop-color="#15919B"/>
</linearGradient>
</defs>
</svg>
