<svg width="28" height="32" viewBox="0 0 28 32" fill="none" xmlns="http://www.w3.org/2000/svg">
<path fill-rule="evenodd" clip-rule="evenodd" d="M12.463 0.399362C11.0069 0.593799 9.99912 1.04599 9.08794 1.91347C8.7109 2.27249 8.2388 2.63362 8.03893 2.71613C6.15661 3.49273 5.82371 5.98624 7.21078 8.91864L7.5265 9.58613L7.66976 9.07274C7.74853 8.79033 7.81509 8.53179 7.81763 8.49815C7.82016 8.4646 8.05494 8.17832 8.33928 7.86192C9.01713 7.10768 9.22595 6.49602 9.17757 5.4068C9.1337 4.42071 9.28447 4.20945 9.79871 4.53633C11.3697 5.53493 13.1988 5.77058 15.2051 5.23306C17.384 4.64931 18.7131 5.57773 19.2653 8.0693C19.6135 9.6409 19.5361 9.57988 19.9805 8.63323C22.1618 3.98693 18.1881 -0.36535 12.463 0.399362ZM9.90488 6.13189C9.83524 6.87978 9.41569 7.81445 8.93048 8.30248C8.46626 8.76946 8.34896 9.09423 8.27471 10.1187C8.18888 11.3034 7.94985 11.3683 7.25518 10.3958L6.84631 9.82328L6.63413 10.03C6.09276 10.557 6.3507 12.0508 7.12848 12.8931C7.56349 13.3642 7.76291 13.4708 8.62471 13.6926C8.75675 13.7266 8.92632 13.9263 9.04218 14.184C10.5831 17.6129 13.8904 18.6521 16.3397 16.4771C16.9687 15.9185 17.8535 14.6926 18.0535 14.1026C18.1411 13.8441 18.2526 13.7285 18.4565 13.6846C19.3993 13.4822 19.9646 13.0681 20.4064 12.2562C20.7301 11.661 20.734 10.3547 20.4129 10.0417L20.189 9.82345L19.8468 10.4058C19.2589 11.4065 18.9602 11.2912 18.8502 10.0209C18.5383 6.42319 17.5547 5.31945 15.2327 5.96149C13.9615 6.31294 12.1547 6.28996 11.0918 5.90875C10.6568 5.75279 10.2247 5.60001 10.1316 5.56936C9.99252 5.52357 9.95227 5.62343 9.90488 6.13189ZM10.2706 18.1319L10.3008 19.1367L11.9061 19.9337L13.5113 20.7306L15.1493 19.9352L16.7871 19.1398V18.1309C16.7871 17.576 16.7471 17.1462 16.6982 17.1756C16.6493 17.205 16.3737 17.3834 16.0858 17.5721C14.5254 18.5945 12.4606 18.5625 10.802 17.4902L10.2403 17.1271L10.2706 18.1319ZM9.6039 20.4409L9.22333 21.0734L10.0784 22.389C10.5488 23.1127 10.9624 23.7051 10.9975 23.7057C11.0842 23.7069 12.8848 21.3895 12.8848 21.2766C12.8848 21.2078 10.1254 19.7967 10.0098 19.8064C9.99586 19.8075 9.81318 20.0931 9.6039 20.4409ZM15.5479 20.5015C14.7793 20.8785 14.1504 21.2234 14.1504 21.2679C14.1504 21.3773 15.9518 23.7068 16.0354 23.7057C16.0718 23.7051 16.4864 23.1127 16.9567 22.389L17.8119 21.0734L17.4313 20.4409C17.2221 20.0931 17.0271 19.8102 16.9981 19.8123C16.9691 19.8144 16.3165 20.1245 15.5479 20.5015ZM4.0368 21.5584C2.85693 21.784 1.47592 22.6831 0.810914 23.6586C0.0757311 24.737 0.0175781 25.0838 0.0175781 28.3883V31.3059H5.33958H10.6615L10.7694 30.9208C10.8288 30.709 10.9685 30.2122 11.0799 29.8168C11.1912 29.4215 11.4572 28.451 11.671 27.6603C11.8847 26.8696 12.1519 25.912 12.2648 25.5324L12.47 24.8423L12.1888 24.4285C11.8463 23.9245 11.8082 23.9217 11.4538 24.374C10.9613 25.0029 10.8444 24.9188 9.66802 23.0904L8.61331 21.4512L6.55663 21.4605C5.4255 21.4656 4.29157 21.5096 4.0368 21.5584ZM17.4827 22.9115C16.1346 25.011 16.09 25.0431 15.5406 24.3157L15.2251 23.898L14.903 24.3539L14.5809 24.8097L15.1553 26.9025C15.6888 28.8456 16.2038 30.7019 16.3272 31.1262C16.3761 31.2943 16.723 31.3059 21.6986 31.3059H27.0176V28.3899C27.0176 25.0185 26.9411 24.5967 26.1362 23.5321C24.9084 21.9083 23.6568 21.4468 20.4828 21.4482L18.4219 21.449L17.4827 22.9115ZM12.862 22.5376L12.2591 23.3149L12.6611 23.8444C13.2529 24.624 13.7647 24.6548 14.3008 23.9433C14.7746 23.3144 14.7783 23.3453 14.1241 22.488C13.4533 21.609 13.5865 21.6037 12.862 22.5376ZM13.0991 25.2727C13.0454 25.3998 12.8268 26.1507 12.6133 26.9414C12.3997 27.7322 12.0649 28.9532 11.8693 29.6546C11.3559 31.4962 11.1659 31.3059 13.5176 31.3059C15.8694 31.3059 15.6794 31.4962 15.1659 29.6546C14.9703 28.9532 14.6356 27.7322 14.422 26.9414C13.9102 25.0464 13.9079 25.0416 13.5176 25.0416C13.2841 25.0416 13.1701 25.1045 13.0991 25.2727Z" fill="url(#paint0_linear_2_6120)"/>
<defs>
<linearGradient id="paint0_linear_2_6120" x1="27.0176" y1="15.8115" x2="0.0175781" y2="15.8115" gradientUnits="userSpaceOnUse">
<stop stop-color="#09D1C7"/>
<stop offset="1" stop-color="#15919B"/>
</linearGradient>
</defs>
</svg>
