<svg width="40" height="37" viewBox="0 0 40 37" fill="none" xmlns="http://www.w3.org/2000/svg">
<path fill-rule="evenodd" clip-rule="evenodd" d="M6.32491 1.01154C1.95578 2.18873 0.721263 7.97785 4.25515 10.7175L4.8797 11.2017L4.0859 11.615C2.27081 12.5603 0.640287 14.7369 0.212466 16.7858C-0.0673565 18.1259 -0.0383911 22.7945 0.251474 23.0573C0.446621 23.2343 1.02667 23.2537 6.11454 23.2537H11.761V24.442C11.761 25.2656 11.6884 25.8931 11.5241 26.4867C10.1106 31.5976 14.0613 36.776 19.4008 36.8113C24.8745 36.8476 28.9181 31.7405 27.5069 26.5737C27.3377 25.9545 27.2151 25.1232 27.1877 24.4108L27.1433 23.2537H32.8774C38.2821 23.2537 38.6228 23.2413 38.8076 23.0366C39.0784 22.7368 39.0908 18.0492 38.8242 16.7858C38.3617 14.5952 36.9529 12.7281 34.9216 11.6139L34.147 11.189L34.6922 10.7968C38.8818 7.78222 36.5182 0.823742 31.3046 0.823742C26.099 0.823742 23.7356 7.78805 27.9196 10.7987L28.4674 11.1927L27.6651 11.6106C26.5817 12.1749 25.0942 13.6636 24.5511 14.7271L24.1479 15.5167L23.6695 15.1915C23.4063 15.0126 23.0179 14.7911 22.8061 14.6993C22.3778 14.5135 22.3325 14.4145 22.6061 14.261C27.0647 11.761 24.9783 4.37236 19.7561 4.16857C14.2653 3.9543 11.7595 10.92 16.1746 14.1245L16.6343 14.4581L16.1224 14.7177C15.8409 14.8605 15.4564 15.0861 15.2681 15.2191C14.8738 15.4976 14.9338 15.5491 14.2528 14.347C13.7267 13.4184 12.397 12.1554 11.3818 11.6202L10.588 11.2017L11.2041 10.7235C15.8442 7.12245 12.0052 -0.518998 6.32491 1.01154ZM31.5726 6.82069C32.459 7.23239 33.3402 7.38577 34.4759 7.32603L35.4655 7.27402L35.3895 7.57949C34.8075 9.91999 31.8198 11.3295 29.6257 10.2989C27.8569 9.46803 26.5296 7.21746 27.6032 6.8693C28.3525 6.62622 29.1247 6.19375 29.4767 5.82007L29.8121 5.46396L30.3821 5.99822C30.6957 6.29215 31.2314 6.66223 31.5726 6.82069ZM6.86848 6.05404C7.87392 6.98264 9.23878 7.41373 10.8975 7.32645C12.0357 7.26661 12.0273 7.2539 11.5209 8.26924C9.77084 11.7783 4.65855 11.2515 3.61527 7.45472L3.49697 7.02437L3.98674 6.87756C4.70633 6.66202 5.50256 6.23071 5.82975 5.87927C6.2046 5.47657 6.25186 5.48451 6.86848 6.05404ZM19.4764 9.94488C20.248 10.4055 21.6512 10.7007 22.6877 10.6206C23.768 10.5372 23.7708 10.5422 23.2427 11.6009C21.6923 14.7097 17.1551 14.6167 15.6521 11.4453C15.2078 10.5077 15.2118 10.2494 15.6722 10.1573C16.2292 10.0456 17.2806 9.49038 17.633 9.12178L17.9522 8.78803L18.4988 9.23787C18.7995 9.4853 19.2393 9.80348 19.4764 9.94488ZM6.01717 14.7386C7.26036 16.9339 7.28002 16.9593 7.74506 16.962C8.15649 16.9645 8.25068 16.8403 9.45518 14.7089C10.027 13.6972 10.5337 12.8248 10.5812 12.7704C10.8721 12.4373 12.8352 14.3096 13.3995 15.4583C13.8638 16.4032 13.8639 16.3992 13.3667 17.0073C12.524 18.0377 11.9499 19.5564 11.8017 21.1472L11.727 21.9483H6.53242H1.33778V19.78C1.33778 16.6762 1.73283 15.4105 3.15774 13.9491C3.69339 13.3997 4.58043 12.7183 4.78572 12.6984C4.82547 12.6946 5.37962 13.6127 6.01717 14.7386ZM29.5562 14.6793C31.3561 17.806 31.2597 17.8067 33.0777 14.6496C33.679 13.6052 34.1924 12.7286 34.2184 12.7013C34.3132 12.6023 35.5943 13.5743 36.0447 14.087C37.3518 15.5748 37.6071 16.4216 37.6722 19.4857L37.7247 21.9483H32.4419H27.159V21.3145C27.159 20.023 26.5448 18.2778 25.6639 17.0666C25.1747 16.3941 25.1732 16.3297 25.6271 15.4653C26.2062 14.3625 27.8353 12.6915 28.3315 12.6915C28.3757 12.6915 28.9269 13.586 29.5562 14.6793ZM17.8034 17.9726C19.0863 20.2185 19.049 20.1685 19.4449 20.1663C19.9125 20.1636 19.9279 20.144 21.1876 17.9478L22.3593 15.9057L22.7533 16.1386C24.7207 17.3017 25.7454 19.1539 25.8317 21.7035L25.8817 23.1795L25.0882 22.4511C21.9588 19.5779 17.0323 19.5947 13.9121 22.4891L13.0639 23.2759V22.1563C13.0639 20.1797 13.6147 18.619 14.7535 17.3685C15.3625 16.6996 16.5077 15.8646 16.6385 15.9942C16.6827 16.0379 17.2069 16.9283 17.8034 17.9726ZM19.9845 25.1016C20.131 25.2484 20.1707 25.5643 20.1707 26.5851V27.8821H21.465C22.8481 27.8821 23.3656 28.1282 23.1661 28.6907C23.0019 29.1537 22.8893 29.1876 21.5183 29.1876H20.1707V30.493C20.1707 32.1352 19.8654 32.6038 19.131 32.0884C18.8851 31.9158 18.8678 31.8145 18.8678 30.5456V29.1876H17.5201C16.1491 29.1876 16.0367 29.1537 15.8724 28.6907C15.6728 28.1282 16.1904 27.8821 17.5734 27.8821H18.8678V26.5851C18.8678 25.1779 18.9702 24.9152 19.5193 24.9152C19.6728 24.9152 19.8822 24.9991 19.9845 25.1016Z" fill="url(#paint0_linear_2_6105)"/>
<defs>
<linearGradient id="paint0_linear_2_6105" x1="39.0176" y1="18.8115" x2="0.0175781" y2="18.8115" gradientUnits="userSpaceOnUse">
<stop stop-color="#09D1C7"/>
<stop offset="1" stop-color="#15919B"/>
</linearGradient>
</defs>
</svg>
