<svg width="29" height="34" viewBox="0 0 29 34" fill="none" xmlns="http://www.w3.org/2000/svg">
<path fill-rule="evenodd" clip-rule="evenodd" d="M4.4804 2.01812V3.72471H2.66494C0.309014 3.72471 0.570088 3.42335 0.570088 6.14243V8.27562H12.8596H25.1492V6.14243C25.1492 3.42335 25.4102 3.72471 23.0544 3.72471H21.2389V2.01812V0.311523H20.6803H20.1216V2.01812V3.72471H12.8596H5.59763V2.01812V0.311523H5.03901H4.4804V2.01812ZM17.3286 6.00017V6.56903H12.8596H8.39071V6.00017V5.4313H12.8596H17.3286V6.00017ZM0.570088 18.7308C0.570088 29.015 0.539431 28.3116 1.01001 28.8167C1.6521 29.5058 2.83977 29.5058 3.48186 28.8167C3.88165 28.3876 3.92178 28.1942 3.92178 26.6949V25.3416H10.264H16.6062L16.927 24.6838C17.1034 24.3221 17.4084 23.8101 17.6047 23.546L17.9617 23.0661H17.0865H16.2113V22.4972V21.9284H17.3286H18.4458V22.2508V22.5731L18.9171 22.2088C20.6082 20.9019 23.2005 20.471 25.0422 21.1907C25.1377 21.2281 25.1492 20.6018 25.1492 15.3229V9.41335H12.8596H0.570088V18.7308ZM5.03901 12.2577V12.8265H3.92178H2.80455V12.2577V11.6888H3.92178H5.03901V12.2577ZM9.50794 12.2577V12.8265H8.39071H7.27348V12.2577V11.6888H8.39071H9.50794V12.2577ZM13.9769 12.2577V12.8265H12.8596H11.7424V12.2577V11.6888H12.8596H13.9769V12.2577ZM18.4458 12.2577V12.8265H17.3286H16.2113V12.2577V11.6888H17.3286H18.4458V12.2577ZM22.9147 12.2577V12.8265H21.7975H20.6803V12.2577V11.6888H21.7975H22.9147V12.2577ZM5.03901 15.6709V16.2397H3.92178H2.80455V15.6709V15.102H3.92178H5.03901V15.6709ZM9.50794 15.6709V16.2397H8.39071H7.27348V15.6709V15.102H8.39071H9.50794V15.6709ZM13.9769 15.6709V16.2397H12.8596H11.7424V15.6709V15.102H12.8596H13.9769V15.6709ZM18.4458 15.6709V16.2397H17.3286H16.2113V15.6709V15.102H17.3286H18.4458V15.6709ZM22.9147 15.6709V16.2397H21.7975H20.6803V15.6709V15.102H21.7975H22.9147V15.6709ZM5.03901 19.084V19.6529H3.92178H2.80455V19.084V18.5152H3.92178H5.03901V19.084ZM9.50794 19.084V19.6529H8.39071H7.27348V19.084V18.5152H8.39071H9.50794V19.084ZM13.9769 19.084V19.6529H12.8596H11.7424V19.084V18.5152H12.8596H13.9769V19.084ZM18.4458 19.084V19.6529H17.3286H16.2113V19.084V18.5152H17.3286H18.4458V19.084ZM22.9147 19.084V19.6529H21.7975H20.6803V19.084V18.5152H21.7975H22.9147V19.084ZM5.03901 22.4972V23.0661H3.92178H2.80455V22.4972V21.9284H3.92178H5.03901V22.4972ZM9.50794 22.4972V23.0661H8.39071H7.27348V22.4972V21.9284H8.39071H9.50794V22.4972ZM13.9769 22.4972V23.0661H12.8596H11.7424V22.4972V21.9284H12.8596H13.9769V22.4972ZM21.5182 22.073C18.0528 22.9782 16.3107 26.9176 17.9188 30.2125C19.9356 34.3445 25.8759 34.3445 27.9093 30.2125C30.0666 25.8283 26.1649 20.8592 21.5182 22.073ZM24.12 25.6429L25.3253 24.4171L25.6912 24.7896L26.057 25.1622L24.8532 26.3896L23.6494 27.617L24.8532 28.8444L26.057 30.0719L25.6912 30.4444L25.3253 30.8169L24.12 29.5911L22.9147 28.3652L21.7094 29.5911L20.5041 30.8169L20.1383 30.4444L19.7724 30.0719L20.9762 28.8444L22.18 27.617L20.9762 26.3896L19.7724 25.1622L20.1383 24.7896L20.5041 24.4171L21.7094 25.6429L22.9147 26.8688L24.12 25.6429ZM5.03767 26.9592C5.0349 27.9126 4.91227 28.4352 4.49541 29.2703C4.48076 29.2996 7.16944 29.3236 10.4704 29.3236H16.472L16.3707 28.8792C16.3003 28.5706 16.2766 28.1359 16.2927 27.457L16.3161 26.4792H10.6775L5.03901 26.4793L5.03767 26.9592ZM0.570088 30.882C0.570088 32.3517 -0.69283 32.1679 9.40551 32.1679H17.9617L17.6203 31.7086C17.4325 31.4561 17.188 31.0722 17.0768 30.8555L16.8747 30.4617L9.64764 30.4601C1.39907 30.4583 1.72441 30.4782 0.622464 29.9078C0.593684 29.8928 0.570088 30.3313 0.570088 30.882Z" fill="url(#paint0_linear_542_49424)"/>
<defs>
<linearGradient id="paint0_linear_542_49424" x1="28.5195" y1="16.8115" x2="0.519531" y2="16.8115" gradientUnits="userSpaceOnUse">
<stop stop-color="#09D1C7"/>
<stop offset="1" stop-color="#15919B"/>
</linearGradient>
</defs>
</svg>
