<svg width="34" height="33" viewBox="0 0 34 33" fill="none" xmlns="http://www.w3.org/2000/svg">
<path fill-rule="evenodd" clip-rule="evenodd" d="M14.7281 0.905299C3.49678 2.06455 -3.25698 13.8368 1.63411 23.7291C7.62158 35.839 25.4002 35.839 31.3878 23.7291C36.9479 12.4834 27.5321 -0.416332 14.7281 0.905299ZM16.1356 4.26903V4.90649H16.464H16.7924V4.25722V3.60803L17.5665 3.67174C19.0733 3.79588 20.8667 4.2648 22.2582 4.89865C22.9997 5.23646 22.9654 5.14633 22.5946 5.78414L22.2977 6.29473L22.5242 6.46373C22.8633 6.71677 22.9379 6.68224 23.2319 6.13614C23.5642 5.51885 23.4555 5.5044 24.561 6.31271C25.6387 7.10067 26.7669 8.22449 27.4644 9.20488C28.0042 9.96385 28.0078 9.93653 27.3251 10.2704C26.8834 10.4863 26.8488 10.5862 27.1036 10.9078L27.2766 11.1264L27.8108 10.8298C28.1046 10.6667 28.3592 10.5478 28.3768 10.5657C28.9968 11.1984 30.0137 14.6403 30.0211 16.1307L30.0227 16.4722H29.3659H28.7091V16.791V17.1096H29.3794H30.0497L29.9866 17.7684C29.8966 18.7083 29.5964 20.0696 29.2801 20.9721C29.0176 21.7213 28.436 23.0291 28.3654 23.0291C28.3464 23.0291 28.0936 22.8991 27.8034 22.7401C27.2901 22.4591 27.2723 22.456 27.1411 22.6263C26.8068 23.0608 26.8129 23.0776 27.4002 23.35C27.7072 23.4925 27.9584 23.6255 27.9584 23.6457C27.9584 24.0857 25.4465 26.7002 24.2836 27.4705C23.4148 28.0461 23.5417 28.0539 23.2222 27.405C22.9415 26.835 22.9241 26.8291 22.4765 27.1536C22.301 27.2807 22.3045 27.2988 22.6 27.8069C22.7671 28.0943 22.8905 28.3421 22.8742 28.3574C22.2531 28.9432 18.6576 29.9417 17.1443 29.9487L16.7924 29.9503V29.3129V28.6754H16.464H16.1356V29.3129V29.9503L15.8307 29.9498C14.4877 29.9474 12.2161 29.3812 10.6229 28.6517C9.93544 28.3368 9.96159 28.4148 10.3321 27.7864L10.6276 27.2851L10.4024 27.1171C10.071 26.8698 9.96812 26.9035 9.74561 27.3321C9.40155 27.9947 9.42978 27.9912 8.64778 27.4673C7.62557 26.7824 6.44994 25.6706 5.65704 24.6391C4.83655 23.5716 4.85126 23.6813 5.48592 23.3595C6.0485 23.0742 6.08408 23.0017 5.82345 22.6726L5.64923 22.4528L5.12315 22.7409C4.47687 23.095 4.56348 23.1099 4.28777 22.5965C3.62597 21.3645 3.09071 19.4729 2.94773 17.861L2.88101 17.1096H3.54998H4.21896V16.791V16.4722H3.56215C2.79821 16.4722 2.83053 16.5453 3.00329 15.2082C3.18967 13.765 4.07933 11.016 4.48849 10.619C4.54677 10.5624 4.77028 10.6371 5.11525 10.8287L5.65132 11.1264L5.82445 10.9078C6.08454 10.5796 6.04468 10.4859 5.53921 10.2372C4.90972 9.92772 4.91036 9.93539 5.45523 9.17563C6.34599 7.93364 9.08826 5.50572 9.39347 5.6889C9.43949 5.71648 9.58257 5.94098 9.71148 6.18795C9.96758 6.67854 10.0642 6.71722 10.4024 6.46478L10.6276 6.29676L10.3321 5.79542C9.96313 5.16959 9.95332 5.22342 10.4822 4.96482C11.9536 4.24515 14.1664 3.68857 15.7368 3.6431L16.1356 3.63156V4.26903ZM16.5109 11.816V16.8365H21.6838H26.8567L26.7912 16.0851C26.3596 11.1296 22.391 7.27776 17.285 6.85889L16.5109 6.79546V11.816Z" fill="url(#paint0_linear_542_49452)"/>
<defs>
<linearGradient id="paint0_linear_542_49452" x1="33.0195" y1="16.8115" x2="0.0195313" y2="16.8115" gradientUnits="userSpaceOnUse">
<stop stop-color="#09D1C7"/>
<stop offset="1" stop-color="#15919B"/>
</linearGradient>
</defs>
</svg>
