<svg width="38" height="35" viewBox="0 0 38 35" fill="none" xmlns="http://www.w3.org/2000/svg">
<path fill-rule="evenodd" clip-rule="evenodd" d="M16.7938 0.904007C16.4976 0.975509 16.5807 0.930267 13.8405 2.51048C10.9 4.20616 10.6884 4.39893 10.5579 5.50096C10.4829 6.13307 11.1792 7.89317 11.5068 7.89986C11.5817 7.90133 13.2436 6.97132 14.2731 6.3517L14.5187 6.20388L14.8753 6.82232C15.0715 7.16242 15.2455 7.44065 15.2619 7.44065C15.2784 7.44065 15.5251 7.28418 15.8104 7.09288C16.0957 6.90159 16.615 6.59906 16.9644 6.42055C17.7125 6.03855 17.6843 6.13523 17.2574 5.41304L16.9141 4.83256L17.3534 4.57636C17.5949 4.43542 18.2697 4.04546 18.8527 3.70978C20.0624 3.01335 20.0153 3.12734 19.4726 2.21149C18.8132 1.09864 17.8782 0.642293 16.7938 0.904007ZM29.3566 0.904499C28.9868 1.01741 28.5478 1.28246 28.3094 1.5367C28.076 1.78563 27.3125 3.04699 27.3691 3.09007C27.3847 3.10187 28.0617 3.48918 28.8738 3.95065C29.6859 4.41221 30.3515 4.81289 30.3529 4.84112C30.3544 4.86925 30.2017 5.1524 30.0139 5.47028L29.6722 6.04809L30.3384 6.40836C30.7048 6.60644 31.2404 6.92391 31.5288 7.11383C31.8171 7.30385 32.0638 7.44636 32.0771 7.43072C32.0903 7.41508 32.2548 7.13478 32.4427 6.80796L32.7842 6.21372L34.24 7.05561C35.977 8.06017 35.7966 8.03725 36.216 7.30621C36.6783 6.50061 36.7588 6.2204 36.7162 5.56686C36.6406 4.40975 36.4413 4.22515 33.3322 2.43229C30.5007 0.799558 30.1466 0.663341 29.3566 0.904499ZM21.6366 6.02134C16.6329 6.83205 12.578 10.2364 10.9878 14.9618C10.6106 16.0827 10.6105 16.0766 11.0118 16.1965C11.5253 16.3499 11.9062 16.5702 12.3085 16.9466C12.5635 17.1851 12.6915 17.2615 12.7153 17.1892C12.7345 17.1312 12.8239 16.7899 12.9142 16.4307C15.3624 6.68079 28.8948 5.20827 33.5322 14.1871C37.9178 22.6785 29.927 32.5351 20.7296 29.9791C20.1529 29.8188 20.1549 29.8065 20.6262 30.6093C21.0393 31.3127 21.2887 31.9215 21.2887 32.2262C21.2887 32.7044 24.4975 32.7713 26.4752 32.3341C36.5632 30.1045 40.46 17.8607 33.517 10.2087C30.6065 7.00102 25.8777 5.33426 21.6366 6.02134ZM21.8692 9.40877C17.4454 10.2074 13.6818 14.411 13.6818 18.5536C13.6818 18.9376 15.8986 22.9618 16.1101 22.9618C16.1309 22.9618 16.4176 22.8062 16.7472 22.616C17.3932 22.2435 17.5544 22.2081 17.8052 22.3837C18.2446 22.6915 18.0775 23.1157 17.3549 23.5269C17.0885 23.6786 16.8226 23.8345 16.7639 23.8735C16.6796 23.9296 16.9263 24.3962 17.9413 26.0992L19.2256 28.254L19.7769 28.4818C27.7275 31.7677 35.8399 24.1969 33.1191 16.0302C31.5783 11.4055 26.7033 8.53609 21.8692 9.40877ZM24.074 10.4491C24.2946 10.7099 24.2702 12.2443 24.0415 12.4878C23.5103 13.0532 23.1328 12.6186 23.1328 11.4418C23.1328 10.2638 23.5474 9.82666 24.074 10.4491ZM19.6762 11.4368C19.9576 11.5875 20.7064 13.0329 20.6112 13.2419C20.259 14.015 19.3696 13.39 18.8807 12.0261C18.7395 11.6321 19.2854 11.2276 19.6762 11.4368ZM28.2322 11.5186C28.7251 11.9064 27.7149 13.7761 27.0963 13.6208C26.5701 13.4887 26.5599 13.1404 27.0569 12.2719C27.5864 11.3469 27.8218 11.1959 28.2322 11.5186ZM24.0199 13.6225L24.2086 13.8112V15.7304C24.2086 17.6025 24.2124 17.6509 24.3672 17.7C24.4546 17.7277 24.6467 17.8565 24.7944 17.9861C26.293 19.3019 24.6693 21.6962 22.8862 20.8C22.4938 20.6028 22.5891 20.5657 21.1564 21.4743C19.4477 22.5581 19.2983 22.611 18.9905 22.2402C18.6512 21.8313 18.8253 21.6435 20.5544 20.5538L21.9152 19.6963L21.9334 19.2279C21.9576 18.607 22.2399 18.1152 22.7566 17.794L23.1328 17.5603V15.6564V13.7525L23.3352 13.5932C23.6012 13.3841 23.7895 13.3922 24.0199 13.6225ZM17.2333 14.9238C18.0039 15.3705 18.1687 15.6025 17.9514 15.9342C17.6893 16.3342 17.5275 16.3333 16.7833 15.9277C15.7987 15.391 15.5759 15.0996 15.8619 14.7231C16.1338 14.365 16.3152 14.3916 17.2333 14.9238ZM31.3832 14.6639C31.7531 15.0187 31.5366 15.3488 30.5714 15.9011C29.8175 16.3326 29.5806 16.3421 29.3592 15.9494C29.1506 15.5795 29.3091 15.368 30.1638 14.8752C30.9617 14.4151 31.099 14.3914 31.3832 14.6639ZM9.35955 17.304C9.0049 17.4362 8.59389 17.7434 8.39502 18.0249C7.90779 18.7141 0.160824 31.8141 0.0907973 32.067C-0.20947 33.1512 0.431979 34.3657 1.46733 34.6731C2.08852 34.8576 18.1293 34.8576 18.7505 34.6731C19.7857 34.3657 20.4269 33.1519 20.1273 32.067C20.028 31.7073 12.0761 18.3301 11.695 17.8816C11.1942 17.2921 10.1104 17.024 9.35955 17.304ZM16.6687 18.7438C17.1034 18.8954 17.2057 19.3804 16.8602 19.6522C16.6369 19.8279 15.2032 19.8909 14.9167 19.7376C14.4973 19.5131 14.5978 18.8587 15.0718 18.726C15.3756 18.641 16.4067 18.6525 16.6687 18.7438ZM23.2096 18.8126C22.9747 19.0475 23.0001 19.5259 23.2584 19.7291C23.865 20.2062 24.6033 19.468 24.1262 18.8613C23.923 18.6031 23.4446 18.5776 23.2096 18.8126ZM32.2666 18.7438C32.7014 18.8954 32.8036 19.3804 32.4582 19.6522C32.178 19.8726 30.6967 19.8908 30.4442 19.677C30.0953 19.3818 30.2402 18.7986 30.6836 18.7129C31.044 18.6433 32.0336 18.6627 32.2666 18.7438ZM10.5916 20.8529C11.212 21.112 11.5295 21.5826 11.5322 22.2472C11.5381 23.6352 11.1963 28.2401 11.0644 28.5497C10.7216 29.3542 9.58035 29.4039 9.17751 28.6319C9.02378 28.3373 8.61818 22.3821 8.71663 21.8652C8.86681 21.077 9.85318 20.5444 10.5916 20.8529ZM30.6995 22.6899C31.4194 23.1135 31.5081 23.2072 31.5081 23.5444C31.5081 24.1179 31.0512 24.1527 30.1602 23.6466C29.2088 23.1063 29.03 22.7853 29.4822 22.4295C29.7777 22.1971 29.9106 22.2256 30.6995 22.6899ZM20.4478 25.0245C20.8883 25.3812 20.0235 27.111 19.4047 27.111C18.7909 27.111 18.7528 26.6682 19.2867 25.7355C19.7926 24.8514 20.044 24.6974 20.4478 25.0245ZM27.4683 24.9295C27.6267 24.9903 28.4346 26.4167 28.4346 26.6356C28.4346 27.0383 27.7605 27.2838 27.4986 26.9765C27.2654 26.7028 26.6674 25.5757 26.6674 25.4099C26.6674 25.0503 27.1027 24.7892 27.4683 24.9295ZM24.074 26.0471C24.4956 26.5452 24.1785 28.2636 23.6651 28.2636C23.2189 28.2636 23.1328 28.0658 23.1328 27.0398C23.1328 25.8618 23.5474 25.4246 24.074 26.0471ZM32.6222 30.6168C32.4954 30.7248 32.0286 31.0512 31.585 31.3423C31.1412 31.6333 30.7157 31.9154 30.6395 31.9692C30.3919 32.1439 33.0264 34.6847 33.5327 34.7595C34.7198 34.9347 35.6121 33.7593 35.0822 32.7183C34.9593 32.4768 32.9953 30.4112 32.8948 30.4178C32.8717 30.4193 32.749 30.5088 32.6222 30.6168ZM10.4826 30.6747C11.2572 30.9982 11.3312 31.9932 10.6162 32.4694C9.71195 33.0717 8.63962 31.8509 9.31687 30.9901C9.61517 30.6107 10.0489 30.4934 10.4826 30.6747Z" fill="url(#paint0_linear_542_49438)"/>
<defs>
<linearGradient id="paint0_linear_542_49438" x1="37.0233" y1="17.8115" x2="0.0166016" y2="17.8115" gradientUnits="userSpaceOnUse">
<stop stop-color="#09D1C7"/>
<stop offset="1" stop-color="#15919B"/>
</linearGradient>
</defs>
</svg>
