<svg width="35" height="36" viewBox="0 0 35 36" fill="none" xmlns="http://www.w3.org/2000/svg">
<path fill-rule="evenodd" clip-rule="evenodd" d="M25.4554 0.442704C16.5028 2.38229 17.7488 15.9016 26.8841 15.944C34.3592 15.9788 37.3831 5.93814 31.1866 1.65801C29.5806 0.548745 27.2486 0.0542577 25.4554 0.442704ZM13.4466 0.779859C12.566 1.02288 12.5586 1.06817 12.5586 6.19418C12.5586 9.5407 12.5357 10.6567 12.4659 10.7285C12.3959 10.8007 11.2557 10.824 7.80784 10.824C4.84442 10.824 3.08282 10.8544 2.78736 10.9106C1.88298 11.0827 1.12777 11.6696 0.750163 12.4936L0.549894 12.9309L0.528542 16.9174C0.507685 20.799 0.511441 20.9156 0.669106 21.3496C0.963085 22.1586 1.82763 22.923 2.65431 23.1049L2.90529 23.16V18.8225V14.485L3.0931 14.3582C3.23871 14.2601 3.3168 14.2511 3.43947 14.3187C3.59773 14.4059 3.59793 14.4171 3.61839 24.0837L3.63895 33.7614L3.80492 34.0805C4.55875 35.5294 6.54602 35.5321 7.20051 34.085L7.38288 33.6818L7.38367 29.4429C7.38447 25.0201 7.39356 24.8965 7.71917 24.8965C8.08383 24.8965 8.07938 24.8432 8.07987 29.2653C8.08037 33.7314 8.08808 33.8326 8.4725 34.4078C9.65277 36.174 12.6649 34.5545 11.5967 32.7281C10.2712 30.4619 10.322 27.3976 11.7187 25.3612C11.8567 25.1602 11.8635 24.9075 11.8635 20.0093C11.8635 14.2418 11.825 14.5954 12.4618 14.519C13.3163 14.4164 14.0885 13.9468 14.5288 13.2618C15.0355 12.4736 15.0366 12.459 15.0127 6.7188L14.9912 1.56153L14.8194 1.31363C14.5128 0.871144 13.933 0.645628 13.4466 0.779859ZM27.0822 1.12709C27.2598 1.22489 27.3051 2.28897 27.1389 2.46004C26.8291 2.77887 26.5365 2.4695 26.5365 1.82297C26.5365 1.20067 26.7414 0.939328 27.0822 1.12709ZM27.1389 3.84336C27.319 4.02888 27.2658 8.33486 27.0822 8.43602C26.7542 8.61676 23.1625 8.54063 23.033 8.35023C22.9169 8.17967 22.9434 7.97002 23.0944 7.86358C23.1399 7.83152 23.933 7.80465 24.8569 7.80394L26.5365 7.80282V5.92074C26.5365 4.28116 26.553 4.02003 26.6643 3.89333C26.8114 3.72602 27.0051 3.70567 27.1389 3.84336ZM6.95961 4.78623C5.75206 5.15005 4.90156 6.5577 5.12901 7.81636C5.72547 11.1187 10.3565 10.7545 10.3565 7.40522C10.3565 5.54257 8.6967 4.26284 6.95961 4.78623ZM21.3954 7.92769C21.709 8.25049 21.4153 8.51835 20.7481 8.51835C20.2046 8.51835 20.0495 8.43887 20.0495 8.16053C20.0495 7.79783 21.0938 7.6172 21.3954 7.92769ZM33.7031 7.89818C34.01 8.21416 33.6957 8.51835 33.0622 8.51835C32.5468 8.51835 32.3285 8.40304 32.3285 8.13102C32.3285 7.87915 32.4991 7.80282 33.0622 7.80282C33.3856 7.80282 33.6485 7.8419 33.7031 7.89818ZM27.1847 13.8915C27.4202 14.5234 27.1461 15.405 26.7773 15.2018C26.5307 15.0659 26.4315 14.2753 26.6165 13.9194C26.7155 13.7289 27.1168 13.7091 27.1847 13.8915ZM15.9846 23.1071C11.7077 24.0647 9.87558 29.4112 12.5973 32.9924C15.2315 36.4583 20.6308 35.9525 22.5895 32.0564C24.9537 27.3534 20.9923 21.9859 15.9846 23.1071ZM20.6033 26.7772C20.681 26.8496 20.7446 26.9667 20.7446 27.0375C20.7446 27.1936 16.4194 31.6545 16.2681 31.6545C16.2093 31.6545 15.6459 31.1283 15.0163 30.4852C13.7988 29.2418 13.6801 29.0376 14.0685 28.8554C14.2566 28.7672 14.3106 28.8093 15.266 29.7907L16.2663 30.8183L18.2929 28.732C20.4296 26.5322 20.3828 26.5718 20.6033 26.7772Z" fill="url(#paint0_linear_542_49410)"/>
<defs>
<linearGradient id="paint0_linear_542_49410" x1="34.5195" y1="17.8115" x2="0.519531" y2="17.8115" gradientUnits="userSpaceOnUse">
<stop stop-color="#09D1C7"/>
<stop offset="1" stop-color="#15919B"/>
</linearGradient>
</defs>
</svg>
