<svg width="46" height="45" viewBox="0 0 46 45" fill="none" xmlns="http://www.w3.org/2000/svg">
<path fill-rule="evenodd" clip-rule="evenodd" d="M30.087 0.0724619C21.9832 0.890387 15.9255 7.66125 16.5024 15.2566L16.5685 16.1268L22.0497 16.1631C28.7249 16.2072 29.1959 16.2933 31.2965 17.8526C33.7146 19.6477 34.4285 21.4756 34.4308 25.8786L34.4324 28.6559L34.7647 28.5934C39.1331 27.7718 43.566 23.8519 45.1669 19.3949C48.7013 9.55521 40.4819 -0.976647 30.087 0.0724619ZM33.7167 5.20979C34.4275 5.70844 34.432 5.73319 34.4351 9.11695L34.438 12.1825L36.6891 14.0157C39.1081 15.9857 39.3392 16.2407 39.3392 16.9406C39.3392 18.0213 38.098 18.8117 37.1606 18.328C36.6679 18.0739 31.6536 13.8924 31.4898 13.5991C31.3042 13.2668 31.1618 7.35827 31.3148 6.33955C31.4809 5.23428 32.8401 4.59496 33.7167 5.20979ZM10.7792 19.3547C8.23316 19.7191 6.63251 21.8477 6.62465 24.8794L6.62269 25.6557L5.83028 25.6577C2.71428 25.6655 0.59067 27.2097 0.184321 29.7628C-0.682687 35.2105 1.54942 38.578 6.0275 38.578H7.22992L7.58693 39.3352C8.81396 41.9371 11.1811 43.9059 14.0381 44.7006C15.0308 44.9767 21.5333 45.1118 22.9813 44.8864C26.9875 44.2627 30.338 41.0531 31.1181 37.0917C31.3693 35.8161 31.3274 23.4726 31.0692 22.6597C30.53 20.9626 28.9039 19.6024 27.1108 19.3484C26.2474 19.2261 11.638 19.2317 10.7792 19.3547ZM6.62269 32.1272V35.2929L5.77152 35.2576C4.06551 35.1868 3.52633 34.4923 3.46809 32.2908C3.39454 29.5061 3.75221 28.9922 5.77911 28.9705L6.62269 28.9614V32.1272Z" fill="url(#paint0_linear_131_5510)"/>
<defs>
<linearGradient id="paint0_linear_131_5510" x1="46" y1="22.5" x2="0" y2="22.5" gradientUnits="userSpaceOnUse">
<stop stop-color="#09D1C7"/>
<stop offset="1" stop-color="#15919B"/>
</linearGradient>
</defs>
</svg>
