<svg width="39" height="47" viewBox="0 0 39 47" fill="none" xmlns="http://www.w3.org/2000/svg">
<path fill-rule="evenodd" clip-rule="evenodd" d="M13.8878 0.15926C12.4183 0.650562 11.4732 1.81921 11.2982 3.36116C11.1974 4.24877 11.0648 4.37126 10.2046 4.37126C8.38764 4.37126 8.12372 4.70265 8.22718 6.8539C8.28191 7.99178 8.28725 8.01179 8.62111 8.31583L8.95952 8.62422H14.9626H20.9658L21.2705 8.31338L21.5754 8.00267V6.62662C21.5754 4.71802 21.2818 4.37126 19.6656 4.37126C18.715 4.37126 18.5939 4.26115 18.4565 3.27161C18.1435 1.01843 15.8966 -0.512232 13.8878 0.15926ZM0.484781 7.45108C-0.0358374 7.86848 -0.0170151 7.08662 0.0120862 27.1247L0.0394522 45.9971L0.271995 46.3295C0.778864 47.0538 -0.0814902 47.011 13.3352 46.981L25.4504 46.9541L24.7384 46.4236C24.3467 46.1318 23.7149 45.5696 23.3345 45.1742L22.6426 44.4554H12.775C3.04649 44.4554 2.90446 44.4524 2.69888 44.2428C2.49223 44.0321 2.49023 43.8884 2.49023 28.5145V12.999L2.76669 12.7773L3.04315 12.5556L14.9779 12.5835L26.9127 12.6114L27.112 12.8623C27.3044 13.1045 27.3114 13.393 27.3114 20.9645V28.8156L27.7995 28.6658C28.0679 28.5835 28.6324 28.4593 29.0535 28.3901L29.8195 28.2642L29.7909 18.2581L29.7622 8.25213L29.5194 7.90495C29.0675 7.25905 28.9724 7.24204 25.8186 7.24204H22.9596L22.8951 7.72082C22.7544 8.7678 22.0029 9.66112 21.0173 9.95318C20.0109 10.2515 8.95217 10.1428 8.37722 9.82893C7.53889 9.37138 6.99184 8.58557 6.89373 7.69809L6.8434 7.24204H3.79445C0.9209 7.24204 0.730406 7.25401 0.484781 7.45108ZM6.37218 16.445C6.19396 16.5723 6.14043 16.7159 6.14043 17.0666C6.14043 17.9372 5.46176 17.8744 14.883 17.8744C24.3079 17.8744 23.6612 17.9331 23.6612 17.0769C23.6612 16.221 24.3027 16.2795 14.9241 16.2795C7.56252 16.2795 6.57735 16.2986 6.37218 16.445ZM6.5576 20.181C6.12174 20.3398 5.97704 21.1994 6.33119 21.5261C6.64129 21.8122 23.2341 21.7944 23.4886 21.5076C23.8158 21.1391 23.703 20.4581 23.2771 20.2294C23.0436 20.1042 6.8968 20.0574 6.5576 20.181ZM6.31304 24.1294C6.04859 24.4271 6.0837 25.1582 6.37218 25.3643C6.78093 25.6561 23.1645 25.6109 23.4527 25.3171C23.7519 25.0121 23.7387 24.3211 23.4295 24.1004C23.0422 23.8238 6.55946 23.8517 6.31304 24.1294ZM6.5576 27.73C5.78748 28.0106 6.03978 29.1774 6.89773 29.3033C8.17618 29.4907 23.2189 29.3075 23.4418 29.1017C23.7711 28.7978 23.7424 28.162 23.3865 27.8766C23.1203 27.6632 7.1236 27.5238 6.5576 27.73ZM28.7367 29.843C21.0261 31.6008 19.6018 42.2926 26.5854 45.9908C32.2963 49.015 38.9969 44.8865 39 38.3417C39.0027 32.7957 33.9906 28.6453 28.7367 29.843ZM6.31304 31.7847C6.10145 32.023 6.08797 32.646 6.28848 32.9256C6.43145 33.1249 6.63342 33.1328 12.2873 33.161L18.1383 33.1903L18.3967 32.9267C18.7154 32.6019 18.7377 32.0995 18.4468 31.8029C18.1348 31.4849 6.59444 31.4676 6.31304 31.7847ZM30.9141 31.9575C31.1679 32.2162 31.1702 32.2358 31.1702 34.233V36.2475L31.5346 36.4666C31.7351 36.5872 32.0492 36.9029 32.2326 37.1683L32.5661 37.6506H33.4325C34.3943 37.6506 34.7161 37.824 34.7161 38.3417C34.7161 38.8715 34.3995 39.0329 33.3602 39.0329C32.6053 39.0329 32.4217 39.0634 32.4217 39.1886C32.4217 40.0369 30.6345 40.7848 29.6299 40.3569C27.9371 39.6357 27.9202 36.867 29.6052 36.3218C29.8051 36.2572 29.8144 36.1626 29.8144 34.2083C29.8144 32.1241 29.8513 31.9089 30.2316 31.7703C30.529 31.6619 30.6593 31.6976 30.9141 31.9575ZM6.37218 35.4771C6.06942 35.6933 6.04405 36.4655 6.33119 36.7305C6.65665 37.0307 18.1503 36.9959 18.4468 36.6938C18.7366 36.3982 18.7154 35.8947 18.3993 35.5725L18.1434 35.3116H12.3737C7.3205 35.3116 6.57522 35.3321 6.37218 35.4771ZM29.9661 37.7622C29.3589 38.4462 30.1575 39.4716 30.9575 39.0351C31.2222 38.8907 31.3943 38.344 31.2754 38.0253C31.089 37.5256 30.3144 37.3699 29.9661 37.7622ZM6.56053 39.2561C5.90148 39.5279 5.99693 40.6156 6.69523 40.7909C6.82031 40.8222 9.47279 40.8343 12.5897 40.8176L18.2567 40.7872L18.456 40.5363C18.7106 40.2156 18.7106 39.7639 18.456 39.4434L18.2567 39.1923L12.5375 39.1711C8.9184 39.1577 6.72366 39.1889 6.56053 39.2561Z" fill="url(#paint0_linear_131_5500)"/>
<defs>
<linearGradient id="paint0_linear_131_5500" x1="39" y1="23.5" x2="0" y2="23.5" gradientUnits="userSpaceOnUse">
<stop stop-color="#09D1C7"/>
<stop offset="1" stop-color="#15919B"/>
</linearGradient>
</defs>
</svg>
