<svg width="29" height="26" viewBox="0 0 29 26" fill="none" xmlns="http://www.w3.org/2000/svg">
<path fill-rule="evenodd" clip-rule="evenodd" d="M2.16004 0.55147C1.82887 1.35724 1.86838 1.31146 1.28935 1.56081L0.751076 1.79258L1.13561 1.95738C1.80586 2.24475 1.82392 2.26067 2.03697 2.75375C2.29968 3.36172 2.28112 3.35768 2.49021 2.85289C2.72875 2.277 2.77857 2.22586 3.29961 2.02147C3.84598 1.8071 3.84622 1.79374 3.30827 1.57879C2.75201 1.35641 2.75696 1.36112 2.54556 0.849974C2.30809 0.275897 2.2817 0.255441 2.16004 0.55147ZM11.4759 0.650202C6.22295 1.24267 1.82442 5.23564 0.782584 10.3575C-0.985011 19.0471 6.40713 26.6025 15.1651 25.0575L15.6 24.9808V24.3363C15.6 23.7645 15.6183 23.6607 15.7617 23.416L15.9234 23.1401L15.758 22.8964C15.6671 22.7625 15.5849 22.645 15.5753 22.6354C15.5657 22.6259 15.2972 22.6749 14.9785 22.7445C5.6459 24.7814 -0.944513 13.7 5.24875 6.38462C9.31719 1.57903 17.3148 1.81444 20.8518 6.84388C21.025 7.09 21.1414 7.1988 21.2063 7.17513C21.4529 7.08522 22.87 7.08093 23.3167 7.16886C23.8831 7.28029 23.8821 7.28499 23.4582 6.57185C21.0286 2.48387 16.2327 0.113737 11.4759 0.650202ZM11.6048 3.52256C7.03812 4.26829 3.42449 8.13918 3.42127 12.2886L3.42103 12.6247L4.10604 12.643C4.88764 12.6639 5.07546 12.7687 4.86636 13.0671C4.77456 13.1982 4.71493 13.2091 4.08443 13.2091H3.40197L3.43917 13.7729C3.72976 18.1797 7.51099 21.9887 11.9497 22.346L12.5714 22.3961V21.7048C12.5714 21.0653 12.582 21.0061 12.7134 20.9141C13.0142 20.7034 13.1167 20.8916 13.1372 21.693L13.1553 22.3967L13.7494 22.3468C14.0762 22.3194 14.6232 22.2347 14.965 22.1584L15.5865 22.02L15.6107 21.5922C15.6283 21.2796 15.6739 21.1097 15.7797 20.9611L15.9245 20.7576L15.7623 20.5185C15.6135 20.2991 15.6 20.2213 15.6 19.5763C15.6 18.2586 15.891 18.042 17.6614 18.042H18.7604L18.1887 17.4782C15.0537 14.3864 16.0265 9.08657 20.0091 7.55958C20.2599 7.4634 20.4768 7.3763 20.4909 7.36607C20.5488 7.32409 20.1172 6.7849 19.6307 6.29158C18.0611 4.69975 15.8438 3.65058 13.7325 3.50071L13.1559 3.4598L13.1375 4.1543C13.1166 4.94604 13.013 5.13394 12.7134 4.9241C12.5824 4.83238 12.5714 4.77234 12.5714 4.15174V3.47877L12.1687 3.48751C11.9471 3.49238 11.6934 3.50813 11.6048 3.52256ZM26.5236 4.87041C26.2329 5.55419 26.2315 5.55567 25.6998 5.76435C25.0929 6.00248 25.0923 5.97748 25.711 6.23747L26.2188 6.45077L26.419 6.89848C26.5291 7.14477 26.6192 7.37498 26.6192 7.41012C26.6192 7.59702 26.7549 7.42257 26.9079 7.03903C27.1305 6.48087 27.1765 6.43402 27.7158 6.21693C28.269 5.99423 28.2691 5.98837 27.7221 5.77375C27.1961 5.56738 27.1362 5.50758 26.9088 4.96089C26.8129 4.73052 26.7234 4.53025 26.7099 4.51598C26.6964 4.50171 26.6125 4.66115 26.5236 4.87041ZM13.3629 6.85386C14.0068 7.12943 14.0535 7.31997 14.0535 9.67343V11.6712L14.2133 11.8807C14.9564 12.8549 14.4035 14.3796 13.2301 14.5921C13.0231 14.6295 12.7206 14.904 11.0249 16.5928C9.94389 17.6693 8.97786 18.5807 8.87805 18.6182C8.01141 18.944 7.01156 18.0241 7.29019 17.1573C7.3499 16.9715 7.81304 16.4671 9.26102 15.011C11.0363 13.2258 11.1537 13.0933 11.1537 12.8765C11.1537 12.5766 11.308 12.1448 11.5094 11.8807L11.6693 11.6712L11.6703 9.62089C11.6713 7.61863 11.6748 7.56469 11.8153 7.31774C12.085 6.84388 12.8227 6.62274 13.3629 6.85386ZM12.419 7.47866L12.2492 7.6122V9.47292V11.3336L12.4494 11.2639C12.5644 11.2238 12.8247 11.2105 13.0616 11.2326L13.4736 11.271V9.44166V7.6122L13.3038 7.47866C13.1928 7.39131 13.0396 7.34512 12.8614 7.34512C12.6832 7.34512 12.53 7.39131 12.419 7.47866ZM21.2707 7.76405C16.4738 8.73338 15.2766 15.0891 19.394 17.7272L19.8852 18.042H22.3032H24.7212L25.1385 17.8016C26.1105 17.242 27.1123 15.9947 27.4816 14.8845C28.8096 10.8922 25.3602 6.93766 21.2707 7.76405ZM23.4119 8.9273C26.0801 9.61619 27.4188 12.6393 26.15 15.11C24.5297 18.265 19.9986 18.1892 18.4364 14.9812C16.8393 11.7015 19.8709 8.01298 23.4119 8.9273ZM21.7186 9.40768C18.7167 9.87848 17.5247 13.6024 19.6847 15.7614C22.0251 18.1007 26.0439 16.4726 26.0645 13.1769C26.0792 10.8104 24.0418 9.04327 21.7186 9.40768ZM22.5613 10.4415C22.5958 10.5059 22.624 10.6554 22.624 10.7737C22.624 10.9548 22.6608 11.0087 22.8571 11.1144C23.3125 11.3597 23.6211 12.0137 23.4181 12.3035C23.2268 12.5766 23.0214 12.459 22.8905 12.0012C22.69 11.2998 21.754 11.4292 21.754 12.1583C21.754 12.4983 21.9129 12.667 22.2902 12.7274C22.755 12.8019 22.8176 12.8267 23.0449 13.0263C23.723 13.6216 23.5582 14.7256 22.7531 14.9811C22.6485 15.0142 22.624 15.0784 22.624 15.3188C22.624 15.5044 22.5841 15.6595 22.5173 15.7332C22.2833 15.9917 22.044 15.7919 22.044 15.338C22.044 15.0693 22.0243 15.0224 21.8986 14.9909C21.4243 14.8718 20.9689 13.956 21.2648 13.7164C21.4648 13.5545 21.667 13.6723 21.7317 13.9884C21.8511 14.5724 22.6263 14.6875 22.8491 14.1544C23.0328 13.7147 22.7978 13.3862 22.2473 13.3131C21.0502 13.1544 20.7618 11.5336 21.8504 11.0827C22.0233 11.011 22.044 10.9728 22.044 10.724C22.044 10.3032 22.387 10.1159 22.5613 10.4415ZM12.328 11.9279C11.7737 12.2023 11.5759 12.8897 11.8835 13.4728C12.4134 14.4774 13.984 14.0837 13.988 12.9453C13.9911 12.0755 13.1148 11.5384 12.328 11.9279ZM9.5573 15.5477C7.61871 17.4909 7.6376 17.4626 8.00292 17.8787C8.44337 18.3803 8.47966 18.358 10.4905 16.352C12.4743 14.3731 12.3227 14.5668 12.0168 14.4021C11.8891 14.3333 11.6905 14.1671 11.5757 14.033C11.4609 13.8988 11.3545 13.7891 11.3393 13.7891C11.3241 13.7891 10.5223 14.5805 9.5573 15.5477ZM16.5022 18.6677C16.2202 18.7714 16.18 18.8794 16.18 19.5341C16.18 20.5965 15.5343 20.5002 22.506 20.4772L28.1554 20.4585L28.3216 20.3023C28.63 20.0125 28.562 18.8902 28.2255 18.7162C28.0422 18.6214 16.7552 18.5747 16.5022 18.6677ZM16.3089 21.1996C16.1973 21.3111 16.18 21.4144 16.18 21.9682C16.18 22.9862 15.4417 22.8801 22.3818 22.8599L28.2416 22.8427L28.3647 22.6906C28.5632 22.4455 28.545 21.4045 28.3388 21.2108L28.1896 21.0707H22.3137C16.5237 21.0707 16.4359 21.0726 16.3089 21.1996ZM2.54754 22.792C2.309 23.3679 2.25918 23.419 1.73814 23.6234C1.18939 23.8388 1.18963 23.8535 1.74647 24.0719C2.27527 24.2794 2.27939 24.2835 2.51397 24.8395C2.74022 25.3759 2.76199 25.3741 3.0016 24.7996L3.19816 24.3282L3.74048 24.0894L4.28272 23.8506L3.90017 23.6866C3.23222 23.4003 3.21375 23.384 3.00078 22.8911C2.73807 22.2832 2.75663 22.2872 2.54754 22.792ZM16.3498 23.5884C16.1037 23.7821 16.0887 24.8931 16.3292 25.1191L16.4783 25.2592H22.3249H28.1716L28.3298 25.1011C28.4744 24.9563 28.4879 24.8931 28.4879 24.3571C28.4879 23.821 28.4744 23.7579 28.3298 23.6131L28.1716 23.4549H22.3456C16.5492 23.4549 16.5187 23.4556 16.3498 23.5884Z" fill="url(#paint0_linear_131_5393)"/>
<defs>
<linearGradient id="paint0_linear_131_5393" x1="28.5193" y1="12.8113" x2="0.519287" y2="12.8113" gradientUnits="userSpaceOnUse">
<stop stop-color="#09D1C7"/>
<stop offset="1" stop-color="#15919B"/>
</linearGradient>
</defs>
</svg>
