<svg width="29" height="29" viewBox="0 0 29 29" fill="none" xmlns="http://www.w3.org/2000/svg">
<path fill-rule="evenodd" clip-rule="evenodd" d="M12.6785 0.940507C4.19729 2.09131 -1.25164 10.4156 1.04753 18.709C2.37049 23.481 6.21627 27.2041 11.0567 28.3989C12.1333 28.6647 14.0171 28.8949 13.9438 28.7517C13.5953 28.0716 13.5215 27.7086 13.5211 26.6725L13.5207 25.9505L12.9643 25.8764C11.0342 25.6194 9.03356 24.7377 7.45133 23.4469L7.02735 23.1011L7.74764 22.3716C8.55368 21.5551 8.65341 21.3193 8.32357 21.0093C7.99524 20.7007 7.78093 20.7934 6.97042 21.5941L6.24119 22.3146L5.89697 21.8905C4.50541 20.1759 3.59557 17.9698 3.43883 15.9304L3.39763 15.3933L4.44114 15.3722L5.48472 15.3512L5.63515 15.1761C5.83174 14.9472 5.8307 14.673 5.63244 14.4747C5.48193 14.3241 5.46149 14.3215 4.42198 14.3215H3.36466L3.38901 14.0875C3.66104 11.4732 4.41607 9.57052 5.90248 7.7539L6.24709 7.33265L6.97345 8.05022C7.77423 8.84144 8.03293 8.95343 8.34313 8.64304C8.65349 8.33265 8.54155 8.07395 7.74971 7.27202L7.0315 6.54462L7.42219 6.2288C9.26503 4.73934 11.2413 3.93414 13.661 3.68661L14.0197 3.64995V4.73798V5.82601L14.184 5.95532C14.3935 6.1201 14.644 6.1201 14.8534 5.95532L15.0178 5.82601V4.73846C15.0178 4.14037 15.0388 3.65123 15.0646 3.65155C17.1004 3.67383 19.9776 4.80635 21.6808 6.25588L22.0124 6.53807L21.291 7.26875C20.4957 8.07427 20.3837 8.33225 20.6943 8.64304C21.0053 8.95406 21.2628 8.842 22.0706 8.04375L22.8035 7.31971L23.1941 7.80981C24.6429 9.62755 25.6616 12.2475 25.6834 14.2123C25.6845 14.3121 25.5934 14.3215 24.6311 14.3215C23.4422 14.3215 23.3401 14.3547 23.2748 14.763C23.246 14.9427 23.2696 15.0216 23.3959 15.1686L23.5527 15.3512L24.6235 15.3709L25.6942 15.3907L25.6615 15.6205C25.6434 15.7469 25.6108 16.0188 25.589 16.2247C25.5519 16.5744 25.4086 17.3463 25.3387 17.573C25.3126 17.6573 25.3865 17.6786 25.8081 17.7074C26.6104 17.7624 27.4105 18.2311 27.7181 18.8263C27.8631 19.1065 27.9006 19.0465 28.1072 18.206C30.4588 8.63521 22.4035 -0.379071 12.6785 0.940507ZM14.1728 7.67298L14.0197 7.82618V10.3722V12.9182L13.7156 13.0578C13.3274 13.236 12.9345 13.629 12.7564 14.0174L12.6169 14.3215H10.3286H8.04027L7.911 14.4859C7.74628 14.6954 7.74628 14.946 7.911 15.1555L8.04027 15.3199H10.3286H12.6169L12.7626 15.6377C13.3171 16.8469 14.9725 17.133 15.8976 16.1794C16.8248 15.2237 16.5281 13.6093 15.3256 13.0656L15.0178 12.9265V10.3763V7.82618L14.8646 7.67298C14.7682 7.5765 14.6403 7.51987 14.5187 7.51987C14.3972 7.51987 14.2693 7.5765 14.1728 7.67298ZM19.0101 15.7936C18.3336 16.0863 18.1182 16.5322 18.086 17.7068C18.0721 18.213 18.0358 18.6271 18.0052 18.6271C17.9736 18.6271 17.9496 19.7261 17.9496 21.1756V23.7241L18.7844 23.9524C19.2435 24.0781 19.6365 24.1809 19.6577 24.1809C19.6789 24.1809 19.6963 24.0105 19.6963 23.8023C19.6963 23.1696 19.6739 23.1824 20.7776 23.1824C21.8959 23.1824 21.8796 23.1739 21.8796 23.7565C21.8796 23.9899 21.9006 24.1816 21.9263 24.1825C21.9521 24.1834 22.3451 24.0801 22.7996 23.9527L23.6262 23.7213V21.1742C23.6262 19.5178 23.6043 18.6271 23.5638 18.6271C23.5252 18.6271 23.5014 18.2937 23.5014 17.7516C23.5014 16.5692 23.3166 16.147 22.6666 15.8442C22.2606 15.6552 19.421 15.6159 19.0101 15.7936ZM22.3117 16.9195C22.4266 17.0658 22.441 17.1695 22.441 17.8556V18.6271H20.783H19.1249L19.1455 17.8103C19.1737 16.6877 19.0665 16.7552 20.8214 16.7552H22.1823L22.3117 16.9195ZM15.3681 18.719C14.6064 18.9906 14.4564 19.4171 14.4564 21.31V22.7221L15.626 23.0547C16.2693 23.2377 16.8447 23.4007 16.9048 23.4169C17.0074 23.4447 17.0139 23.3015 17.0139 21.0368V18.6271L16.3122 18.6299C15.8795 18.6316 15.5174 18.6658 15.3681 18.719ZM24.5618 21.0296C24.5618 22.3509 24.5808 23.432 24.6039 23.432C24.6371 23.432 26.5274 22.9114 27.0102 22.7693C27.1443 22.7299 27.1773 19.9422 27.0484 19.5569C26.8216 18.879 26.349 18.6287 25.2948 18.6278L24.5618 18.6271V21.0296ZM14.4681 25.7877L14.4875 27.8313L14.653 28.112C14.8362 28.4231 15.0653 28.6148 15.3858 28.7253C15.7917 28.8654 26.0293 28.8234 26.3441 28.6803C26.6449 28.5437 26.9731 28.1677 27.058 27.8624C27.1557 27.5112 27.1382 23.744 27.0389 23.744C26.9672 23.744 22.5838 24.9645 22.0857 25.1232C21.9087 25.1795 21.8842 25.2158 21.8674 25.4461C21.8483 25.7057 21.1338 26.2858 20.8175 26.2986C20.7434 26.3016 19.8943 25.8203 19.7627 25.7008C19.7478 25.6872 19.7197 25.5596 19.7003 25.4173L19.665 25.1584L17.1699 24.4526C15.7975 24.0644 14.6238 23.7462 14.5617 23.7454C14.4544 23.7441 14.4496 23.8487 14.4681 25.7877Z" fill="url(#paint0_linear_131_5369)"/>
<defs>
<linearGradient id="paint0_linear_131_5369" x1="28.5193" y1="14.8115" x2="0.519287" y2="14.8115" gradientUnits="userSpaceOnUse">
<stop stop-color="#09D1C7"/>
<stop offset="1" stop-color="#15919B"/>
</linearGradient>
</defs>
</svg>
